G75*
G70*
%OFA0B0*%
%FSLAX24Y24*%
%IPPOS*%
%LPD*%
%AMOC8*
5,1,8,0,0,1.08239X$1,22.5*
%
%ADD10C,0.0000*%
%ADD11C,0.0080*%
%ADD12C,0.1004*%
%ADD13OC8,0.0520*%
%ADD14C,0.0520*%
%ADD15C,0.0660*%
%ADD16R,0.1299X0.0787*%
%ADD17R,0.0984X0.0787*%
%ADD18R,0.1220X0.0197*%
%ADD19C,0.0520*%
%ADD20C,0.1000*%
%ADD21C,0.0740*%
%ADD22C,0.0760*%
%ADD23R,0.0600X0.0600*%
%ADD24OC8,0.0600*%
%ADD25C,0.0120*%
%ADD26C,0.0240*%
%ADD27C,0.0160*%
%ADD28C,0.0357*%
D10*
X002240Y000665D02*
X038460Y000665D01*
X037909Y002240D02*
X037911Y002287D01*
X037917Y002333D01*
X037927Y002379D01*
X037940Y002424D01*
X037958Y002467D01*
X037979Y002509D01*
X038003Y002549D01*
X038031Y002586D01*
X038062Y002621D01*
X038096Y002654D01*
X038132Y002683D01*
X038171Y002709D01*
X038212Y002732D01*
X038255Y002751D01*
X038299Y002767D01*
X038344Y002779D01*
X038390Y002787D01*
X038437Y002791D01*
X038483Y002791D01*
X038530Y002787D01*
X038576Y002779D01*
X038621Y002767D01*
X038665Y002751D01*
X038708Y002732D01*
X038749Y002709D01*
X038788Y002683D01*
X038824Y002654D01*
X038858Y002621D01*
X038889Y002586D01*
X038917Y002549D01*
X038941Y002509D01*
X038962Y002467D01*
X038980Y002424D01*
X038993Y002379D01*
X039003Y002333D01*
X039009Y002287D01*
X039011Y002240D01*
X039009Y002193D01*
X039003Y002147D01*
X038993Y002101D01*
X038980Y002056D01*
X038962Y002013D01*
X038941Y001971D01*
X038917Y001931D01*
X038889Y001894D01*
X038858Y001859D01*
X038824Y001826D01*
X038788Y001797D01*
X038749Y001771D01*
X038708Y001748D01*
X038665Y001729D01*
X038621Y001713D01*
X038576Y001701D01*
X038530Y001693D01*
X038483Y001689D01*
X038437Y001689D01*
X038390Y001693D01*
X038344Y001701D01*
X038299Y001713D01*
X038255Y001729D01*
X038212Y001748D01*
X038171Y001771D01*
X038132Y001797D01*
X038096Y001826D01*
X038062Y001859D01*
X038031Y001894D01*
X038003Y001931D01*
X037979Y001971D01*
X037958Y002013D01*
X037940Y002056D01*
X037927Y002101D01*
X037917Y002147D01*
X037911Y002193D01*
X037909Y002240D01*
X038460Y000665D02*
X038537Y000667D01*
X038614Y000673D01*
X038691Y000682D01*
X038767Y000695D01*
X038843Y000712D01*
X038917Y000733D01*
X038991Y000757D01*
X039063Y000785D01*
X039133Y000816D01*
X039202Y000851D01*
X039270Y000889D01*
X039335Y000930D01*
X039398Y000975D01*
X039459Y001023D01*
X039518Y001073D01*
X039574Y001126D01*
X039627Y001182D01*
X039677Y001241D01*
X039725Y001302D01*
X039770Y001365D01*
X039811Y001430D01*
X039849Y001498D01*
X039884Y001567D01*
X039915Y001637D01*
X039943Y001709D01*
X039967Y001783D01*
X039988Y001857D01*
X040005Y001933D01*
X040018Y002009D01*
X040027Y002086D01*
X040033Y002163D01*
X040035Y002240D01*
X040035Y018775D01*
X037909Y018775D02*
X037911Y018822D01*
X037917Y018868D01*
X037927Y018914D01*
X037940Y018959D01*
X037958Y019002D01*
X037979Y019044D01*
X038003Y019084D01*
X038031Y019121D01*
X038062Y019156D01*
X038096Y019189D01*
X038132Y019218D01*
X038171Y019244D01*
X038212Y019267D01*
X038255Y019286D01*
X038299Y019302D01*
X038344Y019314D01*
X038390Y019322D01*
X038437Y019326D01*
X038483Y019326D01*
X038530Y019322D01*
X038576Y019314D01*
X038621Y019302D01*
X038665Y019286D01*
X038708Y019267D01*
X038749Y019244D01*
X038788Y019218D01*
X038824Y019189D01*
X038858Y019156D01*
X038889Y019121D01*
X038917Y019084D01*
X038941Y019044D01*
X038962Y019002D01*
X038980Y018959D01*
X038993Y018914D01*
X039003Y018868D01*
X039009Y018822D01*
X039011Y018775D01*
X039009Y018728D01*
X039003Y018682D01*
X038993Y018636D01*
X038980Y018591D01*
X038962Y018548D01*
X038941Y018506D01*
X038917Y018466D01*
X038889Y018429D01*
X038858Y018394D01*
X038824Y018361D01*
X038788Y018332D01*
X038749Y018306D01*
X038708Y018283D01*
X038665Y018264D01*
X038621Y018248D01*
X038576Y018236D01*
X038530Y018228D01*
X038483Y018224D01*
X038437Y018224D01*
X038390Y018228D01*
X038344Y018236D01*
X038299Y018248D01*
X038255Y018264D01*
X038212Y018283D01*
X038171Y018306D01*
X038132Y018332D01*
X038096Y018361D01*
X038062Y018394D01*
X038031Y018429D01*
X038003Y018466D01*
X037979Y018506D01*
X037958Y018548D01*
X037940Y018591D01*
X037927Y018636D01*
X037917Y018682D01*
X037911Y018728D01*
X037909Y018775D01*
X038460Y020350D02*
X038537Y020348D01*
X038614Y020342D01*
X038691Y020333D01*
X038767Y020320D01*
X038843Y020303D01*
X038917Y020282D01*
X038991Y020258D01*
X039063Y020230D01*
X039133Y020199D01*
X039202Y020164D01*
X039270Y020126D01*
X039335Y020085D01*
X039398Y020040D01*
X039459Y019992D01*
X039518Y019942D01*
X039574Y019889D01*
X039627Y019833D01*
X039677Y019774D01*
X039725Y019713D01*
X039770Y019650D01*
X039811Y019585D01*
X039849Y019517D01*
X039884Y019448D01*
X039915Y019378D01*
X039943Y019306D01*
X039967Y019232D01*
X039988Y019158D01*
X040005Y019082D01*
X040018Y019006D01*
X040027Y018929D01*
X040033Y018852D01*
X040035Y018775D01*
X038460Y020350D02*
X002240Y020350D01*
X001689Y018775D02*
X001691Y018822D01*
X001697Y018868D01*
X001707Y018914D01*
X001720Y018959D01*
X001738Y019002D01*
X001759Y019044D01*
X001783Y019084D01*
X001811Y019121D01*
X001842Y019156D01*
X001876Y019189D01*
X001912Y019218D01*
X001951Y019244D01*
X001992Y019267D01*
X002035Y019286D01*
X002079Y019302D01*
X002124Y019314D01*
X002170Y019322D01*
X002217Y019326D01*
X002263Y019326D01*
X002310Y019322D01*
X002356Y019314D01*
X002401Y019302D01*
X002445Y019286D01*
X002488Y019267D01*
X002529Y019244D01*
X002568Y019218D01*
X002604Y019189D01*
X002638Y019156D01*
X002669Y019121D01*
X002697Y019084D01*
X002721Y019044D01*
X002742Y019002D01*
X002760Y018959D01*
X002773Y018914D01*
X002783Y018868D01*
X002789Y018822D01*
X002791Y018775D01*
X002789Y018728D01*
X002783Y018682D01*
X002773Y018636D01*
X002760Y018591D01*
X002742Y018548D01*
X002721Y018506D01*
X002697Y018466D01*
X002669Y018429D01*
X002638Y018394D01*
X002604Y018361D01*
X002568Y018332D01*
X002529Y018306D01*
X002488Y018283D01*
X002445Y018264D01*
X002401Y018248D01*
X002356Y018236D01*
X002310Y018228D01*
X002263Y018224D01*
X002217Y018224D01*
X002170Y018228D01*
X002124Y018236D01*
X002079Y018248D01*
X002035Y018264D01*
X001992Y018283D01*
X001951Y018306D01*
X001912Y018332D01*
X001876Y018361D01*
X001842Y018394D01*
X001811Y018429D01*
X001783Y018466D01*
X001759Y018506D01*
X001738Y018548D01*
X001720Y018591D01*
X001707Y018636D01*
X001697Y018682D01*
X001691Y018728D01*
X001689Y018775D01*
X000665Y018775D02*
X000667Y018852D01*
X000673Y018929D01*
X000682Y019006D01*
X000695Y019082D01*
X000712Y019158D01*
X000733Y019232D01*
X000757Y019306D01*
X000785Y019378D01*
X000816Y019448D01*
X000851Y019517D01*
X000889Y019585D01*
X000930Y019650D01*
X000975Y019713D01*
X001023Y019774D01*
X001073Y019833D01*
X001126Y019889D01*
X001182Y019942D01*
X001241Y019992D01*
X001302Y020040D01*
X001365Y020085D01*
X001430Y020126D01*
X001498Y020164D01*
X001567Y020199D01*
X001637Y020230D01*
X001709Y020258D01*
X001783Y020282D01*
X001857Y020303D01*
X001933Y020320D01*
X002009Y020333D01*
X002086Y020342D01*
X002163Y020348D01*
X002240Y020350D01*
X000665Y018775D02*
X000665Y002240D01*
X001689Y002240D02*
X001691Y002287D01*
X001697Y002333D01*
X001707Y002379D01*
X001720Y002424D01*
X001738Y002467D01*
X001759Y002509D01*
X001783Y002549D01*
X001811Y002586D01*
X001842Y002621D01*
X001876Y002654D01*
X001912Y002683D01*
X001951Y002709D01*
X001992Y002732D01*
X002035Y002751D01*
X002079Y002767D01*
X002124Y002779D01*
X002170Y002787D01*
X002217Y002791D01*
X002263Y002791D01*
X002310Y002787D01*
X002356Y002779D01*
X002401Y002767D01*
X002445Y002751D01*
X002488Y002732D01*
X002529Y002709D01*
X002568Y002683D01*
X002604Y002654D01*
X002638Y002621D01*
X002669Y002586D01*
X002697Y002549D01*
X002721Y002509D01*
X002742Y002467D01*
X002760Y002424D01*
X002773Y002379D01*
X002783Y002333D01*
X002789Y002287D01*
X002791Y002240D01*
X002789Y002193D01*
X002783Y002147D01*
X002773Y002101D01*
X002760Y002056D01*
X002742Y002013D01*
X002721Y001971D01*
X002697Y001931D01*
X002669Y001894D01*
X002638Y001859D01*
X002604Y001826D01*
X002568Y001797D01*
X002529Y001771D01*
X002488Y001748D01*
X002445Y001729D01*
X002401Y001713D01*
X002356Y001701D01*
X002310Y001693D01*
X002263Y001689D01*
X002217Y001689D01*
X002170Y001693D01*
X002124Y001701D01*
X002079Y001713D01*
X002035Y001729D01*
X001992Y001748D01*
X001951Y001771D01*
X001912Y001797D01*
X001876Y001826D01*
X001842Y001859D01*
X001811Y001894D01*
X001783Y001931D01*
X001759Y001971D01*
X001738Y002013D01*
X001720Y002056D01*
X001707Y002101D01*
X001697Y002147D01*
X001691Y002193D01*
X001689Y002240D01*
X000665Y002240D02*
X000667Y002163D01*
X000673Y002086D01*
X000682Y002009D01*
X000695Y001933D01*
X000712Y001857D01*
X000733Y001783D01*
X000757Y001709D01*
X000785Y001637D01*
X000816Y001567D01*
X000851Y001498D01*
X000889Y001430D01*
X000930Y001365D01*
X000975Y001302D01*
X001023Y001241D01*
X001073Y001182D01*
X001126Y001126D01*
X001182Y001073D01*
X001241Y001023D01*
X001302Y000975D01*
X001365Y000930D01*
X001430Y000889D01*
X001498Y000851D01*
X001567Y000816D01*
X001637Y000785D01*
X001709Y000757D01*
X001783Y000733D01*
X001857Y000712D01*
X001933Y000695D01*
X002009Y000682D01*
X002086Y000673D01*
X002163Y000667D01*
X002240Y000665D01*
X002355Y013799D02*
X002357Y013825D01*
X002363Y013851D01*
X002373Y013876D01*
X002386Y013899D01*
X002402Y013919D01*
X002422Y013937D01*
X002444Y013952D01*
X002467Y013964D01*
X002493Y013972D01*
X002519Y013976D01*
X002545Y013976D01*
X002571Y013972D01*
X002597Y013964D01*
X002621Y013952D01*
X002642Y013937D01*
X002662Y013919D01*
X002678Y013899D01*
X002691Y013876D01*
X002701Y013851D01*
X002707Y013825D01*
X002709Y013799D01*
X002707Y013773D01*
X002701Y013747D01*
X002691Y013722D01*
X002678Y013699D01*
X002662Y013679D01*
X002642Y013661D01*
X002620Y013646D01*
X002597Y013634D01*
X002571Y013626D01*
X002545Y013622D01*
X002519Y013622D01*
X002493Y013626D01*
X002467Y013634D01*
X002443Y013646D01*
X002422Y013661D01*
X002402Y013679D01*
X002386Y013699D01*
X002373Y013722D01*
X002363Y013747D01*
X002357Y013773D01*
X002355Y013799D01*
X002355Y015531D02*
X002357Y015557D01*
X002363Y015583D01*
X002373Y015608D01*
X002386Y015631D01*
X002402Y015651D01*
X002422Y015669D01*
X002444Y015684D01*
X002467Y015696D01*
X002493Y015704D01*
X002519Y015708D01*
X002545Y015708D01*
X002571Y015704D01*
X002597Y015696D01*
X002621Y015684D01*
X002642Y015669D01*
X002662Y015651D01*
X002678Y015631D01*
X002691Y015608D01*
X002701Y015583D01*
X002707Y015557D01*
X002709Y015531D01*
X002707Y015505D01*
X002701Y015479D01*
X002691Y015454D01*
X002678Y015431D01*
X002662Y015411D01*
X002642Y015393D01*
X002620Y015378D01*
X002597Y015366D01*
X002571Y015358D01*
X002545Y015354D01*
X002519Y015354D01*
X002493Y015358D01*
X002467Y015366D01*
X002443Y015378D01*
X002422Y015393D01*
X002402Y015411D01*
X002386Y015431D01*
X002373Y015454D01*
X002363Y015479D01*
X002357Y015505D01*
X002355Y015531D01*
D11*
X032705Y004775D02*
X032705Y004455D01*
X032919Y004455D01*
X033074Y004455D02*
X033074Y004669D01*
X033180Y004669D02*
X033074Y004562D01*
X033180Y004669D02*
X033234Y004669D01*
X033380Y004669D02*
X033434Y004669D01*
X033487Y004615D01*
X033541Y004669D01*
X033594Y004615D01*
X033594Y004455D01*
X033487Y004455D02*
X033487Y004615D01*
X033380Y004669D02*
X033380Y004455D01*
X033749Y004348D02*
X033855Y004455D01*
X033802Y004455D01*
X033802Y004509D01*
X033855Y004509D01*
X033855Y004455D01*
X034363Y004455D02*
X034523Y004455D01*
X034576Y004509D01*
X034523Y004562D01*
X034416Y004562D01*
X034363Y004615D01*
X034416Y004669D01*
X034576Y004669D01*
X034731Y004615D02*
X034731Y004509D01*
X034784Y004455D01*
X034891Y004455D01*
X034944Y004509D01*
X034944Y004615D01*
X034891Y004669D01*
X034784Y004669D01*
X034731Y004615D01*
X035099Y004509D02*
X035152Y004509D01*
X035152Y004455D01*
X035099Y004455D01*
X035099Y004509D01*
X035283Y004509D02*
X035337Y004509D01*
X035337Y004455D01*
X035283Y004455D01*
X035283Y004509D01*
X035467Y004509D02*
X035521Y004509D01*
X035521Y004455D01*
X035467Y004455D01*
X035467Y004509D01*
X032919Y004775D02*
X032705Y004775D01*
X032705Y004615D02*
X032812Y004615D01*
D12*
X030953Y016555D03*
X030953Y018720D03*
X030165Y019665D03*
X026953Y018720D03*
X026165Y019665D03*
X022953Y018720D03*
X022165Y019665D03*
X018953Y018720D03*
X018165Y019665D03*
X014953Y018720D03*
X014165Y019665D03*
X010953Y018720D03*
X010165Y019665D03*
X006953Y018720D03*
X006165Y019665D03*
X006953Y016555D03*
X010953Y016555D03*
X014953Y016555D03*
X018953Y016555D03*
X022953Y016555D03*
X026953Y016555D03*
X034165Y019665D03*
X034953Y018720D03*
X034953Y016555D03*
D13*
X035415Y014165D03*
X034165Y014165D03*
X032915Y014165D03*
X031415Y014165D03*
X030165Y014165D03*
X028915Y014165D03*
X027415Y014165D03*
X026165Y014165D03*
X024915Y014165D03*
X023415Y014165D03*
X022165Y014165D03*
X020915Y014165D03*
X019415Y014165D03*
X018165Y014165D03*
X016915Y014165D03*
X015415Y014165D03*
X014165Y014165D03*
X012915Y014165D03*
X011415Y014165D03*
X010165Y014165D03*
X008915Y014165D03*
X007665Y014165D03*
X006415Y014165D03*
X005165Y014165D03*
X005165Y011165D03*
X006415Y011165D03*
X007665Y011165D03*
X008915Y011165D03*
X010165Y011165D03*
X011415Y011165D03*
X012915Y011165D03*
X014165Y011165D03*
X015415Y011165D03*
X016915Y011165D03*
X018165Y011165D03*
X019415Y011165D03*
X020915Y011165D03*
X022165Y011165D03*
X023415Y011165D03*
X024915Y011165D03*
X026165Y011165D03*
X027415Y011165D03*
X028915Y011165D03*
X030165Y011165D03*
X031415Y011165D03*
X032915Y011165D03*
X034165Y011165D03*
X035415Y011165D03*
X036415Y010165D03*
X035665Y009665D03*
X036415Y009165D03*
X034665Y009665D03*
X033665Y009665D03*
X032415Y009165D03*
X031665Y009665D03*
X032415Y010165D03*
X030665Y009665D03*
X029665Y009665D03*
X028415Y009165D03*
X027665Y009665D03*
X028415Y010165D03*
X026665Y009665D03*
X025665Y009665D03*
X024415Y009165D03*
X023665Y009665D03*
X024415Y010165D03*
X022665Y009665D03*
X021665Y009665D03*
X020415Y009165D03*
X019665Y009665D03*
X020415Y010165D03*
X018665Y009665D03*
X017665Y009665D03*
X016415Y009165D03*
X015665Y009665D03*
X016415Y010165D03*
X014665Y009665D03*
X013665Y009665D03*
X012415Y009165D03*
X011665Y009665D03*
X012415Y010165D03*
X010665Y009665D03*
X009665Y009665D03*
X008415Y009165D03*
X007665Y009665D03*
X008415Y010165D03*
X006665Y009665D03*
X005665Y009665D03*
X002765Y010665D03*
X005915Y006165D03*
X005665Y004665D03*
X006665Y004665D03*
X008915Y006165D03*
X009915Y006165D03*
X009665Y004665D03*
X010665Y004665D03*
X012915Y006165D03*
X008665Y002665D03*
X005665Y002665D03*
X021665Y007665D03*
X022665Y007665D03*
X028915Y005165D03*
X028915Y004165D03*
X030165Y003165D03*
X031165Y003165D03*
X031165Y006165D03*
X030165Y006165D03*
D14*
X027165Y006425D02*
X027165Y005905D01*
X026165Y005905D02*
X026165Y006425D01*
X025165Y006425D02*
X025165Y005905D01*
X024165Y005905D02*
X024165Y006425D01*
X023165Y006425D02*
X023165Y005905D01*
X022165Y005905D02*
X022165Y006425D01*
X021165Y006425D02*
X021165Y005905D01*
X020165Y005905D02*
X020165Y006425D01*
X019165Y006425D02*
X019165Y005905D01*
X018165Y005905D02*
X018165Y006425D01*
X017165Y006425D02*
X017165Y005905D01*
X016165Y005905D02*
X016165Y006425D01*
X015165Y006425D02*
X015165Y005905D01*
X014165Y005905D02*
X014165Y006425D01*
X014165Y003425D02*
X014165Y002905D01*
X015165Y002905D02*
X015165Y003425D01*
X016165Y003425D02*
X016165Y002905D01*
X017165Y002905D02*
X017165Y003425D01*
X018165Y003425D02*
X018165Y002905D01*
X019165Y002905D02*
X019165Y003425D01*
X020165Y003425D02*
X020165Y002905D01*
X021165Y002905D02*
X021165Y003425D01*
X022165Y003425D02*
X022165Y002905D01*
X023165Y002905D02*
X023165Y003425D01*
X024165Y003425D02*
X024165Y002905D01*
X025165Y002905D02*
X025165Y003425D01*
X026165Y003425D02*
X026165Y002905D01*
X027165Y002905D02*
X027165Y003425D01*
X023665Y002175D02*
X023665Y001655D01*
X022665Y001655D02*
X022665Y002175D01*
X021665Y002175D02*
X021665Y001655D01*
X020665Y001655D02*
X020665Y002175D01*
X019665Y002175D02*
X019665Y001655D01*
X018665Y001655D02*
X018665Y002175D01*
X017665Y002175D02*
X017665Y001655D01*
X016665Y001655D02*
X016665Y002175D01*
X015665Y002175D02*
X015665Y001655D01*
X014665Y001655D02*
X014665Y002175D01*
X033185Y003225D02*
X033185Y003745D01*
X034165Y003745D02*
X034165Y003225D01*
X035145Y003225D02*
X035145Y003745D01*
X035145Y005585D02*
X035145Y006105D01*
X034165Y006105D02*
X034165Y005585D01*
X033185Y005585D02*
X033185Y006105D01*
D15*
X039165Y008165D03*
X039165Y009165D03*
X039165Y010165D03*
X039165Y011165D03*
X039165Y012165D03*
X039165Y013165D03*
X030165Y001915D03*
X029165Y001915D03*
X028165Y001915D03*
X027165Y001915D03*
X026165Y001915D03*
X025165Y001915D03*
D16*
X003674Y012913D03*
X003674Y016417D03*
D17*
X001351Y016417D03*
X001351Y012913D03*
D18*
X003674Y014035D03*
X003674Y014350D03*
X003674Y014665D03*
X003674Y014980D03*
X003674Y015295D03*
D19*
X003565Y010665D03*
D20*
X004149Y006915D03*
X002181Y006915D03*
D21*
X017665Y007665D03*
X018665Y007665D03*
X019665Y007665D03*
D22*
X036665Y012665D03*
X036665Y016665D03*
D23*
X012165Y002665D03*
D24*
X011165Y002665D03*
X010165Y002665D03*
X010165Y001665D03*
X011165Y001665D03*
X012165Y001665D03*
D25*
X012165Y000915D01*
X014665Y000915D01*
X019165Y000915D01*
X023665Y000915D01*
X027915Y000915D01*
X028165Y001165D01*
X028165Y001915D01*
X028165Y002165D01*
X028665Y002665D01*
X029665Y002665D01*
X030165Y003165D01*
X031165Y003165D01*
X031605Y003155D02*
X032745Y003155D01*
X032745Y003138D02*
X032812Y002976D01*
X032936Y002852D01*
X033098Y002785D01*
X033273Y002785D01*
X033434Y002852D01*
X033558Y002976D01*
X033625Y003138D01*
X033625Y003833D01*
X033558Y003994D01*
X033434Y004118D01*
X033273Y004185D01*
X033098Y004185D01*
X032936Y004118D01*
X032812Y003994D01*
X032745Y003833D01*
X032745Y003138D01*
X032787Y003036D02*
X031605Y003036D01*
X031605Y002983D02*
X031605Y003347D01*
X031347Y003605D01*
X030983Y003605D01*
X030783Y003405D01*
X030547Y003405D01*
X030347Y003605D01*
X029983Y003605D01*
X029725Y003347D01*
X029725Y003065D01*
X029566Y002905D01*
X028713Y002905D01*
X028617Y002905D01*
X028529Y002869D01*
X028086Y002425D01*
X028064Y002425D01*
X027876Y002348D01*
X027733Y002204D01*
X027665Y002041D01*
X027598Y002204D01*
X027454Y002348D01*
X027267Y002425D01*
X027064Y002425D01*
X026876Y002348D01*
X026733Y002204D01*
X026665Y002041D01*
X026598Y002204D01*
X026454Y002348D01*
X026267Y002425D01*
X026064Y002425D01*
X025901Y002358D01*
X025905Y002367D01*
X025905Y002543D01*
X025916Y002532D01*
X026078Y002465D01*
X026253Y002465D01*
X026414Y002532D01*
X026538Y002656D01*
X026605Y002818D01*
X026605Y003513D01*
X026538Y003674D01*
X026537Y003675D01*
X026793Y003675D01*
X026792Y003674D01*
X026725Y003513D01*
X026725Y002818D01*
X026792Y002656D01*
X026916Y002532D01*
X027078Y002465D01*
X027253Y002465D01*
X027414Y002532D01*
X027538Y002656D01*
X027605Y002818D01*
X027605Y003513D01*
X027538Y003674D01*
X027537Y003675D01*
X028617Y003675D01*
X028713Y003675D01*
X028801Y003712D01*
X028815Y003725D01*
X029097Y003725D01*
X029355Y003983D01*
X029355Y004347D01*
X029277Y004425D01*
X030617Y004425D01*
X030713Y004425D01*
X030801Y004462D01*
X031301Y004962D01*
X031369Y005029D01*
X031405Y005117D01*
X031405Y005783D01*
X031605Y005983D01*
X031605Y006347D01*
X031347Y006605D01*
X030983Y006605D01*
X030725Y006347D01*
X030725Y005983D01*
X030925Y005783D01*
X030925Y005265D01*
X030566Y004905D01*
X029277Y004905D01*
X029355Y004983D01*
X029355Y005347D01*
X029097Y005605D01*
X028733Y005605D01*
X028475Y005347D01*
X028475Y004983D01*
X028553Y004905D01*
X025117Y004905D01*
X025029Y004869D01*
X024962Y004801D01*
X023989Y003828D01*
X023916Y003798D01*
X023792Y003674D01*
X023725Y003513D01*
X023725Y002818D01*
X023792Y002656D01*
X023890Y002558D01*
X023753Y002615D01*
X023578Y002615D01*
X023441Y002558D01*
X023538Y002656D01*
X023605Y002818D01*
X023605Y003513D01*
X023538Y003674D01*
X023414Y003798D01*
X023253Y003865D01*
X023078Y003865D01*
X022916Y003798D01*
X022792Y003674D01*
X022725Y003513D01*
X022725Y002818D01*
X022792Y002656D01*
X022890Y002558D01*
X022753Y002615D01*
X022578Y002615D01*
X022441Y002558D01*
X022538Y002656D01*
X022605Y002818D01*
X022605Y003513D01*
X022538Y003674D01*
X022414Y003798D01*
X022253Y003865D01*
X022078Y003865D01*
X021916Y003798D01*
X021792Y003674D01*
X021725Y003513D01*
X021725Y002818D01*
X021792Y002656D01*
X021890Y002558D01*
X021753Y002615D01*
X021578Y002615D01*
X021416Y002548D01*
X021292Y002424D01*
X021225Y002263D01*
X021225Y001568D01*
X021292Y001406D01*
X021293Y001405D01*
X021037Y001405D01*
X021038Y001406D01*
X021105Y001568D01*
X021105Y002263D01*
X021038Y002424D01*
X020914Y002548D01*
X020753Y002615D01*
X020578Y002615D01*
X020441Y002558D01*
X020538Y002656D01*
X020605Y002818D01*
X020605Y003513D01*
X020538Y003674D01*
X020414Y003798D01*
X020253Y003865D01*
X020078Y003865D01*
X019916Y003798D01*
X019792Y003674D01*
X019725Y003513D01*
X019725Y002818D01*
X019792Y002656D01*
X019890Y002558D01*
X019753Y002615D01*
X019578Y002615D01*
X019441Y002558D01*
X019538Y002656D01*
X019605Y002818D01*
X019605Y003513D01*
X019538Y003674D01*
X019414Y003798D01*
X019253Y003865D01*
X019078Y003865D01*
X018916Y003798D01*
X018792Y003674D01*
X018725Y003513D01*
X018725Y002818D01*
X018792Y002656D01*
X018890Y002558D01*
X018753Y002615D01*
X018578Y002615D01*
X018441Y002558D01*
X018538Y002656D01*
X018605Y002818D01*
X018605Y003513D01*
X018538Y003674D01*
X018414Y003798D01*
X018405Y003802D01*
X018405Y003838D01*
X018369Y003926D01*
X017744Y004551D01*
X017676Y004619D01*
X017588Y004655D01*
X012463Y004655D01*
X012367Y004655D01*
X012279Y004619D01*
X011029Y003369D01*
X010962Y003301D01*
X010925Y003213D01*
X010925Y003104D01*
X010685Y002864D01*
X010685Y002485D01*
X010645Y002525D01*
X010645Y002864D01*
X010364Y003145D01*
X009966Y003145D01*
X009685Y002864D01*
X009685Y002466D01*
X009966Y002185D01*
X010306Y002185D01*
X010425Y002066D01*
X010425Y002056D01*
X010356Y002125D01*
X010205Y002125D01*
X010205Y001705D01*
X010125Y001705D01*
X010125Y001625D01*
X010205Y001625D01*
X010205Y001205D01*
X010312Y001205D01*
X010333Y001155D01*
X008015Y001155D01*
X007405Y001765D01*
X007405Y003213D01*
X007369Y003301D01*
X007301Y003369D01*
X006105Y004565D01*
X006105Y004847D01*
X005847Y005105D01*
X005483Y005105D01*
X005225Y004847D01*
X005225Y004483D01*
X005483Y004225D01*
X005766Y004225D01*
X006925Y003066D01*
X006925Y001713D01*
X006925Y001617D01*
X006962Y001529D01*
X007646Y000845D01*
X002949Y000845D01*
X003225Y001005D01*
X003545Y001350D01*
X003750Y001774D01*
X003750Y001774D01*
X003820Y002240D01*
X003750Y002706D01*
X003545Y003130D01*
X003225Y003475D01*
X002817Y003711D01*
X002358Y003816D01*
X001888Y003780D01*
X001450Y003608D01*
X001082Y003315D01*
X001082Y003315D01*
X001082Y003315D01*
X000845Y002968D01*
X000845Y012360D01*
X001291Y012360D01*
X001291Y012853D01*
X001411Y012853D01*
X001411Y012360D01*
X001864Y012360D01*
X001905Y012370D01*
X001942Y012391D01*
X001971Y012421D01*
X001992Y012458D01*
X002003Y012498D01*
X002003Y012853D01*
X001411Y012853D01*
X001411Y012973D01*
X001291Y012973D01*
X001291Y013467D01*
X000845Y013467D01*
X000845Y015863D01*
X001291Y015863D01*
X001291Y016357D01*
X001411Y016357D01*
X001411Y015863D01*
X001864Y015863D01*
X001905Y015874D01*
X001942Y015895D01*
X001971Y015925D01*
X001992Y015962D01*
X002003Y016002D01*
X002003Y016357D01*
X001411Y016357D01*
X001411Y016477D01*
X001291Y016477D01*
X001291Y016971D01*
X000845Y016971D01*
X000845Y018048D01*
X001082Y017701D01*
X001450Y017407D01*
X001888Y017235D01*
X001888Y017235D01*
X002358Y017200D01*
X002817Y017305D01*
X003225Y017540D01*
X003225Y017540D01*
X003225Y017540D01*
X003545Y017885D01*
X003750Y018310D01*
X003820Y018775D01*
X003750Y019241D01*
X003750Y019241D01*
X003545Y019665D01*
X003545Y019665D01*
X003225Y020011D01*
X002949Y020170D01*
X005736Y020170D01*
X005728Y020164D01*
X005666Y020103D01*
X005614Y020034D01*
X005570Y019959D01*
X005537Y019878D01*
X005515Y019795D01*
X005505Y019725D01*
X006105Y019725D01*
X006105Y019605D01*
X006225Y019605D01*
X006225Y019005D01*
X006295Y019015D01*
X006342Y019027D01*
X006271Y018856D01*
X006271Y018585D01*
X006374Y018334D01*
X006566Y018142D01*
X006817Y018038D01*
X007088Y018038D01*
X007339Y018142D01*
X007531Y018334D01*
X007635Y018585D01*
X007635Y018856D01*
X007531Y019107D01*
X007339Y019298D01*
X007088Y019402D01*
X006817Y019402D01*
X006764Y019380D01*
X006793Y019452D01*
X006816Y019536D01*
X006825Y019605D01*
X006225Y019605D01*
X006225Y019725D01*
X006825Y019725D01*
X006816Y019795D01*
X006793Y019878D01*
X006760Y019959D01*
X006717Y020034D01*
X006664Y020103D01*
X006603Y020164D01*
X006594Y020170D01*
X009736Y020170D01*
X009728Y020164D01*
X009666Y020103D01*
X009614Y020034D01*
X009570Y019959D01*
X009537Y019878D01*
X009515Y019795D01*
X009505Y019725D01*
X010105Y019725D01*
X010105Y019605D01*
X010225Y019605D01*
X010225Y019005D01*
X010295Y019015D01*
X010342Y019027D01*
X010271Y018856D01*
X010271Y018585D01*
X010374Y018334D01*
X010566Y018142D01*
X010817Y018038D01*
X011088Y018038D01*
X011339Y018142D01*
X011531Y018334D01*
X011635Y018585D01*
X011635Y018856D01*
X011531Y019107D01*
X011339Y019298D01*
X011088Y019402D01*
X010817Y019402D01*
X010764Y019380D01*
X010793Y019452D01*
X010816Y019536D01*
X010825Y019605D01*
X010225Y019605D01*
X010225Y019725D01*
X010825Y019725D01*
X010816Y019795D01*
X010793Y019878D01*
X010760Y019959D01*
X010717Y020034D01*
X010664Y020103D01*
X010603Y020164D01*
X010594Y020170D01*
X013736Y020170D01*
X013728Y020164D01*
X013666Y020103D01*
X013614Y020034D01*
X013570Y019959D01*
X013537Y019878D01*
X013515Y019795D01*
X013505Y019725D01*
X014105Y019725D01*
X014105Y019605D01*
X014225Y019605D01*
X014225Y019005D01*
X014295Y019015D01*
X014342Y019027D01*
X014271Y018856D01*
X014271Y018585D01*
X014374Y018334D01*
X014566Y018142D01*
X014817Y018038D01*
X015088Y018038D01*
X015339Y018142D01*
X015531Y018334D01*
X015635Y018585D01*
X015635Y018856D01*
X015531Y019107D01*
X015339Y019298D01*
X015088Y019402D01*
X014817Y019402D01*
X014764Y019380D01*
X014793Y019452D01*
X014816Y019536D01*
X014825Y019605D01*
X014225Y019605D01*
X014225Y019725D01*
X014825Y019725D01*
X014816Y019795D01*
X014793Y019878D01*
X014760Y019959D01*
X014717Y020034D01*
X014664Y020103D01*
X014603Y020164D01*
X014594Y020170D01*
X017736Y020170D01*
X017728Y020164D01*
X017666Y020103D01*
X017614Y020034D01*
X017570Y019959D01*
X017537Y019878D01*
X017515Y019795D01*
X017505Y019725D01*
X018105Y019725D01*
X018105Y019605D01*
X018225Y019605D01*
X018225Y019005D01*
X018295Y019015D01*
X018342Y019027D01*
X018271Y018856D01*
X018271Y018585D01*
X018374Y018334D01*
X018566Y018142D01*
X018817Y018038D01*
X019088Y018038D01*
X019339Y018142D01*
X019531Y018334D01*
X019635Y018585D01*
X019635Y018856D01*
X019531Y019107D01*
X019339Y019298D01*
X019088Y019402D01*
X018817Y019402D01*
X018764Y019380D01*
X018793Y019452D01*
X018816Y019536D01*
X018825Y019605D01*
X018225Y019605D01*
X018225Y019725D01*
X018825Y019725D01*
X018816Y019795D01*
X018793Y019878D01*
X018760Y019959D01*
X018717Y020034D01*
X018664Y020103D01*
X018603Y020164D01*
X018594Y020170D01*
X021736Y020170D01*
X021728Y020164D01*
X021666Y020103D01*
X021614Y020034D01*
X021570Y019959D01*
X021537Y019878D01*
X021515Y019795D01*
X021505Y019725D01*
X022105Y019725D01*
X022105Y019605D01*
X022225Y019605D01*
X022225Y019005D01*
X022295Y019015D01*
X022342Y019027D01*
X022271Y018856D01*
X022271Y018585D01*
X022374Y018334D01*
X022566Y018142D01*
X022817Y018038D01*
X023088Y018038D01*
X023339Y018142D01*
X023531Y018334D01*
X023635Y018585D01*
X023635Y018856D01*
X023531Y019107D01*
X023339Y019298D01*
X023088Y019402D01*
X022817Y019402D01*
X022764Y019380D01*
X022793Y019452D01*
X022816Y019536D01*
X022825Y019605D01*
X022225Y019605D01*
X022225Y019725D01*
X022825Y019725D01*
X022816Y019795D01*
X022793Y019878D01*
X022760Y019959D01*
X022717Y020034D01*
X022664Y020103D01*
X022603Y020164D01*
X022594Y020170D01*
X025736Y020170D01*
X025728Y020164D01*
X025666Y020103D01*
X025614Y020034D01*
X025570Y019959D01*
X025537Y019878D01*
X025515Y019795D01*
X025505Y019725D01*
X026105Y019725D01*
X026105Y019605D01*
X026225Y019605D01*
X026225Y019005D01*
X026295Y019015D01*
X026342Y019027D01*
X026271Y018856D01*
X026271Y018585D01*
X026374Y018334D01*
X026566Y018142D01*
X026817Y018038D01*
X027088Y018038D01*
X027339Y018142D01*
X027531Y018334D01*
X027635Y018585D01*
X027635Y018856D01*
X027531Y019107D01*
X027339Y019298D01*
X027088Y019402D01*
X026817Y019402D01*
X026764Y019380D01*
X026793Y019452D01*
X026816Y019536D01*
X026825Y019605D01*
X026225Y019605D01*
X026225Y019725D01*
X026825Y019725D01*
X026816Y019795D01*
X026793Y019878D01*
X026760Y019959D01*
X026717Y020034D01*
X026664Y020103D01*
X026603Y020164D01*
X026594Y020170D01*
X029736Y020170D01*
X029728Y020164D01*
X029666Y020103D01*
X029614Y020034D01*
X029570Y019959D01*
X029537Y019878D01*
X029515Y019795D01*
X029505Y019725D01*
X030105Y019725D01*
X030105Y019605D01*
X030225Y019605D01*
X030225Y019005D01*
X030295Y019015D01*
X030342Y019027D01*
X030271Y018856D01*
X030271Y018585D01*
X030374Y018334D01*
X030566Y018142D01*
X030817Y018038D01*
X031088Y018038D01*
X031339Y018142D01*
X031531Y018334D01*
X031635Y018585D01*
X031635Y018856D01*
X031531Y019107D01*
X031339Y019298D01*
X031088Y019402D01*
X030817Y019402D01*
X030764Y019380D01*
X030793Y019452D01*
X030816Y019536D01*
X030825Y019605D01*
X030225Y019605D01*
X030225Y019725D01*
X030825Y019725D01*
X030816Y019795D01*
X030793Y019878D01*
X030760Y019959D01*
X030717Y020034D01*
X030664Y020103D01*
X030603Y020164D01*
X030594Y020170D01*
X033736Y020170D01*
X033728Y020164D01*
X033666Y020103D01*
X033614Y020034D01*
X033570Y019959D01*
X033537Y019878D01*
X033515Y019795D01*
X033505Y019725D01*
X034105Y019725D01*
X034105Y019605D01*
X034225Y019605D01*
X034225Y019005D01*
X034295Y019015D01*
X034342Y019027D01*
X034271Y018856D01*
X034271Y018585D01*
X034374Y018334D01*
X034566Y018142D01*
X034817Y018038D01*
X035088Y018038D01*
X035339Y018142D01*
X035531Y018334D01*
X035635Y018585D01*
X035635Y018856D01*
X035531Y019107D01*
X035339Y019298D01*
X035088Y019402D01*
X034817Y019402D01*
X034764Y019380D01*
X034793Y019452D01*
X034816Y019536D01*
X034825Y019605D01*
X034225Y019605D01*
X034225Y019725D01*
X034825Y019725D01*
X034816Y019795D01*
X034793Y019878D01*
X034760Y019959D01*
X034717Y020034D01*
X034664Y020103D01*
X034603Y020164D01*
X034594Y020170D01*
X037738Y020170D01*
X037670Y020144D01*
X037302Y019850D01*
X037037Y019461D01*
X036898Y019011D01*
X036898Y019011D01*
X036898Y018540D01*
X037037Y018090D01*
X037302Y017701D01*
X037302Y017701D01*
X037670Y017407D01*
X038109Y017235D01*
X038579Y017200D01*
X039038Y017305D01*
X039446Y017540D01*
X039766Y017885D01*
X039766Y017885D01*
X039855Y018071D01*
X039855Y002944D01*
X039766Y003130D01*
X039446Y003475D01*
X039038Y003711D01*
X039038Y003711D01*
X038579Y003816D01*
X038579Y003816D01*
X038109Y003780D01*
X037670Y003608D01*
X037302Y003315D01*
X037302Y003315D01*
X037302Y003315D01*
X037037Y002926D01*
X037037Y002925D01*
X036898Y002475D01*
X036898Y002005D01*
X036898Y002004D01*
X037037Y001554D01*
X037302Y001165D01*
X037670Y000872D01*
X037670Y000872D01*
X037738Y000845D01*
X028185Y000845D01*
X028301Y000962D01*
X028369Y001029D01*
X028405Y001117D01*
X028405Y001463D01*
X028454Y001483D01*
X028598Y001626D01*
X028675Y001814D01*
X028675Y002017D01*
X028598Y002204D01*
X028570Y002231D01*
X028765Y002425D01*
X029713Y002425D01*
X029801Y002462D01*
X029869Y002529D01*
X030065Y002725D01*
X030347Y002725D01*
X030547Y002925D01*
X030783Y002925D01*
X030983Y002725D01*
X031347Y002725D01*
X031605Y002983D01*
X031540Y002918D02*
X032871Y002918D01*
X033064Y002799D02*
X031421Y002799D01*
X030909Y002799D02*
X030421Y002799D01*
X030540Y002918D02*
X030791Y002918D01*
X030280Y002393D02*
X030204Y002405D01*
X030204Y002405D01*
X030204Y001954D01*
X030655Y001954D01*
X030643Y002030D01*
X030619Y002103D01*
X030584Y002172D01*
X030539Y002234D01*
X030484Y002289D01*
X030422Y002334D01*
X030353Y002369D01*
X030280Y002393D01*
X030204Y002325D02*
X030127Y002325D01*
X030127Y002405D02*
X030050Y002393D01*
X029977Y002369D01*
X029908Y002334D01*
X029846Y002289D01*
X029791Y002234D01*
X029746Y002172D01*
X029711Y002103D01*
X029687Y002030D01*
X029675Y001954D01*
X029675Y001954D01*
X030126Y001954D01*
X030126Y001877D01*
X029675Y001877D01*
X029675Y001877D01*
X029687Y001800D01*
X029711Y001727D01*
X029746Y001658D01*
X029791Y001596D01*
X029846Y001541D01*
X029908Y001496D01*
X029977Y001461D01*
X030050Y001437D01*
X030127Y001425D01*
X030127Y001876D01*
X030204Y001876D01*
X030204Y001425D01*
X030280Y001437D01*
X030353Y001461D01*
X030422Y001496D01*
X030484Y001541D01*
X030539Y001596D01*
X030584Y001658D01*
X030619Y001727D01*
X030643Y001800D01*
X030655Y001877D01*
X030204Y001877D01*
X030204Y001954D01*
X030127Y001954D01*
X030127Y002405D01*
X030127Y002405D01*
X030127Y002206D02*
X030204Y002206D01*
X030204Y002088D02*
X030127Y002088D01*
X030127Y001969D02*
X030204Y001969D01*
X030204Y001851D02*
X030127Y001851D01*
X030127Y001732D02*
X030204Y001732D01*
X030204Y001614D02*
X030127Y001614D01*
X030127Y001495D02*
X030204Y001495D01*
X030204Y001425D02*
X030204Y001425D01*
X030127Y001425D02*
X030127Y001425D01*
X029910Y001495D02*
X029420Y001495D01*
X029422Y001496D02*
X029484Y001541D01*
X029539Y001596D01*
X029584Y001658D01*
X029619Y001727D01*
X029643Y001800D01*
X029655Y001877D01*
X029204Y001877D01*
X029204Y001954D01*
X029655Y001954D01*
X029643Y002030D01*
X029619Y002103D01*
X029584Y002172D01*
X029539Y002234D01*
X029484Y002289D01*
X029422Y002334D01*
X029353Y002369D01*
X029280Y002393D01*
X029204Y002405D01*
X029204Y002405D01*
X029204Y001954D01*
X029127Y001954D01*
X029127Y002405D01*
X029127Y002405D01*
X029050Y002393D01*
X028977Y002369D01*
X028908Y002334D01*
X028846Y002289D01*
X028791Y002234D01*
X028746Y002172D01*
X028711Y002103D01*
X028687Y002030D01*
X028675Y001954D01*
X028675Y001954D01*
X029126Y001954D01*
X029126Y001877D01*
X028675Y001877D01*
X028675Y001877D01*
X028687Y001800D01*
X028711Y001727D01*
X028746Y001658D01*
X028791Y001596D01*
X028846Y001541D01*
X028908Y001496D01*
X028977Y001461D01*
X029050Y001437D01*
X029127Y001425D01*
X029127Y001876D01*
X029204Y001876D01*
X029204Y001425D01*
X029280Y001437D01*
X029353Y001461D01*
X029422Y001496D01*
X029552Y001614D02*
X029779Y001614D01*
X029709Y001732D02*
X029621Y001732D01*
X029651Y001851D02*
X029679Y001851D01*
X029655Y001877D02*
X029655Y001877D01*
X029655Y001954D02*
X029655Y001954D01*
X029653Y001969D02*
X029678Y001969D01*
X029706Y002088D02*
X029624Y002088D01*
X029559Y002206D02*
X029771Y002206D01*
X029895Y002325D02*
X029435Y002325D01*
X029204Y002325D02*
X029127Y002325D01*
X029127Y002206D02*
X029204Y002206D01*
X029204Y002088D02*
X029127Y002088D01*
X029127Y001969D02*
X029204Y001969D01*
X029204Y001851D02*
X029127Y001851D01*
X029127Y001732D02*
X029204Y001732D01*
X029204Y001614D02*
X029127Y001614D01*
X029127Y001495D02*
X029204Y001495D01*
X029204Y001425D02*
X029204Y001425D01*
X029127Y001425D02*
X029127Y001425D01*
X028910Y001495D02*
X028466Y001495D01*
X028405Y001376D02*
X037158Y001376D01*
X037239Y001258D02*
X028405Y001258D01*
X028405Y001139D02*
X037335Y001139D01*
X037302Y001165D02*
X037302Y001165D01*
X037302Y001165D01*
X037483Y001021D02*
X028360Y001021D01*
X028242Y000902D02*
X037632Y000902D01*
X037077Y001495D02*
X030420Y001495D01*
X030552Y001614D02*
X037019Y001614D01*
X037037Y001554D02*
X037037Y001554D01*
X036982Y001732D02*
X030621Y001732D01*
X030651Y001851D02*
X036946Y001851D01*
X036909Y001969D02*
X030653Y001969D01*
X030655Y001954D02*
X030655Y001954D01*
X030655Y001877D02*
X030655Y001877D01*
X030624Y002088D02*
X036898Y002088D01*
X036898Y002206D02*
X030559Y002206D01*
X030435Y002325D02*
X036898Y002325D01*
X036898Y002443D02*
X029757Y002443D01*
X029901Y002562D02*
X036925Y002562D01*
X036898Y002475D02*
X036898Y002475D01*
X036961Y002680D02*
X030020Y002680D01*
X029697Y003036D02*
X027605Y003036D01*
X027605Y002918D02*
X029578Y002918D01*
X029725Y003155D02*
X027605Y003155D01*
X027605Y003273D02*
X029725Y003273D01*
X029769Y003392D02*
X027605Y003392D01*
X027605Y003510D02*
X029888Y003510D01*
X030442Y003510D02*
X030888Y003510D01*
X031442Y003510D02*
X032745Y003510D01*
X032745Y003392D02*
X031561Y003392D01*
X031605Y003273D02*
X032745Y003273D01*
X032745Y003629D02*
X027557Y003629D01*
X026773Y003629D02*
X026557Y003629D01*
X026605Y003510D02*
X026725Y003510D01*
X026725Y003392D02*
X026605Y003392D01*
X026605Y003273D02*
X026725Y003273D01*
X026725Y003155D02*
X026605Y003155D01*
X026605Y003036D02*
X026725Y003036D01*
X026725Y002918D02*
X026605Y002918D01*
X026597Y002799D02*
X026733Y002799D01*
X026782Y002680D02*
X026548Y002680D01*
X026444Y002562D02*
X026886Y002562D01*
X026854Y002325D02*
X026477Y002325D01*
X026595Y002206D02*
X026735Y002206D01*
X026685Y002088D02*
X026646Y002088D01*
X025905Y002443D02*
X028104Y002443D01*
X028222Y002562D02*
X027444Y002562D01*
X027548Y002680D02*
X028341Y002680D01*
X028460Y002799D02*
X027597Y002799D01*
X027477Y002325D02*
X027854Y002325D01*
X027735Y002206D02*
X027595Y002206D01*
X027646Y002088D02*
X027685Y002088D01*
X028595Y002206D02*
X028771Y002206D01*
X028706Y002088D02*
X028646Y002088D01*
X028675Y001969D02*
X028678Y001969D01*
X028675Y001851D02*
X028679Y001851D01*
X028709Y001732D02*
X028641Y001732D01*
X028585Y001614D02*
X028779Y001614D01*
X028664Y002325D02*
X028895Y002325D01*
X029120Y003747D02*
X032745Y003747D01*
X032759Y003866D02*
X029238Y003866D01*
X029355Y003984D02*
X032808Y003984D01*
X032921Y004103D02*
X029355Y004103D01*
X029355Y004221D02*
X033565Y004221D01*
X033551Y004235D02*
X033658Y004128D01*
X033840Y004128D01*
X033947Y004235D01*
X034075Y004364D01*
X034075Y004546D01*
X034075Y004600D01*
X033947Y004729D01*
X033893Y004729D01*
X033792Y004729D01*
X033685Y004835D01*
X033632Y004889D01*
X033449Y004889D01*
X033343Y004889D01*
X033289Y004889D01*
X033116Y004889D01*
X033010Y004995D01*
X032796Y004995D01*
X032614Y004995D01*
X032485Y004867D01*
X032485Y004706D01*
X032485Y004524D01*
X032485Y004364D01*
X032614Y004235D01*
X032982Y004235D01*
X033165Y004235D01*
X033227Y004298D01*
X033289Y004235D01*
X033396Y004235D01*
X033503Y004235D01*
X033551Y004235D01*
X033450Y004103D02*
X033901Y004103D01*
X033916Y004118D02*
X033792Y003994D01*
X033725Y003833D01*
X033725Y003138D01*
X033792Y002976D01*
X033916Y002852D01*
X034078Y002785D01*
X034253Y002785D01*
X034414Y002852D01*
X034538Y002976D01*
X034605Y003138D01*
X034605Y003833D01*
X034538Y003994D01*
X034414Y004118D01*
X034253Y004185D01*
X034078Y004185D01*
X033916Y004118D01*
X033933Y004221D02*
X039855Y004221D01*
X039855Y004103D02*
X035410Y004103D01*
X035394Y004118D02*
X035233Y004185D01*
X035058Y004185D01*
X034896Y004118D01*
X034772Y003994D01*
X034705Y003833D01*
X034705Y003138D01*
X034772Y002976D01*
X034896Y002852D01*
X035058Y002785D01*
X035233Y002785D01*
X035394Y002852D01*
X035518Y002976D01*
X035585Y003138D01*
X035585Y003833D01*
X035518Y003994D01*
X035394Y004118D01*
X035376Y004235D02*
X035612Y004235D01*
X035741Y004364D01*
X035741Y004546D01*
X035741Y004600D01*
X035612Y004729D01*
X035430Y004729D01*
X035376Y004729D01*
X035245Y004729D01*
X035192Y004729D01*
X035142Y004729D01*
X035111Y004760D01*
X034982Y004889D01*
X034875Y004889D01*
X034783Y004889D01*
X034693Y004889D01*
X034693Y004889D01*
X034680Y004876D01*
X034667Y004889D01*
X034507Y004889D01*
X034417Y004889D01*
X034325Y004889D01*
X034325Y004889D01*
X034325Y004889D01*
X034265Y004829D01*
X034196Y004760D01*
X034196Y004760D01*
X034143Y004706D01*
X034142Y004706D02*
X034143Y004615D01*
X034142Y004524D01*
X034143Y004524D02*
X034143Y004364D01*
X034271Y004235D01*
X034522Y004235D01*
X034614Y004235D01*
X034653Y004275D01*
X034693Y004235D01*
X034890Y004235D01*
X034982Y004235D01*
X034982Y004235D01*
X034995Y004248D01*
X035008Y004235D01*
X035192Y004235D01*
X035376Y004235D01*
X035522Y003984D02*
X039855Y003984D01*
X039855Y003866D02*
X035571Y003866D01*
X035585Y003747D02*
X038025Y003747D01*
X038109Y003780D02*
X038109Y003780D01*
X037723Y003629D02*
X035585Y003629D01*
X035585Y003510D02*
X037548Y003510D01*
X037670Y003608D02*
X037670Y003608D01*
X037399Y003392D02*
X035585Y003392D01*
X035585Y003273D02*
X037274Y003273D01*
X037193Y003155D02*
X035585Y003155D01*
X035543Y003036D02*
X037112Y003036D01*
X037034Y002918D02*
X035460Y002918D01*
X035266Y002799D02*
X036998Y002799D01*
X035024Y002799D02*
X034286Y002799D01*
X034480Y002918D02*
X034831Y002918D01*
X034747Y003036D02*
X034563Y003036D01*
X034605Y003155D02*
X034705Y003155D01*
X034705Y003273D02*
X034605Y003273D01*
X034605Y003392D02*
X034705Y003392D01*
X034705Y003510D02*
X034605Y003510D01*
X034605Y003629D02*
X034705Y003629D01*
X034705Y003747D02*
X034605Y003747D01*
X034591Y003866D02*
X034719Y003866D01*
X034768Y003984D02*
X034542Y003984D01*
X034430Y004103D02*
X034881Y004103D01*
X034982Y004235D02*
X034982Y004235D01*
X034614Y004235D02*
X034614Y004235D01*
X034614Y004235D01*
X034167Y004340D02*
X034051Y004340D01*
X034075Y004459D02*
X034143Y004459D01*
X034142Y004524D02*
X034143Y004524D01*
X034143Y004577D02*
X034075Y004577D01*
X034142Y004696D02*
X033979Y004696D01*
X034142Y004706D02*
X034143Y004706D01*
X034143Y004706D01*
X034250Y004814D02*
X033706Y004814D01*
X033916Y005212D02*
X034078Y005145D01*
X034253Y005145D01*
X034414Y005212D01*
X034538Y005336D01*
X034605Y005498D01*
X034605Y006193D01*
X034538Y006354D01*
X034414Y006478D01*
X034253Y006545D01*
X034078Y006545D01*
X033916Y006478D01*
X033792Y006354D01*
X033725Y006193D01*
X033725Y005498D01*
X033792Y005336D01*
X033916Y005212D01*
X033840Y005288D02*
X033482Y005288D01*
X033459Y005265D02*
X033506Y005312D01*
X033544Y005365D01*
X033574Y005424D01*
X033595Y005487D01*
X033605Y005552D01*
X033605Y005825D01*
X033205Y005825D01*
X033205Y005165D01*
X033218Y005165D01*
X033284Y005176D01*
X033346Y005196D01*
X033405Y005226D01*
X033459Y005265D01*
X033566Y005407D02*
X033763Y005407D01*
X033725Y005525D02*
X033601Y005525D01*
X033605Y005644D02*
X033725Y005644D01*
X033725Y005763D02*
X033605Y005763D01*
X033605Y005865D02*
X033605Y006138D01*
X033595Y006204D01*
X033574Y006266D01*
X033544Y006325D01*
X033506Y006379D01*
X033459Y006426D01*
X033405Y006464D01*
X033346Y006494D01*
X033284Y006515D01*
X033218Y006525D01*
X033205Y006525D01*
X033205Y005865D01*
X033605Y005865D01*
X033605Y005881D02*
X033725Y005881D01*
X033725Y006000D02*
X033605Y006000D01*
X033605Y006118D02*
X033725Y006118D01*
X033743Y006237D02*
X033584Y006237D01*
X033523Y006355D02*
X033793Y006355D01*
X033912Y006474D02*
X033387Y006474D01*
X033205Y006474D02*
X033165Y006474D01*
X033165Y006525D02*
X033152Y006525D01*
X033087Y006515D01*
X033024Y006494D01*
X032965Y006464D01*
X032912Y006426D01*
X032865Y006379D01*
X032826Y006325D01*
X032796Y006266D01*
X032776Y006204D01*
X032765Y006138D01*
X032765Y005865D01*
X033165Y005865D01*
X033165Y005825D01*
X033205Y005825D01*
X033205Y005865D01*
X033165Y005865D01*
X033165Y006525D01*
X033165Y006355D02*
X033205Y006355D01*
X033205Y006237D02*
X033165Y006237D01*
X033165Y006118D02*
X033205Y006118D01*
X033205Y006000D02*
X033165Y006000D01*
X033165Y005881D02*
X033205Y005881D01*
X033165Y005825D02*
X032765Y005825D01*
X032765Y005552D01*
X032776Y005487D01*
X032796Y005424D01*
X032826Y005365D01*
X032865Y005312D01*
X032912Y005265D01*
X032965Y005226D01*
X033024Y005196D01*
X033087Y005176D01*
X033152Y005165D01*
X033165Y005165D01*
X033165Y005825D01*
X033165Y005763D02*
X033205Y005763D01*
X033205Y005644D02*
X033165Y005644D01*
X033165Y005525D02*
X033205Y005525D01*
X033205Y005407D02*
X033165Y005407D01*
X033165Y005288D02*
X033205Y005288D01*
X033205Y005170D02*
X033165Y005170D01*
X033123Y005170D02*
X031405Y005170D01*
X031405Y005288D02*
X032888Y005288D01*
X032805Y005407D02*
X031405Y005407D01*
X031405Y005525D02*
X032769Y005525D01*
X032765Y005644D02*
X031405Y005644D01*
X031405Y005763D02*
X032765Y005763D01*
X032765Y005881D02*
X031503Y005881D01*
X031605Y006000D02*
X032765Y006000D01*
X032765Y006118D02*
X031605Y006118D01*
X031605Y006237D02*
X032786Y006237D01*
X032848Y006355D02*
X031597Y006355D01*
X031479Y006474D02*
X032984Y006474D01*
X034419Y006474D02*
X034892Y006474D01*
X034896Y006478D02*
X034772Y006354D01*
X034705Y006193D01*
X034705Y005498D01*
X034772Y005336D01*
X034896Y005212D01*
X035058Y005145D01*
X035233Y005145D01*
X035394Y005212D01*
X035518Y005336D01*
X035585Y005498D01*
X035585Y006193D01*
X035518Y006354D01*
X035394Y006478D01*
X035233Y006545D01*
X035058Y006545D01*
X034896Y006478D01*
X034773Y006355D02*
X034537Y006355D01*
X034587Y006237D02*
X034723Y006237D01*
X034705Y006118D02*
X034605Y006118D01*
X034605Y006000D02*
X034705Y006000D01*
X034705Y005881D02*
X034605Y005881D01*
X034605Y005763D02*
X034705Y005763D01*
X034705Y005644D02*
X034605Y005644D01*
X034605Y005525D02*
X034705Y005525D01*
X034743Y005407D02*
X034568Y005407D01*
X034491Y005288D02*
X034820Y005288D01*
X034998Y005170D02*
X034312Y005170D01*
X034018Y005170D02*
X033248Y005170D01*
X033072Y004933D02*
X039855Y004933D01*
X039855Y005051D02*
X031378Y005051D01*
X031272Y004933D02*
X032551Y004933D01*
X032485Y004814D02*
X031154Y004814D01*
X031035Y004696D02*
X032485Y004696D01*
X032485Y004577D02*
X030917Y004577D01*
X030794Y004459D02*
X032485Y004459D01*
X032509Y004340D02*
X029355Y004340D01*
X028915Y004165D02*
X028665Y003915D01*
X025915Y003915D01*
X025665Y003665D01*
X025665Y002415D01*
X025165Y001915D01*
X023886Y002562D02*
X023881Y002562D01*
X023782Y002680D02*
X023548Y002680D01*
X023597Y002799D02*
X023733Y002799D01*
X023725Y002918D02*
X023605Y002918D01*
X023605Y003036D02*
X023725Y003036D01*
X023725Y003155D02*
X023605Y003155D01*
X023605Y003273D02*
X023725Y003273D01*
X023725Y003392D02*
X023605Y003392D01*
X023605Y003510D02*
X023725Y003510D01*
X023773Y003629D02*
X023557Y003629D01*
X023465Y003747D02*
X023865Y003747D01*
X024026Y003866D02*
X018394Y003866D01*
X018465Y003747D02*
X018865Y003747D01*
X018773Y003629D02*
X018557Y003629D01*
X018605Y003510D02*
X018725Y003510D01*
X018725Y003392D02*
X018605Y003392D01*
X018605Y003273D02*
X018725Y003273D01*
X018725Y003155D02*
X018605Y003155D01*
X018605Y003036D02*
X018725Y003036D01*
X018725Y002918D02*
X018605Y002918D01*
X018597Y002799D02*
X018733Y002799D01*
X018782Y002680D02*
X018548Y002680D01*
X018449Y002562D02*
X018444Y002562D01*
X018881Y002562D02*
X018886Y002562D01*
X019444Y002562D02*
X019449Y002562D01*
X019548Y002680D02*
X019782Y002680D01*
X019733Y002799D02*
X019597Y002799D01*
X019605Y002918D02*
X019725Y002918D01*
X019725Y003036D02*
X019605Y003036D01*
X019605Y003155D02*
X019725Y003155D01*
X019725Y003273D02*
X019605Y003273D01*
X019605Y003392D02*
X019725Y003392D01*
X019725Y003510D02*
X019605Y003510D01*
X019557Y003629D02*
X019773Y003629D01*
X019865Y003747D02*
X019465Y003747D01*
X020465Y003747D02*
X020894Y003747D01*
X020892Y003746D02*
X020845Y003699D01*
X020806Y003645D01*
X020776Y003586D01*
X020756Y003524D01*
X020745Y003458D01*
X020745Y003185D01*
X021145Y003185D01*
X021145Y003145D01*
X020745Y003145D01*
X020745Y002872D01*
X020756Y002807D01*
X020776Y002744D01*
X020806Y002685D01*
X020845Y002632D01*
X020892Y002585D01*
X020945Y002546D01*
X021004Y002516D01*
X021067Y002496D01*
X021132Y002485D01*
X021145Y002485D01*
X021145Y003145D01*
X021185Y003145D01*
X021185Y002485D01*
X021198Y002485D01*
X021264Y002496D01*
X021326Y002516D01*
X021385Y002546D01*
X021439Y002585D01*
X021486Y002632D01*
X021524Y002685D01*
X021554Y002744D01*
X021575Y002807D01*
X021585Y002872D01*
X021585Y003145D01*
X021185Y003145D01*
X021185Y003185D01*
X021145Y003185D01*
X021145Y003845D01*
X021132Y003845D01*
X021067Y003835D01*
X021004Y003814D01*
X020945Y003784D01*
X020892Y003746D01*
X020798Y003629D02*
X020557Y003629D01*
X020605Y003510D02*
X020753Y003510D01*
X020745Y003392D02*
X020605Y003392D01*
X020605Y003273D02*
X020745Y003273D01*
X020605Y003155D02*
X021145Y003155D01*
X021185Y003155D02*
X021725Y003155D01*
X021725Y003273D02*
X021585Y003273D01*
X021585Y003185D02*
X021585Y003458D01*
X021575Y003524D01*
X021554Y003586D01*
X021524Y003645D01*
X021486Y003699D01*
X021439Y003746D01*
X021385Y003784D01*
X021326Y003814D01*
X021264Y003835D01*
X021198Y003845D01*
X021185Y003845D01*
X021185Y003185D01*
X021585Y003185D01*
X021585Y003036D02*
X021725Y003036D01*
X021725Y002918D02*
X021585Y002918D01*
X021572Y002799D02*
X021733Y002799D01*
X021782Y002680D02*
X021521Y002680D01*
X021449Y002562D02*
X021407Y002562D01*
X021311Y002443D02*
X021019Y002443D01*
X021079Y002325D02*
X021251Y002325D01*
X021225Y002206D02*
X021105Y002206D01*
X021105Y002088D02*
X021225Y002088D01*
X021225Y001969D02*
X021105Y001969D01*
X021105Y001851D02*
X021225Y001851D01*
X021225Y001732D02*
X021105Y001732D01*
X021105Y001614D02*
X021225Y001614D01*
X021255Y001495D02*
X021075Y001495D01*
X021915Y001165D02*
X022165Y001415D01*
X022165Y003165D01*
X021725Y003392D02*
X021585Y003392D01*
X021577Y003510D02*
X021725Y003510D01*
X021773Y003629D02*
X021533Y003629D01*
X021436Y003747D02*
X021865Y003747D01*
X022465Y003747D02*
X022865Y003747D01*
X022773Y003629D02*
X022557Y003629D01*
X022605Y003510D02*
X022725Y003510D01*
X022725Y003392D02*
X022605Y003392D01*
X022605Y003273D02*
X022725Y003273D01*
X022725Y003155D02*
X022605Y003155D01*
X022605Y003036D02*
X022725Y003036D01*
X022725Y002918D02*
X022605Y002918D01*
X022597Y002799D02*
X022733Y002799D01*
X022782Y002680D02*
X022548Y002680D01*
X022449Y002562D02*
X022444Y002562D01*
X022881Y002562D02*
X022886Y002562D01*
X023444Y002562D02*
X023449Y002562D01*
X023665Y001915D02*
X023665Y000915D01*
X021915Y001165D02*
X020165Y001165D01*
X019665Y001665D01*
X019665Y001915D01*
X019881Y002562D02*
X019886Y002562D01*
X020444Y002562D02*
X020449Y002562D01*
X020548Y002680D02*
X020809Y002680D01*
X020758Y002799D02*
X020597Y002799D01*
X020605Y002918D02*
X020745Y002918D01*
X020745Y003036D02*
X020605Y003036D01*
X021145Y003036D02*
X021185Y003036D01*
X021185Y002918D02*
X021145Y002918D01*
X021145Y002799D02*
X021185Y002799D01*
X021185Y002680D02*
X021145Y002680D01*
X021145Y002562D02*
X021185Y002562D01*
X020923Y002562D02*
X020881Y002562D01*
X021145Y003273D02*
X021185Y003273D01*
X021185Y003392D02*
X021145Y003392D01*
X021145Y003510D02*
X021185Y003510D01*
X021185Y003629D02*
X021145Y003629D01*
X021145Y003747D02*
X021185Y003747D01*
X019165Y003165D02*
X019165Y000915D01*
X021881Y002562D02*
X021886Y002562D01*
X024165Y003165D02*
X024165Y003665D01*
X025165Y004665D01*
X030665Y004665D01*
X031165Y005165D01*
X031165Y006165D01*
X030852Y006474D02*
X030479Y006474D01*
X030597Y006355D02*
X030733Y006355D01*
X030725Y006237D02*
X030605Y006237D01*
X030605Y006347D02*
X030605Y005983D01*
X030347Y005725D01*
X029983Y005725D01*
X029725Y005983D01*
X029725Y006347D01*
X029983Y006605D01*
X030347Y006605D01*
X030605Y006347D01*
X030605Y006118D02*
X030725Y006118D01*
X030725Y006000D02*
X030605Y006000D01*
X030503Y005881D02*
X030827Y005881D01*
X030925Y005763D02*
X030385Y005763D01*
X029946Y005763D02*
X027582Y005763D01*
X027605Y005818D02*
X027538Y005656D01*
X027414Y005532D01*
X027253Y005465D01*
X027078Y005465D01*
X026916Y005532D01*
X026792Y005656D01*
X026725Y005818D01*
X026725Y006513D01*
X026792Y006674D01*
X026916Y006798D01*
X027078Y006865D01*
X027253Y006865D01*
X027414Y006798D01*
X027538Y006674D01*
X027605Y006513D01*
X027605Y005818D01*
X027605Y005881D02*
X029827Y005881D01*
X029725Y006000D02*
X027605Y006000D01*
X027605Y006118D02*
X029725Y006118D01*
X029725Y006237D02*
X027605Y006237D01*
X027605Y006355D02*
X029733Y006355D01*
X029852Y006474D02*
X027605Y006474D01*
X027572Y006592D02*
X029970Y006592D01*
X030360Y006592D02*
X030970Y006592D01*
X031360Y006592D02*
X039855Y006592D01*
X039855Y006474D02*
X035399Y006474D01*
X035517Y006355D02*
X039855Y006355D01*
X039855Y006237D02*
X035567Y006237D01*
X035585Y006118D02*
X039855Y006118D01*
X039855Y006000D02*
X035585Y006000D01*
X035585Y005881D02*
X039855Y005881D01*
X039855Y005763D02*
X035585Y005763D01*
X035585Y005644D02*
X039855Y005644D01*
X039855Y005525D02*
X035585Y005525D01*
X035548Y005407D02*
X039855Y005407D01*
X039855Y005288D02*
X035471Y005288D01*
X035292Y005170D02*
X039855Y005170D01*
X039855Y004814D02*
X035056Y004814D01*
X034875Y004889D02*
X034875Y004889D01*
X034693Y004889D02*
X034693Y004889D01*
X034507Y004889D02*
X034507Y004889D01*
X035645Y004696D02*
X039855Y004696D01*
X039855Y004577D02*
X035741Y004577D01*
X035741Y004459D02*
X039855Y004459D01*
X039855Y004340D02*
X035717Y004340D01*
X033788Y003984D02*
X033562Y003984D01*
X033611Y003866D02*
X033739Y003866D01*
X033725Y003747D02*
X033625Y003747D01*
X033625Y003629D02*
X033725Y003629D01*
X033725Y003510D02*
X033625Y003510D01*
X033625Y003392D02*
X033725Y003392D01*
X033725Y003273D02*
X033625Y003273D01*
X033625Y003155D02*
X033725Y003155D01*
X033767Y003036D02*
X033583Y003036D01*
X033500Y002918D02*
X033851Y002918D01*
X034044Y002799D02*
X033306Y002799D01*
X030593Y004933D02*
X029305Y004933D01*
X029355Y005051D02*
X030712Y005051D01*
X030830Y005170D02*
X029355Y005170D01*
X029355Y005288D02*
X030925Y005288D01*
X030925Y005407D02*
X029296Y005407D01*
X029177Y005525D02*
X030925Y005525D01*
X030925Y005644D02*
X027526Y005644D01*
X027398Y005525D02*
X028653Y005525D01*
X028535Y005407D02*
X023930Y005407D01*
X023905Y005432D02*
X023905Y005543D01*
X023916Y005532D01*
X024078Y005465D01*
X024253Y005465D01*
X024414Y005532D01*
X024538Y005656D01*
X024605Y005818D01*
X024605Y006513D01*
X024538Y006674D01*
X024414Y006798D01*
X024253Y006865D01*
X024078Y006865D01*
X023916Y006798D01*
X023905Y006787D01*
X023905Y007617D01*
X023905Y007713D01*
X023869Y007801D01*
X023649Y008021D01*
X023649Y008111D01*
X023595Y008240D01*
X036605Y008240D01*
X036725Y008240D01*
X036835Y008286D01*
X037335Y008786D01*
X037419Y008870D01*
X037425Y008884D01*
X037425Y008515D01*
X037212Y008301D01*
X037175Y008213D01*
X037175Y008117D01*
X037175Y007432D01*
X037111Y007368D01*
X037057Y007236D01*
X037057Y007094D01*
X037111Y006962D01*
X037212Y006861D01*
X037344Y006807D01*
X037486Y006807D01*
X037618Y006861D01*
X037719Y006962D01*
X037774Y007094D01*
X037774Y007236D01*
X037724Y007356D01*
X037844Y007307D01*
X037986Y007307D01*
X038118Y007361D01*
X038219Y007462D01*
X038274Y007594D01*
X038274Y007736D01*
X038219Y007868D01*
X038155Y007932D01*
X038155Y008668D01*
X038212Y008611D01*
X038344Y008557D01*
X038486Y008557D01*
X038618Y008611D01*
X038719Y008712D01*
X038771Y008838D01*
X038876Y008733D01*
X039064Y008655D01*
X039267Y008655D01*
X039454Y008733D01*
X039598Y008876D01*
X039675Y009064D01*
X039675Y009267D01*
X039598Y009454D01*
X039454Y009598D01*
X039291Y009665D01*
X039454Y009733D01*
X039598Y009876D01*
X039675Y010064D01*
X039675Y010267D01*
X039855Y010267D01*
X039855Y010149D02*
X039675Y010149D01*
X039675Y010267D02*
X039598Y010454D01*
X039454Y010598D01*
X039291Y010665D01*
X039454Y010733D01*
X039598Y010876D01*
X039675Y011064D01*
X039675Y011267D01*
X039598Y011454D01*
X039454Y011598D01*
X039291Y011665D01*
X039454Y011733D01*
X039598Y011876D01*
X039675Y012064D01*
X039675Y012267D01*
X039598Y012454D01*
X039454Y012598D01*
X039267Y012675D01*
X039064Y012675D01*
X038876Y012598D01*
X038744Y012465D01*
X038465Y012465D01*
X038465Y015105D01*
X038465Y015225D01*
X038419Y015335D01*
X037218Y016537D01*
X037225Y016554D01*
X037225Y016777D01*
X037140Y016982D01*
X036982Y017140D01*
X036777Y017225D01*
X036554Y017225D01*
X036348Y017140D01*
X036190Y016982D01*
X036155Y016897D01*
X036155Y019713D01*
X036119Y019801D01*
X036051Y019869D01*
X035963Y019905D01*
X035867Y019905D01*
X035779Y019869D01*
X035712Y019801D01*
X035675Y019713D01*
X035675Y014905D01*
X004925Y014905D01*
X004925Y015217D01*
X004886Y015312D01*
X004812Y015386D01*
X004780Y015418D01*
X004780Y019713D01*
X004744Y019801D01*
X004676Y019869D01*
X004588Y019905D01*
X004492Y019905D01*
X004404Y019869D01*
X004337Y019801D01*
X004300Y019713D01*
X004300Y016991D01*
X002950Y016991D01*
X002844Y016885D01*
X002844Y015949D01*
X002950Y015843D01*
X004300Y015843D01*
X004300Y015574D01*
X002989Y015574D01*
X002889Y015474D01*
X002889Y015602D01*
X004300Y015602D01*
X004300Y015720D02*
X002841Y015720D01*
X002835Y015734D02*
X002889Y015602D01*
X002889Y015483D02*
X002899Y015483D01*
X002884Y015447D02*
X002884Y015153D01*
X002884Y014807D01*
X002884Y014523D01*
X002884Y014177D01*
X002904Y014157D01*
X002904Y014155D01*
X002904Y014035D01*
X002904Y013916D01*
X002915Y013875D01*
X002936Y013839D01*
X002966Y013809D01*
X003002Y013788D01*
X003043Y013777D01*
X003674Y013777D01*
X004305Y013777D01*
X004346Y013788D01*
X004383Y013809D01*
X004405Y013832D01*
X004405Y013480D01*
X004398Y013487D01*
X002950Y013487D01*
X002844Y013381D01*
X002844Y012445D01*
X002950Y012340D01*
X004398Y012340D01*
X004405Y012347D01*
X004405Y011873D01*
X003638Y011105D01*
X003478Y011105D01*
X003316Y011038D01*
X003192Y010914D01*
X003168Y010856D01*
X002939Y011085D01*
X002785Y011085D01*
X002785Y010685D01*
X002745Y010685D01*
X002745Y010645D01*
X002785Y010645D01*
X002785Y010245D01*
X002939Y010245D01*
X003168Y010474D01*
X003192Y010416D01*
X003265Y010343D01*
X003265Y009705D01*
X003311Y009595D01*
X003395Y009511D01*
X003395Y009511D01*
X004536Y008370D01*
X004620Y008286D01*
X004730Y008240D01*
X021365Y008240D01*
X021365Y007987D01*
X021225Y007847D01*
X021225Y007649D01*
X020995Y007419D01*
X020911Y007335D01*
X020865Y007225D01*
X020865Y006747D01*
X020792Y006674D01*
X020725Y006513D01*
X020725Y005818D01*
X020792Y005656D01*
X020916Y005532D01*
X021078Y005465D01*
X021253Y005465D01*
X021414Y005532D01*
X021538Y005656D01*
X021605Y005818D01*
X021605Y006513D01*
X021538Y006674D01*
X021465Y006747D01*
X021465Y007041D01*
X021649Y007225D01*
X021847Y007225D01*
X022105Y007483D01*
X022105Y007847D01*
X021965Y007987D01*
X021965Y008240D01*
X022985Y008240D01*
X022932Y008111D01*
X022932Y007992D01*
X022839Y008085D01*
X022685Y008085D01*
X022685Y007685D01*
X023085Y007685D01*
X023085Y007738D01*
X023087Y007736D01*
X023219Y007682D01*
X023309Y007682D01*
X023425Y007566D01*
X023425Y006787D01*
X023414Y006798D01*
X023253Y006865D01*
X023078Y006865D01*
X022916Y006798D01*
X022792Y006674D01*
X022725Y006513D01*
X022725Y005818D01*
X022792Y005656D01*
X022916Y005532D01*
X023078Y005465D01*
X023253Y005465D01*
X023414Y005532D01*
X023425Y005543D01*
X023425Y005432D01*
X023361Y005368D01*
X023307Y005236D01*
X023307Y005094D01*
X023361Y004962D01*
X023462Y004861D01*
X023594Y004807D01*
X023736Y004807D01*
X023868Y004861D01*
X023969Y004962D01*
X024024Y005094D01*
X024024Y005236D01*
X023969Y005368D01*
X023905Y005432D01*
X023905Y005525D02*
X023932Y005525D01*
X024002Y005288D02*
X028475Y005288D01*
X028475Y005170D02*
X024024Y005170D01*
X024006Y005051D02*
X028475Y005051D01*
X028525Y004933D02*
X023940Y004933D01*
X023754Y004814D02*
X024975Y004814D01*
X024856Y004696D02*
X011105Y004696D01*
X011105Y004814D02*
X023576Y004814D01*
X023391Y004933D02*
X011020Y004933D01*
X011105Y004847D02*
X010847Y005105D01*
X010483Y005105D01*
X010225Y004847D01*
X010225Y004483D01*
X010483Y004225D01*
X010847Y004225D01*
X011105Y004483D01*
X011105Y004847D01*
X010901Y005051D02*
X023324Y005051D01*
X023307Y005170D02*
X000845Y005170D01*
X000845Y005288D02*
X023328Y005288D01*
X023400Y005407D02*
X000845Y005407D01*
X000845Y005525D02*
X013932Y005525D01*
X013916Y005532D02*
X014078Y005465D01*
X014253Y005465D01*
X014414Y005532D01*
X014538Y005656D01*
X014605Y005818D01*
X014605Y006513D01*
X014538Y006674D01*
X014414Y006798D01*
X014253Y006865D01*
X014078Y006865D01*
X013916Y006798D01*
X013792Y006674D01*
X013725Y006513D01*
X013725Y005818D01*
X013792Y005656D01*
X013916Y005532D01*
X013804Y005644D02*
X000845Y005644D01*
X000845Y005763D02*
X005696Y005763D01*
X005733Y005725D02*
X006097Y005725D01*
X006355Y005983D01*
X006355Y006347D01*
X006097Y006605D01*
X005733Y006605D01*
X005475Y006347D01*
X005475Y005983D01*
X005733Y005725D01*
X005577Y005881D02*
X000845Y005881D01*
X000845Y006000D02*
X005475Y006000D01*
X005475Y006118D02*
X000845Y006118D01*
X000845Y006237D02*
X004010Y006237D01*
X004014Y006235D02*
X004285Y006235D01*
X004535Y006339D01*
X004726Y006530D01*
X004829Y006780D01*
X004829Y007050D01*
X004726Y007300D01*
X004535Y007492D01*
X004285Y007595D01*
X004014Y007595D01*
X003764Y007492D01*
X003573Y007300D01*
X003469Y007050D01*
X003469Y006780D01*
X003573Y006530D01*
X003764Y006339D01*
X004014Y006235D01*
X004288Y006237D02*
X005475Y006237D01*
X005483Y006355D02*
X004551Y006355D01*
X004670Y006474D02*
X005602Y006474D01*
X005720Y006592D02*
X004752Y006592D01*
X004801Y006711D02*
X013829Y006711D01*
X013758Y006592D02*
X010110Y006592D01*
X010097Y006605D02*
X009733Y006605D01*
X009475Y006347D01*
X009475Y005983D01*
X009733Y005725D01*
X010097Y005725D01*
X010355Y005983D01*
X010355Y006347D01*
X010097Y006605D01*
X010229Y006474D02*
X012630Y006474D01*
X012741Y006585D02*
X012495Y006339D01*
X012495Y006185D01*
X012895Y006185D01*
X012895Y006145D01*
X012935Y006145D01*
X012935Y005745D01*
X013089Y005745D01*
X013335Y005991D01*
X013335Y006145D01*
X012935Y006145D01*
X012935Y006185D01*
X013335Y006185D01*
X013335Y006339D01*
X013089Y006585D01*
X012935Y006585D01*
X012935Y006185D01*
X012895Y006185D01*
X012895Y006585D01*
X012741Y006585D01*
X012895Y006474D02*
X012935Y006474D01*
X012935Y006355D02*
X012895Y006355D01*
X012895Y006237D02*
X012935Y006237D01*
X012895Y006145D02*
X012495Y006145D01*
X012495Y005991D01*
X012741Y005745D01*
X012895Y005745D01*
X012895Y006145D01*
X012895Y006118D02*
X012935Y006118D01*
X012935Y006000D02*
X012895Y006000D01*
X012895Y005881D02*
X012935Y005881D01*
X012935Y005763D02*
X012895Y005763D01*
X012724Y005763D02*
X010135Y005763D01*
X010253Y005881D02*
X012605Y005881D01*
X012495Y006000D02*
X010355Y006000D01*
X010355Y006118D02*
X012495Y006118D01*
X012495Y006237D02*
X010355Y006237D01*
X010347Y006355D02*
X012511Y006355D01*
X013200Y006474D02*
X013725Y006474D01*
X013725Y006355D02*
X013319Y006355D01*
X013335Y006237D02*
X013725Y006237D01*
X013725Y006118D02*
X013335Y006118D01*
X013335Y006000D02*
X013725Y006000D01*
X013725Y005881D02*
X013225Y005881D01*
X013106Y005763D02*
X013748Y005763D01*
X014398Y005525D02*
X014932Y005525D01*
X014916Y005532D02*
X015078Y005465D01*
X015253Y005465D01*
X015414Y005532D01*
X015538Y005656D01*
X015605Y005818D01*
X015605Y006513D01*
X015538Y006674D01*
X015414Y006798D01*
X015253Y006865D01*
X015078Y006865D01*
X014916Y006798D01*
X014792Y006674D01*
X014725Y006513D01*
X014725Y005818D01*
X014792Y005656D01*
X014916Y005532D01*
X014804Y005644D02*
X014526Y005644D01*
X014582Y005763D02*
X014748Y005763D01*
X014725Y005881D02*
X014605Y005881D01*
X014605Y006000D02*
X014725Y006000D01*
X014725Y006118D02*
X014605Y006118D01*
X014605Y006237D02*
X014725Y006237D01*
X014725Y006355D02*
X014605Y006355D01*
X014605Y006474D02*
X014725Y006474D01*
X014758Y006592D02*
X014572Y006592D01*
X014502Y006711D02*
X014829Y006711D01*
X014991Y006829D02*
X014339Y006829D01*
X013991Y006829D02*
X004829Y006829D01*
X004829Y006948D02*
X017925Y006948D01*
X017925Y007066D02*
X017925Y006802D01*
X017916Y006798D01*
X017792Y006674D01*
X017725Y006513D01*
X017725Y005818D01*
X017792Y005656D01*
X017916Y005532D01*
X018078Y005465D01*
X018253Y005465D01*
X018414Y005532D01*
X018538Y005656D01*
X018605Y005818D01*
X018605Y006513D01*
X018538Y006674D01*
X018414Y006798D01*
X018405Y006802D01*
X018405Y007117D01*
X018405Y007203D01*
X018462Y007174D01*
X018541Y007148D01*
X018623Y007135D01*
X018646Y007135D01*
X018646Y007646D01*
X018684Y007646D01*
X018684Y007135D01*
X018707Y007135D01*
X018789Y007148D01*
X018869Y007174D01*
X018925Y007203D01*
X018925Y007117D01*
X018925Y006802D01*
X018916Y006798D01*
X018792Y006674D01*
X018725Y006513D01*
X018725Y005818D01*
X018792Y005656D01*
X018916Y005532D01*
X019078Y005465D01*
X019253Y005465D01*
X019414Y005532D01*
X019538Y005656D01*
X019605Y005818D01*
X019605Y006513D01*
X019538Y006674D01*
X019414Y006798D01*
X019405Y006802D01*
X019405Y007066D01*
X019484Y007145D01*
X019556Y007115D01*
X019775Y007115D01*
X019977Y007199D01*
X020131Y007354D01*
X020215Y007556D01*
X020215Y007775D01*
X020131Y007977D01*
X019977Y008131D01*
X019775Y008215D01*
X019556Y008215D01*
X019354Y008131D01*
X019199Y007977D01*
X019155Y007871D01*
X019118Y007943D01*
X019069Y008010D01*
X019010Y008069D01*
X018943Y008118D01*
X018869Y008156D01*
X018789Y008182D01*
X018707Y008195D01*
X018684Y008195D01*
X018684Y007684D01*
X018646Y007684D01*
X018646Y008195D01*
X018623Y008195D01*
X018541Y008182D01*
X018462Y008156D01*
X018387Y008118D01*
X018320Y008069D01*
X018261Y008010D01*
X018212Y007943D01*
X018175Y007871D01*
X018131Y007977D01*
X017977Y008131D01*
X017775Y008215D01*
X017556Y008215D01*
X017354Y008131D01*
X017199Y007977D01*
X017115Y007775D01*
X017115Y007556D01*
X017199Y007354D01*
X017354Y007199D01*
X017556Y007115D01*
X017775Y007115D01*
X017846Y007145D01*
X017925Y007066D01*
X017924Y007067D02*
X004823Y007067D01*
X004774Y007185D02*
X017387Y007185D01*
X017249Y007304D02*
X004723Y007304D01*
X004604Y007422D02*
X017171Y007422D01*
X017121Y007541D02*
X004416Y007541D01*
X003883Y007541D02*
X002395Y007541D01*
X002394Y007541D02*
X002310Y007564D01*
X002224Y007575D01*
X002219Y007575D01*
X002219Y006954D01*
X002142Y006954D01*
X002142Y006877D01*
X001521Y006877D01*
X001521Y006872D01*
X001532Y006786D01*
X001555Y006703D01*
X001588Y006623D01*
X001631Y006548D01*
X001684Y006479D01*
X001745Y006418D01*
X001813Y006365D01*
X001888Y006322D01*
X001968Y006289D01*
X002052Y006266D01*
X002138Y006255D01*
X002142Y006255D01*
X002142Y006876D01*
X002219Y006876D01*
X002219Y006255D01*
X002224Y006255D01*
X002310Y006266D01*
X002394Y006289D01*
X002473Y006322D01*
X002548Y006365D01*
X002617Y006418D01*
X002678Y006479D01*
X002731Y006548D01*
X002774Y006623D01*
X002807Y006703D01*
X002830Y006786D01*
X002841Y006872D01*
X002841Y006877D01*
X002220Y006877D01*
X002220Y006954D01*
X002841Y006954D01*
X002841Y006958D01*
X002830Y007044D01*
X002807Y007128D01*
X002774Y007208D01*
X002731Y007283D01*
X002678Y007351D01*
X002617Y007412D01*
X002548Y007465D01*
X002473Y007508D01*
X002394Y007541D01*
X002219Y007541D02*
X002142Y007541D01*
X002142Y007575D02*
X002138Y007575D01*
X002052Y007564D01*
X001968Y007541D01*
X001888Y007508D01*
X001813Y007465D01*
X001745Y007412D01*
X001684Y007351D01*
X001631Y007283D01*
X001588Y007208D01*
X001555Y007128D01*
X001532Y007044D01*
X001521Y006958D01*
X001521Y006954D01*
X002142Y006954D01*
X002142Y007575D01*
X002142Y007422D02*
X002219Y007422D01*
X002219Y007304D02*
X002142Y007304D01*
X002142Y007185D02*
X002219Y007185D01*
X002219Y007067D02*
X002142Y007067D01*
X002142Y006948D02*
X000845Y006948D01*
X000845Y006829D02*
X001527Y006829D01*
X001552Y006711D02*
X000845Y006711D01*
X000845Y006592D02*
X001605Y006592D01*
X001689Y006474D02*
X000845Y006474D01*
X000845Y006355D02*
X001831Y006355D01*
X002142Y006355D02*
X002219Y006355D01*
X002219Y006474D02*
X002142Y006474D01*
X002142Y006592D02*
X002219Y006592D01*
X002219Y006711D02*
X002142Y006711D01*
X002142Y006829D02*
X002219Y006829D01*
X002220Y006948D02*
X003469Y006948D01*
X003469Y006829D02*
X002835Y006829D01*
X002809Y006711D02*
X003498Y006711D01*
X003547Y006592D02*
X002757Y006592D01*
X002673Y006474D02*
X003629Y006474D01*
X003748Y006355D02*
X002531Y006355D01*
X002824Y007067D02*
X003476Y007067D01*
X003525Y007185D02*
X002784Y007185D01*
X002715Y007304D02*
X003576Y007304D01*
X003695Y007422D02*
X002604Y007422D01*
X001967Y007541D02*
X000845Y007541D01*
X000845Y007659D02*
X017115Y007659D01*
X017117Y007778D02*
X000845Y007778D01*
X000845Y007896D02*
X017166Y007896D01*
X017237Y008015D02*
X000845Y008015D01*
X000845Y008133D02*
X017359Y008133D01*
X017972Y008133D02*
X018417Y008133D01*
X018265Y008015D02*
X018093Y008015D01*
X018165Y007896D02*
X018188Y007896D01*
X018646Y007896D02*
X018684Y007896D01*
X018684Y007778D02*
X018646Y007778D01*
X018646Y008015D02*
X018684Y008015D01*
X018684Y008133D02*
X018646Y008133D01*
X018914Y008133D02*
X019359Y008133D01*
X019237Y008015D02*
X019065Y008015D01*
X019142Y007896D02*
X019166Y007896D01*
X019665Y007665D02*
X019165Y007165D01*
X019165Y006165D01*
X018725Y006118D02*
X018605Y006118D01*
X018605Y006000D02*
X018725Y006000D01*
X018725Y005881D02*
X018605Y005881D01*
X018582Y005763D02*
X018748Y005763D01*
X018804Y005644D02*
X018526Y005644D01*
X018398Y005525D02*
X018932Y005525D01*
X019398Y005525D02*
X019985Y005525D01*
X020004Y005516D02*
X020067Y005496D01*
X020132Y005485D01*
X020145Y005485D01*
X020145Y006145D01*
X019745Y006145D01*
X019745Y005872D01*
X019756Y005807D01*
X019776Y005744D01*
X019806Y005685D01*
X019845Y005632D01*
X019892Y005585D01*
X019945Y005546D01*
X020004Y005516D01*
X020145Y005525D02*
X020185Y005525D01*
X020185Y005485D02*
X020198Y005485D01*
X020264Y005496D01*
X020326Y005516D01*
X020385Y005546D01*
X020439Y005585D01*
X020486Y005632D01*
X020524Y005685D01*
X020554Y005744D01*
X020575Y005807D01*
X020585Y005872D01*
X020585Y006145D01*
X020185Y006145D01*
X020185Y005485D01*
X020185Y005644D02*
X020145Y005644D01*
X020145Y005763D02*
X020185Y005763D01*
X020185Y005881D02*
X020145Y005881D01*
X020145Y006000D02*
X020185Y006000D01*
X020185Y006118D02*
X020145Y006118D01*
X020145Y006145D02*
X020185Y006145D01*
X020185Y006185D01*
X020145Y006185D01*
X020145Y006145D01*
X020145Y006185D02*
X019745Y006185D01*
X019745Y006458D01*
X019756Y006524D01*
X019776Y006586D01*
X019806Y006645D01*
X019845Y006699D01*
X019892Y006746D01*
X019945Y006784D01*
X020004Y006814D01*
X020067Y006835D01*
X020132Y006845D01*
X020145Y006845D01*
X020145Y006185D01*
X020185Y006185D02*
X020185Y006845D01*
X020198Y006845D01*
X020264Y006835D01*
X020326Y006814D01*
X020385Y006784D01*
X020439Y006746D01*
X020486Y006699D01*
X020524Y006645D01*
X020554Y006586D01*
X020575Y006524D01*
X020585Y006458D01*
X020585Y006185D01*
X020185Y006185D01*
X020185Y006237D02*
X020145Y006237D01*
X020145Y006355D02*
X020185Y006355D01*
X020185Y006474D02*
X020145Y006474D01*
X020145Y006592D02*
X020185Y006592D01*
X020185Y006711D02*
X020145Y006711D01*
X020145Y006829D02*
X020185Y006829D01*
X020280Y006829D02*
X020865Y006829D01*
X020865Y006948D02*
X019405Y006948D01*
X019405Y006829D02*
X020050Y006829D01*
X019857Y006711D02*
X019502Y006711D01*
X019572Y006592D02*
X019779Y006592D01*
X019748Y006474D02*
X019605Y006474D01*
X019605Y006355D02*
X019745Y006355D01*
X019745Y006237D02*
X019605Y006237D01*
X019605Y006118D02*
X019745Y006118D01*
X019745Y006000D02*
X019605Y006000D01*
X019605Y005881D02*
X019745Y005881D01*
X019770Y005763D02*
X019582Y005763D01*
X019526Y005644D02*
X019836Y005644D01*
X020345Y005525D02*
X020932Y005525D01*
X020804Y005644D02*
X020495Y005644D01*
X020560Y005763D02*
X020748Y005763D01*
X020725Y005881D02*
X020585Y005881D01*
X020585Y006000D02*
X020725Y006000D01*
X020725Y006118D02*
X020585Y006118D01*
X020585Y006237D02*
X020725Y006237D01*
X020725Y006355D02*
X020585Y006355D01*
X020583Y006474D02*
X020725Y006474D01*
X020758Y006592D02*
X020551Y006592D01*
X020473Y006711D02*
X020829Y006711D01*
X020865Y007067D02*
X019406Y007067D01*
X019943Y007185D02*
X020865Y007185D01*
X020898Y007304D02*
X020081Y007304D01*
X020160Y007422D02*
X020998Y007422D01*
X021116Y007541D02*
X020209Y007541D01*
X020215Y007659D02*
X021225Y007659D01*
X021225Y007778D02*
X020214Y007778D01*
X020165Y007896D02*
X021274Y007896D01*
X021365Y008015D02*
X020093Y008015D01*
X019972Y008133D02*
X021365Y008133D01*
X021965Y008133D02*
X022941Y008133D01*
X022932Y008015D02*
X022909Y008015D01*
X022685Y008015D02*
X022645Y008015D01*
X022645Y008085D02*
X022491Y008085D01*
X022245Y007839D01*
X022245Y007685D01*
X022645Y007685D01*
X022645Y007645D01*
X022685Y007645D01*
X022685Y007245D01*
X022839Y007245D01*
X023085Y007491D01*
X023085Y007645D01*
X022685Y007645D01*
X022685Y007685D01*
X022645Y007685D01*
X022645Y008085D01*
X022645Y007896D02*
X022685Y007896D01*
X022685Y007778D02*
X022645Y007778D01*
X022645Y007659D02*
X022105Y007659D01*
X022105Y007541D02*
X022245Y007541D01*
X022245Y007491D02*
X022491Y007245D01*
X022645Y007245D01*
X022645Y007645D01*
X022245Y007645D01*
X022245Y007491D01*
X022314Y007422D02*
X022044Y007422D01*
X021926Y007304D02*
X022433Y007304D01*
X022645Y007304D02*
X022685Y007304D01*
X022685Y007422D02*
X022645Y007422D01*
X022645Y007541D02*
X022685Y007541D01*
X022685Y007659D02*
X023332Y007659D01*
X023425Y007541D02*
X023085Y007541D01*
X023016Y007422D02*
X023425Y007422D01*
X023425Y007304D02*
X022898Y007304D01*
X022991Y006829D02*
X022339Y006829D01*
X022414Y006798D02*
X022253Y006865D01*
X022078Y006865D01*
X021916Y006798D01*
X021792Y006674D01*
X021725Y006513D01*
X021725Y005818D01*
X021792Y005656D01*
X021916Y005532D01*
X022078Y005465D01*
X022253Y005465D01*
X022414Y005532D01*
X022538Y005656D01*
X022605Y005818D01*
X022605Y006513D01*
X022538Y006674D01*
X022414Y006798D01*
X022502Y006711D02*
X022829Y006711D01*
X022758Y006592D02*
X022572Y006592D01*
X022605Y006474D02*
X022725Y006474D01*
X022725Y006355D02*
X022605Y006355D01*
X022605Y006237D02*
X022725Y006237D01*
X022725Y006118D02*
X022605Y006118D01*
X022605Y006000D02*
X022725Y006000D01*
X022725Y005881D02*
X022605Y005881D01*
X022582Y005763D02*
X022748Y005763D01*
X022804Y005644D02*
X022526Y005644D01*
X022398Y005525D02*
X022932Y005525D01*
X023398Y005525D02*
X023425Y005525D01*
X023665Y005165D02*
X023665Y007665D01*
X023290Y008040D01*
X023640Y008133D02*
X037175Y008133D01*
X037175Y008015D02*
X023655Y008015D01*
X023773Y007896D02*
X037175Y007896D01*
X037175Y007778D02*
X023878Y007778D01*
X023905Y007659D02*
X037175Y007659D01*
X037175Y007541D02*
X023905Y007541D01*
X023905Y007422D02*
X037165Y007422D01*
X037085Y007304D02*
X023905Y007304D01*
X023905Y007185D02*
X037057Y007185D01*
X037068Y007067D02*
X023905Y007067D01*
X023905Y006948D02*
X037126Y006948D01*
X037289Y006829D02*
X027339Y006829D01*
X027502Y006711D02*
X039855Y006711D01*
X039855Y006829D02*
X037541Y006829D01*
X037705Y006948D02*
X039855Y006948D01*
X039855Y007067D02*
X037762Y007067D01*
X037774Y007185D02*
X039855Y007185D01*
X039855Y007304D02*
X037746Y007304D01*
X037415Y007165D02*
X037415Y008165D01*
X037665Y008415D01*
X037665Y010165D01*
X038665Y011165D01*
X039165Y011165D01*
X039640Y010978D02*
X039855Y010978D01*
X039855Y010860D02*
X039581Y010860D01*
X039463Y010741D02*
X039855Y010741D01*
X039855Y010623D02*
X039393Y010623D01*
X039547Y010504D02*
X039855Y010504D01*
X039855Y010386D02*
X039626Y010386D01*
X039165Y010165D02*
X038665Y010165D01*
X037915Y009415D01*
X037915Y007665D01*
X038274Y007659D02*
X039855Y007659D01*
X039855Y007541D02*
X038252Y007541D01*
X038179Y007422D02*
X039855Y007422D01*
X039855Y007778D02*
X039466Y007778D01*
X039484Y007791D02*
X039539Y007846D01*
X039584Y007908D01*
X039619Y007977D01*
X039643Y008050D01*
X039655Y008127D01*
X039204Y008127D01*
X039204Y008204D01*
X039127Y008204D01*
X039127Y008655D01*
X039127Y008655D01*
X039050Y008643D01*
X038977Y008619D01*
X038908Y008584D01*
X038846Y008539D01*
X038791Y008484D01*
X038746Y008422D01*
X038711Y008353D01*
X038687Y008280D01*
X038675Y008204D01*
X038675Y008204D01*
X039126Y008204D01*
X039126Y008127D01*
X038675Y008127D01*
X038675Y008127D01*
X038687Y008050D01*
X038711Y007977D01*
X038746Y007908D01*
X038791Y007846D01*
X038846Y007791D01*
X038908Y007746D01*
X038977Y007711D01*
X039050Y007687D01*
X039127Y007675D01*
X039127Y008126D01*
X039204Y008126D01*
X039204Y007675D01*
X039280Y007687D01*
X039353Y007711D01*
X039422Y007746D01*
X039484Y007791D01*
X039576Y007896D02*
X039855Y007896D01*
X039855Y008015D02*
X039632Y008015D01*
X039655Y008127D02*
X039655Y008127D01*
X039655Y008204D02*
X039655Y008204D01*
X039643Y008280D01*
X039619Y008353D01*
X039584Y008422D01*
X039539Y008484D01*
X039484Y008539D01*
X039422Y008584D01*
X039353Y008619D01*
X039280Y008643D01*
X039204Y008655D01*
X039204Y008655D01*
X039204Y008204D01*
X039655Y008204D01*
X039648Y008252D02*
X039855Y008252D01*
X039855Y008371D02*
X039610Y008371D01*
X039534Y008489D02*
X039855Y008489D01*
X039855Y008608D02*
X039376Y008608D01*
X039438Y008726D02*
X039855Y008726D01*
X039855Y008845D02*
X039566Y008845D01*
X039634Y008963D02*
X039855Y008963D01*
X039855Y009082D02*
X039675Y009082D01*
X039675Y009200D02*
X039855Y009200D01*
X039855Y009319D02*
X039654Y009319D01*
X039604Y009437D02*
X039855Y009437D01*
X039855Y009556D02*
X039496Y009556D01*
X039313Y009674D02*
X039855Y009674D01*
X039855Y009793D02*
X039514Y009793D01*
X039612Y009912D02*
X039855Y009912D01*
X039855Y010030D02*
X039661Y010030D01*
X039165Y009165D02*
X038665Y009165D01*
X038415Y008915D01*
X038725Y008726D02*
X038892Y008726D01*
X038954Y008608D02*
X038609Y008608D01*
X038796Y008489D02*
X038155Y008489D01*
X038155Y008371D02*
X038720Y008371D01*
X038683Y008252D02*
X038155Y008252D01*
X038155Y008133D02*
X039126Y008133D01*
X039204Y008133D02*
X039855Y008133D01*
X039204Y008015D02*
X039127Y008015D01*
X039127Y007896D02*
X039204Y007896D01*
X039204Y007778D02*
X039127Y007778D01*
X039127Y007675D02*
X039127Y007675D01*
X039204Y007675D02*
X039204Y007675D01*
X038865Y007778D02*
X038256Y007778D01*
X038191Y007896D02*
X038755Y007896D01*
X038699Y008015D02*
X038155Y008015D01*
X037400Y008489D02*
X037038Y008489D01*
X036920Y008371D02*
X037281Y008371D01*
X037191Y008252D02*
X036753Y008252D01*
X037157Y008608D02*
X037425Y008608D01*
X037425Y008726D02*
X037275Y008726D01*
X037394Y008845D02*
X037425Y008845D01*
X036865Y009164D02*
X036855Y009154D01*
X036855Y009347D01*
X036597Y009605D01*
X036233Y009605D01*
X036053Y009425D01*
X036047Y009425D01*
X036105Y009483D01*
X036105Y009847D01*
X035847Y010105D01*
X035483Y010105D01*
X035225Y009847D01*
X035225Y009483D01*
X035283Y009425D01*
X035019Y009425D01*
X035085Y009491D01*
X035085Y009645D01*
X034685Y009645D01*
X034685Y009685D01*
X034645Y009685D01*
X034645Y009645D01*
X034245Y009645D01*
X034245Y009491D01*
X034311Y009425D01*
X034047Y009425D01*
X034105Y009483D01*
X034105Y009847D01*
X033847Y010105D01*
X033483Y010105D01*
X033225Y009847D01*
X033225Y009483D01*
X033283Y009425D01*
X032777Y009425D01*
X032597Y009605D01*
X032233Y009605D01*
X032053Y009425D01*
X032047Y009425D01*
X032105Y009483D01*
X032105Y009847D01*
X031847Y010105D01*
X031483Y010105D01*
X031225Y009847D01*
X031225Y009483D01*
X031283Y009425D01*
X031019Y009425D01*
X031085Y009491D01*
X031085Y009645D01*
X030685Y009645D01*
X030685Y009685D01*
X030645Y009685D01*
X030645Y009645D01*
X030245Y009645D01*
X030245Y009491D01*
X030311Y009425D01*
X030047Y009425D01*
X030105Y009483D01*
X030105Y009847D01*
X029847Y010105D01*
X029483Y010105D01*
X029225Y009847D01*
X029225Y009483D01*
X029283Y009425D01*
X028777Y009425D01*
X028597Y009605D01*
X028233Y009605D01*
X028053Y009425D01*
X028047Y009425D01*
X028105Y009483D01*
X028105Y009847D01*
X027847Y010105D01*
X027483Y010105D01*
X027225Y009847D01*
X027225Y009483D01*
X027283Y009425D01*
X027019Y009425D01*
X027085Y009491D01*
X027085Y009645D01*
X026685Y009645D01*
X026685Y009685D01*
X026645Y009685D01*
X026645Y009645D01*
X026245Y009645D01*
X026245Y009491D01*
X026311Y009425D01*
X026047Y009425D01*
X026105Y009483D01*
X026105Y009847D01*
X025847Y010105D01*
X025483Y010105D01*
X025225Y009847D01*
X025225Y009483D01*
X025283Y009425D01*
X024777Y009425D01*
X024597Y009605D01*
X024233Y009605D01*
X024053Y009425D01*
X024047Y009425D01*
X024105Y009483D01*
X024105Y009847D01*
X023847Y010105D01*
X023483Y010105D01*
X023225Y009847D01*
X023225Y009483D01*
X023283Y009425D01*
X023019Y009425D01*
X023085Y009491D01*
X023085Y009645D01*
X022685Y009645D01*
X022685Y009685D01*
X022645Y009685D01*
X022645Y009645D01*
X022245Y009645D01*
X022245Y009491D01*
X022311Y009425D01*
X022047Y009425D01*
X022105Y009483D01*
X022105Y009847D01*
X021847Y010105D01*
X021483Y010105D01*
X021225Y009847D01*
X021225Y009483D01*
X021283Y009425D01*
X020777Y009425D01*
X020597Y009605D01*
X020233Y009605D01*
X020053Y009425D01*
X020047Y009425D01*
X020105Y009483D01*
X020105Y009847D01*
X019847Y010105D01*
X019483Y010105D01*
X019225Y009847D01*
X019225Y009483D01*
X019283Y009425D01*
X019019Y009425D01*
X019085Y009491D01*
X019085Y009645D01*
X018685Y009645D01*
X018685Y009685D01*
X018645Y009685D01*
X018645Y009645D01*
X018245Y009645D01*
X018245Y009491D01*
X018311Y009425D01*
X018047Y009425D01*
X018105Y009483D01*
X018105Y009847D01*
X017847Y010105D01*
X017483Y010105D01*
X017225Y009847D01*
X017225Y009483D01*
X017283Y009425D01*
X016777Y009425D01*
X016597Y009605D01*
X016233Y009605D01*
X016053Y009425D01*
X016047Y009425D01*
X016105Y009483D01*
X016105Y009847D01*
X015847Y010105D01*
X015483Y010105D01*
X015225Y009847D01*
X015225Y009483D01*
X015283Y009425D01*
X015019Y009425D01*
X015085Y009491D01*
X015085Y009645D01*
X014685Y009645D01*
X014685Y009685D01*
X014645Y009685D01*
X014645Y009645D01*
X014245Y009645D01*
X014245Y009491D01*
X014311Y009425D01*
X014047Y009425D01*
X014105Y009483D01*
X014105Y009847D01*
X013847Y010105D01*
X013483Y010105D01*
X013225Y009847D01*
X013225Y009483D01*
X013283Y009425D01*
X012777Y009425D01*
X012597Y009605D01*
X012233Y009605D01*
X012053Y009425D01*
X012047Y009425D01*
X012105Y009483D01*
X012105Y009847D01*
X011847Y010105D01*
X011483Y010105D01*
X011225Y009847D01*
X011225Y009483D01*
X011283Y009425D01*
X011019Y009425D01*
X011085Y009491D01*
X011085Y009645D01*
X010685Y009645D01*
X010685Y009685D01*
X010645Y009685D01*
X010645Y009645D01*
X010245Y009645D01*
X010245Y009491D01*
X010311Y009425D01*
X010047Y009425D01*
X010105Y009483D01*
X010105Y009847D01*
X009847Y010105D01*
X009483Y010105D01*
X009225Y009847D01*
X009225Y009483D01*
X009283Y009425D01*
X008777Y009425D01*
X008597Y009605D01*
X008233Y009605D01*
X007975Y009347D01*
X007975Y008983D01*
X008118Y008840D01*
X004914Y008840D01*
X003865Y009889D01*
X003865Y010343D01*
X003938Y010416D01*
X004005Y010578D01*
X004005Y010738D01*
X004886Y011618D01*
X004925Y011713D01*
X004925Y011817D01*
X004925Y013783D01*
X004983Y013725D01*
X005347Y013725D01*
X005605Y013983D01*
X005605Y014347D01*
X005527Y014425D01*
X006053Y014425D01*
X005975Y014347D01*
X005975Y013983D01*
X006233Y013725D01*
X006597Y013725D01*
X006855Y013983D01*
X006855Y014347D01*
X006777Y014425D01*
X007303Y014425D01*
X007225Y014347D01*
X007225Y013983D01*
X007483Y013725D01*
X007847Y013725D01*
X008105Y013983D01*
X008105Y014347D01*
X008027Y014425D01*
X008553Y014425D01*
X008475Y014347D01*
X008475Y013983D01*
X008733Y013725D01*
X009097Y013725D01*
X009355Y013983D01*
X009355Y014347D01*
X009277Y014425D01*
X009803Y014425D01*
X009725Y014347D01*
X009725Y013983D01*
X009983Y013725D01*
X010347Y013725D01*
X010605Y013983D01*
X010605Y014347D01*
X010527Y014425D01*
X011053Y014425D01*
X010975Y014347D01*
X010975Y013983D01*
X011233Y013725D01*
X011597Y013725D01*
X011855Y013983D01*
X011855Y014347D01*
X011777Y014425D01*
X012553Y014425D01*
X012475Y014347D01*
X012475Y013983D01*
X012733Y013725D01*
X013097Y013725D01*
X013355Y013983D01*
X013355Y014347D01*
X013277Y014425D01*
X013803Y014425D01*
X013725Y014347D01*
X013725Y013983D01*
X013983Y013725D01*
X014347Y013725D01*
X014605Y013983D01*
X014605Y014347D01*
X014527Y014425D01*
X015053Y014425D01*
X014975Y014347D01*
X014975Y013983D01*
X015233Y013725D01*
X015597Y013725D01*
X015855Y013983D01*
X015855Y014347D01*
X015777Y014425D01*
X016553Y014425D01*
X016475Y014347D01*
X016475Y013983D01*
X016733Y013725D01*
X017097Y013725D01*
X017355Y013983D01*
X017355Y014347D01*
X017277Y014425D01*
X017803Y014425D01*
X017725Y014347D01*
X017725Y013983D01*
X017983Y013725D01*
X018347Y013725D01*
X018605Y013983D01*
X018605Y014347D01*
X018527Y014425D01*
X019053Y014425D01*
X018975Y014347D01*
X018975Y013983D01*
X019233Y013725D01*
X019597Y013725D01*
X019855Y013983D01*
X019855Y014347D01*
X019777Y014425D01*
X020553Y014425D01*
X020475Y014347D01*
X020475Y013983D01*
X020733Y013725D01*
X021097Y013725D01*
X021355Y013983D01*
X021355Y014347D01*
X021277Y014425D01*
X021803Y014425D01*
X021725Y014347D01*
X021725Y013983D01*
X021983Y013725D01*
X022347Y013725D01*
X022605Y013983D01*
X022605Y014347D01*
X022527Y014425D01*
X023053Y014425D01*
X022975Y014347D01*
X022975Y013983D01*
X023233Y013725D01*
X023597Y013725D01*
X023855Y013983D01*
X023855Y014347D01*
X023777Y014425D01*
X024553Y014425D01*
X024475Y014347D01*
X024475Y013983D01*
X024733Y013725D01*
X025097Y013725D01*
X025355Y013983D01*
X025355Y014347D01*
X025277Y014425D01*
X025803Y014425D01*
X025725Y014347D01*
X025725Y013983D01*
X025983Y013725D01*
X026347Y013725D01*
X026605Y013983D01*
X026605Y014347D01*
X026527Y014425D01*
X027053Y014425D01*
X026975Y014347D01*
X026975Y013983D01*
X027233Y013725D01*
X027597Y013725D01*
X027855Y013983D01*
X027855Y014347D01*
X027777Y014425D01*
X028553Y014425D01*
X028475Y014347D01*
X028475Y013983D01*
X028733Y013725D01*
X029097Y013725D01*
X029355Y013983D01*
X029355Y014347D01*
X029277Y014425D01*
X029803Y014425D01*
X029725Y014347D01*
X029725Y013983D01*
X029983Y013725D01*
X030347Y013725D01*
X030605Y013983D01*
X030605Y014347D01*
X030527Y014425D01*
X031053Y014425D01*
X030975Y014347D01*
X030975Y013983D01*
X031233Y013725D01*
X031597Y013725D01*
X031855Y013983D01*
X031855Y014347D01*
X031777Y014425D01*
X032553Y014425D01*
X032475Y014347D01*
X032475Y013983D01*
X032733Y013725D01*
X033097Y013725D01*
X033355Y013983D01*
X033355Y014347D01*
X033277Y014425D01*
X033803Y014425D01*
X033725Y014347D01*
X033725Y013983D01*
X033983Y013725D01*
X034347Y013725D01*
X034605Y013983D01*
X034605Y014347D01*
X034527Y014425D01*
X035053Y014425D01*
X034975Y014347D01*
X034975Y013983D01*
X035233Y013725D01*
X035597Y013725D01*
X035855Y013983D01*
X035855Y014347D01*
X035777Y014425D01*
X035963Y014425D01*
X036051Y014462D01*
X036119Y014529D01*
X036155Y014617D01*
X036155Y014713D01*
X036155Y016433D01*
X036190Y016348D01*
X036348Y016190D01*
X036554Y016105D01*
X036777Y016105D01*
X036794Y016112D01*
X037865Y015041D01*
X037865Y012289D01*
X036911Y011335D01*
X036865Y011225D01*
X036865Y011105D01*
X036865Y009164D01*
X036865Y009200D02*
X036855Y009200D01*
X036855Y009319D02*
X036865Y009319D01*
X036865Y009437D02*
X036765Y009437D01*
X036865Y009556D02*
X036647Y009556D01*
X036597Y009725D02*
X036233Y009725D01*
X035975Y009983D01*
X035975Y010347D01*
X036233Y010605D01*
X036597Y010605D01*
X036855Y010347D01*
X036855Y009983D01*
X036597Y009725D01*
X036665Y009793D02*
X036865Y009793D01*
X036865Y009674D02*
X036105Y009674D01*
X036105Y009556D02*
X036184Y009556D01*
X036065Y009437D02*
X036060Y009437D01*
X036105Y009793D02*
X036165Y009793D01*
X036047Y009912D02*
X036041Y009912D01*
X035975Y010030D02*
X035922Y010030D01*
X035975Y010149D02*
X032855Y010149D01*
X032855Y010267D02*
X035975Y010267D01*
X036014Y010386D02*
X032817Y010386D01*
X032855Y010347D02*
X032597Y010605D01*
X032233Y010605D01*
X031975Y010347D01*
X031975Y009983D01*
X032233Y009725D01*
X032597Y009725D01*
X032855Y009983D01*
X032855Y010347D01*
X032698Y010504D02*
X036132Y010504D01*
X035732Y010860D02*
X036865Y010860D01*
X036865Y010978D02*
X035851Y010978D01*
X035855Y010983D02*
X035597Y010725D01*
X035233Y010725D01*
X034975Y010983D01*
X034975Y011347D01*
X035233Y011605D01*
X035597Y011605D01*
X035855Y011347D01*
X035855Y010983D01*
X035855Y011097D02*
X036865Y011097D01*
X036865Y011216D02*
X035855Y011216D01*
X035855Y011334D02*
X036910Y011334D01*
X037028Y011453D02*
X035750Y011453D01*
X035631Y011571D02*
X037147Y011571D01*
X037265Y011690D02*
X004915Y011690D01*
X004983Y011605D02*
X004725Y011347D01*
X004725Y010983D01*
X004983Y010725D01*
X005347Y010725D01*
X005605Y010983D01*
X005605Y011347D01*
X005347Y011605D01*
X004983Y011605D01*
X004949Y011571D02*
X004839Y011571D01*
X004830Y011453D02*
X004720Y011453D01*
X004725Y011334D02*
X004602Y011334D01*
X004483Y011216D02*
X004725Y011216D01*
X004725Y011097D02*
X004365Y011097D01*
X004246Y010978D02*
X004730Y010978D01*
X004848Y010860D02*
X004128Y010860D01*
X004009Y010741D02*
X004967Y010741D01*
X005364Y010741D02*
X006217Y010741D01*
X006233Y010725D02*
X006597Y010725D01*
X006855Y010983D01*
X006855Y011347D01*
X006597Y011605D01*
X006233Y011605D01*
X005975Y011347D01*
X005975Y010983D01*
X006233Y010725D01*
X006098Y010860D02*
X005482Y010860D01*
X005601Y010978D02*
X005980Y010978D01*
X005975Y011097D02*
X005605Y011097D01*
X005605Y011216D02*
X005975Y011216D01*
X005975Y011334D02*
X005605Y011334D01*
X005500Y011453D02*
X006080Y011453D01*
X006199Y011571D02*
X005381Y011571D01*
X004925Y011808D02*
X037384Y011808D01*
X037503Y011927D02*
X004925Y011927D01*
X004925Y012045D02*
X037621Y012045D01*
X037740Y012164D02*
X036918Y012164D01*
X036982Y012190D02*
X037140Y012348D01*
X037225Y012554D01*
X037225Y012777D01*
X037140Y012982D01*
X036982Y013140D01*
X036777Y013225D01*
X036554Y013225D01*
X036348Y013140D01*
X036190Y012982D01*
X036105Y012777D01*
X036105Y012554D01*
X036190Y012348D01*
X036348Y012190D01*
X036554Y012105D01*
X036777Y012105D01*
X036982Y012190D01*
X037074Y012282D02*
X037858Y012282D01*
X037865Y012401D02*
X037162Y012401D01*
X037211Y012520D02*
X037865Y012520D01*
X037865Y012638D02*
X037225Y012638D01*
X037225Y012757D02*
X037865Y012757D01*
X037865Y012875D02*
X037184Y012875D01*
X037129Y012994D02*
X037865Y012994D01*
X037865Y013112D02*
X037010Y013112D01*
X036320Y013112D02*
X004925Y013112D01*
X004925Y012994D02*
X036202Y012994D01*
X036146Y012875D02*
X004925Y012875D01*
X004925Y012757D02*
X036105Y012757D01*
X036105Y012638D02*
X004925Y012638D01*
X004925Y012520D02*
X036119Y012520D01*
X036168Y012401D02*
X004925Y012401D01*
X004925Y012282D02*
X036256Y012282D01*
X036412Y012164D02*
X004925Y012164D01*
X004405Y012164D02*
X000845Y012164D01*
X000845Y012282D02*
X004405Y012282D01*
X004405Y012045D02*
X000845Y012045D01*
X000845Y011927D02*
X004405Y011927D01*
X004341Y011808D02*
X000845Y011808D01*
X000845Y011690D02*
X004222Y011690D01*
X004104Y011571D02*
X000845Y011571D01*
X000845Y011453D02*
X003985Y011453D01*
X003866Y011334D02*
X000845Y011334D01*
X000845Y011216D02*
X003748Y011216D01*
X003458Y011097D02*
X000845Y011097D01*
X000845Y010978D02*
X002485Y010978D01*
X002591Y011085D02*
X002345Y010839D01*
X002345Y010685D01*
X002745Y010685D01*
X002745Y011085D01*
X002591Y011085D01*
X002745Y010978D02*
X002785Y010978D01*
X002785Y010860D02*
X002745Y010860D01*
X002745Y010741D02*
X002785Y010741D01*
X002745Y010645D02*
X002345Y010645D01*
X002345Y010491D01*
X002591Y010245D01*
X002745Y010245D01*
X002745Y010645D01*
X002745Y010623D02*
X002785Y010623D01*
X002785Y010504D02*
X002745Y010504D01*
X002745Y010386D02*
X002785Y010386D01*
X002785Y010267D02*
X002745Y010267D01*
X002569Y010267D02*
X000845Y010267D01*
X000845Y010149D02*
X003265Y010149D01*
X003265Y010267D02*
X002961Y010267D01*
X003080Y010386D02*
X003222Y010386D01*
X002451Y010386D02*
X000845Y010386D01*
X000845Y010504D02*
X002345Y010504D01*
X002345Y010623D02*
X000845Y010623D01*
X000845Y010741D02*
X002345Y010741D01*
X002366Y010860D02*
X000845Y010860D01*
X000845Y010030D02*
X003265Y010030D01*
X003265Y009912D02*
X000845Y009912D01*
X000845Y009793D02*
X003265Y009793D01*
X003278Y009674D02*
X000845Y009674D01*
X000845Y009556D02*
X003350Y009556D01*
X003469Y009437D02*
X000845Y009437D01*
X000845Y009319D02*
X003587Y009319D01*
X003706Y009200D02*
X000845Y009200D01*
X000845Y009082D02*
X003824Y009082D01*
X003943Y008963D02*
X000845Y008963D01*
X000845Y008845D02*
X004061Y008845D01*
X004180Y008726D02*
X000845Y008726D01*
X000845Y008608D02*
X004299Y008608D01*
X004417Y008489D02*
X000845Y008489D01*
X000845Y008371D02*
X004536Y008371D01*
X004536Y008370D02*
X004536Y008370D01*
X004702Y008252D02*
X000845Y008252D01*
X000845Y007422D02*
X001758Y007422D01*
X001647Y007304D02*
X000845Y007304D01*
X000845Y007185D02*
X001578Y007185D01*
X001538Y007067D02*
X000845Y007067D01*
X000845Y005051D02*
X005429Y005051D01*
X005311Y004933D02*
X000845Y004933D01*
X000845Y004814D02*
X005225Y004814D01*
X005225Y004696D02*
X000845Y004696D01*
X000845Y004577D02*
X005225Y004577D01*
X005250Y004459D02*
X000845Y004459D01*
X000845Y004340D02*
X005368Y004340D01*
X005769Y004221D02*
X000845Y004221D01*
X000845Y004103D02*
X005888Y004103D01*
X006007Y003984D02*
X000845Y003984D01*
X000845Y003866D02*
X006125Y003866D01*
X006244Y003747D02*
X002657Y003747D01*
X002959Y003629D02*
X006362Y003629D01*
X006481Y003510D02*
X003164Y003510D01*
X003303Y003392D02*
X006599Y003392D01*
X006718Y003273D02*
X003413Y003273D01*
X003523Y003155D02*
X006836Y003155D01*
X006925Y003036D02*
X005916Y003036D01*
X005847Y003105D02*
X005483Y003105D01*
X005225Y002847D01*
X005225Y002483D01*
X005483Y002225D01*
X005847Y002225D01*
X006105Y002483D01*
X006105Y002847D01*
X005847Y003105D01*
X006035Y002918D02*
X006925Y002918D01*
X006925Y002799D02*
X006105Y002799D01*
X006105Y002680D02*
X006925Y002680D01*
X006925Y002562D02*
X006105Y002562D01*
X006066Y002443D02*
X006925Y002443D01*
X006925Y002325D02*
X005947Y002325D01*
X005383Y002325D02*
X003807Y002325D01*
X003815Y002206D02*
X006925Y002206D01*
X006925Y002088D02*
X003797Y002088D01*
X003779Y001969D02*
X006925Y001969D01*
X006925Y001851D02*
X003761Y001851D01*
X003729Y001732D02*
X006925Y001732D01*
X006927Y001614D02*
X003672Y001614D01*
X003615Y001495D02*
X006996Y001495D01*
X007114Y001376D02*
X003558Y001376D01*
X003545Y001350D02*
X003545Y001350D01*
X003460Y001258D02*
X007233Y001258D01*
X007352Y001139D02*
X003350Y001139D01*
X003240Y001021D02*
X007470Y001021D01*
X007589Y000902D02*
X003048Y000902D01*
X003225Y001005D02*
X003225Y001005D01*
X003789Y002443D02*
X005265Y002443D01*
X005225Y002562D02*
X003771Y002562D01*
X003754Y002680D02*
X005225Y002680D01*
X005225Y002799D02*
X003705Y002799D01*
X003750Y002706D02*
X003750Y002706D01*
X003648Y002918D02*
X005295Y002918D01*
X005414Y003036D02*
X003591Y003036D01*
X003545Y003130D02*
X003545Y003130D01*
X003545Y003130D01*
X001804Y003747D02*
X000845Y003747D01*
X000845Y003629D02*
X001502Y003629D01*
X001450Y003608D02*
X001450Y003608D01*
X001327Y003510D02*
X000845Y003510D01*
X000845Y003392D02*
X001178Y003392D01*
X001054Y003273D02*
X000845Y003273D01*
X000845Y003155D02*
X000973Y003155D01*
X000892Y003036D02*
X000845Y003036D01*
X005665Y004665D02*
X007165Y003165D01*
X007165Y001665D01*
X007915Y000915D01*
X012165Y000915D01*
X011165Y001665D02*
X011665Y002165D01*
X012540Y002165D01*
X012790Y002415D01*
X012790Y003415D01*
X013290Y003915D01*
X016040Y003915D01*
X016165Y003790D01*
X016165Y003165D01*
X017165Y003165D02*
X017165Y003790D01*
X016790Y004165D01*
X013165Y004165D01*
X012165Y003165D01*
X012165Y002665D01*
X011165Y002665D02*
X011165Y003165D01*
X012415Y004415D01*
X017540Y004415D01*
X018165Y003790D01*
X018165Y003165D01*
X018310Y003984D02*
X024145Y003984D01*
X024264Y004103D02*
X018192Y004103D01*
X018073Y004221D02*
X024382Y004221D01*
X024501Y004340D02*
X017955Y004340D01*
X017836Y004459D02*
X024619Y004459D01*
X024738Y004577D02*
X017718Y004577D01*
X017932Y005525D02*
X017398Y005525D01*
X017414Y005532D02*
X017538Y005656D01*
X017605Y005818D01*
X017605Y006513D01*
X017538Y006674D01*
X017414Y006798D01*
X017253Y006865D01*
X017078Y006865D01*
X016916Y006798D01*
X016792Y006674D01*
X016725Y006513D01*
X016725Y005818D01*
X016792Y005656D01*
X016916Y005532D01*
X017078Y005465D01*
X017253Y005465D01*
X017414Y005532D01*
X017526Y005644D02*
X017804Y005644D01*
X017748Y005763D02*
X017582Y005763D01*
X017605Y005881D02*
X017725Y005881D01*
X017725Y006000D02*
X017605Y006000D01*
X017605Y006118D02*
X017725Y006118D01*
X017725Y006237D02*
X017605Y006237D01*
X017605Y006355D02*
X017725Y006355D01*
X017725Y006474D02*
X017605Y006474D01*
X017572Y006592D02*
X017758Y006592D01*
X017829Y006711D02*
X017502Y006711D01*
X017339Y006829D02*
X017925Y006829D01*
X018165Y007165D02*
X017665Y007665D01*
X018165Y007165D02*
X018165Y006165D01*
X018605Y006237D02*
X018725Y006237D01*
X018725Y006355D02*
X018605Y006355D01*
X018605Y006474D02*
X018725Y006474D01*
X018758Y006592D02*
X018572Y006592D01*
X018502Y006711D02*
X018829Y006711D01*
X018925Y006829D02*
X018405Y006829D01*
X018405Y006948D02*
X018925Y006948D01*
X018925Y007067D02*
X018405Y007067D01*
X018405Y007185D02*
X018440Y007185D01*
X018646Y007185D02*
X018684Y007185D01*
X018684Y007304D02*
X018646Y007304D01*
X018646Y007422D02*
X018684Y007422D01*
X018684Y007541D02*
X018646Y007541D01*
X018890Y007185D02*
X018925Y007185D01*
X016991Y006829D02*
X016339Y006829D01*
X016414Y006798D02*
X016253Y006865D01*
X016078Y006865D01*
X015916Y006798D01*
X015792Y006674D01*
X015725Y006513D01*
X015725Y005818D01*
X015792Y005656D01*
X015916Y005532D01*
X016078Y005465D01*
X016253Y005465D01*
X016414Y005532D01*
X016538Y005656D01*
X016605Y005818D01*
X016605Y006513D01*
X016538Y006674D01*
X016414Y006798D01*
X016502Y006711D02*
X016829Y006711D01*
X016758Y006592D02*
X016572Y006592D01*
X016605Y006474D02*
X016725Y006474D01*
X016725Y006355D02*
X016605Y006355D01*
X016605Y006237D02*
X016725Y006237D01*
X016725Y006118D02*
X016605Y006118D01*
X016605Y006000D02*
X016725Y006000D01*
X016725Y005881D02*
X016605Y005881D01*
X016582Y005763D02*
X016748Y005763D01*
X016804Y005644D02*
X016526Y005644D01*
X016398Y005525D02*
X016932Y005525D01*
X015932Y005525D02*
X015398Y005525D01*
X015526Y005644D02*
X015804Y005644D01*
X015748Y005763D02*
X015582Y005763D01*
X015605Y005881D02*
X015725Y005881D01*
X015725Y006000D02*
X015605Y006000D01*
X015605Y006118D02*
X015725Y006118D01*
X015725Y006237D02*
X015605Y006237D01*
X015605Y006355D02*
X015725Y006355D01*
X015725Y006474D02*
X015605Y006474D01*
X015572Y006592D02*
X015758Y006592D01*
X015829Y006711D02*
X015502Y006711D01*
X015339Y006829D02*
X015991Y006829D01*
X012238Y004577D02*
X011105Y004577D01*
X011081Y004459D02*
X012119Y004459D01*
X012001Y004340D02*
X010962Y004340D01*
X011645Y003984D02*
X006685Y003984D01*
X006804Y003866D02*
X011526Y003866D01*
X011408Y003747D02*
X006922Y003747D01*
X007041Y003629D02*
X011289Y003629D01*
X011171Y003510D02*
X007160Y003510D01*
X007278Y003392D02*
X011052Y003392D01*
X010950Y003273D02*
X007380Y003273D01*
X007405Y003155D02*
X010925Y003155D01*
X010857Y003036D02*
X010473Y003036D01*
X010592Y002918D02*
X010739Y002918D01*
X010685Y002799D02*
X010645Y002799D01*
X010645Y002680D02*
X010685Y002680D01*
X010685Y002562D02*
X010645Y002562D01*
X010665Y002165D02*
X010165Y002665D01*
X009685Y002680D02*
X009105Y002680D01*
X009105Y002562D02*
X009685Y002562D01*
X009708Y002443D02*
X009066Y002443D01*
X009105Y002483D02*
X008847Y002225D01*
X008483Y002225D01*
X008225Y002483D01*
X008225Y002847D01*
X008483Y003105D01*
X008847Y003105D01*
X009105Y002847D01*
X009105Y002483D01*
X008947Y002325D02*
X009827Y002325D01*
X009945Y002206D02*
X007405Y002206D01*
X007405Y002088D02*
X009937Y002088D01*
X009975Y002125D02*
X009705Y001856D01*
X009705Y001705D01*
X010125Y001705D01*
X010125Y002125D01*
X009975Y002125D01*
X010125Y002088D02*
X010205Y002088D01*
X010205Y001969D02*
X010125Y001969D01*
X010125Y001851D02*
X010205Y001851D01*
X010205Y001732D02*
X010125Y001732D01*
X010125Y001625D02*
X009705Y001625D01*
X009705Y001475D01*
X009975Y001205D01*
X010125Y001205D01*
X010125Y001625D01*
X010125Y001614D02*
X010205Y001614D01*
X010205Y001495D02*
X010125Y001495D01*
X010125Y001376D02*
X010205Y001376D01*
X010205Y001258D02*
X010125Y001258D01*
X009922Y001258D02*
X007912Y001258D01*
X007793Y001376D02*
X009803Y001376D01*
X009705Y001495D02*
X007675Y001495D01*
X007556Y001614D02*
X009705Y001614D01*
X009705Y001732D02*
X007438Y001732D01*
X007405Y001851D02*
X009705Y001851D01*
X009819Y001969D02*
X007405Y001969D01*
X007405Y002325D02*
X008383Y002325D01*
X008265Y002443D02*
X007405Y002443D01*
X007405Y002562D02*
X008225Y002562D01*
X008225Y002680D02*
X007405Y002680D01*
X007405Y002799D02*
X008225Y002799D01*
X008295Y002918D02*
X007405Y002918D01*
X007405Y003036D02*
X008414Y003036D01*
X008916Y003036D02*
X009857Y003036D01*
X009739Y002918D02*
X009035Y002918D01*
X009105Y002799D02*
X009685Y002799D01*
X010393Y002088D02*
X010403Y002088D01*
X010665Y002165D02*
X010665Y001290D01*
X014665Y000915D02*
X014665Y001915D01*
X011764Y004103D02*
X006567Y004103D01*
X006483Y004225D02*
X006847Y004225D01*
X007105Y004483D01*
X007105Y004847D01*
X006847Y005105D01*
X006483Y005105D01*
X006225Y004847D01*
X006225Y004483D01*
X006483Y004225D01*
X006448Y004221D02*
X011882Y004221D01*
X010368Y004340D02*
X009962Y004340D01*
X009847Y004225D02*
X010105Y004483D01*
X010105Y004847D01*
X009847Y005105D01*
X009483Y005105D01*
X009225Y004847D01*
X009225Y004483D01*
X009483Y004225D01*
X009847Y004225D01*
X010081Y004459D02*
X010250Y004459D01*
X010225Y004577D02*
X010105Y004577D01*
X010105Y004696D02*
X010225Y004696D01*
X010225Y004814D02*
X010105Y004814D01*
X010020Y004933D02*
X010311Y004933D01*
X010429Y005051D02*
X009901Y005051D01*
X009429Y005051D02*
X006901Y005051D01*
X007020Y004933D02*
X009311Y004933D01*
X009225Y004814D02*
X007105Y004814D01*
X007105Y004696D02*
X009225Y004696D01*
X009225Y004577D02*
X007105Y004577D01*
X007081Y004459D02*
X009250Y004459D01*
X009368Y004340D02*
X006962Y004340D01*
X006368Y004340D02*
X006330Y004340D01*
X006250Y004459D02*
X006211Y004459D01*
X006225Y004577D02*
X006105Y004577D01*
X006105Y004696D02*
X006225Y004696D01*
X006225Y004814D02*
X006105Y004814D01*
X006020Y004933D02*
X006311Y004933D01*
X006429Y005051D02*
X005901Y005051D01*
X006135Y005763D02*
X008724Y005763D01*
X008741Y005745D02*
X008895Y005745D01*
X008895Y006145D01*
X008935Y006145D01*
X008935Y005745D01*
X009089Y005745D01*
X009335Y005991D01*
X009335Y006145D01*
X008935Y006145D01*
X008935Y006185D01*
X009335Y006185D01*
X009335Y006339D01*
X009089Y006585D01*
X008935Y006585D01*
X008935Y006185D01*
X008895Y006185D01*
X008895Y006145D01*
X008495Y006145D01*
X008495Y005991D01*
X008741Y005745D01*
X008895Y005763D02*
X008935Y005763D01*
X008935Y005881D02*
X008895Y005881D01*
X008895Y006000D02*
X008935Y006000D01*
X008935Y006118D02*
X008895Y006118D01*
X008895Y006185D02*
X008495Y006185D01*
X008495Y006339D01*
X008741Y006585D01*
X008895Y006585D01*
X008895Y006185D01*
X008895Y006237D02*
X008935Y006237D01*
X008935Y006355D02*
X008895Y006355D01*
X008895Y006474D02*
X008935Y006474D01*
X009200Y006474D02*
X009602Y006474D01*
X009720Y006592D02*
X006110Y006592D01*
X006229Y006474D02*
X008630Y006474D01*
X008511Y006355D02*
X006347Y006355D01*
X006355Y006237D02*
X008495Y006237D01*
X008495Y006118D02*
X006355Y006118D01*
X006355Y006000D02*
X008495Y006000D01*
X008605Y005881D02*
X006253Y005881D01*
X009106Y005763D02*
X009696Y005763D01*
X009577Y005881D02*
X009225Y005881D01*
X009335Y006000D02*
X009475Y006000D01*
X009475Y006118D02*
X009335Y006118D01*
X009335Y006237D02*
X009475Y006237D01*
X009483Y006355D02*
X009319Y006355D01*
X008113Y008845D02*
X004910Y008845D01*
X004791Y008963D02*
X007995Y008963D01*
X007975Y009082D02*
X004673Y009082D01*
X004554Y009200D02*
X007975Y009200D01*
X007975Y009319D02*
X007941Y009319D01*
X007847Y009225D02*
X008105Y009483D01*
X008105Y009847D01*
X007847Y010105D01*
X007483Y010105D01*
X007225Y009847D01*
X007225Y009483D01*
X007483Y009225D01*
X007847Y009225D01*
X008060Y009437D02*
X008065Y009437D01*
X008105Y009556D02*
X008184Y009556D01*
X008105Y009674D02*
X009225Y009674D01*
X009225Y009556D02*
X008647Y009556D01*
X008765Y009437D02*
X009271Y009437D01*
X009225Y009793D02*
X008665Y009793D01*
X008597Y009725D02*
X008855Y009983D01*
X008855Y010347D01*
X008597Y010605D01*
X008233Y010605D01*
X007975Y010347D01*
X007975Y009983D01*
X008233Y009725D01*
X008597Y009725D01*
X008784Y009912D02*
X009289Y009912D01*
X009408Y010030D02*
X008855Y010030D01*
X008855Y010149D02*
X011975Y010149D01*
X011975Y010267D02*
X008855Y010267D01*
X008817Y010386D02*
X012014Y010386D01*
X011975Y010347D02*
X011975Y009983D01*
X012233Y009725D01*
X012597Y009725D01*
X012855Y009983D01*
X012855Y010347D01*
X012597Y010605D01*
X012233Y010605D01*
X011975Y010347D01*
X012132Y010504D02*
X008698Y010504D01*
X008733Y010725D02*
X009097Y010725D01*
X009355Y010983D01*
X009355Y011347D01*
X009097Y011605D01*
X008733Y011605D01*
X008475Y011347D01*
X008475Y010983D01*
X008733Y010725D01*
X008717Y010741D02*
X007864Y010741D01*
X007847Y010725D02*
X008105Y010983D01*
X008105Y011347D01*
X007847Y011605D01*
X007483Y011605D01*
X007225Y011347D01*
X007225Y010983D01*
X007483Y010725D01*
X007847Y010725D01*
X007982Y010860D02*
X008598Y010860D01*
X008480Y010978D02*
X008101Y010978D01*
X008105Y011097D02*
X008475Y011097D01*
X008475Y011216D02*
X008105Y011216D01*
X008105Y011334D02*
X008475Y011334D01*
X008580Y011453D02*
X008000Y011453D01*
X007881Y011571D02*
X008699Y011571D01*
X009131Y011571D02*
X009949Y011571D01*
X009983Y011605D02*
X009725Y011347D01*
X009725Y010983D01*
X009983Y010725D01*
X010347Y010725D01*
X010605Y010983D01*
X010605Y011347D01*
X010347Y011605D01*
X009983Y011605D01*
X009830Y011453D02*
X009250Y011453D01*
X009355Y011334D02*
X009725Y011334D01*
X009725Y011216D02*
X009355Y011216D01*
X009355Y011097D02*
X009725Y011097D01*
X009730Y010978D02*
X009351Y010978D01*
X009232Y010860D02*
X009848Y010860D01*
X009967Y010741D02*
X009114Y010741D01*
X008132Y010504D02*
X003975Y010504D01*
X004005Y010623D02*
X036865Y010623D01*
X036865Y010741D02*
X035614Y010741D01*
X035217Y010741D02*
X034364Y010741D01*
X034347Y010725D02*
X034605Y010983D01*
X034605Y011347D01*
X034347Y011605D01*
X033983Y011605D01*
X033725Y011347D01*
X033725Y010983D01*
X033983Y010725D01*
X034347Y010725D01*
X034482Y010860D02*
X035098Y010860D01*
X034980Y010978D02*
X034601Y010978D01*
X034605Y011097D02*
X034975Y011097D01*
X034975Y011216D02*
X034605Y011216D01*
X034605Y011334D02*
X034975Y011334D01*
X035080Y011453D02*
X034500Y011453D01*
X034381Y011571D02*
X035199Y011571D01*
X033949Y011571D02*
X033131Y011571D01*
X033097Y011605D02*
X032733Y011605D01*
X032475Y011347D01*
X032475Y010983D01*
X032733Y010725D01*
X033097Y010725D01*
X033355Y010983D01*
X033355Y011347D01*
X033097Y011605D01*
X033250Y011453D02*
X033830Y011453D01*
X033725Y011334D02*
X033355Y011334D01*
X033355Y011216D02*
X033725Y011216D01*
X033725Y011097D02*
X033355Y011097D01*
X033351Y010978D02*
X033730Y010978D01*
X033848Y010860D02*
X033232Y010860D01*
X033114Y010741D02*
X033967Y010741D01*
X034491Y010085D02*
X034245Y009839D01*
X034245Y009685D01*
X034645Y009685D01*
X034645Y010085D01*
X034491Y010085D01*
X034436Y010030D02*
X033922Y010030D01*
X034041Y009912D02*
X034318Y009912D01*
X034245Y009793D02*
X034105Y009793D01*
X034105Y009674D02*
X034645Y009674D01*
X034685Y009674D02*
X035225Y009674D01*
X035225Y009556D02*
X035085Y009556D01*
X035085Y009685D02*
X034685Y009685D01*
X034685Y010085D01*
X034839Y010085D01*
X035085Y009839D01*
X035085Y009685D01*
X035085Y009793D02*
X035225Y009793D01*
X035289Y009912D02*
X035013Y009912D01*
X034894Y010030D02*
X035408Y010030D01*
X035271Y009437D02*
X035031Y009437D01*
X034685Y009793D02*
X034645Y009793D01*
X034645Y009912D02*
X034685Y009912D01*
X034685Y010030D02*
X034645Y010030D01*
X034245Y009556D02*
X034105Y009556D01*
X034060Y009437D02*
X034299Y009437D01*
X033271Y009437D02*
X032765Y009437D01*
X032647Y009556D02*
X033225Y009556D01*
X033225Y009674D02*
X032105Y009674D01*
X032105Y009556D02*
X032184Y009556D01*
X032065Y009437D02*
X032060Y009437D01*
X032105Y009793D02*
X032165Y009793D01*
X032047Y009912D02*
X032041Y009912D01*
X031975Y010030D02*
X031922Y010030D01*
X031975Y010149D02*
X028855Y010149D01*
X028855Y010267D02*
X031975Y010267D01*
X032014Y010386D02*
X028817Y010386D01*
X028855Y010347D02*
X028597Y010605D01*
X028233Y010605D01*
X027975Y010347D01*
X027975Y009983D01*
X028233Y009725D01*
X028597Y009725D01*
X028855Y009983D01*
X028855Y010347D01*
X028698Y010504D02*
X032132Y010504D01*
X031732Y010860D02*
X032598Y010860D01*
X032480Y010978D02*
X031851Y010978D01*
X031855Y010983D02*
X031597Y010725D01*
X031233Y010725D01*
X030975Y010983D01*
X030975Y011347D01*
X031233Y011605D01*
X031597Y011605D01*
X031855Y011347D01*
X031855Y010983D01*
X031855Y011097D02*
X032475Y011097D01*
X032475Y011216D02*
X031855Y011216D01*
X031855Y011334D02*
X032475Y011334D01*
X032580Y011453D02*
X031750Y011453D01*
X031631Y011571D02*
X032699Y011571D01*
X032717Y010741D02*
X031614Y010741D01*
X031217Y010741D02*
X030364Y010741D01*
X030347Y010725D02*
X030605Y010983D01*
X030605Y011347D01*
X030347Y011605D01*
X029983Y011605D01*
X029725Y011347D01*
X029725Y010983D01*
X029983Y010725D01*
X030347Y010725D01*
X030482Y010860D02*
X031098Y010860D01*
X030980Y010978D02*
X030601Y010978D01*
X030605Y011097D02*
X030975Y011097D01*
X030975Y011216D02*
X030605Y011216D01*
X030605Y011334D02*
X030975Y011334D01*
X031080Y011453D02*
X030500Y011453D01*
X030381Y011571D02*
X031199Y011571D01*
X029949Y011571D02*
X029131Y011571D01*
X029097Y011605D02*
X028733Y011605D01*
X028475Y011347D01*
X028475Y010983D01*
X028733Y010725D01*
X029097Y010725D01*
X029355Y010983D01*
X029355Y011347D01*
X029097Y011605D01*
X029250Y011453D02*
X029830Y011453D01*
X029725Y011334D02*
X029355Y011334D01*
X029355Y011216D02*
X029725Y011216D01*
X029725Y011097D02*
X029355Y011097D01*
X029351Y010978D02*
X029730Y010978D01*
X029848Y010860D02*
X029232Y010860D01*
X029114Y010741D02*
X029967Y010741D01*
X030491Y010085D02*
X030245Y009839D01*
X030245Y009685D01*
X030645Y009685D01*
X030645Y010085D01*
X030491Y010085D01*
X030436Y010030D02*
X029922Y010030D01*
X030041Y009912D02*
X030318Y009912D01*
X030245Y009793D02*
X030105Y009793D01*
X030105Y009674D02*
X030645Y009674D01*
X030685Y009674D02*
X031225Y009674D01*
X031225Y009556D02*
X031085Y009556D01*
X031085Y009685D02*
X030685Y009685D01*
X030685Y010085D01*
X030839Y010085D01*
X031085Y009839D01*
X031085Y009685D01*
X031085Y009793D02*
X031225Y009793D01*
X031289Y009912D02*
X031013Y009912D01*
X030894Y010030D02*
X031408Y010030D01*
X030685Y010030D02*
X030645Y010030D01*
X030645Y009912D02*
X030685Y009912D01*
X030685Y009793D02*
X030645Y009793D01*
X030245Y009556D02*
X030105Y009556D01*
X030060Y009437D02*
X030299Y009437D01*
X031031Y009437D02*
X031271Y009437D01*
X032665Y009793D02*
X033225Y009793D01*
X033289Y009912D02*
X032784Y009912D01*
X032855Y010030D02*
X033408Y010030D01*
X036698Y010504D02*
X036865Y010504D01*
X036865Y010386D02*
X036817Y010386D01*
X036855Y010267D02*
X036865Y010267D01*
X036855Y010149D02*
X036865Y010149D01*
X036855Y010030D02*
X036865Y010030D01*
X036865Y009912D02*
X036784Y009912D01*
X038155Y008608D02*
X038221Y008608D01*
X039127Y008608D02*
X039204Y008608D01*
X039204Y008489D02*
X039127Y008489D01*
X039127Y008371D02*
X039204Y008371D01*
X039204Y008252D02*
X039127Y008252D01*
X039675Y011097D02*
X039855Y011097D01*
X039855Y011216D02*
X039675Y011216D01*
X039647Y011334D02*
X039855Y011334D01*
X039855Y011453D02*
X039598Y011453D01*
X039480Y011571D02*
X039855Y011571D01*
X039855Y011690D02*
X039350Y011690D01*
X039529Y011808D02*
X039855Y011808D01*
X039855Y011927D02*
X039618Y011927D01*
X039668Y012045D02*
X039855Y012045D01*
X039855Y012164D02*
X039675Y012164D01*
X039669Y012282D02*
X039855Y012282D01*
X039855Y012401D02*
X039620Y012401D01*
X039532Y012520D02*
X039855Y012520D01*
X039855Y012638D02*
X039356Y012638D01*
X039353Y012711D02*
X039422Y012746D01*
X039484Y012791D01*
X039539Y012846D01*
X039584Y012908D01*
X039619Y012977D01*
X039643Y013050D01*
X039655Y013127D01*
X039204Y013127D01*
X039204Y013204D01*
X039127Y013204D01*
X039127Y013655D01*
X039127Y013655D01*
X039050Y013643D01*
X038977Y013619D01*
X038908Y013584D01*
X038846Y013539D01*
X038791Y013484D01*
X038746Y013422D01*
X038711Y013353D01*
X038687Y013280D01*
X038675Y013204D01*
X038675Y013204D01*
X039126Y013204D01*
X039126Y013127D01*
X038675Y013127D01*
X038675Y013127D01*
X038687Y013050D01*
X038711Y012977D01*
X038746Y012908D01*
X038791Y012846D01*
X038846Y012791D01*
X038908Y012746D01*
X038977Y012711D01*
X039050Y012687D01*
X039127Y012675D01*
X039127Y013126D01*
X039204Y013126D01*
X039204Y012675D01*
X039280Y012687D01*
X039353Y012711D01*
X039436Y012757D02*
X039855Y012757D01*
X039855Y012875D02*
X039560Y012875D01*
X039625Y012994D02*
X039855Y012994D01*
X039855Y013112D02*
X039653Y013112D01*
X039655Y013127D02*
X039655Y013127D01*
X039655Y013204D02*
X039655Y013204D01*
X039643Y013280D01*
X039619Y013353D01*
X039584Y013422D01*
X039539Y013484D01*
X039484Y013539D01*
X039422Y013584D01*
X039353Y013619D01*
X039280Y013643D01*
X039204Y013655D01*
X039204Y013655D01*
X039204Y013204D01*
X039655Y013204D01*
X039651Y013231D02*
X039855Y013231D01*
X039855Y013349D02*
X039621Y013349D01*
X039551Y013468D02*
X039855Y013468D01*
X039855Y013586D02*
X039418Y013586D01*
X039204Y013586D02*
X039127Y013586D01*
X039127Y013468D02*
X039204Y013468D01*
X039204Y013349D02*
X039127Y013349D01*
X039127Y013231D02*
X039204Y013231D01*
X039204Y013112D02*
X039127Y013112D01*
X039127Y012994D02*
X039204Y012994D01*
X039204Y012875D02*
X039127Y012875D01*
X039127Y012757D02*
X039204Y012757D01*
X039204Y012675D02*
X039204Y012675D01*
X039127Y012675D02*
X039127Y012675D01*
X038974Y012638D02*
X038465Y012638D01*
X038465Y012520D02*
X038798Y012520D01*
X038894Y012757D02*
X038465Y012757D01*
X038465Y012875D02*
X038770Y012875D01*
X038706Y012994D02*
X038465Y012994D01*
X038465Y013112D02*
X038677Y013112D01*
X038679Y013231D02*
X038465Y013231D01*
X038465Y013349D02*
X038710Y013349D01*
X038779Y013468D02*
X038465Y013468D01*
X038465Y013586D02*
X038913Y013586D01*
X038465Y013705D02*
X039855Y013705D01*
X039855Y013824D02*
X038465Y013824D01*
X038465Y013942D02*
X039855Y013942D01*
X039855Y014061D02*
X038465Y014061D01*
X038465Y014179D02*
X039855Y014179D01*
X039855Y014298D02*
X038465Y014298D01*
X038465Y014416D02*
X039855Y014416D01*
X039855Y014535D02*
X038465Y014535D01*
X038465Y014653D02*
X039855Y014653D01*
X039855Y014772D02*
X038465Y014772D01*
X038465Y014890D02*
X039855Y014890D01*
X039855Y015009D02*
X038465Y015009D01*
X038465Y015127D02*
X039855Y015127D01*
X039855Y015246D02*
X038456Y015246D01*
X038390Y015365D02*
X039855Y015365D01*
X039855Y015483D02*
X038271Y015483D01*
X038153Y015602D02*
X039855Y015602D01*
X039855Y015720D02*
X038034Y015720D01*
X037916Y015839D02*
X039855Y015839D01*
X039855Y015957D02*
X037797Y015957D01*
X037679Y016076D02*
X039855Y016076D01*
X039855Y016194D02*
X037560Y016194D01*
X037442Y016313D02*
X039855Y016313D01*
X039855Y016431D02*
X037323Y016431D01*
X037224Y016550D02*
X039855Y016550D01*
X039855Y016669D02*
X037225Y016669D01*
X037221Y016787D02*
X039855Y016787D01*
X039855Y016906D02*
X037172Y016906D01*
X037098Y017024D02*
X039855Y017024D01*
X039855Y017143D02*
X036976Y017143D01*
X036355Y017143D02*
X036155Y017143D01*
X036155Y017261D02*
X038042Y017261D01*
X038109Y017235D02*
X038109Y017235D01*
X037740Y017380D02*
X036155Y017380D01*
X036155Y017498D02*
X037556Y017498D01*
X037670Y017407D02*
X037670Y017407D01*
X037407Y017617D02*
X036155Y017617D01*
X036155Y017735D02*
X037279Y017735D01*
X037198Y017854D02*
X036155Y017854D01*
X036155Y017973D02*
X037117Y017973D01*
X037037Y018091D02*
X036155Y018091D01*
X036155Y018210D02*
X037000Y018210D01*
X036963Y018328D02*
X036155Y018328D01*
X036155Y018447D02*
X036927Y018447D01*
X036898Y018565D02*
X036155Y018565D01*
X036155Y018684D02*
X036898Y018684D01*
X036898Y018802D02*
X036155Y018802D01*
X036155Y018921D02*
X036898Y018921D01*
X036907Y019039D02*
X036155Y019039D01*
X036155Y019158D02*
X036944Y019158D01*
X036980Y019276D02*
X036155Y019276D01*
X036155Y019395D02*
X037017Y019395D01*
X037037Y019461D02*
X037037Y019461D01*
X037073Y019514D02*
X036155Y019514D01*
X036155Y019632D02*
X037154Y019632D01*
X037234Y019751D02*
X036140Y019751D01*
X036050Y019869D02*
X037326Y019869D01*
X037302Y019850D02*
X037302Y019850D01*
X037475Y019988D02*
X034743Y019988D01*
X034796Y019869D02*
X035781Y019869D01*
X035691Y019751D02*
X034822Y019751D01*
X034810Y019514D02*
X035675Y019514D01*
X035675Y019632D02*
X034225Y019632D01*
X034225Y019514D02*
X034105Y019514D01*
X034105Y019605D02*
X034105Y019005D01*
X034036Y019015D01*
X033952Y019037D01*
X033872Y019070D01*
X033797Y019114D01*
X033728Y019166D01*
X033666Y019228D01*
X033614Y019297D01*
X033570Y019372D01*
X033537Y019452D01*
X033515Y019536D01*
X033505Y019605D01*
X034105Y019605D01*
X034105Y019632D02*
X030225Y019632D01*
X030225Y019514D02*
X030105Y019514D01*
X030105Y019605D02*
X030105Y019005D01*
X030036Y019015D01*
X029952Y019037D01*
X029872Y019070D01*
X029797Y019114D01*
X029728Y019166D01*
X029666Y019228D01*
X029614Y019297D01*
X029570Y019372D01*
X029537Y019452D01*
X029515Y019536D01*
X029505Y019605D01*
X030105Y019605D01*
X030105Y019632D02*
X026225Y019632D01*
X026225Y019514D02*
X026105Y019514D01*
X026105Y019605D02*
X026105Y019005D01*
X026036Y019015D01*
X025952Y019037D01*
X025872Y019070D01*
X025797Y019114D01*
X025728Y019166D01*
X025666Y019228D01*
X025614Y019297D01*
X025570Y019372D01*
X025537Y019452D01*
X025515Y019536D01*
X025505Y019605D01*
X026105Y019605D01*
X026105Y019632D02*
X022225Y019632D01*
X022225Y019514D02*
X022105Y019514D01*
X022105Y019605D02*
X022105Y019005D01*
X022036Y019015D01*
X021952Y019037D01*
X021872Y019070D01*
X021797Y019114D01*
X021728Y019166D01*
X021666Y019228D01*
X021614Y019297D01*
X021570Y019372D01*
X021537Y019452D01*
X021515Y019536D01*
X021505Y019605D01*
X022105Y019605D01*
X022105Y019632D02*
X018225Y019632D01*
X018225Y019514D02*
X018105Y019514D01*
X018105Y019605D02*
X018105Y019005D01*
X018036Y019015D01*
X017952Y019037D01*
X017872Y019070D01*
X017797Y019114D01*
X017728Y019166D01*
X017666Y019228D01*
X017614Y019297D01*
X017570Y019372D01*
X017537Y019452D01*
X017515Y019536D01*
X017505Y019605D01*
X018105Y019605D01*
X018105Y019632D02*
X014225Y019632D01*
X014225Y019514D02*
X014105Y019514D01*
X014105Y019605D02*
X014105Y019005D01*
X014036Y019015D01*
X013952Y019037D01*
X013872Y019070D01*
X013797Y019114D01*
X013728Y019166D01*
X013666Y019228D01*
X013614Y019297D01*
X013570Y019372D01*
X013537Y019452D01*
X013515Y019536D01*
X013505Y019605D01*
X014105Y019605D01*
X014105Y019632D02*
X010225Y019632D01*
X010225Y019514D02*
X010105Y019514D01*
X010105Y019605D02*
X010105Y019005D01*
X010036Y019015D01*
X009952Y019037D01*
X009872Y019070D01*
X009797Y019114D01*
X009728Y019166D01*
X009666Y019228D01*
X009614Y019297D01*
X009570Y019372D01*
X009537Y019452D01*
X009515Y019536D01*
X009505Y019605D01*
X010105Y019605D01*
X010105Y019632D02*
X006225Y019632D01*
X006225Y019514D02*
X006105Y019514D01*
X006105Y019605D02*
X006105Y019005D01*
X006036Y019015D01*
X005952Y019037D01*
X005872Y019070D01*
X005797Y019114D01*
X005728Y019166D01*
X005666Y019228D01*
X005614Y019297D01*
X005570Y019372D01*
X005537Y019452D01*
X005515Y019536D01*
X005505Y019605D01*
X006105Y019605D01*
X006105Y019632D02*
X004780Y019632D01*
X004780Y019514D02*
X005520Y019514D01*
X005561Y019395D02*
X004780Y019395D01*
X004780Y019276D02*
X005629Y019276D01*
X005739Y019158D02*
X004780Y019158D01*
X004780Y019039D02*
X005946Y019039D01*
X006105Y019039D02*
X006225Y019039D01*
X006225Y019158D02*
X006105Y019158D01*
X006105Y019276D02*
X006225Y019276D01*
X006225Y019395D02*
X006105Y019395D01*
X006770Y019395D02*
X006800Y019395D01*
X006810Y019514D02*
X009520Y019514D01*
X009561Y019395D02*
X007106Y019395D01*
X007361Y019276D02*
X009629Y019276D01*
X009739Y019158D02*
X007479Y019158D01*
X007559Y019039D02*
X009946Y019039D01*
X010105Y019039D02*
X010225Y019039D01*
X010225Y019158D02*
X010105Y019158D01*
X010105Y019276D02*
X010225Y019276D01*
X010225Y019395D02*
X010105Y019395D01*
X010770Y019395D02*
X010800Y019395D01*
X010810Y019514D02*
X013520Y019514D01*
X013561Y019395D02*
X011106Y019395D01*
X011361Y019276D02*
X013629Y019276D01*
X013739Y019158D02*
X011479Y019158D01*
X011559Y019039D02*
X013946Y019039D01*
X014105Y019039D02*
X014225Y019039D01*
X014225Y019158D02*
X014105Y019158D01*
X014105Y019276D02*
X014225Y019276D01*
X014225Y019395D02*
X014105Y019395D01*
X014298Y018921D02*
X011608Y018921D01*
X011635Y018802D02*
X014271Y018802D01*
X014271Y018684D02*
X011635Y018684D01*
X011626Y018565D02*
X014279Y018565D01*
X014328Y018447D02*
X011577Y018447D01*
X011525Y018328D02*
X014380Y018328D01*
X014499Y018210D02*
X011406Y018210D01*
X011215Y018091D02*
X014690Y018091D01*
X015215Y018091D02*
X018690Y018091D01*
X018499Y018210D02*
X015406Y018210D01*
X015525Y018328D02*
X018380Y018328D01*
X018328Y018447D02*
X015577Y018447D01*
X015626Y018565D02*
X018279Y018565D01*
X018271Y018684D02*
X015635Y018684D01*
X015635Y018802D02*
X018271Y018802D01*
X018298Y018921D02*
X015608Y018921D01*
X015559Y019039D02*
X017946Y019039D01*
X018105Y019039D02*
X018225Y019039D01*
X018225Y019158D02*
X018105Y019158D01*
X018105Y019276D02*
X018225Y019276D01*
X018225Y019395D02*
X018105Y019395D01*
X017739Y019158D02*
X015479Y019158D01*
X015361Y019276D02*
X017629Y019276D01*
X017561Y019395D02*
X015106Y019395D01*
X014800Y019395D02*
X014770Y019395D01*
X014810Y019514D02*
X017520Y019514D01*
X017509Y019751D02*
X014822Y019751D01*
X014796Y019869D02*
X017535Y019869D01*
X017587Y019988D02*
X014743Y019988D01*
X014660Y020106D02*
X017670Y020106D01*
X018660Y020106D02*
X021670Y020106D01*
X021587Y019988D02*
X018743Y019988D01*
X018796Y019869D02*
X021535Y019869D01*
X021509Y019751D02*
X018822Y019751D01*
X018810Y019514D02*
X021520Y019514D01*
X021561Y019395D02*
X019106Y019395D01*
X019361Y019276D02*
X021629Y019276D01*
X021739Y019158D02*
X019479Y019158D01*
X019559Y019039D02*
X021946Y019039D01*
X022105Y019039D02*
X022225Y019039D01*
X022225Y019158D02*
X022105Y019158D01*
X022105Y019276D02*
X022225Y019276D01*
X022225Y019395D02*
X022105Y019395D01*
X022298Y018921D02*
X019608Y018921D01*
X019635Y018802D02*
X022271Y018802D01*
X022271Y018684D02*
X019635Y018684D01*
X019626Y018565D02*
X022279Y018565D01*
X022328Y018447D02*
X019577Y018447D01*
X019525Y018328D02*
X022380Y018328D01*
X022499Y018210D02*
X019406Y018210D01*
X019215Y018091D02*
X022690Y018091D01*
X023215Y018091D02*
X026690Y018091D01*
X026499Y018210D02*
X023406Y018210D01*
X023525Y018328D02*
X026380Y018328D01*
X026328Y018447D02*
X023577Y018447D01*
X023626Y018565D02*
X026279Y018565D01*
X026271Y018684D02*
X023635Y018684D01*
X023635Y018802D02*
X026271Y018802D01*
X026298Y018921D02*
X023608Y018921D01*
X023559Y019039D02*
X025946Y019039D01*
X026105Y019039D02*
X026225Y019039D01*
X026225Y019158D02*
X026105Y019158D01*
X026105Y019276D02*
X026225Y019276D01*
X026225Y019395D02*
X026105Y019395D01*
X025739Y019158D02*
X023479Y019158D01*
X023361Y019276D02*
X025629Y019276D01*
X025561Y019395D02*
X023106Y019395D01*
X022800Y019395D02*
X022770Y019395D01*
X022810Y019514D02*
X025520Y019514D01*
X025509Y019751D02*
X022822Y019751D01*
X022796Y019869D02*
X025535Y019869D01*
X025587Y019988D02*
X022743Y019988D01*
X022660Y020106D02*
X025670Y020106D01*
X026660Y020106D02*
X029670Y020106D01*
X029587Y019988D02*
X026743Y019988D01*
X026796Y019869D02*
X029535Y019869D01*
X029509Y019751D02*
X026822Y019751D01*
X026810Y019514D02*
X029520Y019514D01*
X029561Y019395D02*
X027106Y019395D01*
X027361Y019276D02*
X029629Y019276D01*
X029739Y019158D02*
X027479Y019158D01*
X027559Y019039D02*
X029946Y019039D01*
X030105Y019039D02*
X030225Y019039D01*
X030225Y019158D02*
X030105Y019158D01*
X030105Y019276D02*
X030225Y019276D01*
X030225Y019395D02*
X030105Y019395D01*
X030298Y018921D02*
X027608Y018921D01*
X027635Y018802D02*
X030271Y018802D01*
X030271Y018684D02*
X027635Y018684D01*
X027626Y018565D02*
X030279Y018565D01*
X030328Y018447D02*
X027577Y018447D01*
X027525Y018328D02*
X030380Y018328D01*
X030499Y018210D02*
X027406Y018210D01*
X027215Y018091D02*
X030690Y018091D01*
X031215Y018091D02*
X034690Y018091D01*
X034499Y018210D02*
X031406Y018210D01*
X031525Y018328D02*
X034380Y018328D01*
X034328Y018447D02*
X031577Y018447D01*
X031626Y018565D02*
X034279Y018565D01*
X034271Y018684D02*
X031635Y018684D01*
X031635Y018802D02*
X034271Y018802D01*
X034298Y018921D02*
X031608Y018921D01*
X031559Y019039D02*
X033946Y019039D01*
X034105Y019039D02*
X034225Y019039D01*
X034225Y019158D02*
X034105Y019158D01*
X034105Y019276D02*
X034225Y019276D01*
X034225Y019395D02*
X034105Y019395D01*
X033739Y019158D02*
X031479Y019158D01*
X031361Y019276D02*
X033629Y019276D01*
X033561Y019395D02*
X031106Y019395D01*
X030800Y019395D02*
X030770Y019395D01*
X030810Y019514D02*
X033520Y019514D01*
X033509Y019751D02*
X030822Y019751D01*
X030796Y019869D02*
X033535Y019869D01*
X033587Y019988D02*
X030743Y019988D01*
X030660Y020106D02*
X033670Y020106D01*
X034660Y020106D02*
X037624Y020106D01*
X037670Y020144D02*
X037670Y020144D01*
X035675Y019395D02*
X035106Y019395D01*
X035361Y019276D02*
X035675Y019276D01*
X035675Y019158D02*
X035479Y019158D01*
X035559Y019039D02*
X035675Y019039D01*
X035675Y018921D02*
X035608Y018921D01*
X035635Y018802D02*
X035675Y018802D01*
X035675Y018684D02*
X035635Y018684D01*
X035626Y018565D02*
X035675Y018565D01*
X035675Y018447D02*
X035577Y018447D01*
X035525Y018328D02*
X035675Y018328D01*
X035675Y018210D02*
X035406Y018210D01*
X035215Y018091D02*
X035675Y018091D01*
X035675Y017973D02*
X004780Y017973D01*
X004780Y018091D02*
X006690Y018091D01*
X006499Y018210D02*
X004780Y018210D01*
X004780Y018328D02*
X006380Y018328D01*
X006328Y018447D02*
X004780Y018447D01*
X004780Y018565D02*
X006279Y018565D01*
X006271Y018684D02*
X004780Y018684D01*
X004780Y018802D02*
X006271Y018802D01*
X006298Y018921D02*
X004780Y018921D01*
X004300Y018921D02*
X003798Y018921D01*
X003780Y019039D02*
X004300Y019039D01*
X004300Y019158D02*
X003762Y019158D01*
X003733Y019276D02*
X004300Y019276D01*
X004300Y019395D02*
X003676Y019395D01*
X003619Y019514D02*
X004300Y019514D01*
X004300Y019632D02*
X003561Y019632D01*
X003466Y019751D02*
X004316Y019751D01*
X004406Y019869D02*
X003356Y019869D01*
X003246Y019988D02*
X005587Y019988D01*
X005535Y019869D02*
X004675Y019869D01*
X004765Y019751D02*
X005509Y019751D01*
X005670Y020106D02*
X003059Y020106D01*
X003225Y020011D02*
X003225Y020011D01*
X003816Y018802D02*
X004300Y018802D01*
X004300Y018684D02*
X003806Y018684D01*
X003788Y018565D02*
X004300Y018565D01*
X004300Y018447D02*
X003770Y018447D01*
X003753Y018328D02*
X004300Y018328D01*
X004300Y018210D02*
X003702Y018210D01*
X003750Y018310D02*
X003750Y018310D01*
X003644Y018091D02*
X004300Y018091D01*
X004300Y017973D02*
X003587Y017973D01*
X003545Y017885D02*
X003545Y017885D01*
X003516Y017854D02*
X004300Y017854D01*
X004300Y017735D02*
X003406Y017735D01*
X003296Y017617D02*
X004300Y017617D01*
X004300Y017498D02*
X003153Y017498D01*
X002947Y017380D02*
X004300Y017380D01*
X004300Y017261D02*
X002627Y017261D01*
X002817Y017305D02*
X002817Y017305D01*
X002358Y017200D02*
X002358Y017200D01*
X001971Y016909D02*
X001942Y016939D01*
X001905Y016960D01*
X001864Y016971D01*
X001411Y016971D01*
X001411Y016477D01*
X002003Y016477D01*
X002003Y016832D01*
X001992Y016873D01*
X001971Y016909D01*
X001973Y016906D02*
X002865Y016906D01*
X002844Y016787D02*
X002003Y016787D01*
X002003Y016669D02*
X002844Y016669D01*
X002844Y016550D02*
X002003Y016550D01*
X002003Y016313D02*
X002844Y016313D01*
X002844Y016431D02*
X001411Y016431D01*
X001411Y016313D02*
X001291Y016313D01*
X001291Y016194D02*
X001411Y016194D01*
X001411Y016076D02*
X001291Y016076D01*
X001291Y015957D02*
X001411Y015957D01*
X000845Y015839D02*
X002341Y015839D01*
X002330Y015834D02*
X002230Y015734D01*
X002175Y015602D01*
X000845Y015602D01*
X000845Y015720D02*
X002224Y015720D01*
X002175Y015602D02*
X002175Y015460D01*
X002230Y015329D01*
X002330Y015229D01*
X002461Y015174D01*
X002603Y015174D01*
X002735Y015229D01*
X002835Y015329D01*
X002884Y015447D01*
X002884Y015365D02*
X002850Y015365D01*
X002884Y015246D02*
X002752Y015246D01*
X002884Y015127D02*
X000845Y015127D01*
X000845Y015009D02*
X002884Y015009D01*
X002884Y014890D02*
X000845Y014890D01*
X000845Y014772D02*
X002884Y014772D01*
X002884Y014653D02*
X000845Y014653D01*
X000845Y014535D02*
X002884Y014535D01*
X002884Y014416D02*
X000845Y014416D01*
X000845Y014298D02*
X002884Y014298D01*
X002884Y014179D02*
X000845Y014179D01*
X000845Y014061D02*
X002289Y014061D01*
X002330Y014102D02*
X002230Y014001D01*
X002175Y013870D01*
X002175Y013728D01*
X002230Y013597D01*
X002330Y013496D01*
X002461Y013442D01*
X002603Y013442D01*
X002735Y013496D01*
X002835Y013597D01*
X002889Y013728D01*
X002889Y013870D01*
X002835Y014001D01*
X002735Y014102D01*
X002603Y014156D01*
X002461Y014156D01*
X002330Y014102D01*
X002205Y013942D02*
X000845Y013942D01*
X000845Y013824D02*
X002175Y013824D01*
X002185Y013705D02*
X000845Y013705D01*
X000845Y013586D02*
X002240Y013586D01*
X002399Y013468D02*
X000845Y013468D01*
X001291Y013349D02*
X001411Y013349D01*
X001411Y013467D02*
X001411Y012973D01*
X002003Y012973D01*
X002003Y013328D01*
X001992Y013369D01*
X001971Y013405D01*
X001942Y013435D01*
X001905Y013456D01*
X001864Y013467D01*
X001411Y013467D01*
X001411Y013231D02*
X001291Y013231D01*
X001291Y013112D02*
X001411Y013112D01*
X001411Y012994D02*
X001291Y012994D01*
X001411Y012875D02*
X002844Y012875D01*
X002844Y012757D02*
X002003Y012757D01*
X002003Y012638D02*
X002844Y012638D01*
X002844Y012520D02*
X002003Y012520D01*
X001951Y012401D02*
X002888Y012401D01*
X002844Y012994D02*
X002003Y012994D01*
X002003Y013112D02*
X002844Y013112D01*
X002844Y013231D02*
X002003Y013231D01*
X001998Y013349D02*
X002844Y013349D01*
X002931Y013468D02*
X002666Y013468D01*
X002825Y013586D02*
X004405Y013586D01*
X004405Y013705D02*
X002880Y013705D01*
X002889Y013824D02*
X002951Y013824D01*
X002904Y013942D02*
X002860Y013942D01*
X002904Y014035D02*
X003674Y014035D01*
X003674Y013777D01*
X003674Y014035D01*
X003674Y014035D01*
X003674Y014035D01*
X002904Y014035D01*
X002904Y014061D02*
X002776Y014061D01*
X003674Y013942D02*
X003674Y013942D01*
X003674Y013824D02*
X003674Y013824D01*
X004397Y013824D02*
X004405Y013824D01*
X004925Y013705D02*
X037865Y013705D01*
X037865Y013824D02*
X035696Y013824D01*
X035814Y013942D02*
X037865Y013942D01*
X037865Y014061D02*
X035855Y014061D01*
X035855Y014179D02*
X037865Y014179D01*
X037865Y014298D02*
X035855Y014298D01*
X035786Y014416D02*
X037865Y014416D01*
X037865Y014535D02*
X036121Y014535D01*
X036155Y014653D02*
X037865Y014653D01*
X037865Y014772D02*
X036155Y014772D01*
X036155Y014890D02*
X037865Y014890D01*
X037865Y015009D02*
X036155Y015009D01*
X036155Y015127D02*
X037779Y015127D01*
X037660Y015246D02*
X036155Y015246D01*
X036155Y015365D02*
X037542Y015365D01*
X037423Y015483D02*
X036155Y015483D01*
X036155Y015602D02*
X037304Y015602D01*
X037186Y015720D02*
X036155Y015720D01*
X036155Y015839D02*
X037067Y015839D01*
X036949Y015957D02*
X036155Y015957D01*
X036155Y016076D02*
X036830Y016076D01*
X036344Y016194D02*
X036155Y016194D01*
X036155Y016313D02*
X036225Y016313D01*
X036156Y016431D02*
X036155Y016431D01*
X035675Y016431D02*
X035635Y016431D01*
X035635Y016419D02*
X035531Y016169D01*
X035339Y015977D01*
X035088Y015873D01*
X034817Y015873D01*
X034566Y015977D01*
X034374Y016169D01*
X034271Y016419D01*
X034271Y016691D01*
X034374Y016941D01*
X034566Y017133D01*
X034817Y017237D01*
X035088Y017237D01*
X035339Y017133D01*
X035531Y016941D01*
X035635Y016691D01*
X035635Y016419D01*
X035675Y016313D02*
X035590Y016313D01*
X035541Y016194D02*
X035675Y016194D01*
X035675Y016076D02*
X035438Y016076D01*
X035292Y015957D02*
X035675Y015957D01*
X035675Y015839D02*
X004780Y015839D01*
X004780Y015957D02*
X006613Y015957D01*
X006566Y015977D02*
X006817Y015873D01*
X007088Y015873D01*
X007339Y015977D01*
X007531Y016169D01*
X007635Y016419D01*
X007635Y016691D01*
X007531Y016941D01*
X007339Y017133D01*
X007088Y017237D01*
X006817Y017237D01*
X006566Y017133D01*
X006374Y016941D01*
X006271Y016691D01*
X006271Y016419D01*
X006374Y016169D01*
X006566Y015977D01*
X006467Y016076D02*
X004780Y016076D01*
X004780Y016194D02*
X006364Y016194D01*
X006315Y016313D02*
X004780Y016313D01*
X004780Y016431D02*
X006271Y016431D01*
X006271Y016550D02*
X004780Y016550D01*
X004780Y016669D02*
X006271Y016669D01*
X006311Y016787D02*
X004780Y016787D01*
X004780Y016906D02*
X006360Y016906D01*
X006457Y017024D02*
X004780Y017024D01*
X004780Y017143D02*
X006590Y017143D01*
X007316Y017143D02*
X010590Y017143D01*
X010566Y017133D02*
X010374Y016941D01*
X010271Y016691D01*
X010271Y016419D01*
X010374Y016169D01*
X010566Y015977D01*
X010817Y015873D01*
X011088Y015873D01*
X011339Y015977D01*
X011531Y016169D01*
X011635Y016419D01*
X011635Y016691D01*
X011531Y016941D01*
X011339Y017133D01*
X011088Y017237D01*
X010817Y017237D01*
X010566Y017133D01*
X010457Y017024D02*
X007448Y017024D01*
X007545Y016906D02*
X010360Y016906D01*
X010311Y016787D02*
X007595Y016787D01*
X007635Y016669D02*
X010271Y016669D01*
X010271Y016550D02*
X007635Y016550D01*
X007635Y016431D02*
X010271Y016431D01*
X010315Y016313D02*
X007590Y016313D01*
X007541Y016194D02*
X010364Y016194D01*
X010467Y016076D02*
X007438Y016076D01*
X007292Y015957D02*
X010613Y015957D01*
X011292Y015957D02*
X014613Y015957D01*
X014566Y015977D02*
X014817Y015873D01*
X015088Y015873D01*
X015339Y015977D01*
X015531Y016169D01*
X015635Y016419D01*
X015635Y016691D01*
X015531Y016941D01*
X015339Y017133D01*
X015088Y017237D01*
X014817Y017237D01*
X014566Y017133D01*
X014374Y016941D01*
X014271Y016691D01*
X014271Y016419D01*
X014374Y016169D01*
X014566Y015977D01*
X014467Y016076D02*
X011438Y016076D01*
X011541Y016194D02*
X014364Y016194D01*
X014315Y016313D02*
X011590Y016313D01*
X011635Y016431D02*
X014271Y016431D01*
X014271Y016550D02*
X011635Y016550D01*
X011635Y016669D02*
X014271Y016669D01*
X014311Y016787D02*
X011595Y016787D01*
X011545Y016906D02*
X014360Y016906D01*
X014457Y017024D02*
X011448Y017024D01*
X011316Y017143D02*
X014590Y017143D01*
X015316Y017143D02*
X018590Y017143D01*
X018566Y017133D02*
X018374Y016941D01*
X018271Y016691D01*
X018271Y016419D01*
X018374Y016169D01*
X018566Y015977D01*
X018817Y015873D01*
X019088Y015873D01*
X019339Y015977D01*
X019531Y016169D01*
X019635Y016419D01*
X019635Y016691D01*
X019531Y016941D01*
X019339Y017133D01*
X019088Y017237D01*
X018817Y017237D01*
X018566Y017133D01*
X018457Y017024D02*
X015448Y017024D01*
X015545Y016906D02*
X018360Y016906D01*
X018311Y016787D02*
X015595Y016787D01*
X015635Y016669D02*
X018271Y016669D01*
X018271Y016550D02*
X015635Y016550D01*
X015635Y016431D02*
X018271Y016431D01*
X018315Y016313D02*
X015590Y016313D01*
X015541Y016194D02*
X018364Y016194D01*
X018467Y016076D02*
X015438Y016076D01*
X015292Y015957D02*
X018613Y015957D01*
X019292Y015957D02*
X022613Y015957D01*
X022566Y015977D02*
X022817Y015873D01*
X023088Y015873D01*
X023339Y015977D01*
X023531Y016169D01*
X023635Y016419D01*
X023635Y016691D01*
X023531Y016941D01*
X023339Y017133D01*
X023088Y017237D01*
X022817Y017237D01*
X022566Y017133D01*
X022374Y016941D01*
X022271Y016691D01*
X022271Y016419D01*
X022374Y016169D01*
X022566Y015977D01*
X022467Y016076D02*
X019438Y016076D01*
X019541Y016194D02*
X022364Y016194D01*
X022315Y016313D02*
X019590Y016313D01*
X019635Y016431D02*
X022271Y016431D01*
X022271Y016550D02*
X019635Y016550D01*
X019635Y016669D02*
X022271Y016669D01*
X022311Y016787D02*
X019595Y016787D01*
X019545Y016906D02*
X022360Y016906D01*
X022457Y017024D02*
X019448Y017024D01*
X019316Y017143D02*
X022590Y017143D01*
X023316Y017143D02*
X026590Y017143D01*
X026566Y017133D02*
X026374Y016941D01*
X026271Y016691D01*
X026271Y016419D01*
X026374Y016169D01*
X026566Y015977D01*
X026817Y015873D01*
X027088Y015873D01*
X027339Y015977D01*
X027531Y016169D01*
X027635Y016419D01*
X027635Y016691D01*
X027531Y016941D01*
X027339Y017133D01*
X027088Y017237D01*
X026817Y017237D01*
X026566Y017133D01*
X026457Y017024D02*
X023448Y017024D01*
X023545Y016906D02*
X026360Y016906D01*
X026311Y016787D02*
X023595Y016787D01*
X023635Y016669D02*
X026271Y016669D01*
X026271Y016550D02*
X023635Y016550D01*
X023635Y016431D02*
X026271Y016431D01*
X026315Y016313D02*
X023590Y016313D01*
X023541Y016194D02*
X026364Y016194D01*
X026467Y016076D02*
X023438Y016076D01*
X023292Y015957D02*
X026613Y015957D01*
X027292Y015957D02*
X030613Y015957D01*
X030566Y015977D02*
X030817Y015873D01*
X031088Y015873D01*
X031339Y015977D01*
X031531Y016169D01*
X031635Y016419D01*
X031635Y016691D01*
X031531Y016941D01*
X031339Y017133D01*
X031088Y017237D01*
X030817Y017237D01*
X030566Y017133D01*
X030374Y016941D01*
X030271Y016691D01*
X030271Y016419D01*
X030374Y016169D01*
X030566Y015977D01*
X030467Y016076D02*
X027438Y016076D01*
X027541Y016194D02*
X030364Y016194D01*
X030315Y016313D02*
X027590Y016313D01*
X027635Y016431D02*
X030271Y016431D01*
X030271Y016550D02*
X027635Y016550D01*
X027635Y016669D02*
X030271Y016669D01*
X030311Y016787D02*
X027595Y016787D01*
X027545Y016906D02*
X030360Y016906D01*
X030457Y017024D02*
X027448Y017024D01*
X027316Y017143D02*
X030590Y017143D01*
X031316Y017143D02*
X034590Y017143D01*
X034457Y017024D02*
X031448Y017024D01*
X031545Y016906D02*
X034360Y016906D01*
X034311Y016787D02*
X031595Y016787D01*
X031635Y016669D02*
X034271Y016669D01*
X034271Y016550D02*
X031635Y016550D01*
X031635Y016431D02*
X034271Y016431D01*
X034315Y016313D02*
X031590Y016313D01*
X031541Y016194D02*
X034364Y016194D01*
X034467Y016076D02*
X031438Y016076D01*
X031292Y015957D02*
X034613Y015957D01*
X035675Y015720D02*
X004780Y015720D01*
X004780Y015602D02*
X035675Y015602D01*
X035675Y015483D02*
X004780Y015483D01*
X004812Y015386D02*
X004812Y015386D01*
X004833Y015365D02*
X035675Y015365D01*
X035675Y015246D02*
X004913Y015246D01*
X004925Y015127D02*
X035675Y015127D01*
X035675Y015009D02*
X004925Y015009D01*
X005536Y014416D02*
X006044Y014416D01*
X005975Y014298D02*
X005605Y014298D01*
X005605Y014179D02*
X005975Y014179D01*
X005975Y014061D02*
X005605Y014061D01*
X005564Y013942D02*
X006016Y013942D01*
X006135Y013824D02*
X005446Y013824D01*
X004925Y013586D02*
X037865Y013586D01*
X037865Y013468D02*
X004925Y013468D01*
X004925Y013349D02*
X037865Y013349D01*
X037865Y013231D02*
X004925Y013231D01*
X006696Y013824D02*
X007385Y013824D01*
X007266Y013942D02*
X006814Y013942D01*
X006855Y014061D02*
X007225Y014061D01*
X007225Y014179D02*
X006855Y014179D01*
X006855Y014298D02*
X007225Y014298D01*
X007294Y014416D02*
X006786Y014416D01*
X008036Y014416D02*
X008544Y014416D01*
X008475Y014298D02*
X008105Y014298D01*
X008105Y014179D02*
X008475Y014179D01*
X008475Y014061D02*
X008105Y014061D01*
X008064Y013942D02*
X008516Y013942D01*
X008635Y013824D02*
X007946Y013824D01*
X009196Y013824D02*
X009885Y013824D01*
X009766Y013942D02*
X009314Y013942D01*
X009355Y014061D02*
X009725Y014061D01*
X009725Y014179D02*
X009355Y014179D01*
X009355Y014298D02*
X009725Y014298D01*
X009794Y014416D02*
X009286Y014416D01*
X010446Y013824D02*
X011135Y013824D01*
X011016Y013942D02*
X010564Y013942D01*
X010605Y014061D02*
X010975Y014061D01*
X010975Y014179D02*
X010605Y014179D01*
X010605Y014298D02*
X010975Y014298D01*
X011044Y014416D02*
X010536Y014416D01*
X011696Y013824D02*
X012635Y013824D01*
X012516Y013942D02*
X011814Y013942D01*
X011855Y014061D02*
X012475Y014061D01*
X012475Y014179D02*
X011855Y014179D01*
X011855Y014298D02*
X012475Y014298D01*
X012544Y014416D02*
X011786Y014416D01*
X013286Y014416D02*
X013794Y014416D01*
X013725Y014298D02*
X013355Y014298D01*
X013355Y014179D02*
X013725Y014179D01*
X013725Y014061D02*
X013355Y014061D01*
X013314Y013942D02*
X013766Y013942D01*
X013885Y013824D02*
X013196Y013824D01*
X014446Y013824D02*
X015135Y013824D01*
X015016Y013942D02*
X014564Y013942D01*
X014605Y014061D02*
X014975Y014061D01*
X014975Y014179D02*
X014605Y014179D01*
X014605Y014298D02*
X014975Y014298D01*
X015044Y014416D02*
X014536Y014416D01*
X015696Y013824D02*
X016635Y013824D01*
X016516Y013942D02*
X015814Y013942D01*
X015855Y014061D02*
X016475Y014061D01*
X016475Y014179D02*
X015855Y014179D01*
X015855Y014298D02*
X016475Y014298D01*
X016544Y014416D02*
X015786Y014416D01*
X017286Y014416D02*
X017794Y014416D01*
X017725Y014298D02*
X017355Y014298D01*
X017355Y014179D02*
X017725Y014179D01*
X017725Y014061D02*
X017355Y014061D01*
X017314Y013942D02*
X017766Y013942D01*
X017885Y013824D02*
X017196Y013824D01*
X018446Y013824D02*
X019135Y013824D01*
X019016Y013942D02*
X018564Y013942D01*
X018605Y014061D02*
X018975Y014061D01*
X018975Y014179D02*
X018605Y014179D01*
X018605Y014298D02*
X018975Y014298D01*
X019044Y014416D02*
X018536Y014416D01*
X019696Y013824D02*
X020635Y013824D01*
X020516Y013942D02*
X019814Y013942D01*
X019855Y014061D02*
X020475Y014061D01*
X020475Y014179D02*
X019855Y014179D01*
X019855Y014298D02*
X020475Y014298D01*
X020544Y014416D02*
X019786Y014416D01*
X021286Y014416D02*
X021794Y014416D01*
X021725Y014298D02*
X021355Y014298D01*
X021355Y014179D02*
X021725Y014179D01*
X021725Y014061D02*
X021355Y014061D01*
X021314Y013942D02*
X021766Y013942D01*
X021885Y013824D02*
X021196Y013824D01*
X022446Y013824D02*
X023135Y013824D01*
X023016Y013942D02*
X022564Y013942D01*
X022605Y014061D02*
X022975Y014061D01*
X022975Y014179D02*
X022605Y014179D01*
X022605Y014298D02*
X022975Y014298D01*
X023044Y014416D02*
X022536Y014416D01*
X023786Y014416D02*
X024544Y014416D01*
X024475Y014298D02*
X023855Y014298D01*
X023855Y014179D02*
X024475Y014179D01*
X024475Y014061D02*
X023855Y014061D01*
X023814Y013942D02*
X024516Y013942D01*
X024635Y013824D02*
X023696Y013824D01*
X025196Y013824D02*
X025885Y013824D01*
X025766Y013942D02*
X025314Y013942D01*
X025355Y014061D02*
X025725Y014061D01*
X025725Y014179D02*
X025355Y014179D01*
X025355Y014298D02*
X025725Y014298D01*
X025794Y014416D02*
X025286Y014416D01*
X026536Y014416D02*
X027044Y014416D01*
X026975Y014298D02*
X026605Y014298D01*
X026605Y014179D02*
X026975Y014179D01*
X026975Y014061D02*
X026605Y014061D01*
X026564Y013942D02*
X027016Y013942D01*
X027135Y013824D02*
X026446Y013824D01*
X027696Y013824D02*
X028635Y013824D01*
X028516Y013942D02*
X027814Y013942D01*
X027855Y014061D02*
X028475Y014061D01*
X028475Y014179D02*
X027855Y014179D01*
X027855Y014298D02*
X028475Y014298D01*
X028544Y014416D02*
X027786Y014416D01*
X029286Y014416D02*
X029794Y014416D01*
X029725Y014298D02*
X029355Y014298D01*
X029355Y014179D02*
X029725Y014179D01*
X029725Y014061D02*
X029355Y014061D01*
X029314Y013942D02*
X029766Y013942D01*
X029885Y013824D02*
X029196Y013824D01*
X030446Y013824D02*
X031135Y013824D01*
X031016Y013942D02*
X030564Y013942D01*
X030605Y014061D02*
X030975Y014061D01*
X030975Y014179D02*
X030605Y014179D01*
X030605Y014298D02*
X030975Y014298D01*
X031044Y014416D02*
X030536Y014416D01*
X031786Y014416D02*
X032544Y014416D01*
X032475Y014298D02*
X031855Y014298D01*
X031855Y014179D02*
X032475Y014179D01*
X032475Y014061D02*
X031855Y014061D01*
X031814Y013942D02*
X032516Y013942D01*
X032635Y013824D02*
X031696Y013824D01*
X033196Y013824D02*
X033885Y013824D01*
X033766Y013942D02*
X033314Y013942D01*
X033355Y014061D02*
X033725Y014061D01*
X033725Y014179D02*
X033355Y014179D01*
X033355Y014298D02*
X033725Y014298D01*
X033794Y014416D02*
X033286Y014416D01*
X034536Y014416D02*
X035044Y014416D01*
X034975Y014298D02*
X034605Y014298D01*
X034605Y014179D02*
X034975Y014179D01*
X034975Y014061D02*
X034605Y014061D01*
X034564Y013942D02*
X035016Y013942D01*
X035135Y013824D02*
X034446Y013824D01*
X035635Y016550D02*
X035675Y016550D01*
X035675Y016669D02*
X035635Y016669D01*
X035595Y016787D02*
X035675Y016787D01*
X035675Y016906D02*
X035545Y016906D01*
X035448Y017024D02*
X035675Y017024D01*
X035675Y017143D02*
X035316Y017143D01*
X035675Y017261D02*
X004780Y017261D01*
X004780Y017380D02*
X035675Y017380D01*
X035675Y017498D02*
X004780Y017498D01*
X004780Y017617D02*
X035675Y017617D01*
X035675Y017735D02*
X004780Y017735D01*
X004780Y017854D02*
X035675Y017854D01*
X036155Y017024D02*
X036232Y017024D01*
X036159Y016906D02*
X036155Y016906D01*
X038579Y017200D02*
X038579Y017200D01*
X038848Y017261D02*
X039855Y017261D01*
X039855Y017380D02*
X039168Y017380D01*
X039038Y017305D02*
X039038Y017305D01*
X039373Y017498D02*
X039855Y017498D01*
X039855Y017617D02*
X039517Y017617D01*
X039446Y017540D02*
X039446Y017540D01*
X039627Y017735D02*
X039855Y017735D01*
X039855Y017854D02*
X039737Y017854D01*
X039808Y017973D02*
X039855Y017973D01*
X034800Y019395D02*
X034770Y019395D01*
X026800Y019395D02*
X026770Y019395D01*
X018800Y019395D02*
X018770Y019395D01*
X013670Y020106D02*
X010660Y020106D01*
X010743Y019988D02*
X013587Y019988D01*
X013535Y019869D02*
X010796Y019869D01*
X010822Y019751D02*
X013509Y019751D01*
X010499Y018210D02*
X007406Y018210D01*
X007525Y018328D02*
X010380Y018328D01*
X010328Y018447D02*
X007577Y018447D01*
X007626Y018565D02*
X010279Y018565D01*
X010271Y018684D02*
X007635Y018684D01*
X007635Y018802D02*
X010271Y018802D01*
X010298Y018921D02*
X007608Y018921D01*
X007215Y018091D02*
X010690Y018091D01*
X009509Y019751D02*
X006822Y019751D01*
X006796Y019869D02*
X009535Y019869D01*
X009587Y019988D02*
X006743Y019988D01*
X006660Y020106D02*
X009670Y020106D01*
X004300Y017143D02*
X000845Y017143D01*
X000845Y017261D02*
X001822Y017261D01*
X001520Y017380D02*
X000845Y017380D01*
X000845Y017498D02*
X001336Y017498D01*
X001450Y017407D02*
X001450Y017407D01*
X001187Y017617D02*
X000845Y017617D01*
X000845Y017735D02*
X001058Y017735D01*
X001082Y017701D02*
X001082Y017701D01*
X001082Y017701D01*
X000977Y017854D02*
X000845Y017854D01*
X000845Y017973D02*
X000896Y017973D01*
X000845Y017024D02*
X004300Y017024D01*
X002844Y016194D02*
X002003Y016194D01*
X002003Y016076D02*
X002844Y016076D01*
X002844Y015957D02*
X001990Y015957D01*
X002330Y015834D02*
X002461Y015888D01*
X002603Y015888D01*
X002735Y015834D01*
X002835Y015734D01*
X002723Y015839D02*
X004300Y015839D01*
X002313Y015246D02*
X000845Y015246D01*
X000845Y015365D02*
X002215Y015365D01*
X002175Y015483D02*
X000845Y015483D01*
X001291Y016550D02*
X001411Y016550D01*
X001411Y016669D02*
X001291Y016669D01*
X001291Y016787D02*
X001411Y016787D01*
X001411Y016906D02*
X001291Y016906D01*
X001291Y012757D02*
X001411Y012757D01*
X001411Y012638D02*
X001291Y012638D01*
X001291Y012520D02*
X001411Y012520D01*
X001411Y012401D02*
X001291Y012401D01*
X003046Y010978D02*
X003256Y010978D01*
X003170Y010860D02*
X003164Y010860D01*
X003908Y010386D02*
X008014Y010386D01*
X007975Y010267D02*
X003865Y010267D01*
X003865Y010149D02*
X007975Y010149D01*
X007975Y010030D02*
X007922Y010030D01*
X008041Y009912D02*
X008047Y009912D01*
X008105Y009793D02*
X008165Y009793D01*
X007408Y010030D02*
X006894Y010030D01*
X006839Y010085D02*
X007085Y009839D01*
X007085Y009685D01*
X006685Y009685D01*
X006685Y009645D01*
X006685Y009245D01*
X006839Y009245D01*
X007085Y009491D01*
X007085Y009645D01*
X006685Y009645D01*
X006645Y009645D01*
X006645Y009245D01*
X006491Y009245D01*
X006245Y009491D01*
X006245Y009645D01*
X006645Y009645D01*
X006645Y009685D01*
X006245Y009685D01*
X006245Y009839D01*
X006491Y010085D01*
X006645Y010085D01*
X006645Y009685D01*
X006685Y009685D01*
X006685Y010085D01*
X006839Y010085D01*
X006685Y010030D02*
X006645Y010030D01*
X006645Y009912D02*
X006685Y009912D01*
X006685Y009793D02*
X006645Y009793D01*
X006645Y009674D02*
X006105Y009674D01*
X006105Y009556D02*
X006245Y009556D01*
X006299Y009437D02*
X006060Y009437D01*
X006105Y009483D02*
X005847Y009225D01*
X005483Y009225D01*
X005225Y009483D01*
X005225Y009847D01*
X005483Y010105D01*
X005847Y010105D01*
X006105Y009847D01*
X006105Y009483D01*
X005941Y009319D02*
X006418Y009319D01*
X006645Y009319D02*
X006685Y009319D01*
X006685Y009437D02*
X006645Y009437D01*
X006645Y009556D02*
X006685Y009556D01*
X006685Y009674D02*
X007225Y009674D01*
X007225Y009556D02*
X007085Y009556D01*
X007031Y009437D02*
X007271Y009437D01*
X007389Y009319D02*
X006913Y009319D01*
X007085Y009793D02*
X007225Y009793D01*
X007289Y009912D02*
X007013Y009912D01*
X006436Y010030D02*
X005922Y010030D01*
X006041Y009912D02*
X006318Y009912D01*
X006245Y009793D02*
X006105Y009793D01*
X005408Y010030D02*
X003865Y010030D01*
X003865Y009912D02*
X005289Y009912D01*
X005225Y009793D02*
X003962Y009793D01*
X004080Y009674D02*
X005225Y009674D01*
X005225Y009556D02*
X004199Y009556D01*
X004317Y009437D02*
X005271Y009437D01*
X005389Y009319D02*
X004436Y009319D01*
X006614Y010741D02*
X007467Y010741D01*
X007348Y010860D02*
X006732Y010860D01*
X006851Y010978D02*
X007230Y010978D01*
X007225Y011097D02*
X006855Y011097D01*
X006855Y011216D02*
X007225Y011216D01*
X007225Y011334D02*
X006855Y011334D01*
X006750Y011453D02*
X007330Y011453D01*
X007449Y011571D02*
X006631Y011571D01*
X009922Y010030D02*
X010436Y010030D01*
X010491Y010085D02*
X010245Y009839D01*
X010245Y009685D01*
X010645Y009685D01*
X010645Y010085D01*
X010491Y010085D01*
X010645Y010030D02*
X010685Y010030D01*
X010685Y010085D02*
X010685Y009685D01*
X011085Y009685D01*
X011085Y009839D01*
X010839Y010085D01*
X010685Y010085D01*
X010685Y009912D02*
X010645Y009912D01*
X010645Y009793D02*
X010685Y009793D01*
X010685Y009674D02*
X011225Y009674D01*
X011225Y009556D02*
X011085Y009556D01*
X011031Y009437D02*
X011271Y009437D01*
X011225Y009793D02*
X011085Y009793D01*
X011013Y009912D02*
X011289Y009912D01*
X011408Y010030D02*
X010894Y010030D01*
X010645Y009674D02*
X010105Y009674D01*
X010105Y009556D02*
X010245Y009556D01*
X010299Y009437D02*
X010060Y009437D01*
X010105Y009793D02*
X010245Y009793D01*
X010318Y009912D02*
X010041Y009912D01*
X010364Y010741D02*
X011217Y010741D01*
X011233Y010725D02*
X011597Y010725D01*
X011855Y010983D01*
X011855Y011347D01*
X011597Y011605D01*
X011233Y011605D01*
X010975Y011347D01*
X010975Y010983D01*
X011233Y010725D01*
X011098Y010860D02*
X010482Y010860D01*
X010601Y010978D02*
X010980Y010978D01*
X010975Y011097D02*
X010605Y011097D01*
X010605Y011216D02*
X010975Y011216D01*
X010975Y011334D02*
X010605Y011334D01*
X010500Y011453D02*
X011080Y011453D01*
X011199Y011571D02*
X010381Y011571D01*
X011631Y011571D02*
X012699Y011571D01*
X012733Y011605D02*
X012475Y011347D01*
X012475Y010983D01*
X012733Y010725D01*
X013097Y010725D01*
X013355Y010983D01*
X013355Y011347D01*
X013097Y011605D01*
X012733Y011605D01*
X012580Y011453D02*
X011750Y011453D01*
X011855Y011334D02*
X012475Y011334D01*
X012475Y011216D02*
X011855Y011216D01*
X011855Y011097D02*
X012475Y011097D01*
X012480Y010978D02*
X011851Y010978D01*
X011732Y010860D02*
X012598Y010860D01*
X012717Y010741D02*
X011614Y010741D01*
X012698Y010504D02*
X016132Y010504D01*
X016233Y010605D02*
X015975Y010347D01*
X015975Y009983D01*
X016233Y009725D01*
X016597Y009725D01*
X016855Y009983D01*
X016855Y010347D01*
X016597Y010605D01*
X016233Y010605D01*
X016014Y010386D02*
X012817Y010386D01*
X012855Y010267D02*
X015975Y010267D01*
X015975Y010149D02*
X012855Y010149D01*
X012855Y010030D02*
X013408Y010030D01*
X013289Y009912D02*
X012784Y009912D01*
X012665Y009793D02*
X013225Y009793D01*
X013225Y009674D02*
X012105Y009674D01*
X012105Y009556D02*
X012184Y009556D01*
X012065Y009437D02*
X012060Y009437D01*
X012105Y009793D02*
X012165Y009793D01*
X012047Y009912D02*
X012041Y009912D01*
X011975Y010030D02*
X011922Y010030D01*
X012647Y009556D02*
X013225Y009556D01*
X013271Y009437D02*
X012765Y009437D01*
X014060Y009437D02*
X014299Y009437D01*
X014245Y009556D02*
X014105Y009556D01*
X014105Y009674D02*
X014645Y009674D01*
X014645Y009685D02*
X014245Y009685D01*
X014245Y009839D01*
X014491Y010085D01*
X014645Y010085D01*
X014645Y009685D01*
X014685Y009685D02*
X014685Y010085D01*
X014839Y010085D01*
X015085Y009839D01*
X015085Y009685D01*
X014685Y009685D01*
X014685Y009674D02*
X015225Y009674D01*
X015225Y009556D02*
X015085Y009556D01*
X015031Y009437D02*
X015271Y009437D01*
X015225Y009793D02*
X015085Y009793D01*
X015013Y009912D02*
X015289Y009912D01*
X015408Y010030D02*
X014894Y010030D01*
X014685Y010030D02*
X014645Y010030D01*
X014645Y009912D02*
X014685Y009912D01*
X014685Y009793D02*
X014645Y009793D01*
X014436Y010030D02*
X013922Y010030D01*
X014041Y009912D02*
X014318Y009912D01*
X014245Y009793D02*
X014105Y009793D01*
X013983Y010725D02*
X014347Y010725D01*
X014605Y010983D01*
X014605Y011347D01*
X014347Y011605D01*
X013983Y011605D01*
X013725Y011347D01*
X013725Y010983D01*
X013983Y010725D01*
X013967Y010741D02*
X013114Y010741D01*
X013232Y010860D02*
X013848Y010860D01*
X013730Y010978D02*
X013351Y010978D01*
X013355Y011097D02*
X013725Y011097D01*
X013725Y011216D02*
X013355Y011216D01*
X013355Y011334D02*
X013725Y011334D01*
X013830Y011453D02*
X013250Y011453D01*
X013131Y011571D02*
X013949Y011571D01*
X014381Y011571D02*
X015199Y011571D01*
X015233Y011605D02*
X014975Y011347D01*
X014975Y010983D01*
X015233Y010725D01*
X015597Y010725D01*
X015855Y010983D01*
X015855Y011347D01*
X015597Y011605D01*
X015233Y011605D01*
X015080Y011453D02*
X014500Y011453D01*
X014605Y011334D02*
X014975Y011334D01*
X014975Y011216D02*
X014605Y011216D01*
X014605Y011097D02*
X014975Y011097D01*
X014980Y010978D02*
X014601Y010978D01*
X014482Y010860D02*
X015098Y010860D01*
X015217Y010741D02*
X014364Y010741D01*
X015614Y010741D02*
X016717Y010741D01*
X016733Y010725D02*
X017097Y010725D01*
X017355Y010983D01*
X017355Y011347D01*
X017097Y011605D01*
X016733Y011605D01*
X016475Y011347D01*
X016475Y010983D01*
X016733Y010725D01*
X016598Y010860D02*
X015732Y010860D01*
X015851Y010978D02*
X016480Y010978D01*
X016475Y011097D02*
X015855Y011097D01*
X015855Y011216D02*
X016475Y011216D01*
X016475Y011334D02*
X015855Y011334D01*
X015750Y011453D02*
X016580Y011453D01*
X016699Y011571D02*
X015631Y011571D01*
X017131Y011571D02*
X017949Y011571D01*
X017983Y011605D02*
X017725Y011347D01*
X017725Y010983D01*
X017983Y010725D01*
X018347Y010725D01*
X018605Y010983D01*
X018605Y011347D01*
X018347Y011605D01*
X017983Y011605D01*
X017830Y011453D02*
X017250Y011453D01*
X017355Y011334D02*
X017725Y011334D01*
X017725Y011216D02*
X017355Y011216D01*
X017355Y011097D02*
X017725Y011097D01*
X017730Y010978D02*
X017351Y010978D01*
X017232Y010860D02*
X017848Y010860D01*
X017967Y010741D02*
X017114Y010741D01*
X016698Y010504D02*
X020132Y010504D01*
X020233Y010605D02*
X019975Y010347D01*
X019975Y009983D01*
X020233Y009725D01*
X020597Y009725D01*
X020855Y009983D01*
X020855Y010347D01*
X020597Y010605D01*
X020233Y010605D01*
X020014Y010386D02*
X016817Y010386D01*
X016855Y010267D02*
X019975Y010267D01*
X019975Y010149D02*
X016855Y010149D01*
X016855Y010030D02*
X017408Y010030D01*
X017289Y009912D02*
X016784Y009912D01*
X016665Y009793D02*
X017225Y009793D01*
X017225Y009674D02*
X016105Y009674D01*
X016105Y009556D02*
X016184Y009556D01*
X016065Y009437D02*
X016060Y009437D01*
X016105Y009793D02*
X016165Y009793D01*
X016047Y009912D02*
X016041Y009912D01*
X015975Y010030D02*
X015922Y010030D01*
X016647Y009556D02*
X017225Y009556D01*
X017271Y009437D02*
X016765Y009437D01*
X018060Y009437D02*
X018299Y009437D01*
X018245Y009556D02*
X018105Y009556D01*
X018105Y009674D02*
X018645Y009674D01*
X018645Y009685D02*
X018245Y009685D01*
X018245Y009839D01*
X018491Y010085D01*
X018645Y010085D01*
X018645Y009685D01*
X018685Y009685D02*
X018685Y010085D01*
X018839Y010085D01*
X019085Y009839D01*
X019085Y009685D01*
X018685Y009685D01*
X018685Y009674D02*
X019225Y009674D01*
X019225Y009556D02*
X019085Y009556D01*
X019031Y009437D02*
X019271Y009437D01*
X019225Y009793D02*
X019085Y009793D01*
X019013Y009912D02*
X019289Y009912D01*
X019408Y010030D02*
X018894Y010030D01*
X018685Y010030D02*
X018645Y010030D01*
X018645Y009912D02*
X018685Y009912D01*
X018685Y009793D02*
X018645Y009793D01*
X018436Y010030D02*
X017922Y010030D01*
X018041Y009912D02*
X018318Y009912D01*
X018245Y009793D02*
X018105Y009793D01*
X018364Y010741D02*
X019217Y010741D01*
X019233Y010725D02*
X019597Y010725D01*
X019855Y010983D01*
X019855Y011347D01*
X019597Y011605D01*
X019233Y011605D01*
X018975Y011347D01*
X018975Y010983D01*
X019233Y010725D01*
X019098Y010860D02*
X018482Y010860D01*
X018601Y010978D02*
X018980Y010978D01*
X018975Y011097D02*
X018605Y011097D01*
X018605Y011216D02*
X018975Y011216D01*
X018975Y011334D02*
X018605Y011334D01*
X018500Y011453D02*
X019080Y011453D01*
X019199Y011571D02*
X018381Y011571D01*
X019631Y011571D02*
X020699Y011571D01*
X020733Y011605D02*
X020475Y011347D01*
X020475Y010983D01*
X020733Y010725D01*
X021097Y010725D01*
X021355Y010983D01*
X021355Y011347D01*
X021097Y011605D01*
X020733Y011605D01*
X020580Y011453D02*
X019750Y011453D01*
X019855Y011334D02*
X020475Y011334D01*
X020475Y011216D02*
X019855Y011216D01*
X019855Y011097D02*
X020475Y011097D01*
X020480Y010978D02*
X019851Y010978D01*
X019732Y010860D02*
X020598Y010860D01*
X020717Y010741D02*
X019614Y010741D01*
X020698Y010504D02*
X024132Y010504D01*
X024233Y010605D02*
X023975Y010347D01*
X023975Y009983D01*
X024233Y009725D01*
X024597Y009725D01*
X024855Y009983D01*
X024855Y010347D01*
X024597Y010605D01*
X024233Y010605D01*
X024014Y010386D02*
X020817Y010386D01*
X020855Y010267D02*
X023975Y010267D01*
X023975Y010149D02*
X020855Y010149D01*
X020855Y010030D02*
X021408Y010030D01*
X021289Y009912D02*
X020784Y009912D01*
X020665Y009793D02*
X021225Y009793D01*
X021225Y009674D02*
X020105Y009674D01*
X020105Y009556D02*
X020184Y009556D01*
X020065Y009437D02*
X020060Y009437D01*
X020105Y009793D02*
X020165Y009793D01*
X020047Y009912D02*
X020041Y009912D01*
X019975Y010030D02*
X019922Y010030D01*
X020647Y009556D02*
X021225Y009556D01*
X021271Y009437D02*
X020765Y009437D01*
X022060Y009437D02*
X022299Y009437D01*
X022245Y009556D02*
X022105Y009556D01*
X022105Y009674D02*
X022645Y009674D01*
X022645Y009685D02*
X022245Y009685D01*
X022245Y009839D01*
X022491Y010085D01*
X022645Y010085D01*
X022645Y009685D01*
X022685Y009685D02*
X022685Y010085D01*
X022839Y010085D01*
X023085Y009839D01*
X023085Y009685D01*
X022685Y009685D01*
X022685Y009674D02*
X023225Y009674D01*
X023225Y009556D02*
X023085Y009556D01*
X023031Y009437D02*
X023271Y009437D01*
X023225Y009793D02*
X023085Y009793D01*
X023013Y009912D02*
X023289Y009912D01*
X023408Y010030D02*
X022894Y010030D01*
X022685Y010030D02*
X022645Y010030D01*
X022645Y009912D02*
X022685Y009912D01*
X022685Y009793D02*
X022645Y009793D01*
X022436Y010030D02*
X021922Y010030D01*
X022041Y009912D02*
X022318Y009912D01*
X022245Y009793D02*
X022105Y009793D01*
X021983Y010725D02*
X022347Y010725D01*
X022605Y010983D01*
X022605Y011347D01*
X022347Y011605D01*
X021983Y011605D01*
X021725Y011347D01*
X021725Y010983D01*
X021983Y010725D01*
X021967Y010741D02*
X021114Y010741D01*
X021232Y010860D02*
X021848Y010860D01*
X021730Y010978D02*
X021351Y010978D01*
X021355Y011097D02*
X021725Y011097D01*
X021725Y011216D02*
X021355Y011216D01*
X021355Y011334D02*
X021725Y011334D01*
X021830Y011453D02*
X021250Y011453D01*
X021131Y011571D02*
X021949Y011571D01*
X022381Y011571D02*
X023199Y011571D01*
X023233Y011605D02*
X022975Y011347D01*
X022975Y010983D01*
X023233Y010725D01*
X023597Y010725D01*
X023855Y010983D01*
X023855Y011347D01*
X023597Y011605D01*
X023233Y011605D01*
X023080Y011453D02*
X022500Y011453D01*
X022605Y011334D02*
X022975Y011334D01*
X022975Y011216D02*
X022605Y011216D01*
X022605Y011097D02*
X022975Y011097D01*
X022980Y010978D02*
X022601Y010978D01*
X022482Y010860D02*
X023098Y010860D01*
X023217Y010741D02*
X022364Y010741D01*
X023614Y010741D02*
X024717Y010741D01*
X024733Y010725D02*
X025097Y010725D01*
X025355Y010983D01*
X025355Y011347D01*
X025097Y011605D01*
X024733Y011605D01*
X024475Y011347D01*
X024475Y010983D01*
X024733Y010725D01*
X024598Y010860D02*
X023732Y010860D01*
X023851Y010978D02*
X024480Y010978D01*
X024475Y011097D02*
X023855Y011097D01*
X023855Y011216D02*
X024475Y011216D01*
X024475Y011334D02*
X023855Y011334D01*
X023750Y011453D02*
X024580Y011453D01*
X024699Y011571D02*
X023631Y011571D01*
X025131Y011571D02*
X025949Y011571D01*
X025983Y011605D02*
X025725Y011347D01*
X025725Y010983D01*
X025983Y010725D01*
X026347Y010725D01*
X026605Y010983D01*
X026605Y011347D01*
X026347Y011605D01*
X025983Y011605D01*
X025830Y011453D02*
X025250Y011453D01*
X025355Y011334D02*
X025725Y011334D01*
X025725Y011216D02*
X025355Y011216D01*
X025355Y011097D02*
X025725Y011097D01*
X025730Y010978D02*
X025351Y010978D01*
X025232Y010860D02*
X025848Y010860D01*
X025967Y010741D02*
X025114Y010741D01*
X024698Y010504D02*
X028132Y010504D01*
X028014Y010386D02*
X024817Y010386D01*
X024855Y010267D02*
X027975Y010267D01*
X027975Y010149D02*
X024855Y010149D01*
X024855Y010030D02*
X025408Y010030D01*
X025289Y009912D02*
X024784Y009912D01*
X024665Y009793D02*
X025225Y009793D01*
X025225Y009674D02*
X024105Y009674D01*
X024105Y009556D02*
X024184Y009556D01*
X024065Y009437D02*
X024060Y009437D01*
X024105Y009793D02*
X024165Y009793D01*
X024047Y009912D02*
X024041Y009912D01*
X023975Y010030D02*
X023922Y010030D01*
X024647Y009556D02*
X025225Y009556D01*
X025271Y009437D02*
X024765Y009437D01*
X026060Y009437D02*
X026299Y009437D01*
X026245Y009556D02*
X026105Y009556D01*
X026105Y009674D02*
X026645Y009674D01*
X026645Y009685D02*
X026245Y009685D01*
X026245Y009839D01*
X026491Y010085D01*
X026645Y010085D01*
X026645Y009685D01*
X026685Y009685D02*
X026685Y010085D01*
X026839Y010085D01*
X027085Y009839D01*
X027085Y009685D01*
X026685Y009685D01*
X026685Y009674D02*
X027225Y009674D01*
X027225Y009556D02*
X027085Y009556D01*
X027031Y009437D02*
X027271Y009437D01*
X027225Y009793D02*
X027085Y009793D01*
X027013Y009912D02*
X027289Y009912D01*
X027408Y010030D02*
X026894Y010030D01*
X026685Y010030D02*
X026645Y010030D01*
X026645Y009912D02*
X026685Y009912D01*
X026685Y009793D02*
X026645Y009793D01*
X026436Y010030D02*
X025922Y010030D01*
X026041Y009912D02*
X026318Y009912D01*
X026245Y009793D02*
X026105Y009793D01*
X026364Y010741D02*
X027217Y010741D01*
X027233Y010725D02*
X027597Y010725D01*
X027855Y010983D01*
X027855Y011347D01*
X027597Y011605D01*
X027233Y011605D01*
X026975Y011347D01*
X026975Y010983D01*
X027233Y010725D01*
X027098Y010860D02*
X026482Y010860D01*
X026601Y010978D02*
X026980Y010978D01*
X026975Y011097D02*
X026605Y011097D01*
X026605Y011216D02*
X026975Y011216D01*
X026975Y011334D02*
X026605Y011334D01*
X026500Y011453D02*
X027080Y011453D01*
X027199Y011571D02*
X026381Y011571D01*
X027631Y011571D02*
X028699Y011571D01*
X028580Y011453D02*
X027750Y011453D01*
X027855Y011334D02*
X028475Y011334D01*
X028475Y011216D02*
X027855Y011216D01*
X027855Y011097D02*
X028475Y011097D01*
X028480Y010978D02*
X027851Y010978D01*
X027732Y010860D02*
X028598Y010860D01*
X028717Y010741D02*
X027614Y010741D01*
X027922Y010030D02*
X027975Y010030D01*
X028041Y009912D02*
X028047Y009912D01*
X028105Y009793D02*
X028165Y009793D01*
X028105Y009674D02*
X029225Y009674D01*
X029225Y009556D02*
X028647Y009556D01*
X028765Y009437D02*
X029271Y009437D01*
X029225Y009793D02*
X028665Y009793D01*
X028784Y009912D02*
X029289Y009912D01*
X029408Y010030D02*
X028855Y010030D01*
X028184Y009556D02*
X028105Y009556D01*
X028065Y009437D02*
X028060Y009437D01*
X023425Y007185D02*
X021609Y007185D01*
X021491Y007067D02*
X023425Y007067D01*
X023425Y006948D02*
X021465Y006948D01*
X021465Y006829D02*
X021991Y006829D01*
X021829Y006711D02*
X021502Y006711D01*
X021572Y006592D02*
X021758Y006592D01*
X021725Y006474D02*
X021605Y006474D01*
X021605Y006355D02*
X021725Y006355D01*
X021725Y006237D02*
X021605Y006237D01*
X021605Y006118D02*
X021725Y006118D01*
X021725Y006000D02*
X021605Y006000D01*
X021605Y005881D02*
X021725Y005881D01*
X021748Y005763D02*
X021582Y005763D01*
X021526Y005644D02*
X021804Y005644D01*
X021932Y005525D02*
X021398Y005525D01*
X023339Y006829D02*
X023425Y006829D01*
X023905Y006829D02*
X023991Y006829D01*
X024339Y006829D02*
X024991Y006829D01*
X024916Y006798D02*
X024792Y006674D01*
X024725Y006513D01*
X024725Y005818D01*
X024792Y005656D01*
X024916Y005532D01*
X025078Y005465D01*
X025253Y005465D01*
X025414Y005532D01*
X025538Y005656D01*
X025605Y005818D01*
X025605Y006513D01*
X025538Y006674D01*
X025414Y006798D01*
X025253Y006865D01*
X025078Y006865D01*
X024916Y006798D01*
X024829Y006711D02*
X024502Y006711D01*
X024572Y006592D02*
X024758Y006592D01*
X024725Y006474D02*
X024605Y006474D01*
X024605Y006355D02*
X024725Y006355D01*
X024725Y006237D02*
X024605Y006237D01*
X024605Y006118D02*
X024725Y006118D01*
X024725Y006000D02*
X024605Y006000D01*
X024605Y005881D02*
X024725Y005881D01*
X024748Y005763D02*
X024582Y005763D01*
X024526Y005644D02*
X024804Y005644D01*
X024932Y005525D02*
X024398Y005525D01*
X025398Y005525D02*
X025932Y005525D01*
X025916Y005532D02*
X026078Y005465D01*
X026253Y005465D01*
X026414Y005532D01*
X026538Y005656D01*
X026605Y005818D01*
X026605Y006513D01*
X026538Y006674D01*
X026414Y006798D01*
X026253Y006865D01*
X026078Y006865D01*
X025916Y006798D01*
X025792Y006674D01*
X025725Y006513D01*
X025725Y005818D01*
X025792Y005656D01*
X025916Y005532D01*
X025804Y005644D02*
X025526Y005644D01*
X025582Y005763D02*
X025748Y005763D01*
X025725Y005881D02*
X025605Y005881D01*
X025605Y006000D02*
X025725Y006000D01*
X025725Y006118D02*
X025605Y006118D01*
X025605Y006237D02*
X025725Y006237D01*
X025725Y006355D02*
X025605Y006355D01*
X025605Y006474D02*
X025725Y006474D01*
X025758Y006592D02*
X025572Y006592D01*
X025502Y006711D02*
X025829Y006711D01*
X025991Y006829D02*
X025339Y006829D01*
X026339Y006829D02*
X026991Y006829D01*
X026829Y006711D02*
X026502Y006711D01*
X026572Y006592D02*
X026758Y006592D01*
X026725Y006474D02*
X026605Y006474D01*
X026605Y006355D02*
X026725Y006355D01*
X026725Y006237D02*
X026605Y006237D01*
X026605Y006118D02*
X026725Y006118D01*
X026725Y006000D02*
X026605Y006000D01*
X026605Y005881D02*
X026725Y005881D01*
X026748Y005763D02*
X026582Y005763D01*
X026526Y005644D02*
X026804Y005644D01*
X026932Y005525D02*
X026398Y005525D01*
X022245Y007778D02*
X022105Y007778D01*
X022056Y007896D02*
X022302Y007896D01*
X022421Y008015D02*
X021965Y008015D01*
X038877Y003747D02*
X039855Y003747D01*
X039855Y003629D02*
X039180Y003629D01*
X039385Y003510D02*
X039855Y003510D01*
X039855Y003392D02*
X039523Y003392D01*
X039446Y003475D02*
X039446Y003475D01*
X039633Y003273D02*
X039855Y003273D01*
X039855Y003155D02*
X039743Y003155D01*
X039766Y003130D02*
X039766Y003130D01*
X039811Y003036D02*
X039855Y003036D01*
D26*
X036665Y008540D02*
X037165Y009040D01*
X037165Y011165D01*
X038165Y012165D01*
X038165Y015165D01*
X036665Y016665D01*
X038165Y012165D02*
X039165Y012165D01*
X036665Y008540D02*
X021665Y008540D01*
X021665Y007665D01*
X021165Y007165D01*
X021165Y006165D01*
X021665Y008540D02*
X004790Y008540D01*
X003565Y009765D01*
X003565Y010665D01*
D27*
X004665Y011765D01*
X004665Y015165D01*
X004535Y015295D01*
X003674Y015295D01*
X008415Y009165D02*
X012415Y009165D01*
X016415Y009165D01*
X020415Y009165D01*
X024415Y009165D01*
X028415Y009165D01*
X032415Y009165D01*
X036415Y009165D01*
D28*
X038415Y008915D03*
X037915Y007665D03*
X037415Y007165D03*
X023665Y005165D03*
X023290Y008040D03*
X010665Y001290D03*
M02*
