G75*
G70*
%OFA0B0*%
%FSLAX24Y24*%
%IPPOS*%
%LPD*%
%AMOC8*
5,1,8,0,0,1.08239X$1,22.5*
%
%ADD10C,0.0000*%
%ADD11C,0.1004*%
%ADD12OC8,0.0520*%
%ADD13C,0.0520*%
%ADD14C,0.0660*%
%ADD15C,0.0520*%
%ADD16C,0.0120*%
%ADD17C,0.1000*%
%ADD18C,0.0740*%
%ADD19C,0.0760*%
%ADD20R,0.0600X0.0600*%
%ADD21OC8,0.0600*%
%ADD22C,0.0357*%
%ADD23C,0.0160*%
D10*
X002240Y000665D02*
X038460Y000665D01*
X037909Y002240D02*
X037911Y002287D01*
X037917Y002333D01*
X037927Y002379D01*
X037940Y002424D01*
X037958Y002467D01*
X037979Y002509D01*
X038003Y002549D01*
X038031Y002586D01*
X038062Y002621D01*
X038096Y002654D01*
X038132Y002683D01*
X038171Y002709D01*
X038212Y002732D01*
X038255Y002751D01*
X038299Y002767D01*
X038344Y002779D01*
X038390Y002787D01*
X038437Y002791D01*
X038483Y002791D01*
X038530Y002787D01*
X038576Y002779D01*
X038621Y002767D01*
X038665Y002751D01*
X038708Y002732D01*
X038749Y002709D01*
X038788Y002683D01*
X038824Y002654D01*
X038858Y002621D01*
X038889Y002586D01*
X038917Y002549D01*
X038941Y002509D01*
X038962Y002467D01*
X038980Y002424D01*
X038993Y002379D01*
X039003Y002333D01*
X039009Y002287D01*
X039011Y002240D01*
X039009Y002193D01*
X039003Y002147D01*
X038993Y002101D01*
X038980Y002056D01*
X038962Y002013D01*
X038941Y001971D01*
X038917Y001931D01*
X038889Y001894D01*
X038858Y001859D01*
X038824Y001826D01*
X038788Y001797D01*
X038749Y001771D01*
X038708Y001748D01*
X038665Y001729D01*
X038621Y001713D01*
X038576Y001701D01*
X038530Y001693D01*
X038483Y001689D01*
X038437Y001689D01*
X038390Y001693D01*
X038344Y001701D01*
X038299Y001713D01*
X038255Y001729D01*
X038212Y001748D01*
X038171Y001771D01*
X038132Y001797D01*
X038096Y001826D01*
X038062Y001859D01*
X038031Y001894D01*
X038003Y001931D01*
X037979Y001971D01*
X037958Y002013D01*
X037940Y002056D01*
X037927Y002101D01*
X037917Y002147D01*
X037911Y002193D01*
X037909Y002240D01*
X038460Y000665D02*
X038537Y000667D01*
X038614Y000673D01*
X038691Y000682D01*
X038767Y000695D01*
X038843Y000712D01*
X038917Y000733D01*
X038991Y000757D01*
X039063Y000785D01*
X039133Y000816D01*
X039202Y000851D01*
X039270Y000889D01*
X039335Y000930D01*
X039398Y000975D01*
X039459Y001023D01*
X039518Y001073D01*
X039574Y001126D01*
X039627Y001182D01*
X039677Y001241D01*
X039725Y001302D01*
X039770Y001365D01*
X039811Y001430D01*
X039849Y001498D01*
X039884Y001567D01*
X039915Y001637D01*
X039943Y001709D01*
X039967Y001783D01*
X039988Y001857D01*
X040005Y001933D01*
X040018Y002009D01*
X040027Y002086D01*
X040033Y002163D01*
X040035Y002240D01*
X040035Y018775D01*
X037909Y018775D02*
X037911Y018822D01*
X037917Y018868D01*
X037927Y018914D01*
X037940Y018959D01*
X037958Y019002D01*
X037979Y019044D01*
X038003Y019084D01*
X038031Y019121D01*
X038062Y019156D01*
X038096Y019189D01*
X038132Y019218D01*
X038171Y019244D01*
X038212Y019267D01*
X038255Y019286D01*
X038299Y019302D01*
X038344Y019314D01*
X038390Y019322D01*
X038437Y019326D01*
X038483Y019326D01*
X038530Y019322D01*
X038576Y019314D01*
X038621Y019302D01*
X038665Y019286D01*
X038708Y019267D01*
X038749Y019244D01*
X038788Y019218D01*
X038824Y019189D01*
X038858Y019156D01*
X038889Y019121D01*
X038917Y019084D01*
X038941Y019044D01*
X038962Y019002D01*
X038980Y018959D01*
X038993Y018914D01*
X039003Y018868D01*
X039009Y018822D01*
X039011Y018775D01*
X039009Y018728D01*
X039003Y018682D01*
X038993Y018636D01*
X038980Y018591D01*
X038962Y018548D01*
X038941Y018506D01*
X038917Y018466D01*
X038889Y018429D01*
X038858Y018394D01*
X038824Y018361D01*
X038788Y018332D01*
X038749Y018306D01*
X038708Y018283D01*
X038665Y018264D01*
X038621Y018248D01*
X038576Y018236D01*
X038530Y018228D01*
X038483Y018224D01*
X038437Y018224D01*
X038390Y018228D01*
X038344Y018236D01*
X038299Y018248D01*
X038255Y018264D01*
X038212Y018283D01*
X038171Y018306D01*
X038132Y018332D01*
X038096Y018361D01*
X038062Y018394D01*
X038031Y018429D01*
X038003Y018466D01*
X037979Y018506D01*
X037958Y018548D01*
X037940Y018591D01*
X037927Y018636D01*
X037917Y018682D01*
X037911Y018728D01*
X037909Y018775D01*
X038460Y020350D02*
X038537Y020348D01*
X038614Y020342D01*
X038691Y020333D01*
X038767Y020320D01*
X038843Y020303D01*
X038917Y020282D01*
X038991Y020258D01*
X039063Y020230D01*
X039133Y020199D01*
X039202Y020164D01*
X039270Y020126D01*
X039335Y020085D01*
X039398Y020040D01*
X039459Y019992D01*
X039518Y019942D01*
X039574Y019889D01*
X039627Y019833D01*
X039677Y019774D01*
X039725Y019713D01*
X039770Y019650D01*
X039811Y019585D01*
X039849Y019517D01*
X039884Y019448D01*
X039915Y019378D01*
X039943Y019306D01*
X039967Y019232D01*
X039988Y019158D01*
X040005Y019082D01*
X040018Y019006D01*
X040027Y018929D01*
X040033Y018852D01*
X040035Y018775D01*
X038460Y020350D02*
X002240Y020350D01*
X001689Y018775D02*
X001691Y018822D01*
X001697Y018868D01*
X001707Y018914D01*
X001720Y018959D01*
X001738Y019002D01*
X001759Y019044D01*
X001783Y019084D01*
X001811Y019121D01*
X001842Y019156D01*
X001876Y019189D01*
X001912Y019218D01*
X001951Y019244D01*
X001992Y019267D01*
X002035Y019286D01*
X002079Y019302D01*
X002124Y019314D01*
X002170Y019322D01*
X002217Y019326D01*
X002263Y019326D01*
X002310Y019322D01*
X002356Y019314D01*
X002401Y019302D01*
X002445Y019286D01*
X002488Y019267D01*
X002529Y019244D01*
X002568Y019218D01*
X002604Y019189D01*
X002638Y019156D01*
X002669Y019121D01*
X002697Y019084D01*
X002721Y019044D01*
X002742Y019002D01*
X002760Y018959D01*
X002773Y018914D01*
X002783Y018868D01*
X002789Y018822D01*
X002791Y018775D01*
X002789Y018728D01*
X002783Y018682D01*
X002773Y018636D01*
X002760Y018591D01*
X002742Y018548D01*
X002721Y018506D01*
X002697Y018466D01*
X002669Y018429D01*
X002638Y018394D01*
X002604Y018361D01*
X002568Y018332D01*
X002529Y018306D01*
X002488Y018283D01*
X002445Y018264D01*
X002401Y018248D01*
X002356Y018236D01*
X002310Y018228D01*
X002263Y018224D01*
X002217Y018224D01*
X002170Y018228D01*
X002124Y018236D01*
X002079Y018248D01*
X002035Y018264D01*
X001992Y018283D01*
X001951Y018306D01*
X001912Y018332D01*
X001876Y018361D01*
X001842Y018394D01*
X001811Y018429D01*
X001783Y018466D01*
X001759Y018506D01*
X001738Y018548D01*
X001720Y018591D01*
X001707Y018636D01*
X001697Y018682D01*
X001691Y018728D01*
X001689Y018775D01*
X000665Y018775D02*
X000667Y018852D01*
X000673Y018929D01*
X000682Y019006D01*
X000695Y019082D01*
X000712Y019158D01*
X000733Y019232D01*
X000757Y019306D01*
X000785Y019378D01*
X000816Y019448D01*
X000851Y019517D01*
X000889Y019585D01*
X000930Y019650D01*
X000975Y019713D01*
X001023Y019774D01*
X001073Y019833D01*
X001126Y019889D01*
X001182Y019942D01*
X001241Y019992D01*
X001302Y020040D01*
X001365Y020085D01*
X001430Y020126D01*
X001498Y020164D01*
X001567Y020199D01*
X001637Y020230D01*
X001709Y020258D01*
X001783Y020282D01*
X001857Y020303D01*
X001933Y020320D01*
X002009Y020333D01*
X002086Y020342D01*
X002163Y020348D01*
X002240Y020350D01*
X000665Y018775D02*
X000665Y002240D01*
X001689Y002240D02*
X001691Y002287D01*
X001697Y002333D01*
X001707Y002379D01*
X001720Y002424D01*
X001738Y002467D01*
X001759Y002509D01*
X001783Y002549D01*
X001811Y002586D01*
X001842Y002621D01*
X001876Y002654D01*
X001912Y002683D01*
X001951Y002709D01*
X001992Y002732D01*
X002035Y002751D01*
X002079Y002767D01*
X002124Y002779D01*
X002170Y002787D01*
X002217Y002791D01*
X002263Y002791D01*
X002310Y002787D01*
X002356Y002779D01*
X002401Y002767D01*
X002445Y002751D01*
X002488Y002732D01*
X002529Y002709D01*
X002568Y002683D01*
X002604Y002654D01*
X002638Y002621D01*
X002669Y002586D01*
X002697Y002549D01*
X002721Y002509D01*
X002742Y002467D01*
X002760Y002424D01*
X002773Y002379D01*
X002783Y002333D01*
X002789Y002287D01*
X002791Y002240D01*
X002789Y002193D01*
X002783Y002147D01*
X002773Y002101D01*
X002760Y002056D01*
X002742Y002013D01*
X002721Y001971D01*
X002697Y001931D01*
X002669Y001894D01*
X002638Y001859D01*
X002604Y001826D01*
X002568Y001797D01*
X002529Y001771D01*
X002488Y001748D01*
X002445Y001729D01*
X002401Y001713D01*
X002356Y001701D01*
X002310Y001693D01*
X002263Y001689D01*
X002217Y001689D01*
X002170Y001693D01*
X002124Y001701D01*
X002079Y001713D01*
X002035Y001729D01*
X001992Y001748D01*
X001951Y001771D01*
X001912Y001797D01*
X001876Y001826D01*
X001842Y001859D01*
X001811Y001894D01*
X001783Y001931D01*
X001759Y001971D01*
X001738Y002013D01*
X001720Y002056D01*
X001707Y002101D01*
X001697Y002147D01*
X001691Y002193D01*
X001689Y002240D01*
X000665Y002240D02*
X000667Y002163D01*
X000673Y002086D01*
X000682Y002009D01*
X000695Y001933D01*
X000712Y001857D01*
X000733Y001783D01*
X000757Y001709D01*
X000785Y001637D01*
X000816Y001567D01*
X000851Y001498D01*
X000889Y001430D01*
X000930Y001365D01*
X000975Y001302D01*
X001023Y001241D01*
X001073Y001182D01*
X001126Y001126D01*
X001182Y001073D01*
X001241Y001023D01*
X001302Y000975D01*
X001365Y000930D01*
X001430Y000889D01*
X001498Y000851D01*
X001567Y000816D01*
X001637Y000785D01*
X001709Y000757D01*
X001783Y000733D01*
X001857Y000712D01*
X001933Y000695D01*
X002009Y000682D01*
X002086Y000673D01*
X002163Y000667D01*
X002240Y000665D01*
X002355Y013799D02*
X002357Y013825D01*
X002363Y013851D01*
X002373Y013876D01*
X002386Y013899D01*
X002402Y013919D01*
X002422Y013937D01*
X002444Y013952D01*
X002467Y013964D01*
X002493Y013972D01*
X002519Y013976D01*
X002545Y013976D01*
X002571Y013972D01*
X002597Y013964D01*
X002621Y013952D01*
X002642Y013937D01*
X002662Y013919D01*
X002678Y013899D01*
X002691Y013876D01*
X002701Y013851D01*
X002707Y013825D01*
X002709Y013799D01*
X002707Y013773D01*
X002701Y013747D01*
X002691Y013722D01*
X002678Y013699D01*
X002662Y013679D01*
X002642Y013661D01*
X002620Y013646D01*
X002597Y013634D01*
X002571Y013626D01*
X002545Y013622D01*
X002519Y013622D01*
X002493Y013626D01*
X002467Y013634D01*
X002443Y013646D01*
X002422Y013661D01*
X002402Y013679D01*
X002386Y013699D01*
X002373Y013722D01*
X002363Y013747D01*
X002357Y013773D01*
X002355Y013799D01*
X002355Y015531D02*
X002357Y015557D01*
X002363Y015583D01*
X002373Y015608D01*
X002386Y015631D01*
X002402Y015651D01*
X002422Y015669D01*
X002444Y015684D01*
X002467Y015696D01*
X002493Y015704D01*
X002519Y015708D01*
X002545Y015708D01*
X002571Y015704D01*
X002597Y015696D01*
X002621Y015684D01*
X002642Y015669D01*
X002662Y015651D01*
X002678Y015631D01*
X002691Y015608D01*
X002701Y015583D01*
X002707Y015557D01*
X002709Y015531D01*
X002707Y015505D01*
X002701Y015479D01*
X002691Y015454D01*
X002678Y015431D01*
X002662Y015411D01*
X002642Y015393D01*
X002620Y015378D01*
X002597Y015366D01*
X002571Y015358D01*
X002545Y015354D01*
X002519Y015354D01*
X002493Y015358D01*
X002467Y015366D01*
X002443Y015378D01*
X002422Y015393D01*
X002402Y015411D01*
X002386Y015431D01*
X002373Y015454D01*
X002363Y015479D01*
X002357Y015505D01*
X002355Y015531D01*
D11*
X006953Y016555D03*
X006953Y018720D03*
X006165Y019665D03*
X010165Y019665D03*
X010953Y018720D03*
X014165Y019665D03*
X014953Y018720D03*
X018165Y019665D03*
X018953Y018720D03*
X022165Y019665D03*
X022953Y018720D03*
X026165Y019665D03*
X026953Y018720D03*
X030165Y019665D03*
X030953Y018720D03*
X034165Y019665D03*
X034953Y018720D03*
X034953Y016555D03*
X030953Y016555D03*
X026953Y016555D03*
X022953Y016555D03*
X018953Y016555D03*
X014953Y016555D03*
X010953Y016555D03*
D12*
X011415Y014165D03*
X010165Y014165D03*
X008915Y014165D03*
X007665Y014165D03*
X006415Y014165D03*
X005165Y014165D03*
X005165Y011165D03*
X006415Y011165D03*
X007665Y011165D03*
X008915Y011165D03*
X010165Y011165D03*
X011415Y011165D03*
X012915Y011165D03*
X014165Y011165D03*
X015415Y011165D03*
X016915Y011165D03*
X018165Y011165D03*
X019415Y011165D03*
X020915Y011165D03*
X022165Y011165D03*
X023415Y011165D03*
X024915Y011165D03*
X026165Y011165D03*
X027415Y011165D03*
X028915Y011165D03*
X030165Y011165D03*
X031415Y011165D03*
X032915Y011165D03*
X034165Y011165D03*
X035415Y011165D03*
X036415Y010165D03*
X035665Y009665D03*
X036415Y009165D03*
X034665Y009665D03*
X033665Y009665D03*
X032415Y009165D03*
X031665Y009665D03*
X032415Y010165D03*
X030665Y009665D03*
X029665Y009665D03*
X028415Y009165D03*
X027665Y009665D03*
X028415Y010165D03*
X026665Y009665D03*
X025665Y009665D03*
X024415Y009165D03*
X023665Y009665D03*
X024415Y010165D03*
X022665Y009665D03*
X021665Y009665D03*
X020415Y009165D03*
X019665Y009665D03*
X020415Y010165D03*
X018665Y009665D03*
X017665Y009665D03*
X016415Y009165D03*
X015665Y009665D03*
X016415Y010165D03*
X014665Y009665D03*
X013665Y009665D03*
X012415Y009165D03*
X011665Y009665D03*
X012415Y010165D03*
X010665Y009665D03*
X009665Y009665D03*
X008415Y009165D03*
X007665Y009665D03*
X008415Y010165D03*
X006665Y009665D03*
X005665Y009665D03*
X002765Y010665D03*
X005915Y006165D03*
X005665Y004665D03*
X006665Y004665D03*
X008915Y006165D03*
X009915Y006165D03*
X009665Y004665D03*
X010665Y004665D03*
X012915Y006165D03*
X008665Y002665D03*
X005665Y002665D03*
X021665Y007665D03*
X022665Y007665D03*
X028915Y005165D03*
X028915Y004165D03*
X030165Y003165D03*
X031165Y003165D03*
X031165Y006165D03*
X030165Y006165D03*
X030165Y014165D03*
X028915Y014165D03*
X027415Y014165D03*
X026165Y014165D03*
X024915Y014165D03*
X023415Y014165D03*
X022165Y014165D03*
X020915Y014165D03*
X019415Y014165D03*
X018165Y014165D03*
X016915Y014165D03*
X015415Y014165D03*
X014165Y014165D03*
X012915Y014165D03*
X031415Y014165D03*
X032915Y014165D03*
X034165Y014165D03*
X035415Y014165D03*
D13*
X027165Y006425D02*
X027165Y005905D01*
X026165Y005905D02*
X026165Y006425D01*
X025165Y006425D02*
X025165Y005905D01*
X024165Y005905D02*
X024165Y006425D01*
X023165Y006425D02*
X023165Y005905D01*
X022165Y005905D02*
X022165Y006425D01*
X021165Y006425D02*
X021165Y005905D01*
X020165Y005905D02*
X020165Y006425D01*
X019165Y006425D02*
X019165Y005905D01*
X018165Y005905D02*
X018165Y006425D01*
X017165Y006425D02*
X017165Y005905D01*
X016165Y005905D02*
X016165Y006425D01*
X015165Y006425D02*
X015165Y005905D01*
X014165Y005905D02*
X014165Y006425D01*
X014165Y003425D02*
X014165Y002905D01*
X015165Y002905D02*
X015165Y003425D01*
X016165Y003425D02*
X016165Y002905D01*
X017165Y002905D02*
X017165Y003425D01*
X018165Y003425D02*
X018165Y002905D01*
X019165Y002905D02*
X019165Y003425D01*
X020165Y003425D02*
X020165Y002905D01*
X021165Y002905D02*
X021165Y003425D01*
X022165Y003425D02*
X022165Y002905D01*
X023165Y002905D02*
X023165Y003425D01*
X024165Y003425D02*
X024165Y002905D01*
X025165Y002905D02*
X025165Y003425D01*
X026165Y003425D02*
X026165Y002905D01*
X027165Y002905D02*
X027165Y003425D01*
X023665Y002175D02*
X023665Y001655D01*
X022665Y001655D02*
X022665Y002175D01*
X021665Y002175D02*
X021665Y001655D01*
X020665Y001655D02*
X020665Y002175D01*
X019665Y002175D02*
X019665Y001655D01*
X018665Y001655D02*
X018665Y002175D01*
X017665Y002175D02*
X017665Y001655D01*
X016665Y001655D02*
X016665Y002175D01*
X015665Y002175D02*
X015665Y001655D01*
X014665Y001655D02*
X014665Y002175D01*
X033185Y003225D02*
X033185Y003745D01*
X034165Y003745D02*
X034165Y003225D01*
X035145Y003225D02*
X035145Y003745D01*
X035145Y005585D02*
X035145Y006105D01*
X034165Y006105D02*
X034165Y005585D01*
X033185Y005585D02*
X033185Y006105D01*
D14*
X039165Y008165D03*
X039165Y009165D03*
X039165Y010165D03*
X039165Y011165D03*
X039165Y012165D03*
X039165Y013165D03*
X030165Y001915D03*
X029165Y001915D03*
X028165Y001915D03*
X027165Y001915D03*
X026165Y001915D03*
X025165Y001915D03*
D15*
X003565Y010665D03*
D16*
X003975Y010504D02*
X004925Y010504D01*
X004925Y010386D02*
X003908Y010386D01*
X003938Y010416D02*
X004005Y010578D01*
X004005Y010753D01*
X003938Y010914D01*
X003814Y011038D01*
X003653Y011105D01*
X003478Y011105D01*
X003316Y011038D01*
X003192Y010914D01*
X003168Y010856D01*
X002939Y011085D01*
X002785Y011085D01*
X002785Y010685D01*
X002745Y010685D01*
X002745Y010645D01*
X002785Y010645D01*
X002785Y010245D01*
X002939Y010245D01*
X003168Y010474D01*
X003192Y010416D01*
X003316Y010292D01*
X003478Y010225D01*
X003653Y010225D01*
X003814Y010292D01*
X003938Y010416D01*
X004005Y010623D02*
X004925Y010623D01*
X004925Y010741D02*
X004005Y010741D01*
X003961Y010860D02*
X004848Y010860D01*
X004925Y010783D02*
X004925Y008367D01*
X004962Y008279D01*
X005029Y008212D01*
X006279Y006962D01*
X006367Y006925D01*
X006463Y006925D01*
X013566Y006925D01*
X013804Y006687D01*
X013792Y006674D01*
X013725Y006513D01*
X013725Y005818D01*
X013792Y005656D01*
X013916Y005532D01*
X013925Y005528D01*
X013925Y005367D01*
X013962Y005279D01*
X014029Y005212D01*
X014029Y005212D01*
X015425Y003816D01*
X015425Y003787D01*
X015414Y003798D01*
X015253Y003865D01*
X015078Y003865D01*
X014916Y003798D01*
X014792Y003674D01*
X014725Y003513D01*
X014725Y003030D01*
X014617Y003030D01*
X014605Y003025D01*
X014605Y003513D01*
X014538Y003674D01*
X014414Y003798D01*
X014253Y003865D01*
X014078Y003865D01*
X013916Y003798D01*
X013792Y003674D01*
X013725Y003513D01*
X013725Y003445D01*
X013369Y003801D01*
X013301Y003869D01*
X013213Y003905D01*
X010765Y003905D01*
X010105Y004565D01*
X010105Y004847D01*
X009847Y005105D01*
X009483Y005105D01*
X009225Y004847D01*
X009225Y004483D01*
X009483Y004225D01*
X009766Y004225D01*
X010529Y003462D01*
X010617Y003425D01*
X010713Y003425D01*
X013066Y003425D01*
X013529Y002962D01*
X013617Y002925D01*
X013713Y002925D01*
X013725Y002925D01*
X013725Y002818D01*
X013792Y002656D01*
X013793Y002655D01*
X013515Y002655D01*
X012801Y003369D01*
X012713Y003405D01*
X012617Y003405D01*
X009617Y003405D01*
X009529Y003369D01*
X009462Y003301D01*
X009066Y002905D01*
X009047Y002905D01*
X008847Y003105D01*
X008483Y003105D01*
X008225Y002847D01*
X008225Y002483D01*
X008483Y002225D01*
X008847Y002225D01*
X009047Y002425D01*
X009117Y002425D01*
X009213Y002425D01*
X009301Y002462D01*
X009685Y002846D01*
X009685Y002466D01*
X009966Y002185D01*
X010364Y002185D01*
X010645Y002466D01*
X010645Y002864D01*
X010584Y002925D01*
X010746Y002925D01*
X010685Y002864D01*
X010685Y002466D01*
X010966Y002185D01*
X011364Y002185D01*
X011645Y002466D01*
X011645Y002864D01*
X011584Y002925D01*
X011685Y002925D01*
X011685Y002291D01*
X011791Y002185D01*
X012540Y002185D01*
X012645Y002291D01*
X012645Y002846D01*
X013212Y002279D01*
X013279Y002212D01*
X013367Y002175D01*
X014225Y002175D01*
X014225Y001568D01*
X014292Y001406D01*
X014416Y001282D01*
X014578Y001215D01*
X014753Y001215D01*
X014914Y001282D01*
X015038Y001406D01*
X015105Y001568D01*
X015105Y002263D01*
X015038Y002424D01*
X014941Y002522D01*
X015078Y002465D01*
X015253Y002465D01*
X015390Y002522D01*
X015292Y002424D01*
X015225Y002263D01*
X015225Y001568D01*
X015292Y001406D01*
X015416Y001282D01*
X015578Y001215D01*
X015753Y001215D01*
X015914Y001282D01*
X016038Y001406D01*
X016105Y001568D01*
X016105Y002263D01*
X016038Y002424D01*
X015941Y002522D01*
X016078Y002465D01*
X016253Y002465D01*
X016390Y002522D01*
X016292Y002424D01*
X016225Y002263D01*
X016225Y001568D01*
X016292Y001406D01*
X016416Y001282D01*
X016578Y001215D01*
X016753Y001215D01*
X016914Y001282D01*
X017038Y001406D01*
X017105Y001568D01*
X017105Y002263D01*
X017038Y002424D01*
X016941Y002522D01*
X017078Y002465D01*
X017253Y002465D01*
X017390Y002522D01*
X017292Y002424D01*
X017225Y002263D01*
X017225Y001568D01*
X017292Y001406D01*
X017416Y001282D01*
X017578Y001215D01*
X017753Y001215D01*
X017914Y001282D01*
X018038Y001406D01*
X018105Y001568D01*
X018105Y002263D01*
X018038Y002424D01*
X017941Y002522D01*
X018078Y002465D01*
X018253Y002465D01*
X018390Y002522D01*
X018292Y002424D01*
X018225Y002263D01*
X018225Y001568D01*
X018292Y001406D01*
X018416Y001282D01*
X018578Y001215D01*
X018753Y001215D01*
X018914Y001282D01*
X019038Y001406D01*
X019105Y001568D01*
X019105Y002263D01*
X019038Y002424D01*
X018941Y002522D01*
X019078Y002465D01*
X019253Y002465D01*
X019390Y002522D01*
X019292Y002424D01*
X019225Y002263D01*
X019225Y001568D01*
X019292Y001406D01*
X019416Y001282D01*
X019578Y001215D01*
X019753Y001215D01*
X019914Y001282D01*
X020038Y001406D01*
X020105Y001568D01*
X020105Y002263D01*
X020038Y002424D01*
X019941Y002522D01*
X020078Y002465D01*
X020253Y002465D01*
X020390Y002522D01*
X020292Y002424D01*
X020225Y002263D01*
X020225Y001568D01*
X020292Y001406D01*
X020416Y001282D01*
X020578Y001215D01*
X020753Y001215D01*
X020914Y001282D01*
X021038Y001406D01*
X021105Y001568D01*
X021105Y002263D01*
X021038Y002424D01*
X020914Y002548D01*
X020905Y002552D01*
X020905Y002575D01*
X020945Y002546D01*
X021004Y002516D01*
X021067Y002496D01*
X021132Y002485D01*
X021145Y002485D01*
X021145Y003145D01*
X021185Y003145D01*
X021185Y002485D01*
X021198Y002485D01*
X021264Y002496D01*
X021326Y002516D01*
X021385Y002546D01*
X021425Y002575D01*
X021425Y002552D01*
X021416Y002548D01*
X021292Y002424D01*
X021225Y002263D01*
X021225Y001568D01*
X021292Y001406D01*
X021416Y001282D01*
X021578Y001215D01*
X021753Y001215D01*
X021914Y001282D01*
X022038Y001406D01*
X022105Y001568D01*
X022105Y002263D01*
X022038Y002424D01*
X021941Y002522D01*
X022078Y002465D01*
X022253Y002465D01*
X022390Y002522D01*
X022292Y002424D01*
X022225Y002263D01*
X022225Y001568D01*
X022292Y001406D01*
X022416Y001282D01*
X022578Y001215D01*
X022753Y001215D01*
X022914Y001282D01*
X023038Y001406D01*
X023105Y001568D01*
X023105Y002263D01*
X023038Y002424D01*
X022941Y002522D01*
X023078Y002465D01*
X023253Y002465D01*
X023390Y002522D01*
X023292Y002424D01*
X023225Y002263D01*
X023225Y001568D01*
X023292Y001406D01*
X023416Y001282D01*
X023578Y001215D01*
X023753Y001215D01*
X023914Y001282D01*
X024038Y001406D01*
X024105Y001568D01*
X024105Y002263D01*
X024038Y002424D01*
X023941Y002522D01*
X024078Y002465D01*
X024253Y002465D01*
X024414Y002532D01*
X024538Y002656D01*
X024605Y002818D01*
X024605Y003513D01*
X024538Y003674D01*
X024414Y003798D01*
X024253Y003865D01*
X024078Y003865D01*
X023916Y003798D01*
X023792Y003674D01*
X023725Y003513D01*
X023725Y002818D01*
X023792Y002656D01*
X023890Y002558D01*
X023753Y002615D01*
X023578Y002615D01*
X023441Y002558D01*
X023538Y002656D01*
X023605Y002818D01*
X023605Y003513D01*
X023538Y003674D01*
X023414Y003798D01*
X023253Y003865D01*
X023205Y003865D01*
X024369Y005029D01*
X024405Y005117D01*
X024405Y005213D01*
X024405Y005528D01*
X024414Y005532D01*
X024425Y005543D01*
X024425Y005117D01*
X024462Y005029D01*
X024529Y004962D01*
X024925Y004566D01*
X024925Y003802D01*
X024916Y003798D01*
X024792Y003674D01*
X024725Y003513D01*
X024725Y002818D01*
X024792Y002656D01*
X024916Y002532D01*
X025078Y002465D01*
X025253Y002465D01*
X025414Y002532D01*
X025425Y002543D01*
X025425Y002463D01*
X025425Y002367D01*
X025429Y002358D01*
X025267Y002425D01*
X025064Y002425D01*
X024876Y002348D01*
X024733Y002204D01*
X024655Y002017D01*
X024655Y001814D01*
X024733Y001626D01*
X024876Y001483D01*
X025064Y001405D01*
X025267Y001405D01*
X025454Y001483D01*
X025598Y001626D01*
X025665Y001790D01*
X025733Y001626D01*
X025876Y001483D01*
X026064Y001405D01*
X026267Y001405D01*
X026454Y001483D01*
X026598Y001626D01*
X026665Y001790D01*
X026733Y001626D01*
X026876Y001483D01*
X027064Y001405D01*
X027267Y001405D01*
X027351Y001440D01*
X027066Y001155D01*
X011140Y001155D01*
X011110Y001185D01*
X011364Y001185D01*
X011645Y001466D01*
X011645Y001864D01*
X011364Y002145D01*
X010966Y002145D01*
X010685Y001864D01*
X010685Y001649D01*
X010594Y001649D01*
X010537Y001625D01*
X010205Y001625D01*
X010205Y001205D01*
X010312Y001205D01*
X010361Y001087D01*
X010462Y000986D01*
X010594Y000932D01*
X010684Y000932D01*
X010771Y000845D01*
X002949Y000845D01*
X003225Y001005D01*
X003545Y001350D01*
X003750Y001774D01*
X003750Y001774D01*
X003820Y002240D01*
X003750Y002706D01*
X003545Y003130D01*
X003225Y003475D01*
X002817Y003711D01*
X002358Y003816D01*
X001888Y003780D01*
X001450Y003608D01*
X001082Y003315D01*
X001082Y003315D01*
X001082Y003315D01*
X000845Y002968D01*
X000845Y018048D01*
X001082Y017701D01*
X001450Y017407D01*
X001888Y017235D01*
X002358Y017200D01*
X002817Y017305D01*
X003225Y017540D01*
X003545Y017885D01*
X003750Y018310D01*
X003820Y018775D01*
X003750Y019241D01*
X003750Y019241D01*
X003545Y019665D01*
X003545Y019665D01*
X003225Y020011D01*
X002949Y020170D01*
X005736Y020170D01*
X005728Y020164D01*
X005666Y020103D01*
X005614Y020034D01*
X005570Y019959D01*
X005537Y019878D01*
X005515Y019795D01*
X005505Y019725D01*
X006105Y019725D01*
X006105Y019605D01*
X006225Y019605D01*
X006225Y019005D01*
X006295Y019015D01*
X006342Y019027D01*
X006271Y018856D01*
X006271Y018585D01*
X006374Y018334D01*
X006566Y018142D01*
X006817Y018038D01*
X007088Y018038D01*
X007235Y018099D01*
X007675Y017658D01*
X007675Y015155D01*
X007213Y015155D01*
X007117Y015155D01*
X007029Y015119D01*
X006816Y014905D01*
X005642Y014905D01*
X006671Y015934D01*
X006817Y015873D01*
X007088Y015873D01*
X007339Y015977D01*
X007531Y016169D01*
X007635Y016419D01*
X007635Y016691D01*
X007531Y016941D01*
X007339Y017133D01*
X007088Y017237D01*
X006817Y017237D01*
X006566Y017133D01*
X006374Y016941D01*
X006271Y016691D01*
X006271Y016419D01*
X006331Y016273D01*
X004963Y014905D01*
X004780Y014905D01*
X004780Y019713D01*
X004744Y019801D01*
X004676Y019869D01*
X004588Y019905D01*
X004492Y019905D01*
X004404Y019869D01*
X004337Y019801D01*
X004300Y019713D01*
X004300Y014713D01*
X004300Y014617D01*
X004337Y014529D01*
X004404Y014462D01*
X004492Y014425D01*
X004803Y014425D01*
X004725Y014347D01*
X004725Y013983D01*
X004983Y013725D01*
X005347Y013725D01*
X005605Y013983D01*
X005605Y014347D01*
X005527Y014425D01*
X006053Y014425D01*
X005975Y014347D01*
X005975Y013983D01*
X006233Y013725D01*
X006597Y013725D01*
X006855Y013983D01*
X006855Y014266D01*
X007015Y014425D01*
X007303Y014425D01*
X007225Y014347D01*
X007225Y013983D01*
X007425Y013783D01*
X007425Y013265D01*
X007066Y012905D01*
X005617Y012905D01*
X005529Y012869D01*
X005462Y012801D01*
X004962Y012301D01*
X004925Y012213D01*
X004925Y012117D01*
X004925Y011547D01*
X004725Y011347D01*
X004725Y010983D01*
X004925Y010783D01*
X004730Y010978D02*
X003874Y010978D01*
X003672Y011097D02*
X004725Y011097D01*
X004725Y011216D02*
X000845Y011216D01*
X000845Y011334D02*
X004725Y011334D01*
X004830Y011453D02*
X000845Y011453D01*
X000845Y011571D02*
X004925Y011571D01*
X004925Y011690D02*
X000845Y011690D01*
X000845Y011808D02*
X004925Y011808D01*
X004925Y011927D02*
X000845Y011927D01*
X000845Y012045D02*
X004925Y012045D01*
X004925Y012164D02*
X000845Y012164D01*
X000845Y012282D02*
X004954Y012282D01*
X005062Y012401D02*
X000845Y012401D01*
X000845Y012520D02*
X005180Y012520D01*
X005299Y012638D02*
X000845Y012638D01*
X000845Y012757D02*
X005417Y012757D01*
X005545Y012875D02*
X000845Y012875D01*
X000845Y012994D02*
X007154Y012994D01*
X007273Y013112D02*
X000845Y013112D01*
X000845Y013231D02*
X007391Y013231D01*
X007425Y013349D02*
X000845Y013349D01*
X000845Y013468D02*
X002399Y013468D01*
X002461Y013442D02*
X002330Y013496D01*
X002230Y013597D01*
X002175Y013728D01*
X002175Y013870D01*
X002230Y014001D01*
X002330Y014102D01*
X002461Y014156D01*
X002603Y014156D01*
X002735Y014102D01*
X002835Y014001D01*
X002889Y013870D01*
X002889Y013728D01*
X002835Y013597D01*
X002735Y013496D01*
X002603Y013442D01*
X002461Y013442D01*
X002666Y013468D02*
X007425Y013468D01*
X007425Y013586D02*
X002825Y013586D01*
X002880Y013705D02*
X007425Y013705D01*
X007385Y013824D02*
X006696Y013824D01*
X006814Y013942D02*
X007266Y013942D01*
X007225Y014061D02*
X006855Y014061D01*
X006855Y014179D02*
X007225Y014179D01*
X007225Y014298D02*
X006887Y014298D01*
X007006Y014416D02*
X007294Y014416D01*
X007665Y014165D02*
X007665Y013165D01*
X007165Y012665D01*
X005665Y012665D01*
X005165Y012165D01*
X005165Y011165D01*
X005165Y008415D01*
X006415Y007165D01*
X013665Y007165D01*
X014165Y006665D01*
X014165Y006165D01*
X014165Y005415D01*
X015665Y003915D01*
X015665Y001915D01*
X015225Y001969D02*
X015105Y001969D01*
X015105Y001851D02*
X015225Y001851D01*
X015225Y001732D02*
X015105Y001732D01*
X015105Y001614D02*
X015225Y001614D01*
X015255Y001495D02*
X015075Y001495D01*
X015009Y001376D02*
X015322Y001376D01*
X015474Y001258D02*
X014856Y001258D01*
X014474Y001258D02*
X012437Y001258D01*
X012364Y001185D02*
X012645Y001466D01*
X012645Y001864D01*
X012364Y002145D01*
X011966Y002145D01*
X011685Y001864D01*
X011685Y001466D01*
X011966Y001185D01*
X012364Y001185D01*
X012555Y001376D02*
X014322Y001376D01*
X014255Y001495D02*
X012645Y001495D01*
X012645Y001614D02*
X014225Y001614D01*
X014225Y001732D02*
X012645Y001732D01*
X012645Y001851D02*
X014225Y001851D01*
X014225Y001969D02*
X012540Y001969D01*
X012421Y002088D02*
X014225Y002088D01*
X014290Y002415D02*
X013415Y002415D01*
X012665Y003165D01*
X009665Y003165D01*
X009165Y002665D01*
X008665Y002665D01*
X008225Y002680D02*
X006105Y002680D01*
X006105Y002562D02*
X008225Y002562D01*
X008265Y002443D02*
X006066Y002443D01*
X006105Y002483D02*
X005847Y002225D01*
X005483Y002225D01*
X005283Y002425D01*
X005213Y002425D01*
X005117Y002425D01*
X005029Y002462D01*
X003946Y003545D01*
X003909Y003633D01*
X003909Y003729D01*
X003909Y006279D01*
X003764Y006339D01*
X003573Y006530D01*
X003469Y006780D01*
X003469Y007050D01*
X003573Y007300D01*
X003764Y007492D01*
X004014Y007595D01*
X004285Y007595D01*
X004535Y007492D01*
X004726Y007300D01*
X004829Y007050D01*
X004829Y006780D01*
X004726Y006530D01*
X004535Y006339D01*
X004389Y006279D01*
X004389Y003780D01*
X005265Y002905D01*
X005283Y002905D01*
X005483Y003105D01*
X005847Y003105D01*
X006105Y002847D01*
X006105Y002483D01*
X005947Y002325D02*
X008383Y002325D01*
X008225Y002799D02*
X006105Y002799D01*
X006035Y002918D02*
X008295Y002918D01*
X008414Y003036D02*
X005916Y003036D01*
X005665Y002665D02*
X005165Y002665D01*
X004149Y003681D01*
X004149Y006915D01*
X004774Y007185D02*
X006056Y007185D01*
X006174Y007067D02*
X004823Y007067D01*
X004829Y006948D02*
X006312Y006948D01*
X006097Y006605D02*
X005733Y006605D01*
X005475Y006347D01*
X005475Y005983D01*
X005733Y005725D01*
X006016Y005725D01*
X006425Y005316D01*
X006425Y005047D01*
X006225Y004847D01*
X006225Y004483D01*
X006483Y004225D01*
X006847Y004225D01*
X007105Y004483D01*
X007105Y004847D01*
X006905Y005047D01*
X006905Y005463D01*
X006869Y005551D01*
X006801Y005619D01*
X006355Y006065D01*
X006355Y006347D01*
X006097Y006605D01*
X006110Y006592D02*
X009720Y006592D01*
X009733Y006605D02*
X009475Y006347D01*
X009475Y005983D01*
X009733Y005725D01*
X010016Y005725D01*
X010425Y005316D01*
X010425Y005047D01*
X010225Y004847D01*
X010225Y004483D01*
X010483Y004225D01*
X010847Y004225D01*
X011105Y004483D01*
X011105Y004847D01*
X010905Y005047D01*
X010905Y005367D01*
X010905Y005463D01*
X010869Y005551D01*
X010355Y006065D01*
X010355Y006347D01*
X010097Y006605D01*
X009733Y006605D01*
X009602Y006474D02*
X009200Y006474D01*
X009089Y006585D02*
X008935Y006585D01*
X008935Y006185D01*
X009335Y006185D01*
X009335Y006339D01*
X009089Y006585D01*
X008935Y006474D02*
X008895Y006474D01*
X008895Y006585D02*
X008741Y006585D01*
X008495Y006339D01*
X008495Y006185D01*
X008895Y006185D01*
X008895Y006145D01*
X008935Y006145D01*
X008935Y005745D01*
X009089Y005745D01*
X009335Y005991D01*
X009335Y006145D01*
X008935Y006145D01*
X008935Y006185D01*
X008895Y006185D01*
X008895Y006585D01*
X008895Y006355D02*
X008935Y006355D01*
X008935Y006237D02*
X008895Y006237D01*
X008895Y006145D02*
X008495Y006145D01*
X008495Y005991D01*
X008741Y005745D01*
X008895Y005745D01*
X008895Y006145D01*
X008895Y006118D02*
X008935Y006118D01*
X008935Y006000D02*
X008895Y006000D01*
X008895Y005881D02*
X008935Y005881D01*
X008935Y005763D02*
X008895Y005763D01*
X008724Y005763D02*
X006657Y005763D01*
X006539Y005881D02*
X008605Y005881D01*
X008495Y006000D02*
X006420Y006000D01*
X006355Y006118D02*
X008495Y006118D01*
X008495Y006237D02*
X006355Y006237D01*
X006347Y006355D02*
X008511Y006355D01*
X008630Y006474D02*
X006229Y006474D01*
X005915Y006165D02*
X006665Y005415D01*
X006665Y004665D01*
X006225Y004696D02*
X006105Y004696D01*
X006105Y004814D02*
X006225Y004814D01*
X006105Y004847D02*
X005847Y005105D01*
X005483Y005105D01*
X005225Y004847D01*
X005225Y004483D01*
X005483Y004225D01*
X005847Y004225D01*
X006105Y004483D01*
X006105Y004847D01*
X006020Y004933D02*
X006311Y004933D01*
X006425Y005051D02*
X005901Y005051D01*
X005429Y005051D02*
X004389Y005051D01*
X004389Y004933D02*
X005311Y004933D01*
X005225Y004814D02*
X004389Y004814D01*
X004389Y004696D02*
X005225Y004696D01*
X005225Y004577D02*
X004389Y004577D01*
X004389Y004459D02*
X005250Y004459D01*
X005368Y004340D02*
X004389Y004340D01*
X004389Y004221D02*
X009769Y004221D01*
X009888Y004103D02*
X004389Y004103D01*
X004389Y003984D02*
X010007Y003984D01*
X010125Y003866D02*
X004389Y003866D01*
X004422Y003747D02*
X010244Y003747D01*
X010362Y003629D02*
X004541Y003629D01*
X004660Y003510D02*
X010481Y003510D01*
X010665Y003665D02*
X009665Y004665D01*
X009225Y004696D02*
X007105Y004696D01*
X007105Y004814D02*
X009225Y004814D01*
X009311Y004933D02*
X007020Y004933D01*
X006905Y005051D02*
X009429Y005051D01*
X009901Y005051D02*
X010425Y005051D01*
X010425Y005170D02*
X006905Y005170D01*
X006905Y005288D02*
X010425Y005288D01*
X010334Y005407D02*
X006905Y005407D01*
X006879Y005525D02*
X010215Y005525D01*
X010097Y005644D02*
X006776Y005644D01*
X006425Y005288D02*
X004389Y005288D01*
X004389Y005170D02*
X006425Y005170D01*
X006334Y005407D02*
X004389Y005407D01*
X004389Y005525D02*
X006215Y005525D01*
X006097Y005644D02*
X004389Y005644D01*
X004389Y005763D02*
X005696Y005763D01*
X005577Y005881D02*
X004389Y005881D01*
X004389Y006000D02*
X005475Y006000D01*
X005475Y006118D02*
X004389Y006118D01*
X004389Y006237D02*
X005475Y006237D01*
X005483Y006355D02*
X004551Y006355D01*
X004670Y006474D02*
X005602Y006474D01*
X005720Y006592D02*
X004752Y006592D01*
X004801Y006711D02*
X013780Y006711D01*
X013758Y006592D02*
X010110Y006592D01*
X010229Y006474D02*
X012630Y006474D01*
X012741Y006585D02*
X012495Y006339D01*
X012495Y006185D01*
X012895Y006185D01*
X012895Y006145D01*
X012935Y006145D01*
X012935Y005745D01*
X013089Y005745D01*
X013335Y005991D01*
X013335Y006145D01*
X012935Y006145D01*
X012935Y006185D01*
X013335Y006185D01*
X013335Y006339D01*
X013089Y006585D01*
X012935Y006585D01*
X012935Y006185D01*
X012895Y006185D01*
X012895Y006585D01*
X012741Y006585D01*
X012895Y006474D02*
X012935Y006474D01*
X012935Y006355D02*
X012895Y006355D01*
X012895Y006237D02*
X012935Y006237D01*
X012895Y006145D02*
X012495Y006145D01*
X012495Y005991D01*
X012741Y005745D01*
X012895Y005745D01*
X012895Y006145D01*
X012895Y006118D02*
X012935Y006118D01*
X012935Y006000D02*
X012895Y006000D01*
X012895Y005881D02*
X012935Y005881D01*
X012935Y005763D02*
X012895Y005763D01*
X012724Y005763D02*
X010657Y005763D01*
X010539Y005881D02*
X012605Y005881D01*
X012495Y006000D02*
X010420Y006000D01*
X010355Y006118D02*
X012495Y006118D01*
X012495Y006237D02*
X010355Y006237D01*
X010347Y006355D02*
X012511Y006355D01*
X013200Y006474D02*
X013725Y006474D01*
X013725Y006355D02*
X013319Y006355D01*
X013335Y006237D02*
X013725Y006237D01*
X013725Y006118D02*
X013335Y006118D01*
X013335Y006000D02*
X013725Y006000D01*
X013725Y005881D02*
X013225Y005881D01*
X013106Y005763D02*
X013748Y005763D01*
X013804Y005644D02*
X010776Y005644D01*
X010879Y005525D02*
X013925Y005525D01*
X013925Y005407D02*
X010905Y005407D01*
X010905Y005288D02*
X013958Y005288D01*
X014071Y005170D02*
X010905Y005170D01*
X010905Y005051D02*
X014190Y005051D01*
X014308Y004933D02*
X011020Y004933D01*
X011105Y004814D02*
X014427Y004814D01*
X014545Y004696D02*
X011105Y004696D01*
X011105Y004577D02*
X014664Y004577D01*
X014782Y004459D02*
X011081Y004459D01*
X010962Y004340D02*
X014901Y004340D01*
X015019Y004221D02*
X010448Y004221D01*
X010368Y004340D02*
X010330Y004340D01*
X010250Y004459D02*
X010211Y004459D01*
X010225Y004577D02*
X010105Y004577D01*
X010105Y004696D02*
X010225Y004696D01*
X010225Y004814D02*
X010105Y004814D01*
X010020Y004933D02*
X010311Y004933D01*
X010665Y004665D02*
X010665Y005415D01*
X009915Y006165D01*
X009475Y006118D02*
X009335Y006118D01*
X009335Y006000D02*
X009475Y006000D01*
X009577Y005881D02*
X009225Y005881D01*
X009106Y005763D02*
X009696Y005763D01*
X009475Y006237D02*
X009335Y006237D01*
X009319Y006355D02*
X009483Y006355D01*
X009867Y007425D02*
X009963Y007425D01*
X014066Y007425D01*
X014804Y006687D01*
X014792Y006674D01*
X014725Y006513D01*
X014725Y005818D01*
X014792Y005656D01*
X014916Y005532D01*
X014925Y005528D01*
X014925Y005367D01*
X014962Y005279D01*
X015029Y005212D01*
X016425Y003816D01*
X016425Y003787D01*
X016414Y003798D01*
X016253Y003865D01*
X016078Y003865D01*
X015916Y003798D01*
X015905Y003787D01*
X015905Y003963D01*
X015869Y004051D01*
X015801Y004119D01*
X014405Y005515D01*
X014405Y005528D01*
X014414Y005532D01*
X014538Y005656D01*
X014605Y005818D01*
X014605Y006513D01*
X014538Y006674D01*
X014414Y006798D01*
X014341Y006828D01*
X014301Y006869D01*
X013869Y007301D01*
X013801Y007369D01*
X013713Y007405D01*
X006515Y007405D01*
X005405Y008515D01*
X005405Y009303D01*
X005483Y009225D01*
X005847Y009225D01*
X006105Y009483D01*
X006105Y009847D01*
X005905Y010047D01*
X005905Y010316D01*
X006315Y010725D01*
X006597Y010725D01*
X006855Y010983D01*
X006855Y011347D01*
X006597Y011605D01*
X006233Y011605D01*
X005975Y011347D01*
X005975Y011065D01*
X005462Y010551D01*
X005425Y010463D01*
X005425Y010367D01*
X005425Y010047D01*
X005405Y010027D01*
X005405Y010783D01*
X005605Y010983D01*
X005605Y011347D01*
X005405Y011547D01*
X005405Y012066D01*
X005765Y012425D01*
X007117Y012425D01*
X007213Y012425D01*
X007301Y012462D01*
X007801Y012962D01*
X007869Y013029D01*
X007905Y013117D01*
X007905Y013783D01*
X008105Y013983D01*
X008105Y014347D01*
X008027Y014425D01*
X008066Y014425D01*
X008175Y014316D01*
X008175Y010547D01*
X007975Y010347D01*
X007975Y009983D01*
X008233Y009725D01*
X008597Y009725D01*
X008675Y009803D01*
X008675Y009527D01*
X008597Y009605D01*
X008233Y009605D01*
X007975Y009347D01*
X007975Y008983D01*
X008233Y008725D01*
X008597Y008725D01*
X008675Y008803D01*
X008675Y008617D01*
X008712Y008529D01*
X008779Y008462D01*
X009779Y007462D01*
X009867Y007425D01*
X009700Y007541D02*
X006379Y007541D01*
X006261Y007659D02*
X009582Y007659D01*
X009463Y007778D02*
X006142Y007778D01*
X006023Y007896D02*
X009345Y007896D01*
X009226Y008015D02*
X005905Y008015D01*
X005786Y008133D02*
X009108Y008133D01*
X008989Y008252D02*
X005668Y008252D01*
X005549Y008371D02*
X008870Y008371D01*
X008752Y008489D02*
X005431Y008489D01*
X005405Y008608D02*
X008679Y008608D01*
X008675Y008726D02*
X008598Y008726D01*
X008915Y008665D02*
X008915Y011165D01*
X008915Y012165D01*
X009415Y012665D01*
X010915Y012665D01*
X011415Y013165D01*
X011415Y014165D01*
X011855Y014179D02*
X012175Y014179D01*
X012175Y014061D02*
X011855Y014061D01*
X011855Y013983D02*
X011655Y013783D01*
X011655Y013213D01*
X011655Y013117D01*
X011619Y013029D01*
X011119Y012529D01*
X011051Y012462D01*
X010963Y012425D01*
X009515Y012425D01*
X009155Y012066D01*
X009155Y011547D01*
X009355Y011347D01*
X009355Y010983D01*
X009155Y010783D01*
X009155Y008765D01*
X010015Y007905D01*
X014213Y007905D01*
X014301Y007869D01*
X014369Y007801D01*
X015301Y006869D01*
X015301Y006869D01*
X015341Y006828D01*
X015414Y006798D01*
X015538Y006674D01*
X015605Y006513D01*
X015605Y005818D01*
X015538Y005656D01*
X015414Y005532D01*
X015405Y005528D01*
X015405Y005515D01*
X016869Y004051D01*
X016905Y003963D01*
X016905Y003867D01*
X016905Y003787D01*
X016916Y003798D01*
X017078Y003865D01*
X017253Y003865D01*
X017414Y003798D01*
X017425Y003787D01*
X017425Y003816D01*
X016029Y005212D01*
X016029Y005212D01*
X015962Y005279D01*
X015925Y005367D01*
X015925Y005528D01*
X015916Y005532D01*
X015792Y005656D01*
X015725Y005818D01*
X015725Y006513D01*
X015792Y006674D01*
X015804Y006687D01*
X014566Y007925D01*
X013463Y007925D01*
X013367Y007925D01*
X013279Y007962D01*
X012712Y008529D01*
X012675Y008617D01*
X012675Y008713D01*
X012675Y008803D01*
X012597Y008725D01*
X012233Y008725D01*
X011975Y008983D01*
X011975Y009347D01*
X012233Y009605D01*
X012597Y009605D01*
X012675Y009527D01*
X012675Y009803D01*
X012597Y009725D01*
X012233Y009725D01*
X011975Y009983D01*
X011975Y010347D01*
X012175Y010547D01*
X012175Y014316D01*
X012066Y014425D01*
X011777Y014425D01*
X011855Y014347D01*
X011855Y013983D01*
X011814Y013942D02*
X012175Y013942D01*
X012175Y013824D02*
X011696Y013824D01*
X011655Y013705D02*
X012175Y013705D01*
X012175Y013586D02*
X011655Y013586D01*
X011655Y013468D02*
X012175Y013468D01*
X012175Y013349D02*
X011655Y013349D01*
X011655Y013231D02*
X012175Y013231D01*
X012175Y013112D02*
X011653Y013112D01*
X011583Y012994D02*
X012175Y012994D01*
X012175Y012875D02*
X011465Y012875D01*
X011346Y012757D02*
X012175Y012757D01*
X012175Y012638D02*
X011227Y012638D01*
X011109Y012520D02*
X012175Y012520D01*
X012175Y012401D02*
X009490Y012401D01*
X009372Y012282D02*
X012175Y012282D01*
X012175Y012164D02*
X009253Y012164D01*
X009155Y012045D02*
X012175Y012045D01*
X012175Y011927D02*
X009155Y011927D01*
X009155Y011808D02*
X012175Y011808D01*
X012175Y011690D02*
X009155Y011690D01*
X009155Y011571D02*
X009949Y011571D01*
X009983Y011605D02*
X009725Y011347D01*
X009725Y011065D01*
X009462Y010801D01*
X009425Y010713D01*
X009425Y010617D01*
X009425Y010047D01*
X009225Y009847D01*
X009225Y009483D01*
X009483Y009225D01*
X009847Y009225D01*
X010105Y009483D01*
X010105Y009847D01*
X009905Y010047D01*
X009905Y010566D01*
X010065Y010725D01*
X010347Y010725D01*
X010605Y010983D01*
X010605Y011347D01*
X010347Y011605D01*
X009983Y011605D01*
X009830Y011453D02*
X009250Y011453D01*
X009355Y011334D02*
X009725Y011334D01*
X009725Y011216D02*
X009355Y011216D01*
X009355Y011097D02*
X009725Y011097D01*
X009639Y010978D02*
X009351Y010978D01*
X009232Y010860D02*
X009521Y010860D01*
X009437Y010741D02*
X009155Y010741D01*
X009155Y010623D02*
X009425Y010623D01*
X009425Y010504D02*
X009155Y010504D01*
X009155Y010386D02*
X009425Y010386D01*
X009425Y010267D02*
X009155Y010267D01*
X009155Y010149D02*
X009425Y010149D01*
X009408Y010030D02*
X009155Y010030D01*
X009155Y009912D02*
X009289Y009912D01*
X009225Y009793D02*
X009155Y009793D01*
X009155Y009674D02*
X009225Y009674D01*
X009225Y009556D02*
X009155Y009556D01*
X009155Y009437D02*
X009271Y009437D01*
X009155Y009319D02*
X009389Y009319D01*
X009155Y009200D02*
X011975Y009200D01*
X011975Y009082D02*
X009155Y009082D01*
X009155Y008963D02*
X011995Y008963D01*
X012113Y008845D02*
X009155Y008845D01*
X009194Y008726D02*
X012232Y008726D01*
X012598Y008726D02*
X012675Y008726D01*
X012679Y008608D02*
X009312Y008608D01*
X009431Y008489D02*
X012752Y008489D01*
X012870Y008371D02*
X009549Y008371D01*
X009668Y008252D02*
X012989Y008252D01*
X013108Y008133D02*
X009786Y008133D01*
X009905Y008015D02*
X013226Y008015D01*
X013415Y008165D02*
X012915Y008665D01*
X012915Y011165D01*
X012915Y012165D01*
X013415Y012665D01*
X014915Y012665D01*
X015415Y013165D01*
X015415Y014165D01*
X015855Y014179D02*
X016175Y014179D01*
X016175Y014061D02*
X015855Y014061D01*
X015855Y013983D02*
X015655Y013783D01*
X015655Y013117D01*
X015619Y013029D01*
X015551Y012962D01*
X015051Y012462D01*
X014963Y012425D01*
X014867Y012425D01*
X013515Y012425D01*
X013155Y012066D01*
X013155Y011547D01*
X013355Y011347D01*
X013355Y010983D01*
X013155Y010783D01*
X013155Y008765D01*
X013515Y008405D01*
X014713Y008405D01*
X014801Y008369D01*
X014869Y008301D01*
X016301Y006869D01*
X016301Y006869D01*
X016341Y006828D01*
X016414Y006798D01*
X016538Y006674D01*
X016605Y006513D01*
X016605Y005818D01*
X016538Y005656D01*
X016414Y005532D01*
X016405Y005528D01*
X016405Y005515D01*
X017801Y004119D01*
X017869Y004051D01*
X017905Y003963D01*
X017905Y003787D01*
X017916Y003798D01*
X018078Y003865D01*
X018253Y003865D01*
X018414Y003798D01*
X018425Y003787D01*
X018425Y003816D01*
X017029Y005212D01*
X017029Y005212D01*
X016962Y005279D01*
X016925Y005367D01*
X016925Y005528D01*
X016916Y005532D01*
X016792Y005656D01*
X016725Y005818D01*
X016725Y006513D01*
X016792Y006674D01*
X016916Y006798D01*
X016925Y006802D01*
X016925Y006816D01*
X016712Y007029D01*
X016675Y007117D01*
X016675Y007213D01*
X016675Y008803D01*
X016597Y008725D01*
X016233Y008725D01*
X015975Y008983D01*
X015975Y009347D01*
X016233Y009605D01*
X016597Y009605D01*
X016675Y009527D01*
X016675Y009803D01*
X016597Y009725D01*
X016233Y009725D01*
X015975Y009983D01*
X015975Y010347D01*
X016175Y010547D01*
X016175Y014316D01*
X016066Y014425D01*
X015777Y014425D01*
X015855Y014347D01*
X015855Y013983D01*
X015814Y013942D02*
X016175Y013942D01*
X016175Y013824D02*
X015696Y013824D01*
X015655Y013705D02*
X016175Y013705D01*
X016175Y013586D02*
X015655Y013586D01*
X015655Y013468D02*
X016175Y013468D01*
X016175Y013349D02*
X015655Y013349D01*
X015655Y013231D02*
X016175Y013231D01*
X016175Y013112D02*
X015653Y013112D01*
X015583Y012994D02*
X016175Y012994D01*
X016175Y012875D02*
X015465Y012875D01*
X015346Y012757D02*
X016175Y012757D01*
X016175Y012638D02*
X015227Y012638D01*
X015109Y012520D02*
X016175Y012520D01*
X016175Y012401D02*
X013490Y012401D01*
X013372Y012282D02*
X016175Y012282D01*
X016175Y012164D02*
X013253Y012164D01*
X013155Y012045D02*
X016175Y012045D01*
X016175Y011927D02*
X013155Y011927D01*
X013155Y011808D02*
X016175Y011808D01*
X016175Y011690D02*
X013155Y011690D01*
X013155Y011571D02*
X013949Y011571D01*
X013983Y011605D02*
X013725Y011347D01*
X013725Y011065D01*
X013462Y010801D01*
X013425Y010713D01*
X013425Y010617D01*
X013425Y010047D01*
X013225Y009847D01*
X013225Y009483D01*
X013483Y009225D01*
X013847Y009225D01*
X014105Y009483D01*
X014105Y009847D01*
X013905Y010047D01*
X013905Y010566D01*
X014065Y010725D01*
X014347Y010725D01*
X014605Y010983D01*
X014605Y011347D01*
X014347Y011605D01*
X013983Y011605D01*
X013830Y011453D02*
X013250Y011453D01*
X013355Y011334D02*
X013725Y011334D01*
X013725Y011216D02*
X013355Y011216D01*
X013355Y011097D02*
X013725Y011097D01*
X013639Y010978D02*
X013351Y010978D01*
X013232Y010860D02*
X013521Y010860D01*
X013437Y010741D02*
X013155Y010741D01*
X013155Y010623D02*
X013425Y010623D01*
X013425Y010504D02*
X013155Y010504D01*
X013155Y010386D02*
X013425Y010386D01*
X013425Y010267D02*
X013155Y010267D01*
X013155Y010149D02*
X013425Y010149D01*
X013408Y010030D02*
X013155Y010030D01*
X013155Y009912D02*
X013289Y009912D01*
X013225Y009793D02*
X013155Y009793D01*
X013155Y009674D02*
X013225Y009674D01*
X013225Y009556D02*
X013155Y009556D01*
X013155Y009437D02*
X013271Y009437D01*
X013155Y009319D02*
X013389Y009319D01*
X013155Y009200D02*
X015975Y009200D01*
X015975Y009082D02*
X013155Y009082D01*
X013155Y008963D02*
X015995Y008963D01*
X016113Y008845D02*
X013155Y008845D01*
X013194Y008726D02*
X016232Y008726D01*
X016598Y008726D02*
X016675Y008726D01*
X016675Y008608D02*
X013312Y008608D01*
X013431Y008489D02*
X016675Y008489D01*
X016675Y008371D02*
X014797Y008371D01*
X014918Y008252D02*
X016675Y008252D01*
X016675Y008133D02*
X015036Y008133D01*
X015155Y008015D02*
X016675Y008015D01*
X016675Y007896D02*
X015273Y007896D01*
X015392Y007778D02*
X016675Y007778D01*
X016675Y007659D02*
X015511Y007659D01*
X015629Y007541D02*
X016675Y007541D01*
X016675Y007422D02*
X015748Y007422D01*
X015866Y007304D02*
X016675Y007304D01*
X016675Y007185D02*
X015985Y007185D01*
X016103Y007067D02*
X016696Y007067D01*
X016793Y006948D02*
X016222Y006948D01*
X016340Y006829D02*
X016911Y006829D01*
X016829Y006711D02*
X016502Y006711D01*
X016572Y006592D02*
X016758Y006592D01*
X016725Y006474D02*
X016605Y006474D01*
X016605Y006355D02*
X016725Y006355D01*
X016725Y006237D02*
X016605Y006237D01*
X016605Y006118D02*
X016725Y006118D01*
X016725Y006000D02*
X016605Y006000D01*
X016605Y005881D02*
X016725Y005881D01*
X016748Y005763D02*
X016582Y005763D01*
X016526Y005644D02*
X016804Y005644D01*
X016925Y005525D02*
X016405Y005525D01*
X016513Y005407D02*
X016925Y005407D01*
X016958Y005288D02*
X016631Y005288D01*
X016750Y005170D02*
X017071Y005170D01*
X017190Y005051D02*
X016868Y005051D01*
X016987Y004933D02*
X017308Y004933D01*
X017427Y004814D02*
X017106Y004814D01*
X017224Y004696D02*
X017545Y004696D01*
X017664Y004577D02*
X017343Y004577D01*
X017461Y004459D02*
X017782Y004459D01*
X017901Y004340D02*
X017580Y004340D01*
X017698Y004221D02*
X018019Y004221D01*
X018138Y004103D02*
X017817Y004103D01*
X017896Y003984D02*
X018257Y003984D01*
X018375Y003866D02*
X017905Y003866D01*
X017665Y003915D02*
X017665Y001915D01*
X017225Y001969D02*
X017105Y001969D01*
X017105Y001851D02*
X017225Y001851D01*
X017225Y001732D02*
X017105Y001732D01*
X017105Y001614D02*
X017225Y001614D01*
X017255Y001495D02*
X017075Y001495D01*
X017009Y001376D02*
X017322Y001376D01*
X017474Y001258D02*
X016856Y001258D01*
X016474Y001258D02*
X015856Y001258D01*
X016009Y001376D02*
X016322Y001376D01*
X016255Y001495D02*
X016075Y001495D01*
X016105Y001614D02*
X016225Y001614D01*
X016225Y001732D02*
X016105Y001732D01*
X016105Y001851D02*
X016225Y001851D01*
X016225Y001969D02*
X016105Y001969D01*
X016105Y002088D02*
X016225Y002088D01*
X016225Y002206D02*
X016105Y002206D01*
X016079Y002325D02*
X016251Y002325D01*
X016311Y002443D02*
X016019Y002443D01*
X015311Y002443D02*
X015019Y002443D01*
X015079Y002325D02*
X015251Y002325D01*
X015225Y002206D02*
X015105Y002206D01*
X015105Y002088D02*
X015225Y002088D01*
X014665Y002790D02*
X014290Y002415D01*
X014665Y002790D02*
X015040Y002790D01*
X015165Y002915D01*
X015165Y003165D01*
X014725Y003155D02*
X014605Y003155D01*
X014605Y003273D02*
X014725Y003273D01*
X014725Y003392D02*
X014605Y003392D01*
X014605Y003510D02*
X014725Y003510D01*
X014773Y003629D02*
X014557Y003629D01*
X014465Y003747D02*
X014865Y003747D01*
X015138Y004103D02*
X010567Y004103D01*
X010685Y003984D02*
X015257Y003984D01*
X015375Y003866D02*
X013304Y003866D01*
X013422Y003747D02*
X013865Y003747D01*
X013773Y003629D02*
X013541Y003629D01*
X013660Y003510D02*
X013725Y003510D01*
X013665Y003165D02*
X013165Y003665D01*
X010665Y003665D01*
X010592Y002918D02*
X010739Y002918D01*
X010685Y002799D02*
X010645Y002799D01*
X010645Y002680D02*
X010685Y002680D01*
X010685Y002562D02*
X010645Y002562D01*
X010622Y002443D02*
X010708Y002443D01*
X010827Y002325D02*
X010504Y002325D01*
X010385Y002206D02*
X010945Y002206D01*
X010909Y002088D02*
X010393Y002088D01*
X010356Y002125D02*
X010205Y002125D01*
X010205Y001705D01*
X010125Y001705D01*
X010125Y001625D01*
X010205Y001625D01*
X010205Y001705D01*
X010625Y001705D01*
X010625Y001856D01*
X010356Y002125D01*
X010205Y002088D02*
X010125Y002088D01*
X010125Y002125D02*
X009975Y002125D01*
X009705Y001856D01*
X009705Y001705D01*
X010125Y001705D01*
X010125Y002125D01*
X010125Y001969D02*
X010205Y001969D01*
X010205Y001851D02*
X010125Y001851D01*
X010125Y001732D02*
X010205Y001732D01*
X010205Y001614D02*
X010125Y001614D01*
X010125Y001625D02*
X010125Y001205D01*
X009975Y001205D01*
X009705Y001475D01*
X009705Y001625D01*
X010125Y001625D01*
X010125Y001495D02*
X010205Y001495D01*
X010205Y001376D02*
X010125Y001376D01*
X010125Y001258D02*
X010205Y001258D01*
X010340Y001139D02*
X003350Y001139D01*
X003240Y001021D02*
X010428Y001021D01*
X010714Y000902D02*
X003048Y000902D01*
X003225Y001005D02*
X003225Y001005D01*
X003225Y001005D01*
X003460Y001258D02*
X009922Y001258D01*
X009803Y001376D02*
X003558Y001376D01*
X003545Y001350D02*
X003545Y001350D01*
X003615Y001495D02*
X009705Y001495D01*
X009705Y001614D02*
X003672Y001614D01*
X003729Y001732D02*
X009705Y001732D01*
X009705Y001851D02*
X003761Y001851D01*
X003779Y001969D02*
X009819Y001969D01*
X009937Y002088D02*
X003797Y002088D01*
X003815Y002206D02*
X009945Y002206D01*
X009827Y002325D02*
X008947Y002325D01*
X009257Y002443D02*
X009708Y002443D01*
X009685Y002562D02*
X009401Y002562D01*
X009520Y002680D02*
X009685Y002680D01*
X009685Y002799D02*
X009638Y002799D01*
X009197Y003036D02*
X008916Y003036D01*
X009035Y002918D02*
X009078Y002918D01*
X009315Y003155D02*
X005015Y003155D01*
X004897Y003273D02*
X009434Y003273D01*
X009585Y003392D02*
X004778Y003392D01*
X004336Y003155D02*
X003523Y003155D01*
X003545Y003130D02*
X003545Y003130D01*
X003591Y003036D02*
X004455Y003036D01*
X004573Y002918D02*
X003648Y002918D01*
X003705Y002799D02*
X004692Y002799D01*
X004811Y002680D02*
X003754Y002680D01*
X003750Y002706D02*
X003750Y002706D01*
X003771Y002562D02*
X004929Y002562D01*
X005074Y002443D02*
X003789Y002443D01*
X003807Y002325D02*
X005383Y002325D01*
X005295Y002918D02*
X005252Y002918D01*
X005134Y003036D02*
X005414Y003036D01*
X004218Y003273D02*
X003413Y003273D01*
X003303Y003392D02*
X004099Y003392D01*
X003981Y003510D02*
X003165Y003510D01*
X003225Y003475D02*
X003225Y003475D01*
X002959Y003629D02*
X003911Y003629D01*
X003909Y003747D02*
X002657Y003747D01*
X002817Y003711D02*
X002817Y003711D01*
X002358Y003816D02*
X002358Y003816D01*
X001888Y003780D02*
X001888Y003780D01*
X001804Y003747D02*
X000845Y003747D01*
X000845Y003629D02*
X001502Y003629D01*
X001450Y003608D02*
X001450Y003608D01*
X001327Y003510D02*
X000845Y003510D01*
X000845Y003392D02*
X001178Y003392D01*
X001054Y003273D02*
X000845Y003273D01*
X000845Y003155D02*
X000973Y003155D01*
X000892Y003036D02*
X000845Y003036D01*
X000845Y003866D02*
X003909Y003866D01*
X003909Y003984D02*
X000845Y003984D01*
X000845Y004103D02*
X003909Y004103D01*
X003909Y004221D02*
X000845Y004221D01*
X000845Y004340D02*
X003909Y004340D01*
X003909Y004459D02*
X000845Y004459D01*
X000845Y004577D02*
X003909Y004577D01*
X003909Y004696D02*
X000845Y004696D01*
X000845Y004814D02*
X003909Y004814D01*
X003909Y004933D02*
X000845Y004933D01*
X000845Y005051D02*
X003909Y005051D01*
X003909Y005170D02*
X000845Y005170D01*
X000845Y005288D02*
X003909Y005288D01*
X003909Y005407D02*
X000845Y005407D01*
X000845Y005525D02*
X003909Y005525D01*
X003909Y005644D02*
X000845Y005644D01*
X000845Y005763D02*
X003909Y005763D01*
X003909Y005881D02*
X000845Y005881D01*
X000845Y006000D02*
X003909Y006000D01*
X003909Y006118D02*
X000845Y006118D01*
X000845Y006237D02*
X003909Y006237D01*
X003748Y006355D02*
X002531Y006355D01*
X002548Y006365D02*
X002617Y006418D01*
X002678Y006479D01*
X002731Y006548D01*
X002774Y006623D01*
X002807Y006703D01*
X002830Y006786D01*
X002841Y006872D01*
X002841Y006877D01*
X002220Y006877D01*
X002220Y006954D01*
X002841Y006954D01*
X002841Y006958D01*
X002830Y007044D01*
X002807Y007128D01*
X002774Y007208D01*
X002731Y007283D01*
X002678Y007351D01*
X002617Y007412D01*
X002548Y007465D01*
X002473Y007508D01*
X002394Y007541D01*
X002310Y007564D01*
X002224Y007575D01*
X002219Y007575D01*
X002219Y006954D01*
X002142Y006954D01*
X002142Y006877D01*
X001521Y006877D01*
X001521Y006872D01*
X001532Y006786D01*
X001555Y006703D01*
X001588Y006623D01*
X001631Y006548D01*
X001684Y006479D01*
X001745Y006418D01*
X001813Y006365D01*
X001888Y006322D01*
X001968Y006289D01*
X002052Y006266D01*
X002138Y006255D01*
X002142Y006255D01*
X002142Y006876D01*
X002219Y006876D01*
X002219Y006255D01*
X002224Y006255D01*
X002310Y006266D01*
X002394Y006289D01*
X002473Y006322D01*
X002548Y006365D01*
X002673Y006474D02*
X003629Y006474D01*
X003547Y006592D02*
X002757Y006592D01*
X002809Y006711D02*
X003498Y006711D01*
X003469Y006829D02*
X002835Y006829D01*
X002824Y007067D02*
X003476Y007067D01*
X003469Y006948D02*
X002220Y006948D01*
X002142Y006948D02*
X000845Y006948D01*
X000845Y006829D02*
X001527Y006829D01*
X001552Y006711D02*
X000845Y006711D01*
X000845Y006592D02*
X001605Y006592D01*
X001689Y006474D02*
X000845Y006474D01*
X000845Y006355D02*
X001831Y006355D01*
X002142Y006355D02*
X002219Y006355D01*
X002219Y006474D02*
X002142Y006474D01*
X002142Y006592D02*
X002219Y006592D01*
X002219Y006711D02*
X002142Y006711D01*
X002142Y006829D02*
X002219Y006829D01*
X002142Y006954D02*
X001521Y006954D01*
X001521Y006958D01*
X001532Y007044D01*
X001555Y007128D01*
X001588Y007208D01*
X001631Y007283D01*
X001684Y007351D01*
X001745Y007412D01*
X001813Y007465D01*
X001888Y007508D01*
X001968Y007541D01*
X002052Y007564D01*
X002138Y007575D01*
X002142Y007575D01*
X002142Y006954D01*
X002142Y007067D02*
X002219Y007067D01*
X002219Y007185D02*
X002142Y007185D01*
X002142Y007304D02*
X002219Y007304D01*
X002219Y007422D02*
X002142Y007422D01*
X002142Y007541D02*
X002219Y007541D01*
X002395Y007541D02*
X003883Y007541D01*
X003695Y007422D02*
X002604Y007422D01*
X002715Y007304D02*
X003576Y007304D01*
X003525Y007185D02*
X002784Y007185D01*
X001967Y007541D02*
X000845Y007541D01*
X000845Y007659D02*
X005582Y007659D01*
X005700Y007541D02*
X004416Y007541D01*
X004604Y007422D02*
X005819Y007422D01*
X005937Y007304D02*
X004723Y007304D01*
X004829Y006829D02*
X013661Y006829D01*
X013985Y007185D02*
X014306Y007185D01*
X014424Y007067D02*
X014103Y007067D01*
X014222Y006948D02*
X014543Y006948D01*
X014661Y006829D02*
X014340Y006829D01*
X014301Y006869D02*
X014301Y006869D01*
X014502Y006711D02*
X014780Y006711D01*
X014758Y006592D02*
X014572Y006592D01*
X014605Y006474D02*
X014725Y006474D01*
X014725Y006355D02*
X014605Y006355D01*
X014605Y006237D02*
X014725Y006237D01*
X014725Y006118D02*
X014605Y006118D01*
X014605Y006000D02*
X014725Y006000D01*
X014725Y005881D02*
X014605Y005881D01*
X014582Y005763D02*
X014748Y005763D01*
X014804Y005644D02*
X014526Y005644D01*
X014405Y005525D02*
X014925Y005525D01*
X014925Y005407D02*
X014513Y005407D01*
X014631Y005288D02*
X014958Y005288D01*
X015071Y005170D02*
X014750Y005170D01*
X014868Y005051D02*
X015190Y005051D01*
X015308Y004933D02*
X014987Y004933D01*
X015106Y004814D02*
X015427Y004814D01*
X015545Y004696D02*
X015224Y004696D01*
X015343Y004577D02*
X015664Y004577D01*
X015782Y004459D02*
X015461Y004459D01*
X015580Y004340D02*
X015901Y004340D01*
X016019Y004221D02*
X015698Y004221D01*
X015817Y004103D02*
X016138Y004103D01*
X016257Y003984D02*
X015896Y003984D01*
X015905Y003866D02*
X016375Y003866D01*
X016665Y003915D02*
X015165Y005415D01*
X015165Y006165D01*
X015165Y006665D01*
X014165Y007665D01*
X009915Y007665D01*
X008915Y008665D01*
X008232Y008726D02*
X005405Y008726D01*
X005405Y008845D02*
X008113Y008845D01*
X007995Y008963D02*
X005405Y008963D01*
X005405Y009082D02*
X007975Y009082D01*
X007975Y009200D02*
X005405Y009200D01*
X004925Y009200D02*
X000845Y009200D01*
X000845Y009082D02*
X004925Y009082D01*
X004925Y008963D02*
X000845Y008963D01*
X000845Y008845D02*
X004925Y008845D01*
X004925Y008726D02*
X000845Y008726D01*
X000845Y008608D02*
X004925Y008608D01*
X004925Y008489D02*
X000845Y008489D01*
X000845Y008371D02*
X004925Y008371D01*
X004989Y008252D02*
X000845Y008252D01*
X000845Y008133D02*
X005108Y008133D01*
X005226Y008015D02*
X000845Y008015D01*
X000845Y007896D02*
X005345Y007896D01*
X005463Y007778D02*
X000845Y007778D01*
X000845Y007422D02*
X001758Y007422D01*
X001647Y007304D02*
X000845Y007304D01*
X000845Y007185D02*
X001578Y007185D01*
X001538Y007067D02*
X000845Y007067D01*
X000845Y009319D02*
X004925Y009319D01*
X004925Y009437D02*
X000845Y009437D01*
X000845Y009556D02*
X004925Y009556D01*
X004925Y009674D02*
X000845Y009674D01*
X000845Y009793D02*
X004925Y009793D01*
X004925Y009912D02*
X000845Y009912D01*
X000845Y010030D02*
X004925Y010030D01*
X004925Y010149D02*
X000845Y010149D01*
X000845Y010267D02*
X002569Y010267D01*
X002591Y010245D02*
X002745Y010245D01*
X002745Y010645D01*
X002345Y010645D01*
X002345Y010491D01*
X002591Y010245D01*
X002745Y010267D02*
X002785Y010267D01*
X002785Y010386D02*
X002745Y010386D01*
X002745Y010504D02*
X002785Y010504D01*
X002785Y010623D02*
X002745Y010623D01*
X002745Y010685D02*
X002345Y010685D01*
X002345Y010839D01*
X002591Y011085D01*
X002745Y011085D01*
X002745Y010685D01*
X002745Y010741D02*
X002785Y010741D01*
X002785Y010860D02*
X002745Y010860D01*
X002745Y010978D02*
X002785Y010978D01*
X003046Y010978D02*
X003256Y010978D01*
X003170Y010860D02*
X003164Y010860D01*
X003458Y011097D02*
X000845Y011097D01*
X000845Y010978D02*
X002485Y010978D01*
X002366Y010860D02*
X000845Y010860D01*
X000845Y010741D02*
X002345Y010741D01*
X002345Y010623D02*
X000845Y010623D01*
X000845Y010504D02*
X002345Y010504D01*
X002451Y010386D02*
X000845Y010386D01*
X002961Y010267D02*
X003376Y010267D01*
X003222Y010386D02*
X003080Y010386D01*
X003754Y010267D02*
X004925Y010267D01*
X005405Y010267D02*
X005425Y010267D01*
X005425Y010149D02*
X005405Y010149D01*
X005405Y010030D02*
X005408Y010030D01*
X005665Y009665D02*
X005665Y010415D01*
X006415Y011165D01*
X006080Y011453D02*
X005500Y011453D01*
X005405Y011571D02*
X006199Y011571D01*
X005975Y011334D02*
X005605Y011334D01*
X005605Y011216D02*
X005975Y011216D01*
X005975Y011097D02*
X005605Y011097D01*
X005601Y010978D02*
X005889Y010978D01*
X005771Y010860D02*
X005482Y010860D01*
X005405Y010741D02*
X005652Y010741D01*
X005533Y010623D02*
X005405Y010623D01*
X005405Y010504D02*
X005442Y010504D01*
X005425Y010386D02*
X005405Y010386D01*
X005905Y010267D02*
X007425Y010267D01*
X007425Y010149D02*
X005905Y010149D01*
X005922Y010030D02*
X006436Y010030D01*
X006491Y010085D02*
X006245Y009839D01*
X006245Y009685D01*
X006645Y009685D01*
X006645Y009645D01*
X006685Y009645D01*
X006685Y009245D01*
X006839Y009245D01*
X007085Y009491D01*
X007085Y009645D01*
X006685Y009645D01*
X006685Y009685D01*
X007085Y009685D01*
X007085Y009839D01*
X006839Y010085D01*
X006685Y010085D01*
X006685Y009685D01*
X006645Y009685D01*
X006645Y010085D01*
X006491Y010085D01*
X006645Y010030D02*
X006685Y010030D01*
X006685Y009912D02*
X006645Y009912D01*
X006645Y009793D02*
X006685Y009793D01*
X006685Y009674D02*
X007225Y009674D01*
X007225Y009556D02*
X007085Y009556D01*
X007031Y009437D02*
X007271Y009437D01*
X007225Y009483D02*
X007483Y009225D01*
X007847Y009225D01*
X008105Y009483D01*
X008105Y009847D01*
X007905Y010047D01*
X007905Y010783D01*
X008105Y010983D01*
X008105Y011347D01*
X007847Y011605D01*
X007483Y011605D01*
X007225Y011347D01*
X007225Y010983D01*
X007425Y010783D01*
X007425Y010047D01*
X007225Y009847D01*
X007225Y009483D01*
X007389Y009319D02*
X006913Y009319D01*
X006685Y009319D02*
X006645Y009319D01*
X006645Y009245D02*
X006645Y009645D01*
X006245Y009645D01*
X006245Y009491D01*
X006491Y009245D01*
X006645Y009245D01*
X006645Y009437D02*
X006685Y009437D01*
X006685Y009556D02*
X006645Y009556D01*
X006645Y009674D02*
X006105Y009674D01*
X006105Y009556D02*
X006245Y009556D01*
X006299Y009437D02*
X006060Y009437D01*
X005941Y009319D02*
X006418Y009319D01*
X006245Y009793D02*
X006105Y009793D01*
X006041Y009912D02*
X006318Y009912D01*
X005975Y010386D02*
X007425Y010386D01*
X007425Y010504D02*
X006094Y010504D01*
X006212Y010623D02*
X007425Y010623D01*
X007425Y010741D02*
X006614Y010741D01*
X006732Y010860D02*
X007348Y010860D01*
X007230Y010978D02*
X006851Y010978D01*
X006855Y011097D02*
X007225Y011097D01*
X007225Y011216D02*
X006855Y011216D01*
X006855Y011334D02*
X007225Y011334D01*
X007330Y011453D02*
X006750Y011453D01*
X006631Y011571D02*
X007449Y011571D01*
X007881Y011571D02*
X008175Y011571D01*
X008175Y011453D02*
X008000Y011453D01*
X008105Y011334D02*
X008175Y011334D01*
X008175Y011216D02*
X008105Y011216D01*
X008105Y011097D02*
X008175Y011097D01*
X008175Y010978D02*
X008101Y010978D01*
X008175Y010860D02*
X007982Y010860D01*
X007905Y010741D02*
X008175Y010741D01*
X008175Y010623D02*
X007905Y010623D01*
X007905Y010504D02*
X008132Y010504D01*
X008014Y010386D02*
X007905Y010386D01*
X007905Y010267D02*
X007975Y010267D01*
X007975Y010149D02*
X007905Y010149D01*
X007922Y010030D02*
X007975Y010030D01*
X008041Y009912D02*
X008047Y009912D01*
X008105Y009793D02*
X008165Y009793D01*
X008105Y009674D02*
X008675Y009674D01*
X008675Y009556D02*
X008647Y009556D01*
X008665Y009793D02*
X008675Y009793D01*
X008184Y009556D02*
X008105Y009556D01*
X008065Y009437D02*
X008060Y009437D01*
X007975Y009319D02*
X007941Y009319D01*
X007665Y009665D02*
X007665Y011165D01*
X008175Y011690D02*
X005405Y011690D01*
X005405Y011808D02*
X008175Y011808D01*
X008175Y011927D02*
X005405Y011927D01*
X005405Y012045D02*
X008175Y012045D01*
X008175Y012164D02*
X005503Y012164D01*
X005622Y012282D02*
X008175Y012282D01*
X008175Y012401D02*
X005740Y012401D01*
X007359Y012520D02*
X008175Y012520D01*
X008175Y012638D02*
X007477Y012638D01*
X007596Y012757D02*
X008175Y012757D01*
X008175Y012875D02*
X007715Y012875D01*
X007833Y012994D02*
X008175Y012994D01*
X008175Y013112D02*
X007903Y013112D01*
X007905Y013231D02*
X008175Y013231D01*
X008175Y013349D02*
X007905Y013349D01*
X007905Y013468D02*
X008175Y013468D01*
X008175Y013586D02*
X007905Y013586D01*
X007905Y013705D02*
X008175Y013705D01*
X008175Y013824D02*
X007946Y013824D01*
X008064Y013942D02*
X008175Y013942D01*
X008175Y014061D02*
X008105Y014061D01*
X008105Y014179D02*
X008175Y014179D01*
X008175Y014298D02*
X008105Y014298D01*
X008075Y014416D02*
X008036Y014416D01*
X008415Y014415D02*
X007915Y014915D01*
X007165Y014915D01*
X006415Y014165D01*
X005975Y014179D02*
X005605Y014179D01*
X005605Y014061D02*
X005975Y014061D01*
X006016Y013942D02*
X005564Y013942D01*
X005446Y013824D02*
X006135Y013824D01*
X005975Y014298D02*
X005605Y014298D01*
X005536Y014416D02*
X006044Y014416D01*
X005165Y014165D02*
X005165Y014768D01*
X006953Y016555D01*
X007635Y016550D02*
X007675Y016550D01*
X007675Y016431D02*
X007635Y016431D01*
X007675Y016313D02*
X007590Y016313D01*
X007541Y016194D02*
X007675Y016194D01*
X007675Y016076D02*
X007438Y016076D01*
X007292Y015957D02*
X007675Y015957D01*
X007675Y015839D02*
X006576Y015839D01*
X006457Y015720D02*
X007675Y015720D01*
X007675Y015602D02*
X006339Y015602D01*
X006220Y015483D02*
X007675Y015483D01*
X007675Y015365D02*
X006102Y015365D01*
X005983Y015246D02*
X007675Y015246D01*
X007915Y014915D02*
X007915Y017758D01*
X006953Y018720D01*
X007577Y018447D02*
X010328Y018447D01*
X010374Y018334D02*
X010566Y018142D01*
X010817Y018038D01*
X011088Y018038D01*
X011235Y018099D01*
X011675Y017658D01*
X011675Y015155D01*
X010963Y015155D01*
X010867Y015155D01*
X010779Y015119D01*
X010566Y014905D01*
X009642Y014905D01*
X010671Y015934D01*
X010817Y015873D01*
X011088Y015873D01*
X011339Y015977D01*
X011531Y016169D01*
X011635Y016419D01*
X011635Y016691D01*
X011531Y016941D01*
X011339Y017133D01*
X011088Y017237D01*
X010817Y017237D01*
X010566Y017133D01*
X010374Y016941D01*
X010271Y016691D01*
X010271Y016419D01*
X010331Y016273D01*
X008963Y014905D01*
X008265Y014905D01*
X008155Y015015D01*
X008155Y017710D01*
X008155Y017805D01*
X008119Y017894D01*
X007574Y018438D01*
X007635Y018585D01*
X007635Y018856D01*
X007531Y019107D01*
X007339Y019298D01*
X007088Y019402D01*
X006817Y019402D01*
X006764Y019380D01*
X006793Y019452D01*
X006816Y019536D01*
X006825Y019605D01*
X006225Y019605D01*
X006225Y019725D01*
X006825Y019725D01*
X006816Y019795D01*
X006793Y019878D01*
X006760Y019959D01*
X006717Y020034D01*
X006664Y020103D01*
X006603Y020164D01*
X006594Y020170D01*
X009736Y020170D01*
X009728Y020164D01*
X009666Y020103D01*
X009614Y020034D01*
X009570Y019959D01*
X009537Y019878D01*
X009515Y019795D01*
X009505Y019725D01*
X010105Y019725D01*
X010105Y019605D01*
X010225Y019605D01*
X010225Y019005D01*
X010295Y019015D01*
X010342Y019027D01*
X010271Y018856D01*
X010271Y018585D01*
X010374Y018334D01*
X010380Y018328D02*
X007684Y018328D01*
X007803Y018210D02*
X010499Y018210D01*
X010690Y018091D02*
X007921Y018091D01*
X008040Y017973D02*
X011361Y017973D01*
X011242Y018091D02*
X011215Y018091D01*
X011479Y017854D02*
X008135Y017854D01*
X008155Y017735D02*
X011598Y017735D01*
X011675Y017617D02*
X008155Y017617D01*
X008155Y017498D02*
X011675Y017498D01*
X011675Y017380D02*
X008155Y017380D01*
X008155Y017261D02*
X011675Y017261D01*
X011675Y017143D02*
X011316Y017143D01*
X011448Y017024D02*
X011675Y017024D01*
X011675Y016906D02*
X011545Y016906D01*
X011595Y016787D02*
X011675Y016787D01*
X011675Y016669D02*
X011635Y016669D01*
X011635Y016550D02*
X011675Y016550D01*
X011675Y016431D02*
X011635Y016431D01*
X011675Y016313D02*
X011590Y016313D01*
X011541Y016194D02*
X011675Y016194D01*
X011675Y016076D02*
X011438Y016076D01*
X011292Y015957D02*
X011675Y015957D01*
X011675Y015839D02*
X010576Y015839D01*
X010457Y015720D02*
X011675Y015720D01*
X011675Y015602D02*
X010339Y015602D01*
X010220Y015483D02*
X011675Y015483D01*
X011675Y015365D02*
X010102Y015365D01*
X009983Y015246D02*
X011675Y015246D01*
X011915Y014915D02*
X010915Y014915D01*
X010165Y014165D01*
X008915Y014165D02*
X008915Y014518D01*
X010953Y016555D01*
X010271Y016550D02*
X008155Y016550D01*
X008155Y016431D02*
X010271Y016431D01*
X010315Y016313D02*
X008155Y016313D01*
X008155Y016194D02*
X010253Y016194D01*
X010134Y016076D02*
X008155Y016076D01*
X008155Y015957D02*
X010016Y015957D01*
X009897Y015839D02*
X008155Y015839D01*
X008155Y015720D02*
X009778Y015720D01*
X009660Y015602D02*
X008155Y015602D01*
X008155Y015483D02*
X009541Y015483D01*
X009423Y015365D02*
X008155Y015365D01*
X008155Y015246D02*
X009304Y015246D01*
X009186Y015127D02*
X008155Y015127D01*
X008161Y015009D02*
X009067Y015009D01*
X009746Y015009D02*
X010670Y015009D01*
X010801Y015127D02*
X009864Y015127D01*
X008415Y014415D02*
X008415Y010165D01*
X007408Y010030D02*
X006894Y010030D01*
X007013Y009912D02*
X007289Y009912D01*
X007225Y009793D02*
X007085Y009793D01*
X009665Y009665D02*
X009665Y010665D01*
X010165Y011165D01*
X010500Y011453D02*
X011080Y011453D01*
X010975Y011347D02*
X010975Y010983D01*
X011233Y010725D01*
X011425Y010725D01*
X011425Y010047D01*
X011225Y009847D01*
X011225Y009483D01*
X011483Y009225D01*
X011847Y009225D01*
X012105Y009483D01*
X012105Y009847D01*
X011905Y010047D01*
X011905Y010867D01*
X011905Y010963D01*
X011869Y011051D01*
X011855Y011065D01*
X011855Y011347D01*
X011597Y011605D01*
X011233Y011605D01*
X010975Y011347D01*
X010975Y011334D02*
X010605Y011334D01*
X010605Y011216D02*
X010975Y011216D01*
X010975Y011097D02*
X010605Y011097D01*
X010601Y010978D02*
X010980Y010978D01*
X011098Y010860D02*
X010482Y010860D01*
X010364Y010741D02*
X011217Y010741D01*
X011425Y010623D02*
X009962Y010623D01*
X009905Y010504D02*
X011425Y010504D01*
X011425Y010386D02*
X009905Y010386D01*
X009905Y010267D02*
X011425Y010267D01*
X011425Y010149D02*
X009905Y010149D01*
X009922Y010030D02*
X010436Y010030D01*
X010491Y010085D02*
X010245Y009839D01*
X010245Y009685D01*
X010645Y009685D01*
X010645Y009645D01*
X010685Y009645D01*
X010685Y009245D01*
X010839Y009245D01*
X011085Y009491D01*
X011085Y009645D01*
X010685Y009645D01*
X010685Y009685D01*
X011085Y009685D01*
X011085Y009839D01*
X010839Y010085D01*
X010685Y010085D01*
X010685Y009685D01*
X010645Y009685D01*
X010645Y010085D01*
X010491Y010085D01*
X010645Y010030D02*
X010685Y010030D01*
X010685Y009912D02*
X010645Y009912D01*
X010645Y009793D02*
X010685Y009793D01*
X010685Y009674D02*
X011225Y009674D01*
X011225Y009556D02*
X011085Y009556D01*
X011031Y009437D02*
X011271Y009437D01*
X011389Y009319D02*
X010913Y009319D01*
X010685Y009319D02*
X010645Y009319D01*
X010645Y009245D02*
X010645Y009645D01*
X010245Y009645D01*
X010245Y009491D01*
X010491Y009245D01*
X010645Y009245D01*
X010645Y009437D02*
X010685Y009437D01*
X010685Y009556D02*
X010645Y009556D01*
X010645Y009674D02*
X010105Y009674D01*
X010105Y009556D02*
X010245Y009556D01*
X010299Y009437D02*
X010060Y009437D01*
X009941Y009319D02*
X010418Y009319D01*
X010245Y009793D02*
X010105Y009793D01*
X010041Y009912D02*
X010318Y009912D01*
X010894Y010030D02*
X011408Y010030D01*
X011289Y009912D02*
X011013Y009912D01*
X011085Y009793D02*
X011225Y009793D01*
X011665Y009665D02*
X011665Y010915D01*
X011415Y011165D01*
X011750Y011453D02*
X012175Y011453D01*
X012175Y011571D02*
X011631Y011571D01*
X011855Y011334D02*
X012175Y011334D01*
X012175Y011216D02*
X011855Y011216D01*
X011855Y011097D02*
X012175Y011097D01*
X012175Y010978D02*
X011899Y010978D01*
X011905Y010860D02*
X012175Y010860D01*
X012175Y010741D02*
X011905Y010741D01*
X011905Y010623D02*
X012175Y010623D01*
X012132Y010504D02*
X011905Y010504D01*
X011905Y010386D02*
X012014Y010386D01*
X011975Y010267D02*
X011905Y010267D01*
X011905Y010149D02*
X011975Y010149D01*
X011975Y010030D02*
X011922Y010030D01*
X012041Y009912D02*
X012047Y009912D01*
X012105Y009793D02*
X012165Y009793D01*
X012105Y009674D02*
X012675Y009674D01*
X012675Y009556D02*
X012647Y009556D01*
X012665Y009793D02*
X012675Y009793D01*
X012184Y009556D02*
X012105Y009556D01*
X012065Y009437D02*
X012060Y009437D01*
X011975Y009319D02*
X011941Y009319D01*
X012415Y010165D02*
X012415Y014415D01*
X011915Y014915D01*
X011915Y017758D01*
X010953Y018720D01*
X011577Y018447D02*
X014328Y018447D01*
X014374Y018334D02*
X014566Y018142D01*
X014817Y018038D01*
X015088Y018038D01*
X015235Y018099D01*
X015675Y017658D01*
X015675Y015155D01*
X014867Y015155D01*
X014779Y015119D01*
X014712Y015051D01*
X014566Y014905D01*
X013642Y014905D01*
X014671Y015934D01*
X014817Y015873D01*
X015088Y015873D01*
X015339Y015977D01*
X015531Y016169D01*
X015635Y016419D01*
X015635Y016691D01*
X015531Y016941D01*
X015339Y017133D01*
X015088Y017237D01*
X014817Y017237D01*
X014566Y017133D01*
X014374Y016941D01*
X014271Y016691D01*
X014271Y016419D01*
X014331Y016273D01*
X012963Y014905D01*
X012265Y014905D01*
X012155Y015015D01*
X012155Y017710D01*
X012155Y017805D01*
X012119Y017894D01*
X011574Y018438D01*
X011635Y018585D01*
X011635Y018856D01*
X011531Y019107D01*
X011339Y019298D01*
X011088Y019402D01*
X010817Y019402D01*
X010764Y019380D01*
X010793Y019452D01*
X010816Y019536D01*
X010825Y019605D01*
X010225Y019605D01*
X010225Y019725D01*
X010825Y019725D01*
X010816Y019795D01*
X010793Y019878D01*
X010760Y019959D01*
X010717Y020034D01*
X010664Y020103D01*
X010603Y020164D01*
X010594Y020170D01*
X013736Y020170D01*
X013728Y020164D01*
X013666Y020103D01*
X013614Y020034D01*
X013570Y019959D01*
X013537Y019878D01*
X013515Y019795D01*
X013505Y019725D01*
X014105Y019725D01*
X014105Y019605D01*
X014225Y019605D01*
X014225Y019005D01*
X014295Y019015D01*
X014342Y019027D01*
X014271Y018856D01*
X014271Y018585D01*
X014374Y018334D01*
X014380Y018328D02*
X011684Y018328D01*
X011803Y018210D02*
X014499Y018210D01*
X014690Y018091D02*
X011921Y018091D01*
X012040Y017973D02*
X015361Y017973D01*
X015242Y018091D02*
X015215Y018091D01*
X015479Y017854D02*
X012135Y017854D01*
X012155Y017735D02*
X015598Y017735D01*
X015675Y017617D02*
X012155Y017617D01*
X012155Y017498D02*
X015675Y017498D01*
X015675Y017380D02*
X012155Y017380D01*
X012155Y017261D02*
X015675Y017261D01*
X015675Y017143D02*
X015316Y017143D01*
X015448Y017024D02*
X015675Y017024D01*
X015675Y016906D02*
X015545Y016906D01*
X015595Y016787D02*
X015675Y016787D01*
X015675Y016669D02*
X015635Y016669D01*
X015635Y016550D02*
X015675Y016550D01*
X015675Y016431D02*
X015635Y016431D01*
X015675Y016313D02*
X015590Y016313D01*
X015541Y016194D02*
X015675Y016194D01*
X015675Y016076D02*
X015438Y016076D01*
X015292Y015957D02*
X015675Y015957D01*
X015675Y015839D02*
X014576Y015839D01*
X014457Y015720D02*
X015675Y015720D01*
X015675Y015602D02*
X014339Y015602D01*
X014220Y015483D02*
X015675Y015483D01*
X015675Y015365D02*
X014102Y015365D01*
X013983Y015246D02*
X015675Y015246D01*
X015915Y014915D02*
X014915Y014915D01*
X014165Y014165D01*
X012915Y014165D02*
X012915Y014518D01*
X014953Y016555D01*
X014271Y016550D02*
X012155Y016550D01*
X012155Y016431D02*
X014271Y016431D01*
X014315Y016313D02*
X012155Y016313D01*
X012155Y016194D02*
X014253Y016194D01*
X014134Y016076D02*
X012155Y016076D01*
X012155Y015957D02*
X014016Y015957D01*
X013897Y015839D02*
X012155Y015839D01*
X012155Y015720D02*
X013778Y015720D01*
X013660Y015602D02*
X012155Y015602D01*
X012155Y015483D02*
X013541Y015483D01*
X013423Y015365D02*
X012155Y015365D01*
X012155Y015246D02*
X013304Y015246D01*
X013186Y015127D02*
X012155Y015127D01*
X012161Y015009D02*
X013067Y015009D01*
X013746Y015009D02*
X014670Y015009D01*
X014801Y015127D02*
X013864Y015127D01*
X012175Y014298D02*
X011855Y014298D01*
X011786Y014416D02*
X012075Y014416D01*
X015786Y014416D02*
X016075Y014416D01*
X016175Y014298D02*
X015855Y014298D01*
X016415Y014415D02*
X015915Y014915D01*
X015915Y017758D01*
X014953Y018720D01*
X015577Y018447D02*
X018328Y018447D01*
X018374Y018334D02*
X018566Y018142D01*
X018817Y018038D01*
X019088Y018038D01*
X019235Y018099D01*
X019675Y017658D01*
X019675Y015155D01*
X018963Y015155D01*
X018867Y015155D01*
X018779Y015119D01*
X018566Y014905D01*
X017642Y014905D01*
X018671Y015934D01*
X018817Y015873D01*
X019088Y015873D01*
X019339Y015977D01*
X019531Y016169D01*
X019635Y016419D01*
X019635Y016691D01*
X019531Y016941D01*
X019339Y017133D01*
X019088Y017237D01*
X018817Y017237D01*
X018566Y017133D01*
X018374Y016941D01*
X018271Y016691D01*
X018271Y016419D01*
X018331Y016273D01*
X016963Y014905D01*
X016265Y014905D01*
X016155Y015015D01*
X016155Y017710D01*
X016155Y017805D01*
X016119Y017894D01*
X015574Y018438D01*
X015635Y018585D01*
X015635Y018856D01*
X015531Y019107D01*
X015339Y019298D01*
X015088Y019402D01*
X014817Y019402D01*
X014764Y019380D01*
X014793Y019452D01*
X014816Y019536D01*
X014825Y019605D01*
X014225Y019605D01*
X014225Y019725D01*
X014825Y019725D01*
X014816Y019795D01*
X014793Y019878D01*
X014760Y019959D01*
X014717Y020034D01*
X014664Y020103D01*
X014603Y020164D01*
X014594Y020170D01*
X017736Y020170D01*
X017728Y020164D01*
X017666Y020103D01*
X017614Y020034D01*
X017570Y019959D01*
X017537Y019878D01*
X017515Y019795D01*
X017505Y019725D01*
X018105Y019725D01*
X018105Y019605D01*
X018225Y019605D01*
X018225Y019005D01*
X018295Y019015D01*
X018342Y019027D01*
X018271Y018856D01*
X018271Y018585D01*
X018374Y018334D01*
X018380Y018328D02*
X015684Y018328D01*
X015803Y018210D02*
X018499Y018210D01*
X018690Y018091D02*
X015921Y018091D01*
X016040Y017973D02*
X019361Y017973D01*
X019242Y018091D02*
X019215Y018091D01*
X019480Y017854D02*
X016135Y017854D01*
X016155Y017735D02*
X019598Y017735D01*
X019675Y017617D02*
X016155Y017617D01*
X016155Y017498D02*
X019675Y017498D01*
X019675Y017380D02*
X016155Y017380D01*
X016155Y017261D02*
X019675Y017261D01*
X019675Y017143D02*
X019316Y017143D01*
X019448Y017024D02*
X019675Y017024D01*
X019675Y016906D02*
X019545Y016906D01*
X019595Y016787D02*
X019675Y016787D01*
X019675Y016669D02*
X019635Y016669D01*
X019635Y016550D02*
X019675Y016550D01*
X019675Y016431D02*
X019635Y016431D01*
X019675Y016313D02*
X019590Y016313D01*
X019541Y016194D02*
X019675Y016194D01*
X019675Y016076D02*
X019438Y016076D01*
X019292Y015957D02*
X019675Y015957D01*
X019675Y015839D02*
X018576Y015839D01*
X018457Y015720D02*
X019675Y015720D01*
X019675Y015602D02*
X018339Y015602D01*
X018220Y015483D02*
X019675Y015483D01*
X019675Y015365D02*
X018102Y015365D01*
X017983Y015246D02*
X019675Y015246D01*
X019915Y014915D02*
X019915Y017758D01*
X018953Y018720D01*
X018271Y018684D02*
X015635Y018684D01*
X015635Y018802D02*
X018271Y018802D01*
X018298Y018921D02*
X015608Y018921D01*
X015559Y019039D02*
X017946Y019039D01*
X017952Y019037D02*
X018036Y019015D01*
X018105Y019005D01*
X018105Y019605D01*
X017505Y019605D01*
X017515Y019536D01*
X017537Y019452D01*
X017570Y019372D01*
X017614Y019297D01*
X017666Y019228D01*
X017728Y019166D01*
X017797Y019114D01*
X017872Y019070D01*
X017952Y019037D01*
X018105Y019039D02*
X018225Y019039D01*
X018225Y019158D02*
X018105Y019158D01*
X018105Y019276D02*
X018225Y019276D01*
X018225Y019395D02*
X018105Y019395D01*
X018105Y019514D02*
X018225Y019514D01*
X018225Y019605D02*
X018225Y019725D01*
X018825Y019725D01*
X018816Y019795D01*
X018793Y019878D01*
X018760Y019959D01*
X018717Y020034D01*
X018664Y020103D01*
X018603Y020164D01*
X018594Y020170D01*
X021736Y020170D01*
X021728Y020164D01*
X021666Y020103D01*
X021614Y020034D01*
X021570Y019959D01*
X021537Y019878D01*
X021515Y019795D01*
X021505Y019725D01*
X022105Y019725D01*
X022105Y019605D01*
X022225Y019605D01*
X022225Y019005D01*
X022295Y019015D01*
X022342Y019027D01*
X022271Y018856D01*
X022271Y018585D01*
X022374Y018334D01*
X022566Y018142D01*
X022817Y018038D01*
X023088Y018038D01*
X023235Y018099D01*
X023675Y017658D01*
X023675Y015155D01*
X022963Y015155D01*
X022867Y015155D01*
X022779Y015119D01*
X022566Y014905D01*
X021642Y014905D01*
X022671Y015934D01*
X022817Y015873D01*
X023088Y015873D01*
X023339Y015977D01*
X023531Y016169D01*
X023635Y016419D01*
X023635Y016691D01*
X023531Y016941D01*
X023339Y017133D01*
X023088Y017237D01*
X022817Y017237D01*
X022566Y017133D01*
X022374Y016941D01*
X022271Y016691D01*
X022271Y016419D01*
X022331Y016273D01*
X020963Y014905D01*
X020265Y014905D01*
X020155Y015015D01*
X020155Y017805D01*
X020119Y017894D01*
X020051Y017961D01*
X019574Y018438D01*
X019635Y018585D01*
X019635Y018856D01*
X019531Y019107D01*
X019339Y019298D01*
X019088Y019402D01*
X018817Y019402D01*
X018764Y019380D01*
X018793Y019452D01*
X018816Y019536D01*
X018825Y019605D01*
X018225Y019605D01*
X018225Y019632D02*
X022105Y019632D01*
X022105Y019605D02*
X021505Y019605D01*
X021515Y019536D01*
X021537Y019452D01*
X021570Y019372D01*
X021614Y019297D01*
X021666Y019228D01*
X021728Y019166D01*
X021797Y019114D01*
X021872Y019070D01*
X021952Y019037D01*
X022036Y019015D01*
X022105Y019005D01*
X022105Y019605D01*
X022105Y019514D02*
X022225Y019514D01*
X022225Y019605D02*
X022225Y019725D01*
X022825Y019725D01*
X022816Y019795D01*
X022793Y019878D01*
X022760Y019959D01*
X022717Y020034D01*
X022664Y020103D01*
X022603Y020164D01*
X022594Y020170D01*
X025736Y020170D01*
X025728Y020164D01*
X025666Y020103D01*
X025614Y020034D01*
X025570Y019959D01*
X025537Y019878D01*
X025515Y019795D01*
X025505Y019725D01*
X026105Y019725D01*
X026105Y019605D01*
X026225Y019605D01*
X026225Y019005D01*
X026295Y019015D01*
X026342Y019027D01*
X026271Y018856D01*
X026271Y018585D01*
X026374Y018334D01*
X026566Y018142D01*
X026817Y018038D01*
X027088Y018038D01*
X027235Y018099D01*
X027675Y017658D01*
X027675Y015155D01*
X026867Y015155D01*
X026779Y015119D01*
X026712Y015051D01*
X026566Y014905D01*
X025642Y014905D01*
X026671Y015934D01*
X026817Y015873D01*
X027088Y015873D01*
X027339Y015977D01*
X027531Y016169D01*
X027635Y016419D01*
X027635Y016691D01*
X027531Y016941D01*
X027339Y017133D01*
X027088Y017237D01*
X026817Y017237D01*
X026566Y017133D01*
X026374Y016941D01*
X026271Y016691D01*
X026271Y016419D01*
X026331Y016273D01*
X024963Y014905D01*
X024265Y014905D01*
X024155Y015015D01*
X024155Y017710D01*
X024155Y017805D01*
X024119Y017894D01*
X023574Y018438D01*
X023635Y018585D01*
X023635Y018856D01*
X023531Y019107D01*
X023339Y019298D01*
X023088Y019402D01*
X022817Y019402D01*
X022764Y019380D01*
X022793Y019452D01*
X022816Y019536D01*
X022825Y019605D01*
X022225Y019605D01*
X022225Y019632D02*
X026105Y019632D01*
X026105Y019605D02*
X025505Y019605D01*
X025515Y019536D01*
X025537Y019452D01*
X025570Y019372D01*
X025614Y019297D01*
X025666Y019228D01*
X025728Y019166D01*
X025797Y019114D01*
X025872Y019070D01*
X025952Y019037D01*
X026036Y019015D01*
X026105Y019005D01*
X026105Y019605D01*
X026105Y019514D02*
X026225Y019514D01*
X026225Y019605D02*
X026225Y019725D01*
X026825Y019725D01*
X026816Y019795D01*
X026793Y019878D01*
X026760Y019959D01*
X026717Y020034D01*
X026664Y020103D01*
X026603Y020164D01*
X026594Y020170D01*
X029736Y020170D01*
X029728Y020164D01*
X029666Y020103D01*
X029614Y020034D01*
X029570Y019959D01*
X029537Y019878D01*
X029515Y019795D01*
X029505Y019725D01*
X030105Y019725D01*
X030105Y019605D01*
X030225Y019605D01*
X030225Y019005D01*
X030295Y019015D01*
X030342Y019027D01*
X030271Y018856D01*
X030271Y018585D01*
X030374Y018334D01*
X030566Y018142D01*
X030817Y018038D01*
X031088Y018038D01*
X031235Y018099D01*
X031675Y017658D01*
X031675Y015155D01*
X030963Y015155D01*
X030867Y015155D01*
X030779Y015119D01*
X030566Y014905D01*
X029642Y014905D01*
X030671Y015934D01*
X030817Y015873D01*
X031088Y015873D01*
X031339Y015977D01*
X031531Y016169D01*
X031635Y016419D01*
X031635Y016691D01*
X031531Y016941D01*
X031339Y017133D01*
X031088Y017237D01*
X030817Y017237D01*
X030566Y017133D01*
X030374Y016941D01*
X030271Y016691D01*
X030271Y016419D01*
X030331Y016273D01*
X028963Y014905D01*
X028265Y014905D01*
X028155Y015015D01*
X028155Y017710D01*
X028155Y017805D01*
X028119Y017894D01*
X027574Y018438D01*
X027635Y018585D01*
X027635Y018856D01*
X027531Y019107D01*
X027339Y019298D01*
X027088Y019402D01*
X026817Y019402D01*
X026764Y019380D01*
X026793Y019452D01*
X026816Y019536D01*
X026825Y019605D01*
X026225Y019605D01*
X026225Y019632D02*
X030105Y019632D01*
X030105Y019605D02*
X029505Y019605D01*
X029515Y019536D01*
X029537Y019452D01*
X029570Y019372D01*
X029614Y019297D01*
X029666Y019228D01*
X029728Y019166D01*
X029797Y019114D01*
X029872Y019070D01*
X029952Y019037D01*
X030036Y019015D01*
X030105Y019005D01*
X030105Y019605D01*
X030105Y019514D02*
X030225Y019514D01*
X030225Y019605D02*
X030225Y019725D01*
X030825Y019725D01*
X030816Y019795D01*
X030793Y019878D01*
X030760Y019959D01*
X030717Y020034D01*
X030664Y020103D01*
X030603Y020164D01*
X030594Y020170D01*
X033736Y020170D01*
X033728Y020164D01*
X033666Y020103D01*
X033614Y020034D01*
X033570Y019959D01*
X033537Y019878D01*
X033515Y019795D01*
X033505Y019725D01*
X034105Y019725D01*
X034105Y019605D01*
X034225Y019605D01*
X034225Y019005D01*
X034295Y019015D01*
X034342Y019027D01*
X034271Y018856D01*
X034271Y018585D01*
X034374Y018334D01*
X034566Y018142D01*
X034817Y018038D01*
X035088Y018038D01*
X035235Y018099D01*
X035675Y017658D01*
X035675Y015155D01*
X034867Y015155D01*
X034779Y015119D01*
X034712Y015051D01*
X034566Y014905D01*
X033642Y014905D01*
X034671Y015934D01*
X034817Y015873D01*
X035088Y015873D01*
X035339Y015977D01*
X035531Y016169D01*
X035635Y016419D01*
X035635Y016691D01*
X035531Y016941D01*
X035339Y017133D01*
X035088Y017237D01*
X034817Y017237D01*
X034566Y017133D01*
X034374Y016941D01*
X034271Y016691D01*
X034271Y016419D01*
X034331Y016273D01*
X032963Y014905D01*
X032265Y014905D01*
X032155Y015015D01*
X032155Y017805D01*
X032119Y017894D01*
X032051Y017961D01*
X031574Y018438D01*
X031635Y018585D01*
X031635Y018856D01*
X031531Y019107D01*
X031339Y019298D01*
X031088Y019402D01*
X030817Y019402D01*
X030764Y019380D01*
X030793Y019452D01*
X030816Y019536D01*
X030825Y019605D01*
X030225Y019605D01*
X030225Y019632D02*
X034105Y019632D01*
X034105Y019605D02*
X033505Y019605D01*
X033515Y019536D01*
X033537Y019452D01*
X033570Y019372D01*
X033614Y019297D01*
X033666Y019228D01*
X033728Y019166D01*
X033797Y019114D01*
X033872Y019070D01*
X033952Y019037D01*
X034036Y019015D01*
X034105Y019005D01*
X034105Y019605D01*
X034105Y019514D02*
X034225Y019514D01*
X034225Y019605D02*
X034225Y019725D01*
X034825Y019725D01*
X034816Y019795D01*
X034793Y019878D01*
X034760Y019959D01*
X034717Y020034D01*
X034664Y020103D01*
X034603Y020164D01*
X034594Y020170D01*
X037738Y020170D01*
X037670Y020144D01*
X037302Y019850D01*
X037037Y019461D01*
X036898Y019011D01*
X036898Y019011D01*
X036898Y018540D01*
X037037Y018090D01*
X037037Y018090D01*
X037302Y017701D01*
X037302Y017701D01*
X037302Y017701D01*
X037670Y017407D01*
X037670Y017407D01*
X038109Y017235D01*
X038579Y017200D01*
X039038Y017305D01*
X039446Y017540D01*
X039766Y017885D01*
X039766Y017885D01*
X039855Y018071D01*
X039855Y002944D01*
X039766Y003130D01*
X039446Y003475D01*
X039038Y003711D01*
X039038Y003711D01*
X038579Y003816D01*
X038579Y003816D01*
X038109Y003780D01*
X037670Y003608D01*
X037302Y003315D01*
X037302Y003315D01*
X037302Y003315D01*
X037037Y002926D01*
X037037Y002925D01*
X036898Y002475D01*
X036898Y002005D01*
X036898Y002004D01*
X037037Y001554D01*
X037302Y001165D01*
X037670Y000872D01*
X037670Y000872D01*
X037738Y000845D01*
X027435Y000845D01*
X027801Y001212D01*
X027869Y001279D01*
X027905Y001367D01*
X027905Y001471D01*
X028064Y001405D01*
X028267Y001405D01*
X028454Y001483D01*
X028598Y001626D01*
X028675Y001814D01*
X028675Y002017D01*
X028598Y002204D01*
X028454Y002348D01*
X028267Y002425D01*
X028064Y002425D01*
X027905Y002359D01*
X027905Y004617D01*
X027905Y004713D01*
X027869Y004801D01*
X027405Y005265D01*
X027405Y005528D01*
X027414Y005532D01*
X027538Y005656D01*
X027605Y005818D01*
X027605Y005925D01*
X028675Y005925D01*
X028675Y005547D01*
X028475Y005347D01*
X028475Y004983D01*
X028733Y004725D01*
X029097Y004725D01*
X029355Y004983D01*
X029355Y005347D01*
X029155Y005547D01*
X029155Y005925D01*
X029783Y005925D01*
X029983Y005725D01*
X030347Y005725D01*
X030605Y005983D01*
X030605Y006347D01*
X030347Y006605D01*
X029983Y006605D01*
X029783Y006405D01*
X028963Y006405D01*
X028867Y006405D01*
X027605Y006405D01*
X027605Y006513D01*
X027538Y006674D01*
X027414Y006798D01*
X027253Y006865D01*
X027205Y006865D01*
X027265Y006925D01*
X037148Y006925D01*
X037212Y006861D01*
X037344Y006807D01*
X037486Y006807D01*
X037618Y006861D01*
X037719Y006962D01*
X037774Y007094D01*
X037774Y007236D01*
X037724Y007357D01*
X037844Y007307D01*
X037986Y007307D01*
X038118Y007361D01*
X038219Y007462D01*
X038274Y007594D01*
X038274Y007736D01*
X038219Y007868D01*
X038118Y007969D01*
X037986Y008024D01*
X037863Y008024D01*
X038396Y008557D01*
X038486Y008557D01*
X038618Y008611D01*
X038719Y008712D01*
X038771Y008838D01*
X038876Y008733D01*
X039064Y008655D01*
X039267Y008655D01*
X039454Y008733D01*
X039598Y008876D01*
X039675Y009064D01*
X039675Y009267D01*
X039598Y009454D01*
X039454Y009598D01*
X039291Y009665D01*
X039454Y009733D01*
X039598Y009876D01*
X039675Y010064D01*
X039675Y010267D01*
X039855Y010267D01*
X039855Y010149D02*
X039675Y010149D01*
X039675Y010267D02*
X039598Y010454D01*
X039454Y010598D01*
X039291Y010665D01*
X039454Y010733D01*
X039598Y010876D01*
X039675Y011064D01*
X039675Y011267D01*
X039598Y011454D01*
X039454Y011598D01*
X039291Y011665D01*
X039454Y011733D01*
X039598Y011876D01*
X039675Y012064D01*
X039675Y012267D01*
X039598Y012454D01*
X039454Y012598D01*
X039267Y012675D01*
X039064Y012675D01*
X038876Y012598D01*
X038733Y012454D01*
X038655Y012267D01*
X038655Y012064D01*
X038733Y011876D01*
X038876Y011733D01*
X039040Y011665D01*
X038876Y011598D01*
X038733Y011454D01*
X038655Y011267D01*
X038655Y011064D01*
X038733Y010876D01*
X038876Y010733D01*
X039040Y010665D01*
X038876Y010598D01*
X038733Y010454D01*
X038655Y010267D01*
X038655Y010064D01*
X038733Y009876D01*
X038876Y009733D01*
X039040Y009665D01*
X038876Y009598D01*
X038733Y009454D01*
X038655Y009267D01*
X038655Y009182D01*
X038618Y009219D01*
X038486Y009274D01*
X038344Y009274D01*
X038212Y009219D01*
X038111Y009118D01*
X038057Y008986D01*
X038057Y008896D01*
X037566Y008405D01*
X033117Y008405D01*
X033029Y008369D01*
X032962Y008301D01*
X032566Y007905D01*
X032495Y007905D01*
X033119Y008529D01*
X033155Y008617D01*
X033155Y008713D01*
X033155Y010783D01*
X033355Y010983D01*
X033355Y011347D01*
X033155Y011547D01*
X033155Y012066D01*
X033515Y012425D01*
X034963Y012425D01*
X035051Y012462D01*
X035119Y012529D01*
X035619Y013029D01*
X035655Y013117D01*
X035655Y013213D01*
X035655Y013783D01*
X035675Y013803D01*
X035675Y012367D01*
X035712Y012279D01*
X035779Y012212D01*
X036175Y011816D01*
X036175Y010547D01*
X035975Y010347D01*
X035975Y009983D01*
X036233Y009725D01*
X036597Y009725D01*
X036855Y009983D01*
X036855Y010347D01*
X036655Y010547D01*
X036655Y011867D01*
X036655Y011963D01*
X036619Y012051D01*
X036565Y012105D01*
X036777Y012105D01*
X036834Y012129D01*
X036905Y012057D01*
X036905Y010023D01*
X036488Y009605D01*
X036233Y009605D01*
X035975Y009347D01*
X035975Y008983D01*
X036233Y008725D01*
X036597Y008725D01*
X036855Y008983D01*
X036855Y009238D01*
X037386Y009768D01*
X037425Y009863D01*
X037425Y009967D01*
X037425Y012217D01*
X037386Y012312D01*
X037312Y012386D01*
X037201Y012497D01*
X037225Y012554D01*
X037225Y012777D01*
X037140Y012982D01*
X036982Y013140D01*
X036777Y013225D01*
X036554Y013225D01*
X036348Y013140D01*
X036190Y012982D01*
X036155Y012897D01*
X036155Y014867D01*
X036155Y014963D01*
X036155Y016433D01*
X036190Y016348D01*
X036348Y016190D01*
X036554Y016105D01*
X036777Y016105D01*
X036982Y016190D01*
X037140Y016348D01*
X037225Y016554D01*
X037225Y016777D01*
X037140Y016982D01*
X036982Y017140D01*
X036777Y017225D01*
X036554Y017225D01*
X036348Y017140D01*
X036190Y016982D01*
X036155Y016897D01*
X036155Y017710D01*
X036155Y017805D01*
X036155Y019713D01*
X036119Y019801D01*
X036051Y019869D01*
X035963Y019905D01*
X035867Y019905D01*
X035779Y019869D01*
X035712Y019801D01*
X035675Y019713D01*
X035675Y018337D01*
X035574Y018438D01*
X035635Y018585D01*
X035635Y018856D01*
X035531Y019107D01*
X035339Y019298D01*
X035088Y019402D01*
X034817Y019402D01*
X034764Y019380D01*
X034793Y019452D01*
X034816Y019536D01*
X034825Y019605D01*
X034225Y019605D01*
X034225Y019632D02*
X035675Y019632D01*
X035675Y019514D02*
X034810Y019514D01*
X034800Y019395D02*
X034770Y019395D01*
X035106Y019395D02*
X035675Y019395D01*
X035675Y019276D02*
X035361Y019276D01*
X035479Y019158D02*
X035675Y019158D01*
X035675Y019039D02*
X035559Y019039D01*
X035608Y018921D02*
X035675Y018921D01*
X035675Y018802D02*
X035635Y018802D01*
X035635Y018684D02*
X035675Y018684D01*
X035675Y018565D02*
X035626Y018565D01*
X035577Y018447D02*
X035675Y018447D01*
X036155Y018447D02*
X036927Y018447D01*
X036898Y018540D02*
X036898Y018540D01*
X036898Y018565D02*
X036155Y018565D01*
X036155Y018684D02*
X036898Y018684D01*
X036898Y018802D02*
X036155Y018802D01*
X036155Y018921D02*
X036898Y018921D01*
X036907Y019039D02*
X036155Y019039D01*
X036155Y019158D02*
X036944Y019158D01*
X036980Y019276D02*
X036155Y019276D01*
X036155Y019395D02*
X037017Y019395D01*
X037037Y019461D02*
X037037Y019461D01*
X037073Y019514D02*
X036155Y019514D01*
X036155Y019632D02*
X037154Y019632D01*
X037234Y019751D02*
X036140Y019751D01*
X036050Y019869D02*
X037326Y019869D01*
X037302Y019850D02*
X037302Y019850D01*
X037302Y019850D01*
X037475Y019988D02*
X034743Y019988D01*
X034796Y019869D02*
X035781Y019869D01*
X035691Y019751D02*
X034822Y019751D01*
X034660Y020106D02*
X037624Y020106D01*
X037670Y020144D02*
X037670Y020144D01*
X035915Y017758D02*
X034953Y018720D01*
X034328Y018447D02*
X031577Y018447D01*
X031626Y018565D02*
X034279Y018565D01*
X034271Y018684D02*
X031635Y018684D01*
X031635Y018802D02*
X034271Y018802D01*
X034298Y018921D02*
X031608Y018921D01*
X031559Y019039D02*
X033946Y019039D01*
X034105Y019039D02*
X034225Y019039D01*
X034225Y019158D02*
X034105Y019158D01*
X034105Y019276D02*
X034225Y019276D01*
X034225Y019395D02*
X034105Y019395D01*
X033739Y019158D02*
X031479Y019158D01*
X031361Y019276D02*
X033629Y019276D01*
X033561Y019395D02*
X031106Y019395D01*
X030800Y019395D02*
X030770Y019395D01*
X030810Y019514D02*
X033520Y019514D01*
X033509Y019751D02*
X030822Y019751D01*
X030796Y019869D02*
X033535Y019869D01*
X033587Y019988D02*
X030743Y019988D01*
X030660Y020106D02*
X033670Y020106D01*
X031915Y017758D02*
X030953Y018720D01*
X030328Y018447D02*
X027577Y018447D01*
X027626Y018565D02*
X030279Y018565D01*
X030271Y018684D02*
X027635Y018684D01*
X027635Y018802D02*
X030271Y018802D01*
X030298Y018921D02*
X027608Y018921D01*
X027559Y019039D02*
X029946Y019039D01*
X030105Y019039D02*
X030225Y019039D01*
X030225Y019158D02*
X030105Y019158D01*
X030105Y019276D02*
X030225Y019276D01*
X030225Y019395D02*
X030105Y019395D01*
X029739Y019158D02*
X027479Y019158D01*
X027361Y019276D02*
X029629Y019276D01*
X029561Y019395D02*
X027106Y019395D01*
X026800Y019395D02*
X026770Y019395D01*
X026810Y019514D02*
X029520Y019514D01*
X029509Y019751D02*
X026822Y019751D01*
X026796Y019869D02*
X029535Y019869D01*
X029587Y019988D02*
X026743Y019988D01*
X026660Y020106D02*
X029670Y020106D01*
X027915Y017758D02*
X026953Y018720D01*
X026328Y018447D02*
X023577Y018447D01*
X023626Y018565D02*
X026279Y018565D01*
X026271Y018684D02*
X023635Y018684D01*
X023635Y018802D02*
X026271Y018802D01*
X026298Y018921D02*
X023608Y018921D01*
X023559Y019039D02*
X025946Y019039D01*
X026105Y019039D02*
X026225Y019039D01*
X026225Y019158D02*
X026105Y019158D01*
X026105Y019276D02*
X026225Y019276D01*
X026225Y019395D02*
X026105Y019395D01*
X025739Y019158D02*
X023479Y019158D01*
X023361Y019276D02*
X025629Y019276D01*
X025561Y019395D02*
X023106Y019395D01*
X022800Y019395D02*
X022770Y019395D01*
X022810Y019514D02*
X025520Y019514D01*
X025509Y019751D02*
X022822Y019751D01*
X022796Y019869D02*
X025535Y019869D01*
X025587Y019988D02*
X022743Y019988D01*
X022660Y020106D02*
X025670Y020106D01*
X023915Y017758D02*
X022953Y018720D01*
X022328Y018447D02*
X019577Y018447D01*
X019626Y018565D02*
X022279Y018565D01*
X022271Y018684D02*
X019635Y018684D01*
X019635Y018802D02*
X022271Y018802D01*
X022298Y018921D02*
X019608Y018921D01*
X019559Y019039D02*
X021946Y019039D01*
X022105Y019039D02*
X022225Y019039D01*
X022225Y019158D02*
X022105Y019158D01*
X022105Y019276D02*
X022225Y019276D01*
X022225Y019395D02*
X022105Y019395D01*
X021739Y019158D02*
X019479Y019158D01*
X019361Y019276D02*
X021629Y019276D01*
X021561Y019395D02*
X019106Y019395D01*
X018800Y019395D02*
X018770Y019395D01*
X018810Y019514D02*
X021520Y019514D01*
X021509Y019751D02*
X018822Y019751D01*
X018796Y019869D02*
X021535Y019869D01*
X021587Y019988D02*
X018743Y019988D01*
X018660Y020106D02*
X021670Y020106D01*
X018279Y018565D02*
X015626Y018565D01*
X015479Y019158D02*
X017739Y019158D01*
X017629Y019276D02*
X015361Y019276D01*
X015106Y019395D02*
X017561Y019395D01*
X017520Y019514D02*
X014810Y019514D01*
X014800Y019395D02*
X014770Y019395D01*
X014225Y019395D02*
X014105Y019395D01*
X014105Y019276D02*
X014225Y019276D01*
X014225Y019158D02*
X014105Y019158D01*
X014105Y019039D02*
X014225Y019039D01*
X014105Y019005D02*
X014105Y019605D01*
X013505Y019605D01*
X013515Y019536D01*
X013537Y019452D01*
X013570Y019372D01*
X013614Y019297D01*
X013666Y019228D01*
X013728Y019166D01*
X013797Y019114D01*
X013872Y019070D01*
X013952Y019037D01*
X014036Y019015D01*
X014105Y019005D01*
X013946Y019039D02*
X011559Y019039D01*
X011608Y018921D02*
X014298Y018921D01*
X014271Y018802D02*
X011635Y018802D01*
X011635Y018684D02*
X014271Y018684D01*
X014279Y018565D02*
X011626Y018565D01*
X011479Y019158D02*
X013739Y019158D01*
X013629Y019276D02*
X011361Y019276D01*
X011106Y019395D02*
X013561Y019395D01*
X013520Y019514D02*
X010810Y019514D01*
X010800Y019395D02*
X010770Y019395D01*
X010225Y019395D02*
X010105Y019395D01*
X010105Y019276D02*
X010225Y019276D01*
X010225Y019158D02*
X010105Y019158D01*
X010105Y019039D02*
X010225Y019039D01*
X010105Y019005D02*
X010105Y019605D01*
X009505Y019605D01*
X009515Y019536D01*
X009537Y019452D01*
X009570Y019372D01*
X009614Y019297D01*
X009666Y019228D01*
X009728Y019166D01*
X009797Y019114D01*
X009872Y019070D01*
X009952Y019037D01*
X010036Y019015D01*
X010105Y019005D01*
X009946Y019039D02*
X007559Y019039D01*
X007608Y018921D02*
X010298Y018921D01*
X010271Y018802D02*
X007635Y018802D01*
X007635Y018684D02*
X010271Y018684D01*
X010279Y018565D02*
X007626Y018565D01*
X007242Y018091D02*
X007215Y018091D01*
X007361Y017973D02*
X004780Y017973D01*
X004780Y018091D02*
X006690Y018091D01*
X006499Y018210D02*
X004780Y018210D01*
X004780Y018328D02*
X006380Y018328D01*
X006328Y018447D02*
X004780Y018447D01*
X004780Y018565D02*
X006279Y018565D01*
X006271Y018684D02*
X004780Y018684D01*
X004780Y018802D02*
X006271Y018802D01*
X006298Y018921D02*
X004780Y018921D01*
X004780Y019039D02*
X005946Y019039D01*
X005952Y019037D02*
X006036Y019015D01*
X006105Y019005D01*
X006105Y019605D01*
X005505Y019605D01*
X005515Y019536D01*
X005537Y019452D01*
X005570Y019372D01*
X005614Y019297D01*
X005666Y019228D01*
X005728Y019166D01*
X005797Y019114D01*
X005872Y019070D01*
X005952Y019037D01*
X006105Y019039D02*
X006225Y019039D01*
X006225Y019158D02*
X006105Y019158D01*
X006105Y019276D02*
X006225Y019276D01*
X006225Y019395D02*
X006105Y019395D01*
X006105Y019514D02*
X006225Y019514D01*
X006225Y019632D02*
X010105Y019632D01*
X010105Y019514D02*
X010225Y019514D01*
X010225Y019632D02*
X014105Y019632D01*
X014105Y019514D02*
X014225Y019514D01*
X014225Y019632D02*
X018105Y019632D01*
X017509Y019751D02*
X014822Y019751D01*
X014796Y019869D02*
X017535Y019869D01*
X017587Y019988D02*
X014743Y019988D01*
X014660Y020106D02*
X017670Y020106D01*
X019684Y018328D02*
X022380Y018328D01*
X022499Y018210D02*
X019803Y018210D01*
X019921Y018091D02*
X022690Y018091D01*
X023216Y018091D02*
X023242Y018091D01*
X023361Y017973D02*
X020040Y017973D01*
X020051Y017961D02*
X020051Y017961D01*
X020135Y017854D02*
X023479Y017854D01*
X023598Y017735D02*
X020155Y017735D01*
X020155Y017617D02*
X023675Y017617D01*
X023675Y017498D02*
X020155Y017498D01*
X020155Y017380D02*
X023675Y017380D01*
X023675Y017261D02*
X020155Y017261D01*
X020155Y017143D02*
X022590Y017143D01*
X022457Y017024D02*
X020155Y017024D01*
X020155Y016906D02*
X022360Y016906D01*
X022311Y016787D02*
X020155Y016787D01*
X020155Y016669D02*
X022271Y016669D01*
X022271Y016550D02*
X020155Y016550D01*
X020155Y016431D02*
X022271Y016431D01*
X022315Y016313D02*
X020155Y016313D01*
X020155Y016194D02*
X022253Y016194D01*
X022134Y016076D02*
X020155Y016076D01*
X020155Y015957D02*
X022016Y015957D01*
X021897Y015839D02*
X020155Y015839D01*
X020155Y015720D02*
X021778Y015720D01*
X021660Y015602D02*
X020155Y015602D01*
X020155Y015483D02*
X021541Y015483D01*
X021423Y015365D02*
X020155Y015365D01*
X020155Y015246D02*
X021304Y015246D01*
X021186Y015127D02*
X020155Y015127D01*
X020161Y015009D02*
X021067Y015009D01*
X021746Y015009D02*
X022670Y015009D01*
X022801Y015127D02*
X021864Y015127D01*
X021983Y015246D02*
X023675Y015246D01*
X023675Y015365D02*
X022102Y015365D01*
X022220Y015483D02*
X023675Y015483D01*
X023675Y015602D02*
X022339Y015602D01*
X022457Y015720D02*
X023675Y015720D01*
X023675Y015839D02*
X022576Y015839D01*
X023292Y015957D02*
X023675Y015957D01*
X023675Y016076D02*
X023438Y016076D01*
X023541Y016194D02*
X023675Y016194D01*
X023675Y016313D02*
X023590Y016313D01*
X023635Y016431D02*
X023675Y016431D01*
X023675Y016550D02*
X023635Y016550D01*
X023635Y016669D02*
X023675Y016669D01*
X023675Y016787D02*
X023595Y016787D01*
X023545Y016906D02*
X023675Y016906D01*
X023675Y017024D02*
X023448Y017024D01*
X023316Y017143D02*
X023675Y017143D01*
X024155Y017143D02*
X026590Y017143D01*
X026457Y017024D02*
X024155Y017024D01*
X024155Y016906D02*
X026360Y016906D01*
X026311Y016787D02*
X024155Y016787D01*
X024155Y016669D02*
X026271Y016669D01*
X026271Y016550D02*
X024155Y016550D01*
X024155Y016431D02*
X026271Y016431D01*
X026315Y016313D02*
X024155Y016313D01*
X024155Y016194D02*
X026253Y016194D01*
X026134Y016076D02*
X024155Y016076D01*
X024155Y015957D02*
X026016Y015957D01*
X025897Y015839D02*
X024155Y015839D01*
X024155Y015720D02*
X025778Y015720D01*
X025660Y015602D02*
X024155Y015602D01*
X024155Y015483D02*
X025541Y015483D01*
X025423Y015365D02*
X024155Y015365D01*
X024155Y015246D02*
X025304Y015246D01*
X025186Y015127D02*
X024155Y015127D01*
X024161Y015009D02*
X025067Y015009D01*
X025746Y015009D02*
X026670Y015009D01*
X026801Y015127D02*
X025864Y015127D01*
X025983Y015246D02*
X027675Y015246D01*
X027675Y015365D02*
X026102Y015365D01*
X026220Y015483D02*
X027675Y015483D01*
X027675Y015602D02*
X026339Y015602D01*
X026457Y015720D02*
X027675Y015720D01*
X027675Y015839D02*
X026576Y015839D01*
X027292Y015957D02*
X027675Y015957D01*
X027675Y016076D02*
X027438Y016076D01*
X027541Y016194D02*
X027675Y016194D01*
X027675Y016313D02*
X027590Y016313D01*
X027635Y016431D02*
X027675Y016431D01*
X027675Y016550D02*
X027635Y016550D01*
X027635Y016669D02*
X027675Y016669D01*
X027675Y016787D02*
X027595Y016787D01*
X027545Y016906D02*
X027675Y016906D01*
X027675Y017024D02*
X027448Y017024D01*
X027316Y017143D02*
X027675Y017143D01*
X027675Y017261D02*
X024155Y017261D01*
X024155Y017380D02*
X027675Y017380D01*
X027675Y017498D02*
X024155Y017498D01*
X024155Y017617D02*
X027675Y017617D01*
X027598Y017735D02*
X024155Y017735D01*
X024135Y017854D02*
X027479Y017854D01*
X027361Y017973D02*
X024040Y017973D01*
X023921Y018091D02*
X026690Y018091D01*
X026499Y018210D02*
X023803Y018210D01*
X023684Y018328D02*
X026380Y018328D01*
X027215Y018091D02*
X027242Y018091D01*
X027684Y018328D02*
X030380Y018328D01*
X030499Y018210D02*
X027803Y018210D01*
X027921Y018091D02*
X030690Y018091D01*
X031215Y018091D02*
X031242Y018091D01*
X031361Y017973D02*
X028040Y017973D01*
X028135Y017854D02*
X031479Y017854D01*
X031598Y017735D02*
X028155Y017735D01*
X028155Y017617D02*
X031675Y017617D01*
X031675Y017498D02*
X028155Y017498D01*
X028155Y017380D02*
X031675Y017380D01*
X031675Y017261D02*
X028155Y017261D01*
X028155Y017143D02*
X030590Y017143D01*
X030457Y017024D02*
X028155Y017024D01*
X028155Y016906D02*
X030360Y016906D01*
X030311Y016787D02*
X028155Y016787D01*
X028155Y016669D02*
X030271Y016669D01*
X030271Y016550D02*
X028155Y016550D01*
X028155Y016431D02*
X030271Y016431D01*
X030315Y016313D02*
X028155Y016313D01*
X028155Y016194D02*
X030253Y016194D01*
X030134Y016076D02*
X028155Y016076D01*
X028155Y015957D02*
X030016Y015957D01*
X029897Y015839D02*
X028155Y015839D01*
X028155Y015720D02*
X029778Y015720D01*
X029660Y015602D02*
X028155Y015602D01*
X028155Y015483D02*
X029541Y015483D01*
X029423Y015365D02*
X028155Y015365D01*
X028155Y015246D02*
X029304Y015246D01*
X029186Y015127D02*
X028155Y015127D01*
X028161Y015009D02*
X029067Y015009D01*
X029746Y015009D02*
X030670Y015009D01*
X030801Y015127D02*
X029864Y015127D01*
X029983Y015246D02*
X031675Y015246D01*
X031675Y015365D02*
X030102Y015365D01*
X030220Y015483D02*
X031675Y015483D01*
X031675Y015602D02*
X030339Y015602D01*
X030457Y015720D02*
X031675Y015720D01*
X031675Y015839D02*
X030576Y015839D01*
X031292Y015957D02*
X031675Y015957D01*
X031675Y016076D02*
X031438Y016076D01*
X031541Y016194D02*
X031675Y016194D01*
X031675Y016313D02*
X031590Y016313D01*
X031635Y016431D02*
X031675Y016431D01*
X031675Y016550D02*
X031635Y016550D01*
X031635Y016669D02*
X031675Y016669D01*
X031675Y016787D02*
X031595Y016787D01*
X031545Y016906D02*
X031675Y016906D01*
X031675Y017024D02*
X031448Y017024D01*
X031316Y017143D02*
X031675Y017143D01*
X032155Y017143D02*
X034590Y017143D01*
X034457Y017024D02*
X032155Y017024D01*
X032155Y016906D02*
X034360Y016906D01*
X034311Y016787D02*
X032155Y016787D01*
X032155Y016669D02*
X034271Y016669D01*
X034271Y016550D02*
X032155Y016550D01*
X032155Y016431D02*
X034271Y016431D01*
X034315Y016313D02*
X032155Y016313D01*
X032155Y016194D02*
X034253Y016194D01*
X034134Y016076D02*
X032155Y016076D01*
X032155Y015957D02*
X034016Y015957D01*
X033897Y015839D02*
X032155Y015839D01*
X032155Y015720D02*
X033778Y015720D01*
X033660Y015602D02*
X032155Y015602D01*
X032155Y015483D02*
X033541Y015483D01*
X033423Y015365D02*
X032155Y015365D01*
X032155Y015246D02*
X033304Y015246D01*
X033186Y015127D02*
X032155Y015127D01*
X032161Y015009D02*
X033067Y015009D01*
X032915Y014518D02*
X034953Y016555D01*
X035635Y016550D02*
X035675Y016550D01*
X035675Y016431D02*
X035635Y016431D01*
X035675Y016313D02*
X035590Y016313D01*
X035541Y016194D02*
X035675Y016194D01*
X035675Y016076D02*
X035438Y016076D01*
X035292Y015957D02*
X035675Y015957D01*
X035675Y015839D02*
X034576Y015839D01*
X034457Y015720D02*
X035675Y015720D01*
X035675Y015602D02*
X034339Y015602D01*
X034220Y015483D02*
X035675Y015483D01*
X035675Y015365D02*
X034102Y015365D01*
X033983Y015246D02*
X035675Y015246D01*
X035915Y014915D02*
X035915Y017758D01*
X036155Y017735D02*
X037279Y017735D01*
X037198Y017854D02*
X036155Y017854D01*
X036155Y017973D02*
X037117Y017973D01*
X037037Y018091D02*
X036155Y018091D01*
X036155Y018210D02*
X037000Y018210D01*
X036963Y018328D02*
X036155Y018328D01*
X035598Y017735D02*
X032155Y017735D01*
X032155Y017617D02*
X035675Y017617D01*
X035675Y017498D02*
X032155Y017498D01*
X032155Y017380D02*
X035675Y017380D01*
X035675Y017261D02*
X032155Y017261D01*
X031915Y017758D02*
X031915Y014915D01*
X030915Y014915D01*
X030165Y014165D01*
X028915Y014165D02*
X028915Y014518D01*
X030953Y016555D01*
X032135Y017854D02*
X035479Y017854D01*
X035361Y017973D02*
X032040Y017973D01*
X031921Y018091D02*
X034690Y018091D01*
X034499Y018210D02*
X031803Y018210D01*
X031684Y018328D02*
X034380Y018328D01*
X035216Y018091D02*
X035242Y018091D01*
X036155Y017617D02*
X037407Y017617D01*
X037556Y017498D02*
X036155Y017498D01*
X036155Y017380D02*
X037740Y017380D01*
X038042Y017261D02*
X036155Y017261D01*
X036155Y017143D02*
X036355Y017143D01*
X036232Y017024D02*
X036155Y017024D01*
X036155Y016906D02*
X036159Y016906D01*
X035675Y016906D02*
X035545Y016906D01*
X035595Y016787D02*
X035675Y016787D01*
X035675Y016669D02*
X035635Y016669D01*
X035675Y017024D02*
X035448Y017024D01*
X035316Y017143D02*
X035675Y017143D01*
X036155Y016431D02*
X036156Y016431D01*
X036155Y016313D02*
X036225Y016313D01*
X036155Y016194D02*
X036344Y016194D01*
X036155Y016076D02*
X039855Y016076D01*
X039855Y016194D02*
X036986Y016194D01*
X037105Y016313D02*
X039855Y016313D01*
X039855Y016431D02*
X037174Y016431D01*
X037224Y016550D02*
X039855Y016550D01*
X039855Y016669D02*
X037225Y016669D01*
X037221Y016787D02*
X039855Y016787D01*
X039855Y016906D02*
X037172Y016906D01*
X037098Y017024D02*
X039855Y017024D01*
X039855Y017143D02*
X036976Y017143D01*
X038109Y017235D02*
X038109Y017235D01*
X038579Y017200D02*
X038579Y017200D01*
X038848Y017261D02*
X039855Y017261D01*
X039855Y017380D02*
X039168Y017380D01*
X039038Y017305D02*
X039038Y017305D01*
X039373Y017498D02*
X039855Y017498D01*
X039855Y017617D02*
X039517Y017617D01*
X039446Y017540D02*
X039446Y017540D01*
X039627Y017735D02*
X039855Y017735D01*
X039855Y017854D02*
X039737Y017854D01*
X039808Y017973D02*
X039855Y017973D01*
X039855Y015957D02*
X036155Y015957D01*
X036155Y015839D02*
X039855Y015839D01*
X039855Y015720D02*
X036155Y015720D01*
X036155Y015602D02*
X039855Y015602D01*
X039855Y015483D02*
X036155Y015483D01*
X036155Y015365D02*
X039855Y015365D01*
X039855Y015246D02*
X036155Y015246D01*
X036155Y015127D02*
X039855Y015127D01*
X039855Y015009D02*
X036155Y015009D01*
X036155Y014890D02*
X039855Y014890D01*
X039855Y014772D02*
X036155Y014772D01*
X036155Y014653D02*
X039855Y014653D01*
X039855Y014535D02*
X036155Y014535D01*
X036155Y014416D02*
X039855Y014416D01*
X039855Y014298D02*
X036155Y014298D01*
X036155Y014179D02*
X039855Y014179D01*
X039855Y014061D02*
X036155Y014061D01*
X036155Y013942D02*
X039855Y013942D01*
X039855Y013824D02*
X036155Y013824D01*
X036155Y013705D02*
X039855Y013705D01*
X039855Y013586D02*
X039418Y013586D01*
X039422Y013584D02*
X039353Y013619D01*
X039280Y013643D01*
X039204Y013655D01*
X039204Y013655D01*
X039204Y013204D01*
X039127Y013204D01*
X039127Y013655D01*
X039127Y013655D01*
X039050Y013643D01*
X038977Y013619D01*
X038908Y013584D01*
X038846Y013539D01*
X038791Y013484D01*
X038746Y013422D01*
X038711Y013353D01*
X038687Y013280D01*
X038675Y013204D01*
X038675Y013204D01*
X039126Y013204D01*
X039126Y013127D01*
X038675Y013127D01*
X038675Y013127D01*
X038687Y013050D01*
X038711Y012977D01*
X038746Y012908D01*
X038791Y012846D01*
X038846Y012791D01*
X038908Y012746D01*
X038977Y012711D01*
X039050Y012687D01*
X039127Y012675D01*
X039127Y013126D01*
X039204Y013126D01*
X039204Y012675D01*
X039280Y012687D01*
X039353Y012711D01*
X039422Y012746D01*
X039484Y012791D01*
X039539Y012846D01*
X039584Y012908D01*
X039619Y012977D01*
X039643Y013050D01*
X039655Y013127D01*
X039204Y013127D01*
X039204Y013204D01*
X039655Y013204D01*
X039643Y013280D01*
X039619Y013353D01*
X039584Y013422D01*
X039539Y013484D01*
X039484Y013539D01*
X039422Y013584D01*
X039551Y013468D02*
X039855Y013468D01*
X039855Y013349D02*
X039621Y013349D01*
X039651Y013231D02*
X039855Y013231D01*
X039855Y013112D02*
X039653Y013112D01*
X039655Y013127D02*
X039655Y013127D01*
X039655Y013204D02*
X039655Y013204D01*
X039625Y012994D02*
X039855Y012994D01*
X039855Y012875D02*
X039560Y012875D01*
X039436Y012757D02*
X039855Y012757D01*
X039855Y012638D02*
X039356Y012638D01*
X039204Y012675D02*
X039204Y012675D01*
X039127Y012675D02*
X039127Y012675D01*
X039127Y012757D02*
X039204Y012757D01*
X039204Y012875D02*
X039127Y012875D01*
X039127Y012994D02*
X039204Y012994D01*
X039204Y013112D02*
X039127Y013112D01*
X039127Y013231D02*
X039204Y013231D01*
X039204Y013349D02*
X039127Y013349D01*
X039127Y013468D02*
X039204Y013468D01*
X039204Y013586D02*
X039127Y013586D01*
X038913Y013586D02*
X036155Y013586D01*
X036155Y013468D02*
X038779Y013468D01*
X038710Y013349D02*
X036155Y013349D01*
X036155Y013231D02*
X038679Y013231D01*
X038677Y013112D02*
X037010Y013112D01*
X037129Y012994D02*
X038706Y012994D01*
X038770Y012875D02*
X037184Y012875D01*
X037225Y012757D02*
X038894Y012757D01*
X038974Y012638D02*
X037225Y012638D01*
X037211Y012520D02*
X038798Y012520D01*
X038711Y012401D02*
X037297Y012401D01*
X037398Y012282D02*
X038662Y012282D01*
X038655Y012164D02*
X037425Y012164D01*
X037425Y012045D02*
X038663Y012045D01*
X038712Y011927D02*
X037425Y011927D01*
X037425Y011808D02*
X038801Y011808D01*
X038980Y011690D02*
X037425Y011690D01*
X037425Y011571D02*
X038850Y011571D01*
X038732Y011453D02*
X037425Y011453D01*
X037425Y011334D02*
X038683Y011334D01*
X038655Y011216D02*
X037425Y011216D01*
X037425Y011097D02*
X038655Y011097D01*
X038690Y010978D02*
X037425Y010978D01*
X037425Y010860D02*
X038749Y010860D01*
X038868Y010741D02*
X037425Y010741D01*
X037425Y010623D02*
X038937Y010623D01*
X038783Y010504D02*
X037425Y010504D01*
X037425Y010386D02*
X038705Y010386D01*
X038655Y010267D02*
X037425Y010267D01*
X037425Y010149D02*
X038655Y010149D01*
X038669Y010030D02*
X037425Y010030D01*
X037425Y009912D02*
X038718Y009912D01*
X038816Y009793D02*
X037396Y009793D01*
X037292Y009674D02*
X039017Y009674D01*
X038835Y009556D02*
X037174Y009556D01*
X037055Y009437D02*
X038726Y009437D01*
X038677Y009319D02*
X036936Y009319D01*
X036855Y009200D02*
X038193Y009200D01*
X038096Y009082D02*
X036855Y009082D01*
X036835Y008963D02*
X038057Y008963D01*
X038005Y008845D02*
X036717Y008845D01*
X036598Y008726D02*
X037887Y008726D01*
X037768Y008608D02*
X033151Y008608D01*
X033155Y008726D02*
X036232Y008726D01*
X036113Y008845D02*
X033155Y008845D01*
X033155Y008963D02*
X035995Y008963D01*
X035975Y009082D02*
X033155Y009082D01*
X033155Y009200D02*
X035975Y009200D01*
X035975Y009319D02*
X035941Y009319D01*
X035847Y009225D02*
X036105Y009483D01*
X036105Y009847D01*
X035905Y010047D01*
X035905Y010867D01*
X035905Y010963D01*
X035869Y011051D01*
X035855Y011065D01*
X035855Y011347D01*
X035597Y011605D01*
X035233Y011605D01*
X034975Y011347D01*
X034975Y010983D01*
X035233Y010725D01*
X035425Y010725D01*
X035425Y010047D01*
X035225Y009847D01*
X035225Y009483D01*
X035483Y009225D01*
X035847Y009225D01*
X036060Y009437D02*
X036065Y009437D01*
X036105Y009556D02*
X036184Y009556D01*
X036105Y009674D02*
X036557Y009674D01*
X036665Y009793D02*
X036675Y009793D01*
X036784Y009912D02*
X036794Y009912D01*
X036855Y010030D02*
X036905Y010030D01*
X036905Y010149D02*
X036855Y010149D01*
X036855Y010267D02*
X036905Y010267D01*
X036905Y010386D02*
X036817Y010386D01*
X036905Y010504D02*
X036698Y010504D01*
X036655Y010623D02*
X036905Y010623D01*
X036905Y010741D02*
X036655Y010741D01*
X036655Y010860D02*
X036905Y010860D01*
X036905Y010978D02*
X036655Y010978D01*
X036655Y011097D02*
X036905Y011097D01*
X036905Y011216D02*
X036655Y011216D01*
X036655Y011334D02*
X036905Y011334D01*
X036905Y011453D02*
X036655Y011453D01*
X036655Y011571D02*
X036905Y011571D01*
X036905Y011690D02*
X036655Y011690D01*
X036655Y011808D02*
X036905Y011808D01*
X036905Y011927D02*
X036655Y011927D01*
X036621Y012045D02*
X036905Y012045D01*
X036415Y011915D02*
X035915Y012415D01*
X035915Y014915D01*
X034915Y014915D01*
X034165Y014165D01*
X032915Y014165D02*
X032915Y014518D01*
X032415Y014415D02*
X031915Y014915D01*
X031777Y014425D02*
X032066Y014425D01*
X032175Y014316D01*
X032175Y010547D01*
X031975Y010347D01*
X031975Y009983D01*
X032233Y009725D01*
X032597Y009725D01*
X032675Y009803D01*
X032675Y009527D01*
X032597Y009605D01*
X032233Y009605D01*
X031975Y009347D01*
X031975Y008983D01*
X032233Y008725D01*
X032597Y008725D01*
X032675Y008803D01*
X032675Y008765D01*
X032066Y008155D01*
X028745Y008155D01*
X029051Y008462D01*
X029051Y008462D01*
X029119Y008529D01*
X029155Y008617D01*
X029155Y010783D01*
X029355Y010983D01*
X029355Y011347D01*
X029155Y011547D01*
X029155Y012066D01*
X029515Y012425D01*
X030963Y012425D01*
X031051Y012462D01*
X031119Y012529D01*
X031619Y013029D01*
X031655Y013117D01*
X031655Y013213D01*
X031655Y013783D01*
X031855Y013983D01*
X031855Y014347D01*
X031777Y014425D01*
X031786Y014416D02*
X032075Y014416D01*
X032175Y014298D02*
X031855Y014298D01*
X031855Y014179D02*
X032175Y014179D01*
X032175Y014061D02*
X031855Y014061D01*
X031814Y013942D02*
X032175Y013942D01*
X032175Y013824D02*
X031696Y013824D01*
X031655Y013705D02*
X032175Y013705D01*
X032175Y013586D02*
X031655Y013586D01*
X031655Y013468D02*
X032175Y013468D01*
X032175Y013349D02*
X031655Y013349D01*
X031655Y013231D02*
X032175Y013231D01*
X032175Y013112D02*
X031653Y013112D01*
X031583Y012994D02*
X032175Y012994D01*
X032175Y012875D02*
X031465Y012875D01*
X031346Y012757D02*
X032175Y012757D01*
X032175Y012638D02*
X031227Y012638D01*
X031109Y012520D02*
X032175Y012520D01*
X032175Y012401D02*
X029490Y012401D01*
X029372Y012282D02*
X032175Y012282D01*
X032175Y012164D02*
X029253Y012164D01*
X029155Y012045D02*
X032175Y012045D01*
X032175Y011927D02*
X029155Y011927D01*
X029155Y011808D02*
X032175Y011808D01*
X032175Y011690D02*
X029155Y011690D01*
X029155Y011571D02*
X029949Y011571D01*
X029983Y011605D02*
X029725Y011347D01*
X029725Y011065D01*
X029462Y010801D01*
X029425Y010713D01*
X029425Y010617D01*
X029425Y010047D01*
X029225Y009847D01*
X029225Y009483D01*
X029483Y009225D01*
X029847Y009225D01*
X030105Y009483D01*
X030105Y009847D01*
X029905Y010047D01*
X029905Y010566D01*
X030065Y010725D01*
X030347Y010725D01*
X030605Y010983D01*
X030605Y011347D01*
X030347Y011605D01*
X029983Y011605D01*
X029830Y011453D02*
X029250Y011453D01*
X029355Y011334D02*
X029725Y011334D01*
X029725Y011216D02*
X029355Y011216D01*
X029355Y011097D02*
X029725Y011097D01*
X029639Y010978D02*
X029351Y010978D01*
X029232Y010860D02*
X029521Y010860D01*
X029437Y010741D02*
X029155Y010741D01*
X029155Y010623D02*
X029425Y010623D01*
X029425Y010504D02*
X029155Y010504D01*
X029155Y010386D02*
X029425Y010386D01*
X029425Y010267D02*
X029155Y010267D01*
X029155Y010149D02*
X029425Y010149D01*
X029408Y010030D02*
X029155Y010030D01*
X029155Y009912D02*
X029289Y009912D01*
X029225Y009793D02*
X029155Y009793D01*
X029155Y009674D02*
X029225Y009674D01*
X029225Y009556D02*
X029155Y009556D01*
X029155Y009437D02*
X029271Y009437D01*
X029155Y009319D02*
X029389Y009319D01*
X029155Y009200D02*
X031975Y009200D01*
X031975Y009082D02*
X029155Y009082D01*
X029155Y008963D02*
X031995Y008963D01*
X032113Y008845D02*
X029155Y008845D01*
X029155Y008726D02*
X032232Y008726D01*
X032400Y008489D02*
X029078Y008489D01*
X029151Y008608D02*
X032518Y008608D01*
X032598Y008726D02*
X032637Y008726D01*
X032915Y008665D02*
X032165Y007915D01*
X025415Y007915D01*
X024165Y006665D01*
X024165Y006165D01*
X024165Y005165D01*
X022665Y003665D01*
X022665Y001915D01*
X022225Y001969D02*
X022105Y001969D01*
X022105Y001851D02*
X022225Y001851D01*
X022225Y001732D02*
X022105Y001732D01*
X022105Y001614D02*
X022225Y001614D01*
X022255Y001495D02*
X022075Y001495D01*
X022009Y001376D02*
X022322Y001376D01*
X022474Y001258D02*
X021856Y001258D01*
X021474Y001258D02*
X020856Y001258D01*
X021009Y001376D02*
X021322Y001376D01*
X021255Y001495D02*
X021075Y001495D01*
X021105Y001614D02*
X021225Y001614D01*
X021225Y001732D02*
X021105Y001732D01*
X021105Y001851D02*
X021225Y001851D01*
X021225Y001969D02*
X021105Y001969D01*
X021105Y002088D02*
X021225Y002088D01*
X021225Y002206D02*
X021105Y002206D01*
X021079Y002325D02*
X021251Y002325D01*
X021311Y002443D02*
X021019Y002443D01*
X020923Y002562D02*
X020905Y002562D01*
X021145Y002562D02*
X021185Y002562D01*
X021185Y002680D02*
X021145Y002680D01*
X021145Y002799D02*
X021185Y002799D01*
X021185Y002918D02*
X021145Y002918D01*
X021145Y003036D02*
X021185Y003036D01*
X021185Y003185D02*
X021145Y003185D01*
X021145Y003806D01*
X022301Y004962D01*
X022301Y004962D01*
X022369Y005029D01*
X022405Y005117D01*
X022405Y005528D01*
X022414Y005532D01*
X022538Y005656D01*
X022605Y005818D01*
X022605Y006513D01*
X022538Y006674D01*
X022526Y006687D01*
X022765Y006925D01*
X023086Y006925D01*
X022989Y006828D01*
X022916Y006798D01*
X022792Y006674D01*
X022725Y006513D01*
X022725Y005818D01*
X022792Y005656D01*
X022916Y005532D01*
X022925Y005528D01*
X022925Y005265D01*
X021529Y003869D01*
X021462Y003801D01*
X021439Y003746D01*
X021385Y003784D01*
X021326Y003814D01*
X021264Y003835D01*
X021198Y003845D01*
X021185Y003845D01*
X021185Y003185D01*
X021185Y003273D02*
X021145Y003273D01*
X021145Y003392D02*
X021185Y003392D01*
X021185Y003510D02*
X021145Y003510D01*
X021145Y003629D02*
X021185Y003629D01*
X021185Y003747D02*
X021145Y003747D01*
X021205Y003866D02*
X021526Y003866D01*
X021440Y003747D02*
X021436Y003747D01*
X021665Y003665D02*
X021665Y001915D01*
X022105Y002088D02*
X022225Y002088D01*
X022225Y002206D02*
X022105Y002206D01*
X022079Y002325D02*
X022251Y002325D01*
X022311Y002443D02*
X022019Y002443D01*
X021425Y002562D02*
X021407Y002562D01*
X022165Y003165D02*
X022165Y003665D01*
X023665Y005165D01*
X023165Y005165D02*
X021665Y003665D01*
X021645Y003984D02*
X021324Y003984D01*
X021442Y004103D02*
X021764Y004103D01*
X021882Y004221D02*
X021561Y004221D01*
X021679Y004340D02*
X022001Y004340D01*
X022119Y004459D02*
X021798Y004459D01*
X021916Y004577D02*
X022238Y004577D01*
X022356Y004696D02*
X022035Y004696D01*
X022154Y004814D02*
X022475Y004814D01*
X022593Y004933D02*
X022272Y004933D01*
X022378Y005051D02*
X022712Y005051D01*
X022830Y005170D02*
X022405Y005170D01*
X022405Y005288D02*
X022925Y005288D01*
X022925Y005407D02*
X022405Y005407D01*
X022405Y005525D02*
X022925Y005525D01*
X022804Y005644D02*
X022526Y005644D01*
X022582Y005763D02*
X022748Y005763D01*
X022725Y005881D02*
X022605Y005881D01*
X022605Y006000D02*
X022725Y006000D01*
X022725Y006118D02*
X022605Y006118D01*
X022605Y006237D02*
X022725Y006237D01*
X022725Y006355D02*
X022605Y006355D01*
X022605Y006474D02*
X022725Y006474D01*
X022758Y006592D02*
X022572Y006592D01*
X022550Y006711D02*
X022829Y006711D01*
X022669Y006829D02*
X022990Y006829D01*
X023165Y006665D02*
X023165Y006165D01*
X023165Y005165D01*
X024035Y004696D02*
X024795Y004696D01*
X024677Y004814D02*
X024154Y004814D01*
X024272Y004933D02*
X024558Y004933D01*
X024453Y005051D02*
X024378Y005051D01*
X024405Y005170D02*
X024425Y005170D01*
X024425Y005288D02*
X024405Y005288D01*
X024405Y005407D02*
X024425Y005407D01*
X024425Y005525D02*
X024405Y005525D01*
X024665Y005165D02*
X024665Y006665D01*
X025665Y007665D01*
X032665Y007665D01*
X033165Y008165D01*
X037665Y008165D01*
X038415Y008915D01*
X038725Y008726D02*
X038892Y008726D01*
X038954Y008608D02*
X038609Y008608D01*
X038791Y008484D02*
X038746Y008422D01*
X038711Y008353D01*
X038687Y008280D01*
X038675Y008204D01*
X038675Y008204D01*
X039126Y008204D01*
X039126Y008127D01*
X038675Y008127D01*
X038675Y008127D01*
X038687Y008050D01*
X038711Y007977D01*
X038746Y007908D01*
X038791Y007846D01*
X038846Y007791D01*
X038908Y007746D01*
X038977Y007711D01*
X039050Y007687D01*
X039127Y007675D01*
X039127Y008126D01*
X039204Y008126D01*
X039204Y007675D01*
X039280Y007687D01*
X039353Y007711D01*
X039422Y007746D01*
X039484Y007791D01*
X039539Y007846D01*
X039584Y007908D01*
X039619Y007977D01*
X039643Y008050D01*
X039655Y008127D01*
X039204Y008127D01*
X039204Y008204D01*
X039127Y008204D01*
X039127Y008655D01*
X039127Y008655D01*
X039050Y008643D01*
X038977Y008619D01*
X038908Y008584D01*
X038846Y008539D01*
X038791Y008484D01*
X038796Y008489D02*
X038328Y008489D01*
X038210Y008371D02*
X038720Y008371D01*
X038683Y008252D02*
X038091Y008252D01*
X037973Y008133D02*
X039126Y008133D01*
X039204Y008133D02*
X039855Y008133D01*
X039855Y008015D02*
X039632Y008015D01*
X039655Y008127D02*
X039655Y008127D01*
X039655Y008204D02*
X039655Y008204D01*
X039643Y008280D01*
X039619Y008353D01*
X039584Y008422D01*
X039539Y008484D01*
X039484Y008539D01*
X039422Y008584D01*
X039353Y008619D01*
X039280Y008643D01*
X039204Y008655D01*
X039204Y008655D01*
X039204Y008204D01*
X039655Y008204D01*
X039648Y008252D02*
X039855Y008252D01*
X039855Y008371D02*
X039610Y008371D01*
X039534Y008489D02*
X039855Y008489D01*
X039855Y008608D02*
X039376Y008608D01*
X039438Y008726D02*
X039855Y008726D01*
X039855Y008845D02*
X039566Y008845D01*
X039634Y008963D02*
X039855Y008963D01*
X039855Y009082D02*
X039675Y009082D01*
X039675Y009200D02*
X039855Y009200D01*
X039855Y009319D02*
X039654Y009319D01*
X039604Y009437D02*
X039855Y009437D01*
X039855Y009556D02*
X039496Y009556D01*
X039313Y009674D02*
X039855Y009674D01*
X039855Y009793D02*
X039514Y009793D01*
X039612Y009912D02*
X039855Y009912D01*
X039855Y010030D02*
X039661Y010030D01*
X039626Y010386D02*
X039855Y010386D01*
X039855Y010504D02*
X039547Y010504D01*
X039393Y010623D02*
X039855Y010623D01*
X039855Y010741D02*
X039463Y010741D01*
X039581Y010860D02*
X039855Y010860D01*
X039855Y010978D02*
X039640Y010978D01*
X039675Y011097D02*
X039855Y011097D01*
X039855Y011216D02*
X039675Y011216D01*
X039647Y011334D02*
X039855Y011334D01*
X039855Y011453D02*
X039598Y011453D01*
X039480Y011571D02*
X039855Y011571D01*
X039855Y011690D02*
X039350Y011690D01*
X039529Y011808D02*
X039855Y011808D01*
X039855Y011927D02*
X039618Y011927D01*
X039668Y012045D02*
X039855Y012045D01*
X039855Y012164D02*
X039675Y012164D01*
X039669Y012282D02*
X039855Y012282D01*
X039855Y012401D02*
X039620Y012401D01*
X039532Y012520D02*
X039855Y012520D01*
X036415Y011915D02*
X036415Y010165D01*
X035975Y010149D02*
X035905Y010149D01*
X035905Y010267D02*
X035975Y010267D01*
X036014Y010386D02*
X035905Y010386D01*
X035905Y010504D02*
X036132Y010504D01*
X036175Y010623D02*
X035905Y010623D01*
X035905Y010741D02*
X036175Y010741D01*
X036175Y010860D02*
X035905Y010860D01*
X035899Y010978D02*
X036175Y010978D01*
X036175Y011097D02*
X035855Y011097D01*
X035855Y011216D02*
X036175Y011216D01*
X036175Y011334D02*
X035855Y011334D01*
X035750Y011453D02*
X036175Y011453D01*
X036175Y011571D02*
X035631Y011571D01*
X035199Y011571D02*
X034381Y011571D01*
X034347Y011605D02*
X033983Y011605D01*
X033725Y011347D01*
X033725Y011065D01*
X033529Y010869D01*
X033462Y010801D01*
X033425Y010713D01*
X033425Y010047D01*
X033225Y009847D01*
X033225Y009483D01*
X033483Y009225D01*
X033847Y009225D01*
X034105Y009483D01*
X034105Y009847D01*
X033905Y010047D01*
X033905Y010566D01*
X034065Y010725D01*
X034347Y010725D01*
X034605Y010983D01*
X034605Y011347D01*
X034347Y011605D01*
X034500Y011453D02*
X035080Y011453D01*
X034975Y011334D02*
X034605Y011334D01*
X034605Y011216D02*
X034975Y011216D01*
X034975Y011097D02*
X034605Y011097D01*
X034601Y010978D02*
X034980Y010978D01*
X035098Y010860D02*
X034482Y010860D01*
X034364Y010741D02*
X035217Y010741D01*
X035425Y010623D02*
X033962Y010623D01*
X033905Y010504D02*
X035425Y010504D01*
X035425Y010386D02*
X033905Y010386D01*
X033905Y010267D02*
X035425Y010267D01*
X035425Y010149D02*
X033905Y010149D01*
X033922Y010030D02*
X034436Y010030D01*
X034491Y010085D02*
X034245Y009839D01*
X034245Y009685D01*
X034645Y009685D01*
X034645Y009645D01*
X034685Y009645D01*
X034685Y009245D01*
X034839Y009245D01*
X035085Y009491D01*
X035085Y009645D01*
X034685Y009645D01*
X034685Y009685D01*
X035085Y009685D01*
X035085Y009839D01*
X034839Y010085D01*
X034685Y010085D01*
X034685Y009685D01*
X034645Y009685D01*
X034645Y010085D01*
X034491Y010085D01*
X034645Y010030D02*
X034685Y010030D01*
X034685Y009912D02*
X034645Y009912D01*
X034645Y009793D02*
X034685Y009793D01*
X034685Y009674D02*
X035225Y009674D01*
X035225Y009556D02*
X035085Y009556D01*
X035031Y009437D02*
X035271Y009437D01*
X035389Y009319D02*
X034913Y009319D01*
X034685Y009319D02*
X034645Y009319D01*
X034645Y009245D02*
X034645Y009645D01*
X034245Y009645D01*
X034245Y009491D01*
X034491Y009245D01*
X034645Y009245D01*
X034645Y009437D02*
X034685Y009437D01*
X034685Y009556D02*
X034645Y009556D01*
X034645Y009674D02*
X034105Y009674D01*
X034105Y009556D02*
X034245Y009556D01*
X034299Y009437D02*
X034060Y009437D01*
X033941Y009319D02*
X034418Y009319D01*
X034245Y009793D02*
X034105Y009793D01*
X034041Y009912D02*
X034318Y009912D01*
X034894Y010030D02*
X035408Y010030D01*
X035289Y009912D02*
X035013Y009912D01*
X035085Y009793D02*
X035225Y009793D01*
X035665Y009665D02*
X035665Y010915D01*
X035415Y011165D01*
X036175Y011690D02*
X033155Y011690D01*
X033155Y011808D02*
X036175Y011808D01*
X036064Y011927D02*
X033155Y011927D01*
X033155Y012045D02*
X035946Y012045D01*
X035827Y012164D02*
X033253Y012164D01*
X033372Y012282D02*
X035710Y012282D01*
X035675Y012401D02*
X033490Y012401D01*
X033415Y012665D02*
X032915Y012165D01*
X032915Y011165D01*
X032915Y008665D01*
X033078Y008489D02*
X037650Y008489D01*
X038008Y008015D02*
X038699Y008015D01*
X038755Y007896D02*
X038191Y007896D01*
X038256Y007778D02*
X038865Y007778D01*
X039127Y007778D02*
X039204Y007778D01*
X039204Y007675D02*
X039204Y007675D01*
X039127Y007675D02*
X039127Y007675D01*
X039127Y007896D02*
X039204Y007896D01*
X039204Y008015D02*
X039127Y008015D01*
X039127Y008252D02*
X039204Y008252D01*
X039204Y008371D02*
X039127Y008371D01*
X039127Y008489D02*
X039204Y008489D01*
X039204Y008608D02*
X039127Y008608D01*
X038655Y009200D02*
X038637Y009200D01*
X039576Y007896D02*
X039855Y007896D01*
X039855Y007778D02*
X039466Y007778D01*
X039855Y007659D02*
X038274Y007659D01*
X038252Y007541D02*
X039855Y007541D01*
X039855Y007422D02*
X038179Y007422D01*
X037746Y007304D02*
X039855Y007304D01*
X039855Y007185D02*
X037774Y007185D01*
X037762Y007067D02*
X039855Y007067D01*
X039855Y006948D02*
X037705Y006948D01*
X037541Y006829D02*
X039855Y006829D01*
X039855Y006711D02*
X033959Y006711D01*
X033869Y006801D02*
X033801Y006869D01*
X033713Y006905D01*
X031617Y006905D01*
X031529Y006869D01*
X031462Y006801D01*
X031266Y006605D01*
X030983Y006605D01*
X030725Y006347D01*
X030725Y005983D01*
X030983Y005725D01*
X031347Y005725D01*
X031605Y005983D01*
X031605Y006266D01*
X031765Y006425D01*
X032911Y006425D01*
X032865Y006379D01*
X032826Y006325D01*
X032796Y006266D01*
X032776Y006204D01*
X032765Y006138D01*
X032765Y005865D01*
X033165Y005865D01*
X033165Y005825D01*
X033205Y005825D01*
X033205Y005165D01*
X033218Y005165D01*
X033284Y005176D01*
X033346Y005196D01*
X033405Y005226D01*
X033459Y005265D01*
X033506Y005312D01*
X033544Y005365D01*
X033574Y005424D01*
X033595Y005487D01*
X033605Y005552D01*
X033605Y005825D01*
X033205Y005825D01*
X033205Y005865D01*
X033605Y005865D01*
X033605Y006138D01*
X033595Y006204D01*
X033574Y006266D01*
X033544Y006325D01*
X033506Y006379D01*
X033459Y006425D01*
X033566Y006425D01*
X033747Y006244D01*
X033725Y006193D01*
X033725Y005498D01*
X033792Y005336D01*
X033916Y005212D01*
X034078Y005145D01*
X034253Y005145D01*
X034414Y005212D01*
X034538Y005336D01*
X034605Y005498D01*
X034605Y006193D01*
X034538Y006354D01*
X034414Y006478D01*
X034253Y006545D01*
X034125Y006545D01*
X033869Y006801D01*
X033869Y006801D01*
X033840Y006829D02*
X037289Y006829D01*
X037415Y007165D02*
X027165Y007165D01*
X026665Y006665D01*
X026665Y005165D01*
X027165Y004665D01*
X027165Y003165D01*
X027905Y003155D02*
X029725Y003155D01*
X029725Y003273D02*
X027905Y003273D01*
X027905Y003392D02*
X029769Y003392D01*
X029725Y003347D02*
X029725Y002983D01*
X029983Y002725D01*
X030347Y002725D01*
X030605Y002983D01*
X030605Y003347D01*
X030347Y003605D01*
X029983Y003605D01*
X029725Y003347D01*
X029888Y003510D02*
X027905Y003510D01*
X027905Y003629D02*
X032745Y003629D01*
X032745Y003747D02*
X029120Y003747D01*
X029097Y003725D02*
X029355Y003983D01*
X029355Y004347D01*
X029097Y004605D01*
X028733Y004605D01*
X028475Y004347D01*
X028475Y003983D01*
X028733Y003725D01*
X029097Y003725D01*
X029238Y003866D02*
X032759Y003866D01*
X032745Y003833D02*
X032812Y003994D01*
X032936Y004118D01*
X033098Y004185D01*
X033273Y004185D01*
X033434Y004118D01*
X033558Y003994D01*
X033625Y003833D01*
X033625Y003138D01*
X033558Y002976D01*
X033434Y002852D01*
X033273Y002785D01*
X033098Y002785D01*
X032936Y002852D01*
X032812Y002976D01*
X032745Y003138D01*
X032745Y003833D01*
X032808Y003984D02*
X029355Y003984D01*
X029355Y004103D02*
X032921Y004103D01*
X033450Y004103D02*
X033901Y004103D01*
X033916Y004118D02*
X033792Y003994D01*
X033725Y003833D01*
X033725Y003138D01*
X033792Y002976D01*
X033916Y002852D01*
X034078Y002785D01*
X034253Y002785D01*
X034414Y002852D01*
X034538Y002976D01*
X034605Y003138D01*
X034605Y003833D01*
X034538Y003994D01*
X034414Y004118D01*
X034253Y004185D01*
X034078Y004185D01*
X033916Y004118D01*
X033788Y003984D02*
X033562Y003984D01*
X033611Y003866D02*
X033739Y003866D01*
X033725Y003747D02*
X033625Y003747D01*
X033625Y003629D02*
X033725Y003629D01*
X033725Y003510D02*
X033625Y003510D01*
X033625Y003392D02*
X033725Y003392D01*
X033725Y003273D02*
X033625Y003273D01*
X033625Y003155D02*
X033725Y003155D01*
X033767Y003036D02*
X033583Y003036D01*
X033500Y002918D02*
X033851Y002918D01*
X034044Y002799D02*
X033306Y002799D01*
X033064Y002799D02*
X031421Y002799D01*
X031347Y002725D02*
X031605Y002983D01*
X031605Y003347D01*
X031347Y003605D01*
X030983Y003605D01*
X030725Y003347D01*
X030725Y002983D01*
X030983Y002725D01*
X031347Y002725D01*
X031540Y002918D02*
X032871Y002918D01*
X032787Y003036D02*
X031605Y003036D01*
X031605Y003155D02*
X032745Y003155D01*
X032745Y003273D02*
X031605Y003273D01*
X031561Y003392D02*
X032745Y003392D01*
X032745Y003510D02*
X031442Y003510D01*
X030888Y003510D02*
X030442Y003510D01*
X030561Y003392D02*
X030769Y003392D01*
X030725Y003273D02*
X030605Y003273D01*
X030605Y003155D02*
X030725Y003155D01*
X030725Y003036D02*
X030605Y003036D01*
X030540Y002918D02*
X030791Y002918D01*
X030909Y002799D02*
X030421Y002799D01*
X030280Y002393D02*
X030204Y002405D01*
X030204Y002405D01*
X030204Y001954D01*
X030655Y001954D01*
X030643Y002030D01*
X030619Y002103D01*
X030584Y002172D01*
X030539Y002234D01*
X030484Y002289D01*
X030422Y002334D01*
X030353Y002369D01*
X030280Y002393D01*
X030204Y002325D02*
X030127Y002325D01*
X030127Y002405D02*
X030050Y002393D01*
X029977Y002369D01*
X029908Y002334D01*
X029846Y002289D01*
X029791Y002234D01*
X029746Y002172D01*
X029711Y002103D01*
X029687Y002030D01*
X029675Y001954D01*
X029675Y001954D01*
X030126Y001954D01*
X030126Y001877D01*
X029675Y001877D01*
X029675Y001877D01*
X029687Y001800D01*
X029711Y001727D01*
X029746Y001658D01*
X029791Y001596D01*
X029846Y001541D01*
X029908Y001496D01*
X029977Y001461D01*
X030050Y001437D01*
X030127Y001425D01*
X030127Y001876D01*
X030204Y001876D01*
X030204Y001425D01*
X030280Y001437D01*
X030353Y001461D01*
X030422Y001496D01*
X030484Y001541D01*
X030539Y001596D01*
X030584Y001658D01*
X030619Y001727D01*
X030643Y001800D01*
X030655Y001877D01*
X030204Y001877D01*
X030204Y001954D01*
X030127Y001954D01*
X030127Y002405D01*
X030127Y002405D01*
X030127Y002206D02*
X030204Y002206D01*
X030204Y002088D02*
X030127Y002088D01*
X030127Y001969D02*
X030204Y001969D01*
X030204Y001851D02*
X030127Y001851D01*
X030127Y001732D02*
X030204Y001732D01*
X030204Y001614D02*
X030127Y001614D01*
X030127Y001495D02*
X030204Y001495D01*
X030204Y001425D02*
X030204Y001425D01*
X030127Y001425D02*
X030127Y001425D01*
X029910Y001495D02*
X029420Y001495D01*
X029422Y001496D02*
X029484Y001541D01*
X029539Y001596D01*
X029584Y001658D01*
X029619Y001727D01*
X029643Y001800D01*
X029655Y001877D01*
X029204Y001877D01*
X029204Y001954D01*
X029655Y001954D01*
X029643Y002030D01*
X029619Y002103D01*
X029584Y002172D01*
X029539Y002234D01*
X029484Y002289D01*
X029422Y002334D01*
X029353Y002369D01*
X029280Y002393D01*
X029204Y002405D01*
X029204Y002405D01*
X029204Y001954D01*
X029127Y001954D01*
X029127Y002405D01*
X029127Y002405D01*
X029050Y002393D01*
X028977Y002369D01*
X028908Y002334D01*
X028846Y002289D01*
X028791Y002234D01*
X028746Y002172D01*
X028711Y002103D01*
X028687Y002030D01*
X028675Y001954D01*
X028675Y001954D01*
X029126Y001954D01*
X029126Y001877D01*
X028675Y001877D01*
X028675Y001877D01*
X028687Y001800D01*
X028711Y001727D01*
X028746Y001658D01*
X028791Y001596D01*
X028846Y001541D01*
X028908Y001496D01*
X028977Y001461D01*
X029050Y001437D01*
X029127Y001425D01*
X029127Y001876D01*
X029204Y001876D01*
X029204Y001425D01*
X029280Y001437D01*
X029353Y001461D01*
X029422Y001496D01*
X029552Y001614D02*
X029779Y001614D01*
X029709Y001732D02*
X029621Y001732D01*
X029651Y001851D02*
X029679Y001851D01*
X029655Y001877D02*
X029655Y001877D01*
X029655Y001954D02*
X029655Y001954D01*
X029653Y001969D02*
X029678Y001969D01*
X029706Y002088D02*
X029624Y002088D01*
X029559Y002206D02*
X029771Y002206D01*
X029895Y002325D02*
X029435Y002325D01*
X029204Y002325D02*
X029127Y002325D01*
X029127Y002206D02*
X029204Y002206D01*
X029204Y002088D02*
X029127Y002088D01*
X029127Y001969D02*
X029204Y001969D01*
X029204Y001851D02*
X029127Y001851D01*
X029127Y001732D02*
X029204Y001732D01*
X029204Y001614D02*
X029127Y001614D01*
X029127Y001495D02*
X029204Y001495D01*
X029204Y001425D02*
X029204Y001425D01*
X029127Y001425D02*
X029127Y001425D01*
X028910Y001495D02*
X028466Y001495D01*
X028585Y001614D02*
X028779Y001614D01*
X028709Y001732D02*
X028641Y001732D01*
X028675Y001851D02*
X028679Y001851D01*
X028675Y001969D02*
X028678Y001969D01*
X028706Y002088D02*
X028646Y002088D01*
X028595Y002206D02*
X028771Y002206D01*
X028895Y002325D02*
X028477Y002325D01*
X027905Y002443D02*
X036898Y002443D01*
X036898Y002475D02*
X036898Y002475D01*
X036925Y002562D02*
X027905Y002562D01*
X027905Y002680D02*
X036961Y002680D01*
X036998Y002799D02*
X035266Y002799D01*
X035233Y002785D02*
X035394Y002852D01*
X035518Y002976D01*
X035585Y003138D01*
X035585Y003833D01*
X035522Y003985D01*
X035535Y003985D01*
X035536Y003986D01*
X035545Y003986D01*
X035633Y004023D01*
X035644Y004034D01*
X035657Y004022D01*
X035745Y003985D01*
X036325Y003985D01*
X036414Y004022D01*
X036481Y004089D01*
X036487Y004104D01*
X036569Y004022D01*
X036657Y003985D01*
X036753Y003985D01*
X036897Y003985D01*
X036993Y003985D01*
X037081Y004022D01*
X037165Y004106D01*
X037172Y004089D01*
X037239Y004022D01*
X037327Y003985D01*
X037819Y003985D01*
X037820Y003985D01*
X037866Y003985D01*
X037913Y003985D01*
X037914Y003986D01*
X037915Y003986D01*
X037958Y004004D01*
X038001Y004022D01*
X038002Y004023D01*
X038003Y004023D01*
X038035Y004055D01*
X038069Y004089D01*
X038069Y004090D01*
X038070Y004091D01*
X038087Y004133D01*
X038095Y004153D01*
X038150Y004094D01*
X038152Y004089D01*
X038182Y004059D01*
X038211Y004027D01*
X038216Y004025D01*
X038219Y004022D01*
X038259Y004005D01*
X038298Y003987D01*
X038303Y003987D01*
X038307Y003985D01*
X038350Y003985D01*
X038393Y003983D01*
X038398Y003985D01*
X038557Y003985D01*
X038653Y003985D01*
X038665Y003990D01*
X038677Y003985D01*
X038773Y003985D01*
X038861Y004022D01*
X038929Y004089D01*
X038954Y004151D01*
X039075Y004025D01*
X039163Y003986D01*
X039258Y003984D01*
X039347Y004019D01*
X039416Y004085D01*
X039454Y004173D01*
X039456Y004268D01*
X039421Y004357D01*
X039370Y004411D01*
X039419Y004459D01*
X039455Y004547D01*
X039455Y004643D01*
X039455Y004893D01*
X039419Y004981D01*
X039351Y005049D01*
X039231Y005169D01*
X039143Y005205D01*
X039047Y005205D01*
X038677Y005205D01*
X038665Y005200D01*
X038653Y005205D01*
X038413Y005205D01*
X038317Y005205D01*
X038229Y005169D01*
X038045Y004985D01*
X037939Y005091D01*
X037871Y005159D01*
X037783Y005195D01*
X037543Y005195D01*
X037447Y005195D01*
X037359Y005159D01*
X037215Y005015D01*
X037201Y005029D01*
X037081Y005149D01*
X036993Y005185D01*
X036897Y005185D01*
X036657Y005185D01*
X036569Y005149D01*
X036502Y005081D01*
X036382Y004961D01*
X036374Y004943D01*
X036169Y005149D01*
X036080Y005185D01*
X035985Y005185D01*
X035897Y005149D01*
X035829Y005081D01*
X035793Y004993D01*
X035793Y004986D01*
X035793Y004985D01*
X035793Y004465D01*
X035745Y004465D01*
X035657Y004429D01*
X035644Y004416D01*
X035471Y004585D01*
X035543Y004585D01*
X035631Y004622D01*
X035699Y004689D01*
X035735Y004777D01*
X035735Y004873D01*
X035699Y004961D01*
X035569Y005091D01*
X035501Y005159D01*
X035413Y005195D01*
X035353Y005195D01*
X035394Y005212D01*
X035518Y005336D01*
X035585Y005498D01*
X035585Y006193D01*
X035518Y006354D01*
X035394Y006478D01*
X035233Y006545D01*
X035058Y006545D01*
X034896Y006478D01*
X034772Y006354D01*
X034705Y006193D01*
X034705Y005498D01*
X034772Y005336D01*
X034896Y005212D01*
X035007Y005166D01*
X034989Y005159D01*
X034922Y005091D01*
X034802Y004971D01*
X034765Y004883D01*
X034765Y004873D01*
X034765Y004752D01*
X034765Y004750D01*
X034765Y004705D01*
X034765Y004657D01*
X034766Y004656D01*
X034766Y004655D01*
X034784Y004613D01*
X034802Y004569D01*
X034803Y004568D01*
X034803Y004567D01*
X034836Y004535D01*
X034869Y004502D01*
X034870Y004501D01*
X034921Y004451D01*
X034867Y004429D01*
X034799Y004361D01*
X034763Y004273D01*
X034763Y004177D01*
X034799Y004089D01*
X034833Y004055D01*
X034772Y003994D01*
X034705Y003833D01*
X034705Y003138D01*
X034772Y002976D01*
X034896Y002852D01*
X035058Y002785D01*
X035233Y002785D01*
X035024Y002799D02*
X034286Y002799D01*
X034480Y002918D02*
X034831Y002918D01*
X034747Y003036D02*
X034563Y003036D01*
X034605Y003155D02*
X034705Y003155D01*
X034705Y003273D02*
X034605Y003273D01*
X034605Y003392D02*
X034705Y003392D01*
X034705Y003510D02*
X034605Y003510D01*
X034605Y003629D02*
X034705Y003629D01*
X034705Y003747D02*
X034605Y003747D01*
X034591Y003866D02*
X034719Y003866D01*
X034768Y003984D02*
X034542Y003984D01*
X034430Y004103D02*
X034794Y004103D01*
X034763Y004221D02*
X029355Y004221D01*
X029355Y004340D02*
X034791Y004340D01*
X034914Y004459D02*
X029244Y004459D01*
X029125Y004577D02*
X034798Y004577D01*
X034765Y004696D02*
X027905Y004696D01*
X027905Y004577D02*
X028705Y004577D01*
X028586Y004459D02*
X027905Y004459D01*
X027905Y004340D02*
X028475Y004340D01*
X028475Y004221D02*
X027905Y004221D01*
X027905Y004103D02*
X028475Y004103D01*
X028475Y003984D02*
X027905Y003984D01*
X027905Y003866D02*
X028592Y003866D01*
X028711Y003747D02*
X027905Y003747D01*
X027905Y003036D02*
X029725Y003036D01*
X029791Y002918D02*
X027905Y002918D01*
X027905Y002799D02*
X029909Y002799D01*
X030435Y002325D02*
X036898Y002325D01*
X036898Y002206D02*
X030559Y002206D01*
X030624Y002088D02*
X036898Y002088D01*
X036909Y001969D02*
X030653Y001969D01*
X030655Y001954D02*
X030655Y001954D01*
X030655Y001877D02*
X030655Y001877D01*
X030651Y001851D02*
X036946Y001851D01*
X036982Y001732D02*
X030621Y001732D01*
X030552Y001614D02*
X037019Y001614D01*
X037037Y001554D02*
X037037Y001554D01*
X037077Y001495D02*
X030420Y001495D01*
X027905Y001376D02*
X037158Y001376D01*
X037239Y001258D02*
X027847Y001258D01*
X027729Y001139D02*
X037335Y001139D01*
X037302Y001165D02*
X037302Y001165D01*
X037302Y001165D01*
X037483Y001021D02*
X027610Y001021D01*
X027492Y000902D02*
X037632Y000902D01*
X037034Y002918D02*
X035460Y002918D01*
X035543Y003036D02*
X037112Y003036D01*
X037193Y003155D02*
X035585Y003155D01*
X035585Y003273D02*
X037274Y003273D01*
X037399Y003392D02*
X035585Y003392D01*
X035585Y003510D02*
X037548Y003510D01*
X037670Y003608D02*
X037670Y003608D01*
X037723Y003629D02*
X035585Y003629D01*
X035585Y003747D02*
X038025Y003747D01*
X038109Y003780D02*
X038109Y003780D01*
X038075Y004103D02*
X038141Y004103D01*
X038355Y004225D02*
X038235Y004355D01*
X038235Y004595D01*
X038485Y004595D01*
X038725Y004475D02*
X038975Y004475D01*
X039215Y004225D01*
X039455Y004221D02*
X039855Y004221D01*
X039855Y004103D02*
X039424Y004103D01*
X039258Y003984D02*
X039855Y003984D01*
X039855Y003866D02*
X035571Y003866D01*
X035522Y003984D02*
X038370Y003984D01*
X038396Y003984D02*
X039252Y003984D01*
X039000Y004103D02*
X038934Y004103D01*
X038725Y004225D02*
X038725Y004475D01*
X038725Y004965D01*
X039095Y004965D01*
X039215Y004845D01*
X039215Y004595D01*
X039095Y004475D01*
X038975Y004475D01*
X038725Y004475D02*
X038725Y004845D01*
X038605Y004965D01*
X038365Y004965D01*
X038245Y004845D01*
X038112Y005051D02*
X037978Y005051D01*
X037844Y005170D02*
X038232Y005170D01*
X037865Y004825D02*
X037735Y004955D01*
X037495Y004955D01*
X037375Y004835D01*
X037375Y004825D02*
X037375Y004705D01*
X037865Y004225D01*
X037375Y004225D01*
X037166Y004103D02*
X037162Y004103D01*
X036945Y004225D02*
X037065Y004345D01*
X036595Y004825D01*
X036585Y004825D02*
X036705Y004945D01*
X036945Y004945D01*
X037065Y004825D01*
X037065Y004345D01*
X036945Y004225D02*
X036705Y004225D01*
X036585Y004345D01*
X036585Y004825D01*
X036472Y005051D02*
X036266Y005051D01*
X036117Y005170D02*
X036620Y005170D01*
X037030Y005170D02*
X037386Y005170D01*
X037252Y005051D02*
X037178Y005051D01*
X036275Y004703D02*
X036033Y004945D01*
X036033Y004938D02*
X036033Y004233D01*
X035793Y004225D02*
X036278Y004225D01*
X036487Y004103D02*
X036488Y004103D01*
X035729Y004459D02*
X035600Y004459D01*
X035479Y004577D02*
X035793Y004577D01*
X035793Y004696D02*
X035701Y004696D01*
X035735Y004814D02*
X035793Y004814D01*
X035793Y004933D02*
X035710Y004933D01*
X035608Y005051D02*
X035817Y005051D01*
X035948Y005170D02*
X035474Y005170D01*
X035471Y005288D02*
X039855Y005288D01*
X039855Y005170D02*
X039228Y005170D01*
X039348Y005051D02*
X039855Y005051D01*
X039855Y004933D02*
X039439Y004933D01*
X039455Y004814D02*
X039855Y004814D01*
X039855Y004696D02*
X039455Y004696D01*
X039455Y004577D02*
X039855Y004577D01*
X039855Y004459D02*
X039418Y004459D01*
X039428Y004340D02*
X039855Y004340D01*
X039855Y003747D02*
X038877Y003747D01*
X039180Y003629D02*
X039855Y003629D01*
X039855Y003510D02*
X039385Y003510D01*
X039446Y003475D02*
X039446Y003475D01*
X039523Y003392D02*
X039855Y003392D01*
X039855Y003273D02*
X039633Y003273D01*
X039743Y003155D02*
X039855Y003155D01*
X039766Y003130D02*
X039766Y003130D01*
X039811Y003036D02*
X039855Y003036D01*
X038605Y004225D02*
X038725Y004345D01*
X038725Y004475D01*
X038605Y004225D02*
X038355Y004225D01*
X039855Y005407D02*
X035548Y005407D01*
X035585Y005525D02*
X039855Y005525D01*
X039855Y005644D02*
X035585Y005644D01*
X035585Y005763D02*
X039855Y005763D01*
X039855Y005881D02*
X035585Y005881D01*
X035585Y006000D02*
X039855Y006000D01*
X039855Y006118D02*
X035585Y006118D01*
X035567Y006237D02*
X039855Y006237D01*
X039855Y006355D02*
X035517Y006355D01*
X035399Y006474D02*
X039855Y006474D01*
X039855Y006592D02*
X034077Y006592D01*
X034419Y006474D02*
X034892Y006474D01*
X034773Y006355D02*
X034537Y006355D01*
X034587Y006237D02*
X034723Y006237D01*
X034705Y006118D02*
X034605Y006118D01*
X034605Y006000D02*
X034705Y006000D01*
X034705Y005881D02*
X034605Y005881D01*
X034605Y005763D02*
X034705Y005763D01*
X034705Y005644D02*
X034605Y005644D01*
X034605Y005525D02*
X034705Y005525D01*
X034743Y005407D02*
X034568Y005407D01*
X034491Y005288D02*
X034820Y005288D01*
X034998Y005170D02*
X034312Y005170D01*
X034018Y005170D02*
X033248Y005170D01*
X033205Y005170D02*
X033165Y005170D01*
X033165Y005165D02*
X033165Y005825D01*
X032765Y005825D01*
X032765Y005552D01*
X032776Y005487D01*
X032796Y005424D01*
X032826Y005365D01*
X032865Y005312D01*
X032912Y005265D01*
X032965Y005226D01*
X033024Y005196D01*
X033087Y005176D01*
X033152Y005165D01*
X033165Y005165D01*
X033123Y005170D02*
X029355Y005170D01*
X029355Y005288D02*
X032888Y005288D01*
X032805Y005407D02*
X029296Y005407D01*
X029177Y005525D02*
X032769Y005525D01*
X032765Y005644D02*
X029155Y005644D01*
X029155Y005763D02*
X029946Y005763D01*
X029827Y005881D02*
X029155Y005881D01*
X028675Y005881D02*
X027605Y005881D01*
X027582Y005763D02*
X028675Y005763D01*
X028675Y005644D02*
X027526Y005644D01*
X027405Y005525D02*
X028653Y005525D01*
X028535Y005407D02*
X027405Y005407D01*
X027405Y005288D02*
X028475Y005288D01*
X028475Y005170D02*
X027500Y005170D01*
X027618Y005051D02*
X028475Y005051D01*
X028525Y004933D02*
X027737Y004933D01*
X027856Y004814D02*
X028644Y004814D01*
X028915Y005165D02*
X028915Y006165D01*
X030165Y006165D01*
X029852Y006474D02*
X027605Y006474D01*
X027572Y006592D02*
X029970Y006592D01*
X030360Y006592D02*
X030970Y006592D01*
X030852Y006474D02*
X030479Y006474D01*
X030597Y006355D02*
X030733Y006355D01*
X030725Y006237D02*
X030605Y006237D01*
X030605Y006118D02*
X030725Y006118D01*
X030725Y006000D02*
X030605Y006000D01*
X030503Y005881D02*
X030827Y005881D01*
X030946Y005763D02*
X030385Y005763D01*
X031165Y006165D02*
X031665Y006665D01*
X033665Y006665D01*
X034165Y006165D01*
X034165Y005845D01*
X033725Y005881D02*
X033605Y005881D01*
X033605Y005763D02*
X033725Y005763D01*
X033725Y005644D02*
X033605Y005644D01*
X033601Y005525D02*
X033725Y005525D01*
X033763Y005407D02*
X033566Y005407D01*
X033482Y005288D02*
X033840Y005288D01*
X033205Y005288D02*
X033165Y005288D01*
X033165Y005407D02*
X033205Y005407D01*
X033205Y005525D02*
X033165Y005525D01*
X033165Y005644D02*
X033205Y005644D01*
X033205Y005763D02*
X033165Y005763D01*
X032765Y005763D02*
X031385Y005763D01*
X031503Y005881D02*
X032765Y005881D01*
X032765Y006000D02*
X031605Y006000D01*
X031605Y006118D02*
X032765Y006118D01*
X032786Y006237D02*
X031605Y006237D01*
X031695Y006355D02*
X032848Y006355D01*
X033523Y006355D02*
X033636Y006355D01*
X033584Y006237D02*
X033743Y006237D01*
X033725Y006118D02*
X033605Y006118D01*
X033605Y006000D02*
X033725Y006000D01*
X034882Y005051D02*
X029355Y005051D01*
X029305Y004933D02*
X034786Y004933D01*
X034765Y004814D02*
X029186Y004814D01*
X027665Y004665D02*
X027165Y005165D01*
X027165Y006165D01*
X028915Y006165D01*
X027502Y006711D02*
X031372Y006711D01*
X031490Y006829D02*
X027339Y006829D01*
X026415Y007415D02*
X032915Y007415D01*
X033165Y007665D01*
X037915Y007665D01*
X036165Y009793D02*
X036105Y009793D01*
X036047Y009912D02*
X036041Y009912D01*
X035975Y010030D02*
X035922Y010030D01*
X034165Y011165D02*
X033665Y010665D01*
X033665Y009665D01*
X033225Y009674D02*
X033155Y009674D01*
X033155Y009556D02*
X033225Y009556D01*
X033271Y009437D02*
X033155Y009437D01*
X033155Y009319D02*
X033389Y009319D01*
X032675Y009556D02*
X032647Y009556D01*
X032675Y009674D02*
X032105Y009674D01*
X032105Y009556D02*
X032184Y009556D01*
X032105Y009483D02*
X031847Y009225D01*
X031483Y009225D01*
X031225Y009483D01*
X031225Y009847D01*
X031425Y010047D01*
X031425Y010725D01*
X031233Y010725D01*
X030975Y010983D01*
X030975Y011347D01*
X031233Y011605D01*
X031597Y011605D01*
X031855Y011347D01*
X031855Y011065D01*
X031869Y011051D01*
X031905Y010963D01*
X031905Y010867D01*
X031905Y010047D01*
X032105Y009847D01*
X032105Y009483D01*
X032065Y009437D02*
X032060Y009437D01*
X031975Y009319D02*
X031941Y009319D01*
X031665Y009665D02*
X031665Y010915D01*
X031415Y011165D01*
X031080Y011453D02*
X030500Y011453D01*
X030605Y011334D02*
X030975Y011334D01*
X030975Y011216D02*
X030605Y011216D01*
X030605Y011097D02*
X030975Y011097D01*
X030980Y010978D02*
X030601Y010978D01*
X030482Y010860D02*
X031098Y010860D01*
X031217Y010741D02*
X030364Y010741D01*
X029962Y010623D02*
X031425Y010623D01*
X031425Y010504D02*
X029905Y010504D01*
X029905Y010386D02*
X031425Y010386D01*
X031425Y010267D02*
X029905Y010267D01*
X029905Y010149D02*
X031425Y010149D01*
X031408Y010030D02*
X030894Y010030D01*
X030839Y010085D02*
X030685Y010085D01*
X030685Y009685D01*
X031085Y009685D01*
X031085Y009839D01*
X030839Y010085D01*
X030685Y010030D02*
X030645Y010030D01*
X030645Y010085D02*
X030645Y009685D01*
X030645Y009645D01*
X030685Y009645D01*
X030685Y009245D01*
X030839Y009245D01*
X031085Y009491D01*
X031085Y009645D01*
X030685Y009645D01*
X030685Y009685D01*
X030645Y009685D01*
X030245Y009685D01*
X030245Y009839D01*
X030491Y010085D01*
X030645Y010085D01*
X030645Y009912D02*
X030685Y009912D01*
X030685Y009793D02*
X030645Y009793D01*
X030645Y009674D02*
X030105Y009674D01*
X030105Y009556D02*
X030245Y009556D01*
X030245Y009491D02*
X030491Y009245D01*
X030645Y009245D01*
X030645Y009645D01*
X030245Y009645D01*
X030245Y009491D01*
X030299Y009437D02*
X030060Y009437D01*
X029941Y009319D02*
X030418Y009319D01*
X030645Y009319D02*
X030685Y009319D01*
X030685Y009437D02*
X030645Y009437D01*
X030645Y009556D02*
X030685Y009556D01*
X030685Y009674D02*
X031225Y009674D01*
X031225Y009556D02*
X031085Y009556D01*
X031031Y009437D02*
X031271Y009437D01*
X031389Y009319D02*
X030913Y009319D01*
X031085Y009793D02*
X031225Y009793D01*
X031289Y009912D02*
X031013Y009912D01*
X030436Y010030D02*
X029922Y010030D01*
X030041Y009912D02*
X030318Y009912D01*
X030245Y009793D02*
X030105Y009793D01*
X029665Y009665D02*
X029665Y010665D01*
X030165Y011165D01*
X030381Y011571D02*
X031199Y011571D01*
X031631Y011571D02*
X032175Y011571D01*
X032175Y011453D02*
X031750Y011453D01*
X031855Y011334D02*
X032175Y011334D01*
X032175Y011216D02*
X031855Y011216D01*
X031855Y011097D02*
X032175Y011097D01*
X032175Y010978D02*
X031899Y010978D01*
X031905Y010860D02*
X032175Y010860D01*
X032175Y010741D02*
X031905Y010741D01*
X031905Y010623D02*
X032175Y010623D01*
X032132Y010504D02*
X031905Y010504D01*
X031905Y010386D02*
X032014Y010386D01*
X031975Y010267D02*
X031905Y010267D01*
X031905Y010149D02*
X031975Y010149D01*
X031975Y010030D02*
X031922Y010030D01*
X032041Y009912D02*
X032047Y009912D01*
X032105Y009793D02*
X032165Y009793D01*
X032665Y009793D02*
X032675Y009793D01*
X033155Y009793D02*
X033225Y009793D01*
X033289Y009912D02*
X033155Y009912D01*
X033155Y010030D02*
X033408Y010030D01*
X033425Y010149D02*
X033155Y010149D01*
X033155Y010267D02*
X033425Y010267D01*
X033425Y010386D02*
X033155Y010386D01*
X033155Y010504D02*
X033425Y010504D01*
X033425Y010623D02*
X033155Y010623D01*
X033155Y010741D02*
X033437Y010741D01*
X033521Y010860D02*
X033232Y010860D01*
X033351Y010978D02*
X033639Y010978D01*
X033725Y011097D02*
X033355Y011097D01*
X033355Y011216D02*
X033725Y011216D01*
X033725Y011334D02*
X033355Y011334D01*
X033250Y011453D02*
X033830Y011453D01*
X033949Y011571D02*
X033155Y011571D01*
X033415Y012665D02*
X034915Y012665D01*
X035415Y013165D01*
X035415Y014165D01*
X035655Y013705D02*
X035675Y013705D01*
X035675Y013586D02*
X035655Y013586D01*
X035655Y013468D02*
X035675Y013468D01*
X035675Y013349D02*
X035655Y013349D01*
X035655Y013231D02*
X035675Y013231D01*
X035675Y013112D02*
X035653Y013112D01*
X035675Y012994D02*
X035583Y012994D01*
X035675Y012875D02*
X035465Y012875D01*
X035346Y012757D02*
X035675Y012757D01*
X035675Y012638D02*
X035227Y012638D01*
X035109Y012520D02*
X035675Y012520D01*
X036155Y012994D02*
X036202Y012994D01*
X036155Y013112D02*
X036320Y013112D01*
X034670Y015009D02*
X033746Y015009D01*
X033864Y015127D02*
X034801Y015127D01*
X034712Y015051D02*
X034712Y015051D01*
X032415Y014415D02*
X032415Y010165D01*
X032281Y008371D02*
X028960Y008371D01*
X028841Y008252D02*
X032163Y008252D01*
X032604Y008015D02*
X032676Y008015D01*
X032723Y008133D02*
X032794Y008133D01*
X032841Y008252D02*
X032913Y008252D01*
X032962Y008301D02*
X032962Y008301D01*
X032960Y008371D02*
X033034Y008371D01*
X028915Y008665D02*
X028915Y011165D01*
X028915Y012165D01*
X029415Y012665D01*
X030915Y012665D01*
X031415Y013165D01*
X031415Y014165D01*
X028415Y014415D02*
X027915Y014915D01*
X026915Y014915D01*
X026165Y014165D01*
X024915Y014165D02*
X024915Y014518D01*
X026953Y016555D01*
X027915Y017758D02*
X027915Y014915D01*
X027777Y014425D02*
X028066Y014425D01*
X028175Y014316D01*
X028175Y010547D01*
X027975Y010347D01*
X027975Y009983D01*
X028233Y009725D01*
X028597Y009725D01*
X028675Y009803D01*
X028675Y009527D01*
X028597Y009605D01*
X028233Y009605D01*
X027975Y009347D01*
X027975Y008983D01*
X028233Y008725D01*
X028597Y008725D01*
X028675Y008803D01*
X028675Y008765D01*
X028316Y008405D01*
X024995Y008405D01*
X025119Y008529D01*
X025155Y008617D01*
X025155Y008713D01*
X025155Y010783D01*
X025355Y010983D01*
X025355Y011347D01*
X025155Y011547D01*
X025155Y012066D01*
X025515Y012425D01*
X026963Y012425D01*
X027051Y012462D01*
X027119Y012529D01*
X027619Y013029D01*
X027655Y013117D01*
X027655Y013213D01*
X027655Y013783D01*
X027855Y013983D01*
X027855Y014347D01*
X027777Y014425D01*
X027786Y014416D02*
X028075Y014416D01*
X028175Y014298D02*
X027855Y014298D01*
X027855Y014179D02*
X028175Y014179D01*
X028175Y014061D02*
X027855Y014061D01*
X027814Y013942D02*
X028175Y013942D01*
X028175Y013824D02*
X027696Y013824D01*
X027655Y013705D02*
X028175Y013705D01*
X028175Y013586D02*
X027655Y013586D01*
X027655Y013468D02*
X028175Y013468D01*
X028175Y013349D02*
X027655Y013349D01*
X027655Y013231D02*
X028175Y013231D01*
X028175Y013112D02*
X027653Y013112D01*
X027583Y012994D02*
X028175Y012994D01*
X028175Y012875D02*
X027465Y012875D01*
X027346Y012757D02*
X028175Y012757D01*
X028175Y012638D02*
X027227Y012638D01*
X027109Y012520D02*
X028175Y012520D01*
X028175Y012401D02*
X025490Y012401D01*
X025372Y012282D02*
X028175Y012282D01*
X028175Y012164D02*
X025253Y012164D01*
X025155Y012045D02*
X028175Y012045D01*
X028175Y011927D02*
X025155Y011927D01*
X025155Y011808D02*
X028175Y011808D01*
X028175Y011690D02*
X025155Y011690D01*
X025155Y011571D02*
X025949Y011571D01*
X025983Y011605D02*
X025725Y011347D01*
X025725Y011065D01*
X025462Y010801D01*
X025425Y010713D01*
X025425Y010617D01*
X025425Y010047D01*
X025225Y009847D01*
X025225Y009483D01*
X025483Y009225D01*
X025847Y009225D01*
X026105Y009483D01*
X026105Y009847D01*
X025905Y010047D01*
X025905Y010566D01*
X026065Y010725D01*
X026347Y010725D01*
X026605Y010983D01*
X026605Y011347D01*
X026347Y011605D01*
X025983Y011605D01*
X025830Y011453D02*
X025250Y011453D01*
X025355Y011334D02*
X025725Y011334D01*
X025725Y011216D02*
X025355Y011216D01*
X025355Y011097D02*
X025725Y011097D01*
X025639Y010978D02*
X025351Y010978D01*
X025232Y010860D02*
X025521Y010860D01*
X025437Y010741D02*
X025155Y010741D01*
X025155Y010623D02*
X025425Y010623D01*
X025425Y010504D02*
X025155Y010504D01*
X025155Y010386D02*
X025425Y010386D01*
X025425Y010267D02*
X025155Y010267D01*
X025155Y010149D02*
X025425Y010149D01*
X025408Y010030D02*
X025155Y010030D01*
X025155Y009912D02*
X025289Y009912D01*
X025225Y009793D02*
X025155Y009793D01*
X025155Y009674D02*
X025225Y009674D01*
X025225Y009556D02*
X025155Y009556D01*
X025155Y009437D02*
X025271Y009437D01*
X025155Y009319D02*
X025389Y009319D01*
X025155Y009200D02*
X027975Y009200D01*
X027975Y009082D02*
X025155Y009082D01*
X025155Y008963D02*
X027995Y008963D01*
X028113Y008845D02*
X025155Y008845D01*
X025155Y008726D02*
X028232Y008726D01*
X028400Y008489D02*
X025078Y008489D01*
X025151Y008608D02*
X028518Y008608D01*
X028598Y008726D02*
X028637Y008726D01*
X028915Y008665D02*
X028415Y008165D01*
X024665Y008165D01*
X023165Y006665D01*
X023165Y007165D02*
X022665Y007165D01*
X022165Y006665D01*
X022165Y006165D01*
X022165Y005165D01*
X020665Y003665D01*
X020665Y001915D01*
X020225Y001969D02*
X020105Y001969D01*
X020105Y001851D02*
X020225Y001851D01*
X020225Y001732D02*
X020105Y001732D01*
X020105Y001614D02*
X020225Y001614D01*
X020255Y001495D02*
X020075Y001495D01*
X020009Y001376D02*
X020322Y001376D01*
X020474Y001258D02*
X019856Y001258D01*
X019474Y001258D02*
X018856Y001258D01*
X019009Y001376D02*
X019322Y001376D01*
X019255Y001495D02*
X019075Y001495D01*
X019105Y001614D02*
X019225Y001614D01*
X019225Y001732D02*
X019105Y001732D01*
X019105Y001851D02*
X019225Y001851D01*
X019225Y001969D02*
X019105Y001969D01*
X019105Y002088D02*
X019225Y002088D01*
X019225Y002206D02*
X019105Y002206D01*
X019079Y002325D02*
X019251Y002325D01*
X019311Y002443D02*
X019019Y002443D01*
X019441Y002558D02*
X019538Y002656D01*
X019605Y002818D01*
X019605Y003513D01*
X019538Y003674D01*
X019526Y003687D01*
X021301Y005462D01*
X021341Y005502D01*
X021414Y005532D01*
X021538Y005656D01*
X021605Y005818D01*
X021605Y006513D01*
X021538Y006674D01*
X021414Y006798D01*
X021253Y006865D01*
X021078Y006865D01*
X020916Y006798D01*
X020792Y006674D01*
X020725Y006513D01*
X020725Y005818D01*
X020792Y005656D01*
X020804Y005644D01*
X020495Y005644D01*
X020486Y005632D02*
X020524Y005685D01*
X020554Y005744D01*
X020575Y005807D01*
X020585Y005872D01*
X020585Y006145D01*
X020185Y006145D01*
X020185Y005485D01*
X020198Y005485D01*
X020264Y005496D01*
X020326Y005516D01*
X020385Y005546D01*
X020439Y005585D01*
X020486Y005632D01*
X020560Y005763D02*
X020748Y005763D01*
X020725Y005881D02*
X020585Y005881D01*
X020585Y006000D02*
X020725Y006000D01*
X020725Y006118D02*
X020585Y006118D01*
X020585Y006185D02*
X020185Y006185D01*
X020145Y006185D01*
X020145Y006145D01*
X019745Y006145D01*
X019745Y005872D01*
X019756Y005807D01*
X019776Y005744D01*
X019806Y005685D01*
X019845Y005632D01*
X019892Y005585D01*
X019945Y005546D01*
X020004Y005516D01*
X020067Y005496D01*
X020132Y005485D01*
X020145Y005485D01*
X020145Y006145D01*
X020185Y006145D01*
X020185Y006185D01*
X020185Y006845D01*
X020198Y006845D01*
X020264Y006835D01*
X020326Y006814D01*
X020385Y006784D01*
X020439Y006746D01*
X020486Y006699D01*
X020524Y006645D01*
X020554Y006586D01*
X020575Y006524D01*
X020585Y006458D01*
X020585Y006185D01*
X020585Y006237D02*
X020725Y006237D01*
X020725Y006355D02*
X020585Y006355D01*
X020583Y006474D02*
X020725Y006474D01*
X020758Y006592D02*
X020551Y006592D01*
X020473Y006711D02*
X020829Y006711D01*
X020991Y006829D02*
X020280Y006829D01*
X020185Y006829D02*
X020145Y006829D01*
X020145Y006845D02*
X020132Y006845D01*
X020067Y006835D01*
X020004Y006814D01*
X019945Y006784D01*
X019892Y006746D01*
X019845Y006699D01*
X019806Y006645D01*
X019776Y006586D01*
X019756Y006524D01*
X019745Y006458D01*
X019745Y006185D01*
X020145Y006185D01*
X020145Y006845D01*
X020050Y006829D02*
X019339Y006829D01*
X019414Y006798D02*
X019253Y006865D01*
X019078Y006865D01*
X018916Y006798D01*
X018792Y006674D01*
X018725Y006513D01*
X018725Y005818D01*
X018792Y005656D01*
X018916Y005532D01*
X019078Y005465D01*
X019253Y005465D01*
X019414Y005532D01*
X019538Y005656D01*
X019605Y005818D01*
X019605Y006513D01*
X019538Y006674D01*
X019414Y006798D01*
X019502Y006711D02*
X019857Y006711D01*
X019779Y006592D02*
X019572Y006592D01*
X019605Y006474D02*
X019748Y006474D01*
X019745Y006355D02*
X019605Y006355D01*
X019605Y006237D02*
X019745Y006237D01*
X019745Y006118D02*
X019605Y006118D01*
X019605Y006000D02*
X019745Y006000D01*
X019745Y005881D02*
X019605Y005881D01*
X019582Y005763D02*
X019770Y005763D01*
X019836Y005644D02*
X019526Y005644D01*
X019398Y005525D02*
X019985Y005525D01*
X020145Y005525D02*
X020185Y005525D01*
X020185Y005644D02*
X020145Y005644D01*
X020145Y005763D02*
X020185Y005763D01*
X020185Y005881D02*
X020145Y005881D01*
X020145Y006000D02*
X020185Y006000D01*
X020185Y006118D02*
X020145Y006118D01*
X020145Y006237D02*
X020185Y006237D01*
X020185Y006355D02*
X020145Y006355D01*
X020145Y006474D02*
X020185Y006474D01*
X020185Y006592D02*
X020145Y006592D01*
X020145Y006711D02*
X020185Y006711D01*
X019977Y007199D02*
X020131Y007354D01*
X020215Y007556D01*
X020215Y007775D01*
X020131Y007977D01*
X019977Y008131D01*
X019775Y008215D01*
X019556Y008215D01*
X019354Y008131D01*
X019199Y007977D01*
X019155Y007871D01*
X019118Y007943D01*
X019069Y008010D01*
X019010Y008069D01*
X018943Y008118D01*
X018869Y008156D01*
X018789Y008182D01*
X018707Y008195D01*
X018684Y008195D01*
X018684Y007684D01*
X018646Y007684D01*
X018646Y008195D01*
X018623Y008195D01*
X018541Y008182D01*
X018462Y008156D01*
X018387Y008118D01*
X018320Y008069D01*
X018261Y008010D01*
X018212Y007943D01*
X018175Y007871D01*
X018131Y007977D01*
X017977Y008131D01*
X017775Y008215D01*
X017556Y008215D01*
X017354Y008131D01*
X017199Y007977D01*
X017155Y007871D01*
X017155Y010783D01*
X017355Y010983D01*
X017355Y011347D01*
X017155Y011547D01*
X017155Y012066D01*
X017515Y012425D01*
X018963Y012425D01*
X019051Y012462D01*
X019119Y012529D01*
X019619Y013029D01*
X019655Y013117D01*
X019655Y013213D01*
X019655Y013783D01*
X019855Y013983D01*
X019855Y014347D01*
X019777Y014425D01*
X020066Y014425D01*
X020175Y014316D01*
X020175Y010547D01*
X019975Y010347D01*
X019975Y009983D01*
X020233Y009725D01*
X020597Y009725D01*
X020855Y009983D01*
X020855Y010347D01*
X020655Y010547D01*
X020655Y010803D01*
X020733Y010725D01*
X021097Y010725D01*
X021355Y010983D01*
X021355Y011347D01*
X021155Y011547D01*
X021155Y012066D01*
X021515Y012425D01*
X022675Y012425D01*
X022675Y010617D01*
X022712Y010529D01*
X022779Y010462D01*
X022925Y010316D01*
X022925Y009999D01*
X022839Y010085D01*
X022685Y010085D01*
X022685Y009685D01*
X022645Y009685D01*
X022645Y009645D01*
X022685Y009645D01*
X022685Y009245D01*
X022839Y009245D01*
X022925Y009331D01*
X022925Y008117D01*
X022932Y008102D01*
X022932Y007992D01*
X022839Y008085D01*
X022685Y008085D01*
X022685Y007685D01*
X022645Y007685D01*
X022645Y007645D01*
X022245Y007645D01*
X022245Y007491D01*
X022449Y007288D01*
X021989Y006828D01*
X021916Y006798D01*
X021792Y006674D01*
X021725Y006513D01*
X021725Y005818D01*
X021792Y005656D01*
X021916Y005532D01*
X021925Y005528D01*
X021925Y005265D01*
X020529Y003869D01*
X020462Y003801D01*
X020447Y003766D01*
X020414Y003798D01*
X020253Y003865D01*
X020078Y003865D01*
X019916Y003798D01*
X019792Y003674D01*
X019725Y003513D01*
X019725Y002818D01*
X019792Y002656D01*
X019890Y002558D01*
X019753Y002615D01*
X019578Y002615D01*
X019441Y002558D01*
X019444Y002562D02*
X019449Y002562D01*
X019548Y002680D02*
X019782Y002680D01*
X019733Y002799D02*
X019597Y002799D01*
X019605Y002918D02*
X019725Y002918D01*
X019725Y003036D02*
X019605Y003036D01*
X019605Y003155D02*
X019725Y003155D01*
X019725Y003273D02*
X019605Y003273D01*
X019605Y003392D02*
X019725Y003392D01*
X019725Y003510D02*
X019605Y003510D01*
X019557Y003629D02*
X019773Y003629D01*
X019865Y003747D02*
X019587Y003747D01*
X019705Y003866D02*
X020526Y003866D01*
X020645Y003984D02*
X019824Y003984D01*
X019942Y004103D02*
X020764Y004103D01*
X020882Y004221D02*
X020061Y004221D01*
X020179Y004340D02*
X021001Y004340D01*
X021119Y004459D02*
X020298Y004459D01*
X020417Y004577D02*
X021238Y004577D01*
X021356Y004696D02*
X020535Y004696D01*
X020654Y004814D02*
X021475Y004814D01*
X021593Y004933D02*
X020772Y004933D01*
X020891Y005051D02*
X021712Y005051D01*
X021830Y005170D02*
X021009Y005170D01*
X021128Y005288D02*
X021925Y005288D01*
X021925Y005407D02*
X021246Y005407D01*
X021398Y005525D02*
X021925Y005525D01*
X021804Y005644D02*
X021526Y005644D01*
X021582Y005763D02*
X021748Y005763D01*
X021725Y005881D02*
X021605Y005881D01*
X021605Y006000D02*
X021725Y006000D01*
X021725Y006118D02*
X021605Y006118D01*
X021605Y006237D02*
X021725Y006237D01*
X021725Y006355D02*
X021605Y006355D01*
X021605Y006474D02*
X021725Y006474D01*
X021758Y006592D02*
X021572Y006592D01*
X021502Y006711D02*
X021829Y006711D01*
X021990Y006829D02*
X021339Y006829D01*
X021483Y007225D02*
X021847Y007225D01*
X022105Y007483D01*
X022105Y007847D01*
X021847Y008105D01*
X021483Y008105D01*
X021225Y007847D01*
X021225Y007483D01*
X021483Y007225D01*
X021405Y007304D02*
X020081Y007304D01*
X020160Y007422D02*
X021286Y007422D01*
X021225Y007541D02*
X020209Y007541D01*
X020215Y007659D02*
X021225Y007659D01*
X021225Y007778D02*
X020214Y007778D01*
X020165Y007896D02*
X021274Y007896D01*
X021393Y008015D02*
X020093Y008015D01*
X019972Y008133D02*
X022925Y008133D01*
X022932Y008015D02*
X022909Y008015D01*
X022685Y008015D02*
X022645Y008015D01*
X022645Y008085D02*
X022491Y008085D01*
X022245Y007839D01*
X022245Y007685D01*
X022645Y007685D01*
X022645Y008085D01*
X022645Y007896D02*
X022685Y007896D01*
X022685Y007778D02*
X022645Y007778D01*
X022685Y007685D02*
X023085Y007685D01*
X023085Y007738D01*
X023087Y007736D01*
X023219Y007682D01*
X023342Y007682D01*
X023066Y007405D01*
X022999Y007405D01*
X023085Y007491D01*
X023085Y007645D01*
X022685Y007645D01*
X022685Y007685D01*
X022685Y007659D02*
X023320Y007659D01*
X023201Y007541D02*
X023085Y007541D01*
X023083Y007422D02*
X023016Y007422D01*
X023165Y007165D02*
X024415Y008415D01*
X024665Y008415D01*
X024915Y008665D01*
X024915Y011165D01*
X024915Y012165D01*
X025415Y012665D01*
X026915Y012665D01*
X027415Y013165D01*
X027415Y014165D01*
X028415Y014415D02*
X028415Y010165D01*
X027975Y010149D02*
X027905Y010149D01*
X027905Y010047D02*
X027905Y010867D01*
X027905Y010963D01*
X027869Y011051D01*
X027855Y011065D01*
X027855Y011347D01*
X027597Y011605D01*
X027233Y011605D01*
X026975Y011347D01*
X026975Y010983D01*
X027233Y010725D01*
X027425Y010725D01*
X027425Y010047D01*
X027225Y009847D01*
X027225Y009483D01*
X027483Y009225D01*
X027847Y009225D01*
X028105Y009483D01*
X028105Y009847D01*
X027905Y010047D01*
X027922Y010030D02*
X027975Y010030D01*
X028041Y009912D02*
X028047Y009912D01*
X028105Y009793D02*
X028165Y009793D01*
X028105Y009674D02*
X028675Y009674D01*
X028675Y009556D02*
X028647Y009556D01*
X028665Y009793D02*
X028675Y009793D01*
X028184Y009556D02*
X028105Y009556D01*
X028065Y009437D02*
X028060Y009437D01*
X027975Y009319D02*
X027941Y009319D01*
X027665Y009665D02*
X027665Y010915D01*
X027415Y011165D01*
X027080Y011453D02*
X026500Y011453D01*
X026605Y011334D02*
X026975Y011334D01*
X026975Y011216D02*
X026605Y011216D01*
X026605Y011097D02*
X026975Y011097D01*
X026980Y010978D02*
X026601Y010978D01*
X026482Y010860D02*
X027098Y010860D01*
X027217Y010741D02*
X026364Y010741D01*
X025962Y010623D02*
X027425Y010623D01*
X027425Y010504D02*
X025905Y010504D01*
X025905Y010386D02*
X027425Y010386D01*
X027425Y010267D02*
X025905Y010267D01*
X025905Y010149D02*
X027425Y010149D01*
X027408Y010030D02*
X026894Y010030D01*
X026839Y010085D02*
X026685Y010085D01*
X026685Y009685D01*
X027085Y009685D01*
X027085Y009839D01*
X026839Y010085D01*
X026685Y010030D02*
X026645Y010030D01*
X026645Y010085D02*
X026491Y010085D01*
X026245Y009839D01*
X026245Y009685D01*
X026645Y009685D01*
X026645Y009645D01*
X026685Y009645D01*
X026685Y009245D01*
X026839Y009245D01*
X027085Y009491D01*
X027085Y009645D01*
X026685Y009645D01*
X026685Y009685D01*
X026645Y009685D01*
X026645Y010085D01*
X026645Y009912D02*
X026685Y009912D01*
X026685Y009793D02*
X026645Y009793D01*
X026645Y009674D02*
X026105Y009674D01*
X026105Y009556D02*
X026245Y009556D01*
X026245Y009491D02*
X026491Y009245D01*
X026645Y009245D01*
X026645Y009645D01*
X026245Y009645D01*
X026245Y009491D01*
X026299Y009437D02*
X026060Y009437D01*
X025941Y009319D02*
X026418Y009319D01*
X026645Y009319D02*
X026685Y009319D01*
X026685Y009437D02*
X026645Y009437D01*
X026645Y009556D02*
X026685Y009556D01*
X026685Y009674D02*
X027225Y009674D01*
X027225Y009556D02*
X027085Y009556D01*
X027031Y009437D02*
X027271Y009437D01*
X027389Y009319D02*
X026913Y009319D01*
X027085Y009793D02*
X027225Y009793D01*
X027289Y009912D02*
X027013Y009912D01*
X026436Y010030D02*
X025922Y010030D01*
X026041Y009912D02*
X026318Y009912D01*
X026245Y009793D02*
X026105Y009793D01*
X025665Y009665D02*
X025665Y010665D01*
X026165Y011165D01*
X026381Y011571D02*
X027199Y011571D01*
X027631Y011571D02*
X028175Y011571D01*
X028175Y011453D02*
X027750Y011453D01*
X027855Y011334D02*
X028175Y011334D01*
X028175Y011216D02*
X027855Y011216D01*
X027855Y011097D02*
X028175Y011097D01*
X028175Y010978D02*
X027899Y010978D01*
X027905Y010860D02*
X028175Y010860D01*
X028175Y010741D02*
X027905Y010741D01*
X027905Y010623D02*
X028175Y010623D01*
X028132Y010504D02*
X027905Y010504D01*
X027905Y010386D02*
X028014Y010386D01*
X027975Y010267D02*
X027905Y010267D01*
X024415Y010165D02*
X024415Y014415D01*
X023915Y014915D01*
X022915Y014915D01*
X022165Y014165D01*
X020915Y014165D02*
X020915Y014518D01*
X022953Y016555D01*
X023915Y017758D02*
X023915Y014915D01*
X023415Y014165D02*
X023415Y013165D01*
X022915Y012665D01*
X022915Y010665D01*
X023165Y010415D01*
X023165Y008165D01*
X023290Y008040D01*
X022925Y008252D02*
X017155Y008252D01*
X017155Y008371D02*
X022925Y008371D01*
X022925Y008489D02*
X017155Y008489D01*
X017155Y008608D02*
X022925Y008608D01*
X022925Y008726D02*
X020598Y008726D01*
X020597Y008725D02*
X020855Y008983D01*
X020855Y009347D01*
X020597Y009605D01*
X020233Y009605D01*
X019975Y009347D01*
X019975Y008983D01*
X020233Y008725D01*
X020597Y008725D01*
X020717Y008845D02*
X022925Y008845D01*
X022925Y008963D02*
X020835Y008963D01*
X020855Y009082D02*
X022925Y009082D01*
X022925Y009200D02*
X020855Y009200D01*
X020855Y009319D02*
X021389Y009319D01*
X021483Y009225D02*
X021847Y009225D01*
X022105Y009483D01*
X022105Y009847D01*
X021905Y010047D01*
X021905Y010566D01*
X022065Y010725D01*
X022347Y010725D01*
X022605Y010983D01*
X022605Y011347D01*
X022347Y011605D01*
X021983Y011605D01*
X021725Y011347D01*
X021725Y011065D01*
X021462Y010801D01*
X021425Y010713D01*
X021425Y010617D01*
X021425Y010047D01*
X021225Y009847D01*
X021225Y009483D01*
X021483Y009225D01*
X021271Y009437D02*
X020765Y009437D01*
X020647Y009556D02*
X021225Y009556D01*
X021225Y009674D02*
X020105Y009674D01*
X020105Y009556D02*
X020184Y009556D01*
X020105Y009483D02*
X019847Y009225D01*
X019483Y009225D01*
X019225Y009483D01*
X019225Y009847D01*
X019425Y010047D01*
X019425Y010725D01*
X019233Y010725D01*
X018975Y010983D01*
X018975Y011347D01*
X019233Y011605D01*
X019597Y011605D01*
X019855Y011347D01*
X019855Y011065D01*
X019869Y011051D01*
X019905Y010963D01*
X019905Y010867D01*
X019905Y010047D01*
X020105Y009847D01*
X020105Y009483D01*
X020065Y009437D02*
X020060Y009437D01*
X019975Y009319D02*
X019941Y009319D01*
X019975Y009200D02*
X017155Y009200D01*
X017155Y009082D02*
X019975Y009082D01*
X019995Y008963D02*
X017155Y008963D01*
X017155Y008845D02*
X020113Y008845D01*
X020232Y008726D02*
X017155Y008726D01*
X017155Y008133D02*
X017359Y008133D01*
X017237Y008015D02*
X017155Y008015D01*
X017155Y007896D02*
X017166Y007896D01*
X017155Y007459D02*
X017199Y007354D01*
X017354Y007199D01*
X017556Y007115D01*
X017775Y007115D01*
X017977Y007199D01*
X018131Y007354D01*
X018175Y007459D01*
X018212Y007387D01*
X018261Y007320D01*
X018320Y007261D01*
X018387Y007212D01*
X018462Y007174D01*
X018541Y007148D01*
X018623Y007135D01*
X018646Y007135D01*
X018646Y007646D01*
X018684Y007646D01*
X018684Y007135D01*
X018707Y007135D01*
X018789Y007148D01*
X018869Y007174D01*
X018943Y007212D01*
X019010Y007261D01*
X019069Y007320D01*
X019118Y007387D01*
X019155Y007459D01*
X019199Y007354D01*
X019354Y007199D01*
X019556Y007115D01*
X019775Y007115D01*
X019977Y007199D01*
X019943Y007185D02*
X022346Y007185D01*
X022433Y007304D02*
X021926Y007304D01*
X022044Y007422D02*
X022314Y007422D01*
X022245Y007541D02*
X022105Y007541D01*
X022105Y007659D02*
X022645Y007659D01*
X022302Y007896D02*
X022056Y007896D01*
X022105Y007778D02*
X022245Y007778D01*
X022421Y008015D02*
X021938Y008015D01*
X022227Y007067D02*
X017353Y007067D01*
X017369Y007051D02*
X017301Y007119D01*
X017155Y007265D01*
X017155Y007459D01*
X017155Y007422D02*
X017171Y007422D01*
X017155Y007304D02*
X017249Y007304D01*
X017235Y007185D02*
X017387Y007185D01*
X017301Y007119D02*
X017301Y007119D01*
X017369Y007051D02*
X017405Y006963D01*
X017405Y006802D01*
X017414Y006798D01*
X017538Y006674D01*
X017605Y006513D01*
X017605Y005818D01*
X017538Y005656D01*
X017414Y005532D01*
X017405Y005528D01*
X017405Y005515D01*
X018801Y004119D01*
X018869Y004051D01*
X018905Y003963D01*
X018905Y003787D01*
X018916Y003798D01*
X018989Y003828D01*
X020804Y005644D01*
X020686Y005525D02*
X020345Y005525D01*
X020568Y005407D02*
X017513Y005407D01*
X017405Y005525D02*
X017932Y005525D01*
X017916Y005532D02*
X018078Y005465D01*
X018253Y005465D01*
X018414Y005532D01*
X018538Y005656D01*
X018605Y005818D01*
X018605Y006513D01*
X018538Y006674D01*
X018414Y006798D01*
X018253Y006865D01*
X018078Y006865D01*
X017916Y006798D01*
X017792Y006674D01*
X017725Y006513D01*
X017725Y005818D01*
X017792Y005656D01*
X017916Y005532D01*
X017804Y005644D02*
X017526Y005644D01*
X017582Y005763D02*
X017748Y005763D01*
X017725Y005881D02*
X017605Y005881D01*
X017605Y006000D02*
X017725Y006000D01*
X017725Y006118D02*
X017605Y006118D01*
X017605Y006237D02*
X017725Y006237D01*
X017725Y006355D02*
X017605Y006355D01*
X017605Y006474D02*
X017725Y006474D01*
X017758Y006592D02*
X017572Y006592D01*
X017502Y006711D02*
X017829Y006711D01*
X017991Y006829D02*
X017405Y006829D01*
X017405Y006948D02*
X022109Y006948D01*
X021165Y006165D02*
X021165Y005665D01*
X019165Y003665D01*
X019165Y003165D01*
X019026Y003866D02*
X018905Y003866D01*
X018896Y003984D02*
X019145Y003984D01*
X019264Y004103D02*
X018817Y004103D01*
X018698Y004221D02*
X019382Y004221D01*
X019501Y004340D02*
X018580Y004340D01*
X018461Y004459D02*
X019619Y004459D01*
X019738Y004577D02*
X018343Y004577D01*
X018224Y004696D02*
X019856Y004696D01*
X019975Y004814D02*
X018106Y004814D01*
X017987Y004933D02*
X020093Y004933D01*
X020212Y005051D02*
X017868Y005051D01*
X017750Y005170D02*
X020330Y005170D01*
X020449Y005288D02*
X017631Y005288D01*
X017165Y005415D02*
X017165Y006165D01*
X017165Y006915D01*
X016915Y007165D01*
X016915Y011165D01*
X016915Y012165D01*
X017415Y012665D01*
X018915Y012665D01*
X019415Y013165D01*
X019415Y014165D01*
X019855Y014179D02*
X020175Y014179D01*
X020175Y014061D02*
X019855Y014061D01*
X019814Y013942D02*
X020175Y013942D01*
X020175Y013824D02*
X019696Y013824D01*
X019655Y013705D02*
X020175Y013705D01*
X020175Y013586D02*
X019655Y013586D01*
X019655Y013468D02*
X020175Y013468D01*
X020175Y013349D02*
X019655Y013349D01*
X019655Y013231D02*
X020175Y013231D01*
X020175Y013112D02*
X019653Y013112D01*
X019583Y012994D02*
X020175Y012994D01*
X020175Y012875D02*
X019465Y012875D01*
X019346Y012757D02*
X020175Y012757D01*
X020175Y012638D02*
X019227Y012638D01*
X019109Y012520D02*
X020175Y012520D01*
X020175Y012401D02*
X017490Y012401D01*
X017372Y012282D02*
X020175Y012282D01*
X020175Y012164D02*
X017253Y012164D01*
X017155Y012045D02*
X020175Y012045D01*
X020175Y011927D02*
X017155Y011927D01*
X017155Y011808D02*
X020175Y011808D01*
X020175Y011690D02*
X017155Y011690D01*
X017155Y011571D02*
X017949Y011571D01*
X017983Y011605D02*
X017725Y011347D01*
X017725Y011065D01*
X017462Y010801D01*
X017425Y010713D01*
X017425Y010617D01*
X017425Y010047D01*
X017225Y009847D01*
X017225Y009483D01*
X017483Y009225D01*
X017847Y009225D01*
X018105Y009483D01*
X018105Y009847D01*
X017905Y010047D01*
X017905Y010566D01*
X018065Y010725D01*
X018347Y010725D01*
X018605Y010983D01*
X018605Y011347D01*
X018347Y011605D01*
X017983Y011605D01*
X017830Y011453D02*
X017250Y011453D01*
X017355Y011334D02*
X017725Y011334D01*
X017725Y011216D02*
X017355Y011216D01*
X017355Y011097D02*
X017725Y011097D01*
X017639Y010978D02*
X017351Y010978D01*
X017232Y010860D02*
X017521Y010860D01*
X017437Y010741D02*
X017155Y010741D01*
X017155Y010623D02*
X017425Y010623D01*
X017425Y010504D02*
X017155Y010504D01*
X017155Y010386D02*
X017425Y010386D01*
X017425Y010267D02*
X017155Y010267D01*
X017155Y010149D02*
X017425Y010149D01*
X017408Y010030D02*
X017155Y010030D01*
X017155Y009912D02*
X017289Y009912D01*
X017225Y009793D02*
X017155Y009793D01*
X017155Y009674D02*
X017225Y009674D01*
X017225Y009556D02*
X017155Y009556D01*
X017155Y009437D02*
X017271Y009437D01*
X017155Y009319D02*
X017389Y009319D01*
X017941Y009319D02*
X018418Y009319D01*
X018491Y009245D02*
X018645Y009245D01*
X018645Y009645D01*
X018685Y009645D01*
X018685Y009245D01*
X018839Y009245D01*
X019085Y009491D01*
X019085Y009645D01*
X018685Y009645D01*
X018685Y009685D01*
X019085Y009685D01*
X019085Y009839D01*
X018839Y010085D01*
X018685Y010085D01*
X018685Y009685D01*
X018645Y009685D01*
X018645Y009645D01*
X018245Y009645D01*
X018245Y009491D01*
X018491Y009245D01*
X018645Y009319D02*
X018685Y009319D01*
X018685Y009437D02*
X018645Y009437D01*
X018645Y009556D02*
X018685Y009556D01*
X018685Y009674D02*
X019225Y009674D01*
X019225Y009556D02*
X019085Y009556D01*
X019031Y009437D02*
X019271Y009437D01*
X019389Y009319D02*
X018913Y009319D01*
X018299Y009437D02*
X018060Y009437D01*
X018105Y009556D02*
X018245Y009556D01*
X018245Y009685D02*
X018645Y009685D01*
X018645Y010085D01*
X018491Y010085D01*
X018245Y009839D01*
X018245Y009685D01*
X018245Y009793D02*
X018105Y009793D01*
X018105Y009674D02*
X018645Y009674D01*
X018645Y009793D02*
X018685Y009793D01*
X018685Y009912D02*
X018645Y009912D01*
X018645Y010030D02*
X018685Y010030D01*
X018894Y010030D02*
X019408Y010030D01*
X019425Y010149D02*
X017905Y010149D01*
X017905Y010267D02*
X019425Y010267D01*
X019425Y010386D02*
X017905Y010386D01*
X017905Y010504D02*
X019425Y010504D01*
X019425Y010623D02*
X017962Y010623D01*
X017665Y010665D02*
X018165Y011165D01*
X018500Y011453D02*
X019080Y011453D01*
X018975Y011334D02*
X018605Y011334D01*
X018605Y011216D02*
X018975Y011216D01*
X018975Y011097D02*
X018605Y011097D01*
X018601Y010978D02*
X018980Y010978D01*
X019098Y010860D02*
X018482Y010860D01*
X018364Y010741D02*
X019217Y010741D01*
X019415Y011165D02*
X019665Y010915D01*
X019665Y009665D01*
X019922Y010030D02*
X019975Y010030D01*
X019975Y010149D02*
X019905Y010149D01*
X019905Y010267D02*
X019975Y010267D01*
X020014Y010386D02*
X019905Y010386D01*
X019905Y010504D02*
X020132Y010504D01*
X020175Y010623D02*
X019905Y010623D01*
X019905Y010741D02*
X020175Y010741D01*
X020175Y010860D02*
X019905Y010860D01*
X019899Y010978D02*
X020175Y010978D01*
X020175Y011097D02*
X019855Y011097D01*
X019855Y011216D02*
X020175Y011216D01*
X020175Y011334D02*
X019855Y011334D01*
X019750Y011453D02*
X020175Y011453D01*
X020175Y011571D02*
X019631Y011571D01*
X019199Y011571D02*
X018381Y011571D01*
X017665Y010665D02*
X017665Y009665D01*
X017922Y010030D02*
X018436Y010030D01*
X018318Y009912D02*
X018041Y009912D01*
X019013Y009912D02*
X019289Y009912D01*
X019225Y009793D02*
X019085Y009793D01*
X020041Y009912D02*
X020047Y009912D01*
X020105Y009793D02*
X020165Y009793D01*
X020415Y010165D02*
X020415Y014415D01*
X019915Y014915D01*
X018915Y014915D01*
X018165Y014165D01*
X017746Y015009D02*
X018670Y015009D01*
X018801Y015127D02*
X017864Y015127D01*
X017541Y015483D02*
X016155Y015483D01*
X016155Y015365D02*
X017423Y015365D01*
X017304Y015246D02*
X016155Y015246D01*
X016155Y015127D02*
X017186Y015127D01*
X017067Y015009D02*
X016161Y015009D01*
X016915Y014518D02*
X018953Y016555D01*
X018271Y016550D02*
X016155Y016550D01*
X016155Y016431D02*
X018271Y016431D01*
X018315Y016313D02*
X016155Y016313D01*
X016155Y016194D02*
X018253Y016194D01*
X018134Y016076D02*
X016155Y016076D01*
X016155Y015957D02*
X018016Y015957D01*
X017897Y015839D02*
X016155Y015839D01*
X016155Y015720D02*
X017778Y015720D01*
X017660Y015602D02*
X016155Y015602D01*
X016155Y016669D02*
X018271Y016669D01*
X018311Y016787D02*
X016155Y016787D01*
X016155Y016906D02*
X018360Y016906D01*
X018457Y017024D02*
X016155Y017024D01*
X016155Y017143D02*
X018590Y017143D01*
X014590Y017143D02*
X012155Y017143D01*
X012155Y017024D02*
X014457Y017024D01*
X014360Y016906D02*
X012155Y016906D01*
X012155Y016787D02*
X014311Y016787D01*
X014271Y016669D02*
X012155Y016669D01*
X010590Y017143D02*
X008155Y017143D01*
X008155Y017024D02*
X010457Y017024D01*
X010360Y016906D02*
X008155Y016906D01*
X008155Y016787D02*
X010311Y016787D01*
X010271Y016669D02*
X008155Y016669D01*
X007675Y016669D02*
X007635Y016669D01*
X007595Y016787D02*
X007675Y016787D01*
X007675Y016906D02*
X007545Y016906D01*
X007448Y017024D02*
X007675Y017024D01*
X007675Y017143D02*
X007316Y017143D01*
X007675Y017261D02*
X004780Y017261D01*
X004780Y017143D02*
X006590Y017143D01*
X006457Y017024D02*
X004780Y017024D01*
X004780Y016906D02*
X006360Y016906D01*
X006311Y016787D02*
X004780Y016787D01*
X004780Y016669D02*
X006271Y016669D01*
X006271Y016550D02*
X004780Y016550D01*
X004780Y016431D02*
X006271Y016431D01*
X006315Y016313D02*
X004780Y016313D01*
X004780Y016194D02*
X006253Y016194D01*
X006134Y016076D02*
X004780Y016076D01*
X004780Y015957D02*
X006016Y015957D01*
X005897Y015839D02*
X004780Y015839D01*
X004780Y015720D02*
X005778Y015720D01*
X005660Y015602D02*
X004780Y015602D01*
X004780Y015483D02*
X005541Y015483D01*
X005423Y015365D02*
X004780Y015365D01*
X004780Y015246D02*
X005304Y015246D01*
X005186Y015127D02*
X004780Y015127D01*
X004780Y015009D02*
X005067Y015009D01*
X005746Y015009D02*
X006920Y015009D01*
X007051Y015127D02*
X005864Y015127D01*
X004794Y014416D02*
X000845Y014416D01*
X000845Y014298D02*
X004725Y014298D01*
X004725Y014179D02*
X000845Y014179D01*
X000845Y014061D02*
X002289Y014061D01*
X002205Y013942D02*
X000845Y013942D01*
X000845Y013824D02*
X002175Y013824D01*
X002185Y013705D02*
X000845Y013705D01*
X000845Y013586D02*
X002240Y013586D01*
X002889Y013824D02*
X004885Y013824D01*
X004766Y013942D02*
X002860Y013942D01*
X002776Y014061D02*
X004725Y014061D01*
X004334Y014535D02*
X000845Y014535D01*
X000845Y014653D02*
X004300Y014653D01*
X004300Y014772D02*
X000845Y014772D01*
X000845Y014890D02*
X004300Y014890D01*
X004300Y015009D02*
X000845Y015009D01*
X000845Y015127D02*
X004300Y015127D01*
X004300Y015246D02*
X002752Y015246D01*
X002735Y015229D02*
X002835Y015329D01*
X002889Y015460D01*
X002889Y015602D01*
X004300Y015602D01*
X004300Y015720D02*
X002841Y015720D01*
X002835Y015734D02*
X002889Y015602D01*
X002889Y015483D02*
X004300Y015483D01*
X004300Y015365D02*
X002850Y015365D01*
X002735Y015229D02*
X002603Y015174D01*
X002461Y015174D01*
X002330Y015229D01*
X002230Y015329D01*
X002175Y015460D01*
X002175Y015602D01*
X000845Y015602D01*
X000845Y015720D02*
X002224Y015720D01*
X002230Y015734D02*
X002175Y015602D01*
X002175Y015483D02*
X000845Y015483D01*
X000845Y015365D02*
X002215Y015365D01*
X002313Y015246D02*
X000845Y015246D01*
X000845Y015839D02*
X002341Y015839D01*
X002330Y015834D02*
X002230Y015734D01*
X002330Y015834D02*
X002461Y015888D01*
X002603Y015888D01*
X002735Y015834D01*
X002835Y015734D01*
X002723Y015839D02*
X004300Y015839D01*
X004300Y015957D02*
X000845Y015957D01*
X000845Y016076D02*
X004300Y016076D01*
X004300Y016194D02*
X000845Y016194D01*
X000845Y016313D02*
X004300Y016313D01*
X004300Y016431D02*
X000845Y016431D01*
X000845Y016550D02*
X004300Y016550D01*
X004300Y016669D02*
X000845Y016669D01*
X000845Y016787D02*
X004300Y016787D01*
X004300Y016906D02*
X000845Y016906D01*
X000845Y017024D02*
X004300Y017024D01*
X004300Y017143D02*
X000845Y017143D01*
X000845Y017261D02*
X001822Y017261D01*
X001520Y017380D02*
X000845Y017380D01*
X000845Y017498D02*
X001336Y017498D01*
X001450Y017407D02*
X001450Y017407D01*
X001187Y017617D02*
X000845Y017617D01*
X000845Y017735D02*
X001058Y017735D01*
X001082Y017701D02*
X001082Y017701D01*
X001082Y017701D01*
X000977Y017854D02*
X000845Y017854D01*
X000845Y017973D02*
X000896Y017973D01*
X002627Y017261D02*
X004300Y017261D01*
X004300Y017380D02*
X002947Y017380D01*
X002817Y017305D02*
X002817Y017305D01*
X003153Y017498D02*
X004300Y017498D01*
X004300Y017617D02*
X003296Y017617D01*
X003406Y017735D02*
X004300Y017735D01*
X004300Y017854D02*
X003516Y017854D01*
X003545Y017885D02*
X003545Y017885D01*
X003587Y017973D02*
X004300Y017973D01*
X004300Y018091D02*
X003644Y018091D01*
X003702Y018210D02*
X004300Y018210D01*
X004300Y018328D02*
X003753Y018328D01*
X003750Y018310D02*
X003750Y018310D01*
X003770Y018447D02*
X004300Y018447D01*
X004300Y018565D02*
X003788Y018565D01*
X003806Y018684D02*
X004300Y018684D01*
X004300Y018802D02*
X003816Y018802D01*
X003798Y018921D02*
X004300Y018921D01*
X004300Y019039D02*
X003780Y019039D01*
X003762Y019158D02*
X004300Y019158D01*
X004300Y019276D02*
X003733Y019276D01*
X003676Y019395D02*
X004300Y019395D01*
X004300Y019514D02*
X003619Y019514D01*
X003561Y019632D02*
X004300Y019632D01*
X004316Y019751D02*
X003466Y019751D01*
X003356Y019869D02*
X004406Y019869D01*
X004675Y019869D02*
X005535Y019869D01*
X005509Y019751D02*
X004765Y019751D01*
X004780Y019632D02*
X006105Y019632D01*
X006770Y019395D02*
X006800Y019395D01*
X006810Y019514D02*
X009520Y019514D01*
X009561Y019395D02*
X007106Y019395D01*
X007361Y019276D02*
X009629Y019276D01*
X009739Y019158D02*
X007479Y019158D01*
X006822Y019751D02*
X009509Y019751D01*
X009535Y019869D02*
X006796Y019869D01*
X006743Y019988D02*
X009587Y019988D01*
X009670Y020106D02*
X006660Y020106D01*
X005670Y020106D02*
X003059Y020106D01*
X003225Y020011D02*
X003225Y020011D01*
X003246Y019988D02*
X005587Y019988D01*
X005520Y019514D02*
X004780Y019514D01*
X004780Y019395D02*
X005561Y019395D01*
X005629Y019276D02*
X004780Y019276D01*
X004780Y019158D02*
X005739Y019158D01*
X004780Y017854D02*
X007479Y017854D01*
X007598Y017735D02*
X004780Y017735D01*
X004780Y017617D02*
X007675Y017617D01*
X007675Y017498D02*
X004780Y017498D01*
X004780Y017380D02*
X007675Y017380D01*
X010822Y019751D02*
X013509Y019751D01*
X013535Y019869D02*
X010796Y019869D01*
X010743Y019988D02*
X013587Y019988D01*
X013670Y020106D02*
X010660Y020106D01*
X016915Y014518D02*
X016915Y014165D01*
X016415Y014415D02*
X016415Y010165D01*
X015975Y010149D02*
X015905Y010149D01*
X015905Y010047D02*
X015905Y010867D01*
X015905Y010963D01*
X015869Y011051D01*
X015855Y011065D01*
X015855Y011347D01*
X015597Y011605D01*
X015233Y011605D01*
X014975Y011347D01*
X014975Y010983D01*
X015233Y010725D01*
X015425Y010725D01*
X015425Y010047D01*
X015225Y009847D01*
X015225Y009483D01*
X015483Y009225D01*
X015847Y009225D01*
X016105Y009483D01*
X016105Y009847D01*
X015905Y010047D01*
X015922Y010030D02*
X015975Y010030D01*
X016041Y009912D02*
X016047Y009912D01*
X016105Y009793D02*
X016165Y009793D01*
X016105Y009674D02*
X016675Y009674D01*
X016675Y009556D02*
X016647Y009556D01*
X016665Y009793D02*
X016675Y009793D01*
X016184Y009556D02*
X016105Y009556D01*
X016065Y009437D02*
X016060Y009437D01*
X015975Y009319D02*
X015941Y009319D01*
X015389Y009319D02*
X014913Y009319D01*
X014839Y009245D02*
X015085Y009491D01*
X015085Y009645D01*
X014685Y009645D01*
X014685Y009245D01*
X014839Y009245D01*
X014685Y009319D02*
X014645Y009319D01*
X014645Y009245D02*
X014645Y009645D01*
X014685Y009645D01*
X014685Y009685D01*
X015085Y009685D01*
X015085Y009839D01*
X014839Y010085D01*
X014685Y010085D01*
X014685Y009685D01*
X014645Y009685D01*
X014645Y009645D01*
X014245Y009645D01*
X014245Y009491D01*
X014491Y009245D01*
X014645Y009245D01*
X014645Y009437D02*
X014685Y009437D01*
X014685Y009556D02*
X014645Y009556D01*
X014645Y009674D02*
X014105Y009674D01*
X014105Y009556D02*
X014245Y009556D01*
X014245Y009685D02*
X014645Y009685D01*
X014645Y010085D01*
X014491Y010085D01*
X014245Y009839D01*
X014245Y009685D01*
X014245Y009793D02*
X014105Y009793D01*
X014041Y009912D02*
X014318Y009912D01*
X014436Y010030D02*
X013922Y010030D01*
X013905Y010149D02*
X015425Y010149D01*
X015425Y010267D02*
X013905Y010267D01*
X013905Y010386D02*
X015425Y010386D01*
X015425Y010504D02*
X013905Y010504D01*
X013962Y010623D02*
X015425Y010623D01*
X015217Y010741D02*
X014364Y010741D01*
X014482Y010860D02*
X015098Y010860D01*
X014980Y010978D02*
X014601Y010978D01*
X014605Y011097D02*
X014975Y011097D01*
X014975Y011216D02*
X014605Y011216D01*
X014605Y011334D02*
X014975Y011334D01*
X015080Y011453D02*
X014500Y011453D01*
X014381Y011571D02*
X015199Y011571D01*
X015631Y011571D02*
X016175Y011571D01*
X016175Y011453D02*
X015750Y011453D01*
X015855Y011334D02*
X016175Y011334D01*
X016175Y011216D02*
X015855Y011216D01*
X015855Y011097D02*
X016175Y011097D01*
X016175Y010978D02*
X015899Y010978D01*
X015905Y010860D02*
X016175Y010860D01*
X016175Y010741D02*
X015905Y010741D01*
X015905Y010623D02*
X016175Y010623D01*
X016132Y010504D02*
X015905Y010504D01*
X015905Y010386D02*
X016014Y010386D01*
X015975Y010267D02*
X015905Y010267D01*
X015408Y010030D02*
X014894Y010030D01*
X015013Y009912D02*
X015289Y009912D01*
X015225Y009793D02*
X015085Y009793D01*
X015225Y009674D02*
X014685Y009674D01*
X014685Y009793D02*
X014645Y009793D01*
X014645Y009912D02*
X014685Y009912D01*
X014685Y010030D02*
X014645Y010030D01*
X015085Y009556D02*
X015225Y009556D01*
X015271Y009437D02*
X015031Y009437D01*
X015665Y009665D02*
X015665Y010915D01*
X015415Y011165D01*
X014165Y011165D02*
X013665Y010665D01*
X013665Y009665D01*
X014060Y009437D02*
X014299Y009437D01*
X014418Y009319D02*
X013941Y009319D01*
X013415Y008165D02*
X014665Y008165D01*
X016165Y006665D01*
X016165Y006165D01*
X016165Y005415D01*
X017665Y003915D01*
X017375Y003866D02*
X016905Y003866D01*
X016896Y003984D02*
X017257Y003984D01*
X017138Y004103D02*
X016817Y004103D01*
X016698Y004221D02*
X017019Y004221D01*
X016901Y004340D02*
X016580Y004340D01*
X016461Y004459D02*
X016782Y004459D01*
X016664Y004577D02*
X016343Y004577D01*
X016224Y004696D02*
X016545Y004696D01*
X016427Y004814D02*
X016106Y004814D01*
X015987Y004933D02*
X016308Y004933D01*
X016190Y005051D02*
X015868Y005051D01*
X015750Y005170D02*
X016071Y005170D01*
X015958Y005288D02*
X015631Y005288D01*
X015513Y005407D02*
X015925Y005407D01*
X015925Y005525D02*
X015405Y005525D01*
X015526Y005644D02*
X015804Y005644D01*
X015748Y005763D02*
X015582Y005763D01*
X015605Y005881D02*
X015725Y005881D01*
X015725Y006000D02*
X015605Y006000D01*
X015605Y006118D02*
X015725Y006118D01*
X015725Y006237D02*
X015605Y006237D01*
X015605Y006355D02*
X015725Y006355D01*
X015725Y006474D02*
X015605Y006474D01*
X015572Y006592D02*
X015758Y006592D01*
X015780Y006711D02*
X015502Y006711D01*
X015661Y006829D02*
X015340Y006829D01*
X015222Y006948D02*
X015543Y006948D01*
X015424Y007067D02*
X015103Y007067D01*
X014985Y007185D02*
X015306Y007185D01*
X015187Y007304D02*
X014866Y007304D01*
X014748Y007422D02*
X015069Y007422D01*
X014950Y007541D02*
X014629Y007541D01*
X014511Y007659D02*
X014832Y007659D01*
X014713Y007778D02*
X014392Y007778D01*
X014234Y007896D02*
X014595Y007896D01*
X014069Y007422D02*
X006498Y007422D01*
X006225Y004577D02*
X006105Y004577D01*
X006081Y004459D02*
X006250Y004459D01*
X006368Y004340D02*
X005962Y004340D01*
X006962Y004340D02*
X009368Y004340D01*
X009250Y004459D02*
X007081Y004459D01*
X007105Y004577D02*
X009225Y004577D01*
X011592Y002918D02*
X011685Y002918D01*
X011685Y002799D02*
X011645Y002799D01*
X011645Y002680D02*
X011685Y002680D01*
X011685Y002562D02*
X011645Y002562D01*
X011622Y002443D02*
X011685Y002443D01*
X011685Y002325D02*
X011504Y002325D01*
X011385Y002206D02*
X011770Y002206D01*
X011909Y002088D02*
X011421Y002088D01*
X011540Y001969D02*
X011790Y001969D01*
X011685Y001851D02*
X011645Y001851D01*
X011645Y001732D02*
X011685Y001732D01*
X011685Y001614D02*
X011645Y001614D01*
X011645Y001495D02*
X011685Y001495D01*
X011775Y001376D02*
X011555Y001376D01*
X011437Y001258D02*
X011894Y001258D01*
X011040Y000915D02*
X027165Y000915D01*
X027665Y001415D01*
X027665Y004665D01*
X026665Y004665D02*
X026665Y002415D01*
X027165Y001915D01*
X026689Y001732D02*
X026641Y001732D01*
X026585Y001614D02*
X026746Y001614D01*
X026864Y001495D02*
X026466Y001495D01*
X025864Y001495D02*
X025466Y001495D01*
X025585Y001614D02*
X025746Y001614D01*
X025689Y001732D02*
X025641Y001732D01*
X026165Y001915D02*
X025665Y002415D01*
X025665Y004665D01*
X025165Y005165D01*
X025165Y006165D01*
X025665Y006665D02*
X026415Y007415D01*
X025665Y006665D02*
X025665Y005165D01*
X026165Y004665D01*
X026165Y003165D01*
X025165Y003165D02*
X025165Y004665D01*
X024665Y005165D01*
X024914Y004577D02*
X023916Y004577D01*
X023798Y004459D02*
X024925Y004459D01*
X024925Y004340D02*
X023679Y004340D01*
X023561Y004221D02*
X024925Y004221D01*
X024925Y004103D02*
X023442Y004103D01*
X023324Y003984D02*
X024925Y003984D01*
X024925Y003866D02*
X023205Y003866D01*
X023465Y003747D02*
X023865Y003747D01*
X023773Y003629D02*
X023557Y003629D01*
X023605Y003510D02*
X023725Y003510D01*
X023725Y003392D02*
X023605Y003392D01*
X023605Y003273D02*
X023725Y003273D01*
X023725Y003155D02*
X023605Y003155D01*
X023605Y003036D02*
X023725Y003036D01*
X023725Y002918D02*
X023605Y002918D01*
X023597Y002799D02*
X023733Y002799D01*
X023782Y002680D02*
X023548Y002680D01*
X023449Y002562D02*
X023444Y002562D01*
X023311Y002443D02*
X023019Y002443D01*
X023079Y002325D02*
X023251Y002325D01*
X023225Y002206D02*
X023105Y002206D01*
X023105Y002088D02*
X023225Y002088D01*
X023225Y001969D02*
X023105Y001969D01*
X023105Y001851D02*
X023225Y001851D01*
X023225Y001732D02*
X023105Y001732D01*
X023105Y001614D02*
X023225Y001614D01*
X023255Y001495D02*
X023075Y001495D01*
X023009Y001376D02*
X023322Y001376D01*
X023474Y001258D02*
X022856Y001258D01*
X023856Y001258D02*
X027169Y001258D01*
X027287Y001376D02*
X024009Y001376D01*
X024075Y001495D02*
X024864Y001495D01*
X024746Y001614D02*
X024105Y001614D01*
X024105Y001732D02*
X024689Y001732D01*
X024655Y001851D02*
X024105Y001851D01*
X024105Y001969D02*
X024655Y001969D01*
X024685Y002088D02*
X024105Y002088D01*
X024105Y002206D02*
X024735Y002206D01*
X024854Y002325D02*
X024079Y002325D01*
X024019Y002443D02*
X025425Y002443D01*
X024886Y002562D02*
X024444Y002562D01*
X024548Y002680D02*
X024782Y002680D01*
X024733Y002799D02*
X024597Y002799D01*
X024605Y002918D02*
X024725Y002918D01*
X024725Y003036D02*
X024605Y003036D01*
X024605Y003155D02*
X024725Y003155D01*
X024725Y003273D02*
X024605Y003273D01*
X024605Y003392D02*
X024725Y003392D01*
X024725Y003510D02*
X024605Y003510D01*
X024557Y003629D02*
X024773Y003629D01*
X024865Y003747D02*
X024465Y003747D01*
X023886Y002562D02*
X023881Y002562D01*
X020311Y002443D02*
X020019Y002443D01*
X020079Y002325D02*
X020251Y002325D01*
X020225Y002206D02*
X020105Y002206D01*
X020105Y002088D02*
X020225Y002088D01*
X019886Y002562D02*
X019881Y002562D01*
X018665Y001915D02*
X018665Y003915D01*
X017165Y005415D01*
X018398Y005525D02*
X018932Y005525D01*
X018804Y005644D02*
X018526Y005644D01*
X018582Y005763D02*
X018748Y005763D01*
X018725Y005881D02*
X018605Y005881D01*
X018605Y006000D02*
X018725Y006000D01*
X018725Y006118D02*
X018605Y006118D01*
X018605Y006237D02*
X018725Y006237D01*
X018725Y006355D02*
X018605Y006355D01*
X018605Y006474D02*
X018725Y006474D01*
X018758Y006592D02*
X018572Y006592D01*
X018502Y006711D02*
X018829Y006711D01*
X018991Y006829D02*
X018339Y006829D01*
X018440Y007185D02*
X017943Y007185D01*
X018081Y007304D02*
X018277Y007304D01*
X018194Y007422D02*
X018160Y007422D01*
X018646Y007422D02*
X018684Y007422D01*
X018684Y007304D02*
X018646Y007304D01*
X018646Y007185D02*
X018684Y007185D01*
X018890Y007185D02*
X019387Y007185D01*
X019249Y007304D02*
X019053Y007304D01*
X019136Y007422D02*
X019171Y007422D01*
X018684Y007541D02*
X018646Y007541D01*
X018646Y007778D02*
X018684Y007778D01*
X018684Y007896D02*
X018646Y007896D01*
X018646Y008015D02*
X018684Y008015D01*
X018684Y008133D02*
X018646Y008133D01*
X018417Y008133D02*
X017972Y008133D01*
X018093Y008015D02*
X018265Y008015D01*
X018188Y007896D02*
X018165Y007896D01*
X018914Y008133D02*
X019359Y008133D01*
X019237Y008015D02*
X019065Y008015D01*
X019142Y007896D02*
X019166Y007896D01*
X021941Y009319D02*
X022418Y009319D01*
X022491Y009245D02*
X022645Y009245D01*
X022645Y009645D01*
X022245Y009645D01*
X022245Y009491D01*
X022491Y009245D01*
X022645Y009319D02*
X022685Y009319D01*
X022685Y009437D02*
X022645Y009437D01*
X022645Y009556D02*
X022685Y009556D01*
X022645Y009674D02*
X022105Y009674D01*
X022105Y009556D02*
X022245Y009556D01*
X022245Y009685D02*
X022645Y009685D01*
X022645Y010085D01*
X022491Y010085D01*
X022245Y009839D01*
X022245Y009685D01*
X022245Y009793D02*
X022105Y009793D01*
X022041Y009912D02*
X022318Y009912D01*
X022436Y010030D02*
X021922Y010030D01*
X021905Y010149D02*
X022925Y010149D01*
X022925Y010267D02*
X021905Y010267D01*
X021905Y010386D02*
X022855Y010386D01*
X022737Y010504D02*
X021905Y010504D01*
X021962Y010623D02*
X022675Y010623D01*
X022675Y010741D02*
X022364Y010741D01*
X022482Y010860D02*
X022675Y010860D01*
X022675Y010978D02*
X022601Y010978D01*
X022605Y011097D02*
X022675Y011097D01*
X022675Y011216D02*
X022605Y011216D01*
X022605Y011334D02*
X022675Y011334D01*
X022675Y011453D02*
X022500Y011453D01*
X022381Y011571D02*
X022675Y011571D01*
X022675Y011690D02*
X021155Y011690D01*
X021155Y011808D02*
X022675Y011808D01*
X022675Y011927D02*
X021155Y011927D01*
X021155Y012045D02*
X022675Y012045D01*
X022675Y012164D02*
X021253Y012164D01*
X021372Y012282D02*
X022675Y012282D01*
X022675Y012401D02*
X021490Y012401D01*
X021415Y012665D02*
X020915Y012165D01*
X020915Y011165D01*
X021250Y011453D02*
X021830Y011453D01*
X021725Y011334D02*
X021355Y011334D01*
X021355Y011216D02*
X021725Y011216D01*
X021725Y011097D02*
X021355Y011097D01*
X021351Y010978D02*
X021639Y010978D01*
X021521Y010860D02*
X021232Y010860D01*
X021114Y010741D02*
X021437Y010741D01*
X021425Y010623D02*
X020655Y010623D01*
X020655Y010741D02*
X020717Y010741D01*
X020698Y010504D02*
X021425Y010504D01*
X021425Y010386D02*
X020817Y010386D01*
X020855Y010267D02*
X021425Y010267D01*
X021425Y010149D02*
X020855Y010149D01*
X020855Y010030D02*
X021408Y010030D01*
X021289Y009912D02*
X020784Y009912D01*
X020665Y009793D02*
X021225Y009793D01*
X021665Y009665D02*
X021665Y010665D01*
X022165Y011165D01*
X021949Y011571D02*
X021155Y011571D01*
X021415Y012665D02*
X022915Y012665D01*
X023415Y011165D02*
X023665Y010915D01*
X023665Y009665D01*
X022925Y009319D02*
X022913Y009319D01*
X022299Y009437D02*
X022060Y009437D01*
X022645Y009793D02*
X022685Y009793D01*
X022685Y009912D02*
X022645Y009912D01*
X022645Y010030D02*
X022685Y010030D01*
X022894Y010030D02*
X022925Y010030D01*
X026165Y006165D02*
X026165Y005165D01*
X026665Y004665D01*
X034922Y005091D02*
X034922Y005091D01*
X035125Y004955D02*
X035005Y004835D01*
X035005Y004825D02*
X035005Y004705D01*
X035495Y004225D01*
X035488Y004225D02*
X035003Y004225D01*
X035125Y004955D02*
X035365Y004955D01*
X035495Y004825D01*
X018311Y002443D02*
X018019Y002443D01*
X018079Y002325D02*
X018251Y002325D01*
X018225Y002206D02*
X018105Y002206D01*
X018105Y002088D02*
X018225Y002088D01*
X018225Y001969D02*
X018105Y001969D01*
X018105Y001851D02*
X018225Y001851D01*
X018225Y001732D02*
X018105Y001732D01*
X018105Y001614D02*
X018225Y001614D01*
X018255Y001495D02*
X018075Y001495D01*
X018009Y001376D02*
X018322Y001376D01*
X018474Y001258D02*
X017856Y001258D01*
X016665Y001915D02*
X016665Y003915D01*
X014725Y003036D02*
X014605Y003036D01*
X014165Y003165D02*
X013665Y003165D01*
X013455Y003036D02*
X013134Y003036D01*
X013252Y002918D02*
X013725Y002918D01*
X013733Y002799D02*
X013371Y002799D01*
X013489Y002680D02*
X013782Y002680D01*
X013336Y003155D02*
X013015Y003155D01*
X012897Y003273D02*
X013218Y003273D01*
X013099Y003392D02*
X012745Y003392D01*
X012692Y002799D02*
X012645Y002799D01*
X012645Y002680D02*
X012811Y002680D01*
X012929Y002562D02*
X012645Y002562D01*
X012645Y002443D02*
X013048Y002443D01*
X013166Y002325D02*
X012645Y002325D01*
X012561Y002206D02*
X013292Y002206D01*
X010790Y001969D02*
X010512Y001969D01*
X010625Y001851D02*
X010685Y001851D01*
X010685Y001732D02*
X010625Y001732D01*
X010665Y001290D02*
X011040Y000915D01*
X017019Y002443D02*
X017311Y002443D01*
X017251Y002325D02*
X017079Y002325D01*
X017105Y002206D02*
X017225Y002206D01*
X017225Y002088D02*
X017105Y002088D01*
X014187Y007304D02*
X013866Y007304D01*
X011199Y011571D02*
X010381Y011571D01*
X019786Y014416D02*
X020075Y014416D01*
X020175Y014298D02*
X019855Y014298D01*
D17*
X004149Y006915D03*
X002181Y006915D03*
D18*
X017665Y007665D03*
X018665Y007665D03*
X019665Y007665D03*
D19*
X036665Y012665D03*
X036665Y016665D03*
D20*
X012165Y002665D03*
D21*
X011165Y002665D03*
X010165Y002665D03*
X010165Y001665D03*
X011165Y001665D03*
X012165Y001665D03*
D22*
X010665Y001290D03*
X023290Y008040D03*
X023665Y005165D03*
X037415Y007165D03*
X037915Y007665D03*
X038415Y008915D03*
D23*
X037165Y009915D02*
X036415Y009165D01*
X037165Y009915D02*
X037165Y012165D01*
X036665Y012665D01*
M02*
