%
M48
M72
T01C0.0197
T02C0.0315
T03C0.0320
T04C0.0354
T05C0.0394
T06C0.0400
T07C0.0440
T08C0.0669
T09C0.1102
%
T01
X10665Y1290
X23290Y8040
X23665Y5165
X37415Y7165
X37915Y7665
X38415Y8915
T02
X19665Y7665
X18665Y7665
X17665Y7665
T03
X16415Y9165
X15665Y9665
X16415Y10165
X17665Y9665
X18665Y9665
X19665Y9665
X20415Y10165
X21665Y9665
X22665Y9665
X23665Y9665
X24415Y10165
X25665Y9665
X26665Y9665
X27665Y9665
X28415Y10165
X29665Y9665
X30665Y9665
X31665Y9665
X32415Y10165
X33665Y9665
X34665Y9665
X35665Y9665
X36415Y10165
X36415Y9165
X35415Y11165
X34165Y11165
X32915Y11165
X31415Y11165
X30165Y11165
X28915Y11165
X27415Y11165
X26165Y11165
X24915Y11165
X23415Y11165
X22165Y11165
X20915Y11165
X19415Y11165
X18165Y11165
X16915Y11165
X15415Y11165
X14165Y11165
X12915Y11165
X11415Y11165
X10165Y11165
X8915Y11165
X7665Y11165
X6415Y11165
X5165Y11165
X3565Y10665
X2765Y10665
X5665Y9665
X6665Y9665
X7665Y9665
X8415Y10165
X9665Y9665
X10665Y9665
X11665Y9665
X12415Y10165
X13665Y9665
X14665Y9665
X12415Y9165
X8415Y9165
X8915Y6165
X9915Y6165
X9665Y4665
X10665Y4665
X12915Y6165
X14165Y6165
X15165Y6165
X16165Y6165
X17165Y6165
X18165Y6165
X19165Y6165
X20165Y6165
X21165Y6165
X22165Y6165
X23165Y6165
X24165Y6165
X25165Y6165
X26165Y6165
X27165Y6165
X28915Y5165
X28915Y4165
X30165Y3165
X31165Y3165
X33185Y3485
X34165Y3485
X35145Y3485
X35145Y5845
X34165Y5845
X33185Y5845
X31165Y6165
X30165Y6165
X28415Y9165
X24415Y9165
X22665Y7665
X21665Y7665
X20415Y9165
X20915Y14165
X22165Y14165
X23415Y14165
X24915Y14165
X26165Y14165
X27415Y14165
X28915Y14165
X30165Y14165
X31415Y14165
X32915Y14165
X34165Y14165
X35415Y14165
X32415Y9165
X27165Y3165
X26165Y3165
X25165Y3165
X24165Y3165
X23165Y3165
X22165Y3165
X21165Y3165
X20165Y3165
X19165Y3165
X18165Y3165
X17165Y3165
X16165Y3165
X15165Y3165
X14165Y3165
X14665Y1915
X15665Y1915
X16665Y1915
X17665Y1915
X18665Y1915
X19665Y1915
X20665Y1915
X21665Y1915
X22665Y1915
X23665Y1915
X8665Y2665
X5665Y2665
X5665Y4665
X6665Y4665
X5915Y6165
X6415Y14165
X5165Y14165
X7665Y14165
X8915Y14165
X10165Y14165
X11415Y14165
X12915Y14165
X14165Y14165
X15415Y14165
X16915Y14165
X18165Y14165
X19415Y14165
T04
X2532Y13799
X2532Y15531
T05
X2181Y6915
X4149Y6915
X25165Y1915
X26165Y1915
X27165Y1915
X28165Y1915
X29165Y1915
X30165Y1915
X39165Y8165
X39165Y9165
X39165Y10165
X39165Y11165
X39165Y12165
X39165Y13165
T06
X12165Y2665
X11165Y2665
X10165Y2665
X10165Y1665
X11165Y1665
X12165Y1665
T07
X36665Y12665
X36665Y16665
T08
X34953Y16555
X34953Y18720
X34165Y19665
X30953Y18720
X30165Y19665
X26953Y18720
X26165Y19665
X22953Y18720
X22165Y19665
X18953Y18720
X18165Y19665
X14953Y18720
X14165Y19665
X10953Y18720
X10165Y19665
X6953Y18720
X6165Y19665
X6953Y16555
X10953Y16555
X14953Y16555
X18953Y16555
X22953Y16555
X26953Y16555
X30953Y16555
T09
X2240Y2240
X2240Y18775
X38460Y18775
X38460Y2240
M30
